  0
SECTION
  2
HEADER
  9
$ACADVER
  1
AC1014
  9
$ACADMAINTVER
 70
     9
  9
$DWGCODEPAGE
  3
ANSI_1252
  9
$INSBASE
 10
0.0
 20
0.0
 30
0.0
  9
$EXTMIN
 10
0.0
 20
0.0
 30
0.0
  9
$EXTMAX
 10
96.062992126
 20
48.031496063
 30
0.0
  9
$LIMMIN
 10
0.0
 20
0.0
  9
$LIMMAX
 10
96.062992126
 20
48.031496063
  9
$ORTHOMODE
 70
     0
  9
$REGENMODE
 70
     1
  9
$FILLMODE
 70
     1
  9
$QTEXTMODE
 70
     0
  9
$MIRRTEXT
 70
     1
  9
$DRAGMODE
 70
     2
  9
$LTSCALE
 40
1.0
  9
$OSMODE
 70
    37
  9
$ATTMODE
 70
     1
  9
$TEXTSIZE
 40
0.1377952756
  9
$TRACEWID
 40
0.05
  9
$TEXTSTYLE
  7
STANDARD
  9
$CLAYER
  8
0
  9
$CELTYPE
  6
BYLAYER
  9
$CECOLOR
 62
   256
  9
$CELTSCALE
 40
1.0
  9
$DELOBJ
 70
     1
  9
$DISPSILH
 70
     0
  9
$DIMSCALE
 40
1.0
  9
$DIMASZ
 40
0.13
  9
$DIMEXO
 40
0.0393700787
  9
$DIMDLI
 40
0.38
  9
$DIMRND
 40
0.0
  9
$DIMDLE
 40
0.0
  9
$DIMEXE
 40
0.0393700787
  9
$DIMTP
 40
0.0
  9
$DIMTM
 40
0.0
  9
$DIMTXT
 40
0.1805555556
  9
$DIMCEN
 40
0.09
  9
$DIMTSZ
 40
0.0
  9
$DIMTOL
 70
     0
  9
$DIMLIM
 70
     0
  9
$DIMTIH
 70
     1
  9
$DIMTOH
 70
     1
  9
$DIMSE1
 70
     0
  9
$DIMSE2
 70
     0
  9
$DIMTAD
 70
     1
  9
$DIMZIN
 70
     0
  9
$DIMBLK
  1

  9
$DIMASO
 70
     1
  9
$DIMSHO
 70
     1
  9
$DIMPOST
  1

  9
$DIMAPOST
  1

  9
$DIMALT
 70
     0
  9
$DIMALTD
 70
     2
  9
$DIMALTF
 40
25.4
  9
$DIMLFAC
 40
1.0
  9
$DIMTOFL
 70
     0
  9
$DIMTVP
 40
0.0
  9
$DIMTIX
 70
     0
  9
$DIMSOXD
 70
     0
  9
$DIMSAH
 70
     0
  9
$DIMBLK1
  1

  9
$DIMBLK2
  1

  9
$DIMSTYLE
  2
STANDARD
  9
$DIMCLRD
 70
     0
  9
$DIMCLRE
 70
     0
  9
$DIMCLRT
 70
     0
  9
$DIMTFAC
 40
1.0
  9
$DIMGAP
 40
0.06
  9
$DIMJUST
 70
     0
  9
$DIMSD1
 70
     0
  9
$DIMSD2
 70
     0
  9
$DIMTOLJ
 70
     1
  9
$DIMTZIN
 70
     0
  9
$DIMALTZ
 70
     0
  9
$DIMALTTZ
 70
     0
  9
$DIMFIT
 70
     3
  9
$DIMUPT
 70
     0
  9
$DIMUNIT
 70
     2
  9
$DIMDEC
 70
     2
  9
$DIMTDEC
 70
     2
  9
$DIMALTU
 70
     2
  9
$DIMALTTD
 70
     2
  9
$DIMTXSTY
  7
STANDARD
  9
$DIMAUNIT
 70
     0
  9
$LUNITS
 70
     2
  9
$LUPREC
 70
     2
  9
$SKETCHINC
 40
0.1
  9
$FILLETRAD
 40
0.5
  9
$AUNITS
 70
     0
  9
$AUPREC
 70
     2
  9
$MENU
  1
.
  9
$ELEVATION
 40
0.0
  9
$PELEVATION
 40
0.0
  9
$THICKNESS
 40
0.0
  9
$LIMCHECK
 70
     0
  9
$CHAMFERA
 40
0.0
  9
$CHAMFERB
 40
0.0
  9
$CHAMFERC
 40
0.0
  9
$CHAMFERD
 40
0.0
  9
$SKPOLY
 70
     0
  9
$TDCREATE
 40
2457722.356898982
  9
$TDUPDATE
 40
2457722.356899363
  9
$TDINDWG
 40
0.0000000116
  9
$TDUSRTIMER
 40
0.0000000116
  9
$USRTIMER
 70
     1
  9
$ANGBASE
 50
0.0
  9
$ANGDIR
 70
     0
  9
$PDMODE
 70
     0
  9
$PDSIZE
 40
-1.0
  9
$PLINEWID
 40
0.0
  9
$COORDS
 70
     1
  9
$SPLFRAME
 70
     0
  9
$SPLINETYPE
 70
     6
  9
$SPLINESEGS
 70
     8
  9
$ATTDIA
 70
     0
  9
$ATTREQ
 70
     1
  9
$HANDLING
 70
     1
  9
$HANDSEED
  5
395
  9
$SURFTAB1
 70
     6
  9
$SURFTAB2
 70
     6
  9
$SURFTYPE
 70
     6
  9
$SURFU
 70
     6
  9
$SURFV
 70
     6
  9
$UCSNAME
  2

  9
$UCSORG
 10
0.0
 20
0.0
 30
0.0
  9
$UCSXDIR
 10
1.0
 20
0.0
 30
0.0
  9
$UCSYDIR
 10
0.0
 20
1.0
 30
0.0
  9
$PUCSNAME
  2

  9
$PUCSORG
 10
0.0
 20
0.0
 30
0.0
  9
$PUCSXDIR
 10
1.0
 20
0.0
 30
0.0
  9
$PUCSYDIR
 10
0.0
 20
1.0
 30
0.0
  9
$USERI1
 70
     0
  9
$USERI2
 70
     0
  9
$USERI3
 70
     0
  9
$USERI4
 70
     0
  9
$USERI5
 70
     0
  9
$USERR1
 40
0.0
  9
$USERR2
 40
0.0
  9
$USERR3
 40
0.0
  9
$USERR4
 40
0.0
  9
$USERR5
 40
0.0
  9
$WORLDVIEW
 70
     1
  9
$SHADEDGE
 70
     3
  9
$SHADEDIF
 70
    70
  9
$TILEMODE
 70
     1
  9
$MAXACTVP
 70
    64
  9
$PINSBASE
 10
0.0
 20
0.0
 30
0.0
  9
$PLIMCHECK
 70
     0
  9
$PEXTMIN
 10
1.0000000000E+20
 20
1.0000000000E+20
 30
1.0000000000E+20
  9
$PEXTMAX
 10
-1.0000000000E+20
 20
-1.0000000000E+20
 30
-1.0000000000E+20
  9
$PLIMMIN
 10
0.0
 20
0.0
  9
$PLIMMAX
 10
12.0
 20
9.0
  9
$UNITMODE
 70
     0
  9
$VISRETAIN
 70
     1
  9
$PLINEGEN
 70
     0
  9
$PSLTSCALE
 70
     1
  9
$TREEDEPTH
 70
  3020
  9
$PICKSTYLE
 70
     1
  9
$CMLSTYLE
  2
STANDARD
  9
$CMLJUST
 70
     0
  9
$CMLSCALE
 40
1.0
  9
$PROXYGRAPHICS
 70
     1
  9
$MEASUREMENT
 70
     0
  0
ENDSEC
  0
SECTION
  2
CLASSES
  0
CLASS
  1
ACDBDICTIONARYWDFLT
  2
AcDbDictionaryWithDefault
  3
ObjectDBX Classes
 90
        0
280
     0
281
     0
  0
CLASS
  1
VISUALSTYLE
  2
AcDbVisualStyle
  3
ObjectDBX Classes
 90
     4095
280
     0
281
     0
  0
CLASS
  1
MATERIAL
  2
AcDbMaterial
  3
ObjectDBX Classes
 90
     1153
280
     0
281
     0
  0
CLASS
  1
SCALE
  2
AcDbScale
  3
ObjectDBX Classes
 90
     1153
280
     0
281
     0
  0
CLASS
  1
TABLESTYLE
  2
AcDbTableStyle
  3
ObjectDBX Classes
 90
     4095
280
     0
281
     0
  0
CLASS
  1
MLEADERSTYLE
  2
AcDbMLeaderStyle
  3
ACDB_MLEADERSTYLE_CLASS
 90
     4095
280
     0
281
     0
  0
CLASS
  1
SUN
  2
AcDbSun
  3
SCENEOE
 90
     1153
280
     0
281
     0
  0
CLASS
  1
XRECORD
  2
AcDbXrecord
  3
ObjectDBX Classes
 90
        0
280
     0
281
     0
  0
CLASS
  1
LWPOLYLINE
  2
AcDbPolyline
  3
ObjectDBX Classes
 90
        0
280
     0
281
     1
  0
CLASS
  1
HATCH
  2
AcDbHatch
  3
ObjectDBX Classes
 90
        0
280
     0
281
     1
  0
ENDSEC
  0
SECTION
  2
TABLES
  0
TABLE
  2
VPORT
  5
8
330
0
100
AcDbSymbolTable
 70
     1
  0
VPORT
  5
29
330
8
100
AcDbSymbolTableRecord
100
AcDbViewportTableRecord
  2
*ACTIVE
 70
     0
 10
0.0
 20
0.0
 11
1.0
 21
1.0
 12
48.031496063
 22
24.0157480315
 13
0.0
 23
0.0
 14
0.5
 24
0.5
 15
0.5
 25
0.5
 16
0.0
 26
0.0
 36
1.0
 17
0.0
 27
0.0
 37
0.0
 40
48.031496063
 41
2.0
 42
50.0
 43
0.0
 44
0.0
 50
0.0
 51
0.0
 71
     0
 72
  2000
 73
     1
 74
     3
 75
     0
 76
     0
 77
     0
 78
     0
  0
ENDTAB
  0
TABLE
  2
LTYPE
  5
5
330
0
100
AcDbSymbolTable
 70
     6
  0
LTYPE
  5
14
330
5
100
AcDbSymbolTableRecord
100
AcDbLinetypeTableRecord
  2
BYBLOCK
 70
     0
  3

 72
    65
 73
     0
 40
0.0
  0
LTYPE
  5
15
330
5
100
AcDbSymbolTableRecord
100
AcDbLinetypeTableRecord
  2
BYLAYER
 70
     0
  3

 72
    65
 73
     0
 40
0.0
  0
LTYPE
  5
16
330
5
100
AcDbSymbolTableRecord
100
AcDbLinetypeTableRecord
  2
CONTINUOUS
 70
     0
  3
Solid line
 72
    65
 73
     0
 40
0.0
  0
LTYPE
  5
6E
330
5
100
AcDbSymbolTableRecord
100
AcDbLinetypeTableRecord
  2
HIDDEN
 70
     0
  3
Hidden __ __ __ __ __ __ __ __ __ __ __ __ __ __
 72
    65
 73
     2
 40
0.075
 49
0.05
 74
     0
 49
-0.025
 74
     0
  0
LTYPE
  5
6F
330
5
100
AcDbSymbolTableRecord
100
AcDbLinetypeTableRecord
  2
PHANTOM
 70
     0
  3
Phantom ______  __  __  ______  __  __  ______
 72
    65
 73
     6
 40
0.5
 49
0.25
 74
     0
 49
-0.05
 74
     0
 49
0.05
 74
     0
 49
-0.05
 74
     0
 49
0.05
 74
     0
 49
-0.05
 74
     0
  0
LTYPE
  5
70
330
5
100
AcDbSymbolTableRecord
100
AcDbLinetypeTableRecord
  2
CENTER
 70
     0
  3
Center ____ _ ____ _ ____ _ ____ _ ____ _ ____
 72
    65
 73
     4
 40
0.4
 49
0.25
 74
     0
 49
-0.05
 74
     0
 49
0.05
 74
     0
 49
-0.05
 74
     0
  0
LTYPE
  5
71
330
5
100
AcDbSymbolTableRecord
100
AcDbLinetypeTableRecord
  2
CENTERX2
 70
     0
  3
Center (2x) ________  __  ________  __  _____
 72
    65
 73
     4
 40
0.8
 49
0.5
 74
     0
 49
-0.1
 74
     0
 49
0.1
 74
     0
 49
-0.1
 74
     0
  0
LTYPE
  5
72
330
5
100
AcDbSymbolTableRecord
100
AcDbLinetypeTableRecord
  2
DOT2
 70
     0
  3
Dot (.5x) ........................................
 72
    65
 73
     2
 40
0.025
 49
0.0
 74
     0
 49
-0.025
 74
     0
  0
ENDTAB
  0
TABLE
  2
LAYER
  5
2
330
0
100
AcDbSymbolTable
 70
     6
  0
LAYER
  5
10
330
2
100
AcDbSymbolTableRecord
100
AcDbLayerTableRecord
  2
0
 70
     0
 62
     7
  6
CONTINUOUS
  0
LAYER
  5
73
330
2
100
AcDbSymbolTableRecord
100
AcDbLayerTableRecord
  2
BOX_STOCK
 70
     0
 62
     1
  6
CONTINUOUS
  0
LAYER
  5
74
330
2
100
AcDbSymbolTableRecord
100
AcDbLayerTableRecord
  2
HOLES
 70
     0
 62
    30
  6
CONTINUOUS
  0
LAYER
  5
75
330
2
100
AcDbSymbolTableRecord
100
AcDbLayerTableRecord
  2
POCKETS
 70
     0
 62
   171
  6
CONTINUOUS
  0
LAYER
  5
76
330
2
100
AcDbSymbolTableRecord
100
AcDbLayerTableRecord
  2
PROFILES_OUTSIDE
 70
     0
 62
     6
  6
CONTINUOUS
  0
LAYER
  5
77
330
2
100
AcDbSymbolTableRecord
100
AcDbLayerTableRecord
  2
PROFILES_INSIDE
 70
     0
 62
     4
  6
CONTINUOUS
  0
ENDTAB
  0
TABLE
  2
STYLE
  5
3
330
0
100
AcDbSymbolTable
 70
     1
  0
STYLE
  5
11
330
3
100
AcDbSymbolTableRecord
100
AcDbTextStyleTableRecord
  2
STANDARD
 70
     0
 40
0.0
 41
1.0
 50
0.0
 71
     0
 42
0.1377952756
  3
txt
  4

  0
ENDTAB
  0
TABLE
  2
VIEW
  5
6
330
0
100
AcDbSymbolTable
 70
     0
  0
ENDTAB
  0
TABLE
  2
UCS
  5
7
330
0
100
AcDbSymbolTable
 70
     0
  0
ENDTAB
  0
TABLE
  2
APPID
  5
9
330
0
100
AcDbSymbolTable
 70
     1
  0
APPID
  5
12
330
9
100
AcDbSymbolTableRecord
100
AcDbRegAppTableRecord
  2
ACAD
 70
     0
  0
ENDTAB
  0
TABLE
  2
DIMSTYLE
  5
A
330
0
100
AcDbSymbolTable
 70
     1
  0
DIMSTYLE
105
27
330
A
100
AcDbSymbolTableRecord
100
AcDbDimStyleTableRecord
  2
STANDARD
 70
     0
  3

  4

  5

  6

  7

 40
1.0
 41
0.18
 42
0.0625
 43
0.38
 44
0.18
 45
0.0
 46
0.0
 47
0.0
 48
0.0
140
0.18
141
0.09
142
0.0
143
25.4
144
1.0
145
0.0
146
1.0
147
0.09
 71
     0
 72
     0
 73
     1
 74
     1
 75
     0
 76
     0
 77
     0
 78
     0
170
     0
171
     2
172
     0
173
     0
174
     0
175
     0
176
     0
177
     0
178
     0
270
     2
271
     4
272
     4
273
     2
274
     2
340
11
275
     0
280
     0
281
     0
282
     0
283
     1
284
     0
285
     0
286
     0
287
     3
288
     0
  0
ENDTAB
  0
TABLE
  2
BLOCK_RECORD
  5
1
330
0
100
AcDbSymbolTable
 70
     1
  0
BLOCK_RECORD
  5
1F
330
1
100
AcDbSymbolTableRecord
100
AcDbBlockTableRecord
  2
*MODEL_SPACE
  0
BLOCK_RECORD
  5
1B
330
1
100
AcDbSymbolTableRecord
100
AcDbBlockTableRecord
  2
*PAPER_SPACE
  0
BLOCK_RECORD
  5
23
330
1
100
AcDbSymbolTableRecord
100
AcDbBlockTableRecord
  2
*PAPER_SPACE0
  0
ENDTAB
  0
ENDSEC
  0
SECTION
  2
BLOCKS
  0
BLOCK
  5
20
330
1F
100
AcDbEntity
  8
0
100
AcDbBlockBegin
  2
*MODEL_SPACE
 70
     0
 10
0.0
 20
0.0
 30
0.0
  3
*MODEL_SPACE
  1

  0
ENDBLK
  5
21
330
1F
100
AcDbEntity
  8
0
100
AcDbBlockEnd
  0
BLOCK
  5
1C
330
1B
100
AcDbEntity
 67
     1
  8
0
100
AcDbBlockBegin
  2
*PAPER_SPACE
 70
     0
 10
0.0
 20
0.0
 30
0.0
  3
*PAPER_SPACE
  1

  0
ENDBLK
  5
1D
330
1B
100
AcDbEntity
 67
     1
  8
0
100
AcDbBlockEnd
  0
BLOCK
  5
24
330
23
100
AcDbEntity
  8
0
100
AcDbBlockBegin
  2
*PAPER_SPACE0
 70
     0
 10
0.0
 20
0.0
 30
0.0
  3
*PAPER_SPACE0
  1

  0
ENDBLK
  5
25
330
23
100
AcDbEntity
  8
0
100
AcDbBlockEnd
  0
ENDSEC
  0
SECTION
  2
ENTITIES
  0
ARC
  5
78
330
1F
100
AcDbEntity
  8
0
  6
CONTINUOUS
 62
     7
100
AcDbCircle
 10
62.5459952783
 20
1.9320181997
 30
0.0
 40
0.2362204724409449
100
AcDbArc
 50
90.0
 51
180.0
  0
LINE
  5
79
330
1F
100
AcDbEntity
  8
0
  6
CONTINUOUS
 62
     7
100
AcDbLine
 10
65.0243410907
 20
2.1682386856
 30
0.0
 11
62.5459940408
 21
2.1682386856
 31
0.0
  0
ARC
  5
7A
330
1F
100
AcDbEntity
  8
0
  6
CONTINUOUS
 62
     7
100
AcDbCircle
 10
65.024341735
 20
2.640679617
 30
0.0
 40
0.472440944881896
100
AcDbArc
 50
270.0
 51
0.0
  0
LINE
  5
7B
330
1F
100
AcDbEntity
  8
0
  6
CONTINUOUS
 62
     7
100
AcDbLine
 10
65.4967806464
 20
7.4135407047
 30
0.0
 11
65.4967806464
 21
2.6406797079
 31
0.0
  0
ARC
  5
7C
330
1F
100
AcDbEntity
  8
0
  6
CONTINUOUS
 62
     7
100
AcDbCircle
 10
66.2467826799
 20
7.4135405094
 30
0.0
 40
0.75
100
AcDbArc
 50
120.0
 51
180.0
  0
ARC
  5
7D
330
1F
100
AcDbEntity
  8
0
  6
CONTINUOUS
 62
     7
100
AcDbCircle
 10
65.4967826799
 20
8.7125786151
 30
0.0
 40
0.75
100
AcDbArc
 50
300.0
 51
0.0
  0
LINE
  5
7E
330
1F
100
AcDbEntity
  8
0
  6
CONTINUOUS
 62
     7
100
AcDbLine
 10
66.246780729
 20
11.8716941638
 30
0.0
 11
66.246780729
 21
8.7125787648
 31
0.0
  0
ARC
  5
7F
330
1F
100
AcDbEntity
  8
0
  6
CONTINUOUS
 62
     7
100
AcDbCircle
 10
65.4967826799
 20
11.8716940048
 30
0.0
 40
0.75
100
AcDbArc
 50
0.0
 51
60.0
  0
ARC
  5
80
330
1F
100
AcDbEntity
  8
0
  6
CONTINUOUS
 62
     7
100
AcDbCircle
 10
66.2467826799
 20
13.1707321105
 30
0.0
 40
0.7499999999999915
100
AcDbArc
 50
180.0
 51
240.0
  0
LINE
  5
81
330
1F
100
AcDbEntity
  8
0
  6
CONTINUOUS
 62
     7
100
AcDbLine
 10
65.4967806464
 20
17.943593514
 30
0.0
 11
65.4967806464
 21
13.1707316372
 31
0.0
  0
ARC
  5
82
330
1F
100
AcDbEntity
  8
0
  6
CONTINUOUS
 62
     7
100
AcDbCircle
 10
65.024341735
 20
17.9435930029
 30
0.0
 40
0.472440944881896
100
AcDbArc
 50
0.0
 51
90.0
  0
LINE
  5
83
330
1F
100
AcDbEntity
  8
0
  6
CONTINUOUS
 62
     7
100
AcDbLine
 10
62.5459940408
 20
18.416034243
 30
0.0
 11
65.0243410907
 21
18.416034243
 31
0.0
  0
ARC
  5
84
330
1F
100
AcDbEntity
  8
0
  6
CONTINUOUS
 62
     7
100
AcDbCircle
 10
62.5459952783
 20
18.6522544202
 30
0.0
 40
0.2362204724409551
100
AcDbArc
 50
180.0
 51
270.0
  0
LINE
  5
85
330
1F
100
AcDbEntity
  8
0
  6
CONTINUOUS
 62
     7
100
AcDbLine
 10
62.3097766096
 20
19.1148529435
 30
0.0
 11
62.3097766096
 21
18.6522540208
 31
0.0
  0
ARC
  5
86
330
1F
100
AcDbEntity
  8
0
  6
CONTINUOUS
 62
     7
100
AcDbCircle
 10
62.3491448846
 20
19.1148528454
 30
0.0
 40
0.0393700787401627
100
AcDbArc
 50
90.0
 51
180.0
  0
LINE
  5
87
330
1F
100
AcDbEntity
  8
0
  6
CONTINUOUS
 62
     7
100
AcDbLine
 10
62.3491438348
 20
19.1542225154
 30
0.0
 11
62.7648932721
 21
19.1542225154
 31
0.0
  0
LINE
  5
88
330
1F
100
AcDbEntity
  8
0
  6
CONTINUOUS
 62
     7
100
AcDbLine
 10
62.7648932721
 20
19.1542225154
 30
0.0
 11
62.7782831974
 21
18.9450149055
 31
0.0
  0
ARC
  5
89
330
1F
100
AcDbEntity
  8
0
  6
CONTINUOUS
 62
     7
100
AcDbCircle
 10
62.8175718889
 20
18.9475300107
 30
0.0
 40
0.0393700787401592
100
AcDbArc
 50
183.6619355755
 51
270.0
  0
LINE
  5
8A
330
1F
100
AcDbEntity
  8
0
  6
CONTINUOUS
 62
     7
100
AcDbLine
 10
62.8175706369
 20
18.9081597579
 30
0.0
 11
63.1577160408
 21
18.9081597579
 31
0.0
  0
ARC
  5
8B
330
1F
100
AcDbEntity
  8
0
  6
CONTINUOUS
 62
     7
100
AcDbCircle
 10
63.1577166018
 20
18.8687898533
 30
0.0
 40
0.0393700787401576
100
AcDbArc
 50
65.1121079736
 51
90.0
  0
ARC
  5
8C
330
1F
100
AcDbEntity
  8
0
  6
CONTINUOUS
 62
     7
100
AcDbCircle
 10
63.2599452728
 20
19.0891445942
 30
0.0
 40
0.2035433070866172
100
AcDbArc
 50
245.1121079736
 51
72.3995332141
  0
ARC
  5
8D
330
1F
100
AcDbEntity
  8
0
  6
CONTINUOUS
 62
     7
100
AcDbCircle
 10
63.3333968531
 20
19.3206867682
 30
0.0
 40
0.0393700787401569
100
AcDbArc
 50
180.0
 51
252.3995332141
  0
LINE
  5
8E
330
1F
100
AcDbEntity
  8
0
  6
CONTINUOUS
 62
     7
100
AcDbLine
 10
63.2940276395
 20
19.4003650586
 30
0.0
 11
63.2940276395
 21
19.320687259
 31
0.0
  0
LINE
  5
8F
330
1F
100
AcDbEntity
  8
0
  6
CONTINUOUS
 62
     7
100
AcDbLine
 10
65.7743411733
 20
19.4003650586
 30
0.0
 11
63.2940276395
 21
19.4003650586
 31
0.0
  0
ARC
  5
90
330
1F
100
AcDbEntity
  8
0
  6
CONTINUOUS
 62
     7
100
AcDbCircle
 10
65.774341735
 20
18.9279237115
 30
0.0
 40
0.472440944881896
100
AcDbArc
 50
0.0
 51
90.0
  0
LINE
  5
91
330
1F
100
AcDbEntity
  8
0
  6
CONTINUOUS
 62
     7
100
AcDbLine
 10
66.246780729
 20
13.6431735395
 30
0.0
 11
66.246780729
 21
18.9279231563
 31
0.0
  0
ARC
  5
92
330
1F
100
AcDbEntity
  8
0
  6
CONTINUOUS
 62
     7
100
AcDbCircle
 10
66.7192236248
 20
13.6431730554
 30
0.0
 40
0.4724409448818889
100
AcDbArc
 50
180.0
 51
270.0
  0
LINE
  5
93
330
1F
100
AcDbEntity
  8
0
  6
CONTINUOUS
 62
     7
100
AcDbLine
 10
67.7428479263
 20
13.1707316372
 30
0.0
 11
66.719224978
 21
13.1707316372
 31
0.0
  0
ARC
  5
94
330
1F
100
AcDbEntity
  8
0
  6
CONTINUOUS
 62
     7
100
AcDbCircle
 10
67.742845672
 20
13.6431730554
 30
0.0
 40
0.472440944881896
100
AcDbArc
 50
270.0
 51
0.0
  0
LINE
  5
95
330
1F
100
AcDbEntity
  8
0
  6
CONTINUOUS
 62
     7
100
AcDbLine
 10
68.215287482
 20
18.9279231563
 30
0.0
 11
68.215287482
 21
13.6431735395
 31
0.0
  0
ARC
  5
96
330
1F
100
AcDbEntity
  8
0
  6
CONTINUOUS
 62
     7
100
AcDbCircle
 10
68.6877275618
 20
18.9279237115
 30
0.0
 40
0.4724409448818889
100
AcDbArc
 50
90.0
 51
180.0
  0
LINE
  5
97
330
1F
100
AcDbEntity
  8
0
  6
CONTINUOUS
 62
     7
100
AcDbLine
 10
71.1680405715
 20
19.4003650586
 30
0.0
 11
68.6877270377
 21
19.4003650586
 31
0.0
  0
LINE
  5
98
330
1F
100
AcDbEntity
  8
0
  6
CONTINUOUS
 62
     7
100
AcDbLine
 10
71.1680405715
 20
19.320687259
 30
0.0
 11
71.1680405715
 21
19.4003650586
 31
0.0
  0
ARC
  5
99
330
1F
100
AcDbEntity
  8
0
  6
CONTINUOUS
 62
     7
100
AcDbCircle
 10
71.1286724437
 20
19.3206867682
 30
0.0
 40
0.0393700787401627
100
AcDbArc
 50
287.6004667859
 51
0.0
  0
ARC
  5
9A
330
1F
100
AcDbEntity
  8
0
  6
CONTINUOUS
 62
     7
100
AcDbCircle
 10
71.202124024
 20
19.0891445942
 30
0.0
 40
0.2035433070866173
100
AcDbArc
 50
107.6004667859
 51
294.8878920264
  0
ARC
  5
9B
330
1F
100
AcDbEntity
  8
0
  6
CONTINUOUS
 62
     7
100
AcDbCircle
 10
71.304352695
 20
18.8687898533
 30
0.0
 40
0.0393700787401556
100
AcDbArc
 50
90.0
 51
114.8878920264
  0
LINE
  5
9C
330
1F
100
AcDbEntity
  8
0
  6
CONTINUOUS
 62
     7
100
AcDbLine
 10
71.3043521702
 20
18.9081597579
 30
0.0
 11
71.6444975741
 21
18.9081597579
 31
0.0
  0
ARC
  5
9D
330
1F
100
AcDbEntity
  8
0
  6
CONTINUOUS
 62
     7
100
AcDbCircle
 10
71.644497408
 20
18.9475300107
 30
0.0
 40
0.039370078740159
100
AcDbArc
 50
270.0
 51
356.3380644245
  0
LINE
  5
9E
330
1F
100
AcDbEntity
  8
0
  6
CONTINUOUS
 62
     7
100
AcDbLine
 10
71.6837850136
 20
18.9450149055
 30
0.0
 11
71.6971749389
 21
19.1542225154
 31
0.0
  0
LINE
  5
9F
330
1F
100
AcDbEntity
  8
0
  6
CONTINUOUS
 62
     7
100
AcDbLine
 10
71.6971749389
 20
19.1542225154
 30
0.0
 11
72.1129243761
 21
19.1542225154
 31
0.0
  0
ARC
  5
A0
330
1F
100
AcDbEntity
  8
0
  6
CONTINUOUS
 62
     7
100
AcDbCircle
 10
72.1129244122
 20
19.1148528454
 30
0.0
 40
0.0393700787401592
100
AcDbArc
 50
0.0
 51
90.0
  0
LINE
  5
A1
330
1F
100
AcDbEntity
  8
0
  6
CONTINUOUS
 62
     7
100
AcDbLine
 10
72.1522962947
 20
18.6522540208
 30
0.0
 11
72.1522962947
 21
19.1148529435
 31
0.0
  0
ARC
  5
A2
330
1F
100
AcDbEntity
  8
0
  6
CONTINUOUS
 62
     7
100
AcDbCircle
 10
71.9160740185
 20
18.6522544202
 30
0.0
 40
0.2362204724409445
100
AcDbArc
 50
270.0
 51
0.0
  0
LINE
  5
A3
330
1F
100
AcDbEntity
  8
0
  6
CONTINUOUS
 62
     7
100
AcDbLine
 10
69.4377271203
 20
18.416034243
 30
0.0
 11
71.9160741702
 21
18.416034243
 31
0.0
  0
ARC
  5
A4
330
1F
100
AcDbEntity
  8
0
  6
CONTINUOUS
 62
     7
100
AcDbCircle
 10
69.4377275618
 20
17.9435930029
 30
0.0
 40
0.472440944881896
100
AcDbArc
 50
90.0
 51
180.0
  0
LINE
  5
A5
330
1F
100
AcDbEntity
  8
0
  6
CONTINUOUS
 62
     7
100
AcDbLine
 10
68.9652875646
 20
13.1707316372
 30
0.0
 11
68.9652875646
 21
17.943593514
 31
0.0
  0
ARC
  5
A6
330
1F
100
AcDbEntity
  8
0
  6
CONTINUOUS
 62
     7
100
AcDbCircle
 10
68.2152866169
 20
13.1707321105
 30
0.0
 40
0.75
100
AcDbArc
 50
300.0
 51
0.0
  0
ARC
  5
A7
330
1F
100
AcDbEntity
  8
0
  6
CONTINUOUS
 62
     7
100
AcDbCircle
 10
68.9652866169
 20
11.8716940048
 30
0.0
 40
0.75
100
AcDbArc
 50
120.0
 51
180.0
  0
LINE
  5
A8
330
1F
100
AcDbEntity
  8
0
  6
CONTINUOUS
 62
     7
100
AcDbLine
 10
68.215287482
 20
8.7125787648
 30
0.0
 11
68.215287482
 21
11.8716941638
 31
0.0
  0
ARC
  5
A9
330
1F
100
AcDbEntity
  8
0
  6
CONTINUOUS
 62
     7
100
AcDbCircle
 10
68.9652866169
 20
8.7125786151
 30
0.0
 40
0.75
100
AcDbArc
 50
180.0
 51
240.0
  0
ARC
  5
AA
330
1F
100
AcDbEntity
  8
0
  6
CONTINUOUS
 62
     7
100
AcDbCircle
 10
68.2152866169
 20
7.4135405094
 30
0.0
 40
0.75
100
AcDbArc
 50
0.0
 51
60.0
  0
LINE
  5
AB
330
1F
100
AcDbEntity
  8
0
  6
CONTINUOUS
 62
     7
100
AcDbLine
 10
68.9652875646
 20
2.6406797079
 30
0.0
 11
68.9652875646
 21
7.4135407047
 31
0.0
  0
ARC
  5
AC
330
1F
100
AcDbEntity
  8
0
  6
CONTINUOUS
 62
     7
100
AcDbCircle
 10
69.4377275618
 20
2.640679617
 30
0.0
 40
0.4724409448818903
100
AcDbArc
 50
180.0
 51
270.0
  0
LINE
  5
AD
330
1F
100
AcDbEntity
  8
0
  6
CONTINUOUS
 62
     7
100
AcDbLine
 10
71.9160741702
 20
2.1682386856
 30
0.0
 11
69.4377271203
 21
2.1682386856
 31
0.0
  0
ARC
  5
AE
330
1F
100
AcDbEntity
  8
0
  6
CONTINUOUS
 62
     7
100
AcDbCircle
 10
71.9160740185
 20
1.9320181997
 30
0.0
 40
0.2362204724409493
100
AcDbArc
 50
0.0
 51
90.0
  0
LINE
  5
AF
330
1F
100
AcDbEntity
  8
0
  6
CONTINUOUS
 62
     7
100
AcDbLine
 10
72.1522962947
 20
1.4694198384
 30
0.0
 11
72.1522962947
 21
1.9320181744
 31
0.0
  0
ARC
  5
B0
330
1F
100
AcDbEntity
  8
0
  6
CONTINUOUS
 62
     7
100
AcDbCircle
 10
72.1129244122
 20
1.4694197745
 30
0.0
 40
0.0393700787401576
100
AcDbArc
 50
270.0
 51
0.0
  0
LINE
  5
B1
330
1F
100
AcDbEntity
  8
0
  6
CONTINUOUS
 62
     7
100
AcDbLine
 10
72.1129243761
 20
1.4300496799
 30
0.0
 11
71.6971749389
 21
1.4300496799
 31
0.0
  0
LINE
  5
B2
330
1F
100
AcDbEntity
  8
0
  6
CONTINUOUS
 62
     7
100
AcDbLine
 10
71.6971749389
 20
1.4300496799
 30
0.0
 11
71.6837850136
 21
1.6392571431
 31
0.0
  0
ARC
  5
B3
330
1F
100
AcDbEntity
  8
0
  6
CONTINUOUS
 62
     7
100
AcDbCircle
 10
71.644497408
 20
1.6367426092
 30
0.0
 40
0.039370078740159
100
AcDbArc
 50
3.6619355755
 51
90.0
  0
LINE
  5
B4
330
1F
100
AcDbEntity
  8
0
  6
CONTINUOUS
 62
     7
100
AcDbLine
 10
71.6444975741
 20
1.6761127307
 30
0.0
 11
71.3043521702
 21
1.6761127307
 31
0.0
  0
ARC
  5
B5
330
1F
100
AcDbEntity
  8
0
  6
CONTINUOUS
 62
     7
100
AcDbCircle
 10
71.304352695
 20
1.7154827666
 30
0.0
 40
0.0393700787401613
100
AcDbArc
 50
245.1121079736
 51
270.0
  0
ARC
  5
B6
330
1F
100
AcDbEntity
  8
0
  6
CONTINUOUS
 62
     7
100
AcDbCircle
 10
71.202124024
 20
1.4951280257
 30
0.0
 40
0.2035433070866159
100
AcDbArc
 50
65.1121079736
 51
252.3995332141
  0
ARC
  5
B7
330
1F
100
AcDbEntity
  8
0
  6
CONTINUOUS
 62
     7
100
AcDbCircle
 10
71.1286724437
 20
1.2635858517
 30
0.0
 40
0.0393700787401562
100
AcDbArc
 50
0.0
 51
72.3995332141
  0
LINE
  5
B8
330
1F
100
AcDbEntity
  8
0
  6
CONTINUOUS
 62
     7
100
AcDbLine
 10
71.1680405715
 20
1.1839079433
 30
0.0
 11
71.1680405715
 21
1.2635858162
 31
0.0
  0
LINE
  5
B9
330
1F
100
AcDbEntity
  8
0
  6
CONTINUOUS
 62
     7
100
AcDbLine
 10
68.6877270377
 20
1.1839079433
 30
0.0
 11
71.1680405715
 21
1.1839079433
 31
0.0
  0
ARC
  5
BA
330
1F
100
AcDbEntity
  8
0
  6
CONTINUOUS
 62
     7
100
AcDbCircle
 10
68.6877275618
 20
1.6563489084
 30
0.0
 40
0.4724409448818858
100
AcDbArc
 50
180.0
 51
270.0
  0
LINE
  5
BB
330
1F
100
AcDbEntity
  8
0
  6
CONTINUOUS
 62
     7
100
AcDbLine
 10
68.215287482
 20
6.9410993891
 30
0.0
 11
68.215287482
 21
1.6563488923
 31
0.0
  0
ARC
  5
BC
330
1F
100
AcDbEntity
  8
0
  6
CONTINUOUS
 62
     7
100
AcDbCircle
 10
67.742845672
 20
6.9410995645
 30
0.0
 40
0.472440944881896
100
AcDbArc
 50
0.0
 51
90.0
  0
LINE
  5
BD
330
1F
100
AcDbEntity
  8
0
  6
CONTINUOUS
 62
     7
100
AcDbLine
 10
66.719224978
 20
7.4135407047
 30
0.0
 11
67.7428479263
 21
7.4135407047
 31
0.0
  0
ARC
  5
BE
330
1F
100
AcDbEntity
  8
0
  6
CONTINUOUS
 62
     7
100
AcDbCircle
 10
66.7192236248
 20
6.9410995645
 30
0.0
 40
0.472440944881896
100
AcDbArc
 50
90.0
 51
180.0
  0
LINE
  5
BF
330
1F
100
AcDbEntity
  8
0
  6
CONTINUOUS
 62
     7
100
AcDbLine
 10
66.246780729
 20
1.6563488923
 30
0.0
 11
66.246780729
 21
6.9410993891
 31
0.0
  0
ARC
  5
C0
330
1F
100
AcDbEntity
  8
0
  6
CONTINUOUS
 62
     7
100
AcDbCircle
 10
65.774341735
 20
1.6563489084
 30
0.0
 40
0.472440944881896
100
AcDbArc
 50
270.0
 51
0.0
  0
LINE
  5
C1
330
1F
100
AcDbEntity
  8
0
  6
CONTINUOUS
 62
     7
100
AcDbLine
 10
63.2940276395
 20
1.1839079433
 30
0.0
 11
65.7743411733
 21
1.1839079433
 31
0.0
  0
LINE
  5
C2
330
1F
100
AcDbEntity
  8
0
  6
CONTINUOUS
 62
     7
100
AcDbLine
 10
63.2940276395
 20
1.2635858162
 30
0.0
 11
63.2940276395
 21
1.1839079433
 31
0.0
  0
ARC
  5
C3
330
1F
100
AcDbEntity
  8
0
  6
CONTINUOUS
 62
     7
100
AcDbCircle
 10
63.3333968531
 20
1.2635858517
 30
0.0
 40
0.0393700787401584
100
AcDbArc
 50
107.6004667859
 51
180.0
  0
ARC
  5
C4
330
1F
100
AcDbEntity
  8
0
  6
CONTINUOUS
 62
     7
100
AcDbCircle
 10
63.2599452728
 20
1.4951280257
 30
0.0
 40
0.20354330708662
100
AcDbArc
 50
287.6004667859
 51
114.8878920264
  0
ARC
  5
C5
330
1F
100
AcDbEntity
  8
0
  6
CONTINUOUS
 62
     7
100
AcDbCircle
 10
63.1577166018
 20
1.7154827666
 30
0.0
 40
0.0393700787401532
100
AcDbArc
 50
270.0
 51
294.8878920264
  0
LINE
  5
C6
330
1F
100
AcDbEntity
  8
0
  6
CONTINUOUS
 62
     7
100
AcDbLine
 10
63.1577160408
 20
1.6761127307
 30
0.0
 11
62.8175706369
 21
1.6761127307
 31
0.0
  0
ARC
  5
C7
330
1F
100
AcDbEntity
  8
0
  6
CONTINUOUS
 62
     7
100
AcDbCircle
 10
62.8175718889
 20
1.6367426092
 30
0.0
 40
0.039370078740159
100
AcDbArc
 50
90.0
 51
176.3380644245
  0
LINE
  5
C8
330
1F
100
AcDbEntity
  8
0
  6
CONTINUOUS
 62
     7
100
AcDbLine
 10
62.7782831974
 20
1.6392571431
 30
0.0
 11
62.7648932721
 21
1.4300496799
 31
0.0
  0
LINE
  5
C9
330
1F
100
AcDbEntity
  8
0
  6
CONTINUOUS
 62
     7
100
AcDbLine
 10
62.7648932721
 20
1.4300496799
 30
0.0
 11
62.3491438348
 21
1.4300496799
 31
0.0
  0
ARC
  5
CA
330
1F
100
AcDbEntity
  8
0
  6
CONTINUOUS
 62
     7
100
AcDbCircle
 10
62.3491448846
 20
1.4694197745
 30
0.0
 40
0.0393700787401576
100
AcDbArc
 50
180.0
 51
270.0
  0
LINE
  5
CB
330
1F
100
AcDbEntity
  8
0
  6
CONTINUOUS
 62
     7
100
AcDbLine
 10
62.3097766096
 20
1.9320181744
 30
0.0
 11
62.3097766096
 21
1.4694198384
 31
0.0
  0
ARC
  5
CC
330
1F
100
AcDbEntity
  8
0
  6
CONTINUOUS
 62
     7
100
AcDbCircle
 10
71.9160740185
 20
38.1079237115
 30
0.0
 40
0.2362204724409409
100
AcDbArc
 50
270.0
 51
0.0
  0
LINE
  5
CD
330
1F
100
AcDbEntity
  8
0
  6
CONTINUOUS
 62
     7
100
AcDbLine
 10
69.4377271203
 20
37.8717036761
 30
0.0
 11
71.9160741702
 21
37.8717036761
 31
0.0
  0
ARC
  5
CE
330
1F
100
AcDbEntity
  8
0
  6
CONTINUOUS
 62
     7
100
AcDbCircle
 10
69.4377275618
 20
37.3992622942
 30
0.0
 40
0.4724409448818889
100
AcDbArc
 50
90.0
 51
180.0
  0
LINE
  5
CF
330
1F
100
AcDbEntity
  8
0
  6
CONTINUOUS
 62
     7
100
AcDbLine
 10
68.9652875646
 20
32.6264010703
 30
0.0
 11
68.9652875646
 21
37.3992617738
 31
0.0
  0
ARC
  5
D0
330
1F
100
AcDbEntity
  8
0
  6
CONTINUOUS
 62
     7
100
AcDbCircle
 10
68.2152866169
 20
32.6264014018
 30
0.0
 40
0.7500000000000031
100
AcDbArc
 50
300.0
 51
0.0
  0
ARC
  5
D1
330
1F
100
AcDbEntity
  8
0
  6
CONTINUOUS
 62
     7
100
AcDbCircle
 10
68.9652866169
 20
31.3273632961
 30
0.0
 40
0.75
100
AcDbArc
 50
120.0
 51
180.0
  0
LINE
  5
D2
330
1F
100
AcDbEntity
  8
0
  6
CONTINUOUS
 62
     7
100
AcDbLine
 10
68.215287482
 20
28.1682481979
 30
0.0
 11
68.215287482
 21
31.3273624236
 31
0.0
  0
ARC
  5
D3
330
1F
100
AcDbEntity
  8
0
  6
CONTINUOUS
 62
     7
100
AcDbCircle
 10
68.9652866169
 20
28.1682479064
 30
0.0
 40
0.75
100
AcDbArc
 50
180.0
 51
240.0
  0
ARC
  5
D4
330
1F
100
AcDbEntity
  8
0
  6
CONTINUOUS
 62
     7
100
AcDbCircle
 10
68.2152866169
 20
26.8692098008
 30
0.0
 40
0.75
100
AcDbArc
 50
0.0
 51
60.0
  0
LINE
  5
D5
330
1F
100
AcDbEntity
  8
0
  6
CONTINUOUS
 62
     7
100
AcDbLine
 10
68.9652875646
 20
22.0963488477
 30
0.0
 11
68.9652875646
 21
26.8692095512
 31
0.0
  0
ARC
  5
D6
330
1F
100
AcDbEntity
  8
0
  6
CONTINUOUS
 62
     7
100
AcDbCircle
 10
69.4377275618
 20
22.0963489084
 30
0.0
 40
0.4724409448818818
100
AcDbArc
 50
180.0
 51
270.0
  0
LINE
  5
D7
330
1F
100
AcDbEntity
  8
0
  6
CONTINUOUS
 62
     7
100
AcDbLine
 10
71.9160741702
 20
21.6239069454
 30
0.0
 11
69.4377271203
 21
21.6239069454
 31
0.0
  0
ARC
  5
D8
330
1F
100
AcDbEntity
  8
0
  6
CONTINUOUS
 62
     7
100
AcDbCircle
 10
71.9160740185
 20
21.387687491
 30
0.0
 40
0.236220472440948
100
AcDbArc
 50
0.0
 51
90.0
  0
LINE
  5
D9
330
1F
100
AcDbEntity
  8
0
  6
CONTINUOUS
 62
     7
100
AcDbLine
 10
72.1522962947
 20
20.9250894182
 30
0.0
 11
72.1522962947
 21
21.3876871676
 31
0.0
  0
ARC
  5
DA
330
1F
100
AcDbEntity
  8
0
  6
CONTINUOUS
 62
     7
100
AcDbCircle
 10
72.1129244122
 20
20.9250890659
 30
0.0
 40
0.0393700787401627
100
AcDbArc
 50
270.0
 51
0.0
  0
LINE
  5
DB
330
1F
100
AcDbEntity
  8
0
  6
CONTINUOUS
 62
     7
100
AcDbLine
 10
72.1129243761
 20
20.8857198463
 30
0.0
 11
71.6971749389
 21
20.8857198463
 31
0.0
  0
LINE
  5
DC
330
1F
100
AcDbEntity
  8
0
  6
CONTINUOUS
 62
     7
100
AcDbLine
 10
71.6971749389
 20
20.8857198463
 30
0.0
 11
71.6837850136
 21
21.0949274562
 31
0.0
  0
ARC
  5
DD
330
1F
100
AcDbEntity
  8
0
  6
CONTINUOUS
 62
     7
100
AcDbCircle
 10
71.644497408
 20
21.0924119005
 30
0.0
 40
0.039370078740159
100
AcDbArc
 50
3.6619355755
 51
90.0
  0
LINE
  5
DE
330
1F
100
AcDbEntity
  8
0
  6
CONTINUOUS
 62
     7
100
AcDbLine
 10
71.6444975741
 20
21.1317814305
 30
0.0
 11
71.3043521702
 21
21.1317814305
 31
0.0
  0
ARC
  5
DF
330
1F
100
AcDbEntity
  8
0
  6
CONTINUOUS
 62
     7
100
AcDbCircle
 10
71.304352695
 20
21.171152058
 30
0.0
 40
0.0393700787401576
100
AcDbArc
 50
245.1121079736
 51
270.0
  0
ARC
  5
E0
330
1F
100
AcDbEntity
  8
0
  6
CONTINUOUS
 62
     7
100
AcDbCircle
 10
71.202124024
 20
20.9507973171
 30
0.0
 40
0.2035433070866204
100
AcDbArc
 50
65.1121079736
 51
252.3995332141
  0
ARC
  5
E1
330
1F
100
AcDbEntity
  8
0
  6
CONTINUOUS
 62
     7
100
AcDbCircle
 10
71.1286724437
 20
20.719255143
 30
0.0
 40
0.0393700787401569
100
AcDbArc
 50
0.0
 51
72.3995332141
  0
LINE
  5
E2
330
1F
100
AcDbEntity
  8
0
  6
CONTINUOUS
 62
     7
100
AcDbLine
 10
71.1680405715
 20
20.6395761298
 30
0.0
 11
71.1680405715
 21
20.719256276
 31
0.0
  0
ARC
  5
E3
330
1F
100
AcDbEntity
  8
0
  6
CONTINUOUS
 62
     7
100
AcDbCircle
 10
68.6877275618
 20
21.1120181997
 30
0.0
 40
0.472440944881896
100
AcDbArc
 50
180.0
 51
270.0
  0
LINE
  5
E4
330
1F
100
AcDbEntity
  8
0
  6
CONTINUOUS
 62
     7
100
AcDbLine
 10
68.215287482
 20
26.3967699955
 30
0.0
 11
68.215287482
 21
21.1120180321
 31
0.0
  0
ARC
  5
E5
330
1F
100
AcDbEntity
  8
0
  6
CONTINUOUS
 62
     7
100
AcDbCircle
 10
67.742845672
 20
26.3967688559
 30
0.0
 40
0.4724409448818854
100
AcDbArc
 50
0.0
 51
90.0
  0
LINE
  5
E6
330
1F
100
AcDbEntity
  8
0
  6
CONTINUOUS
 62
     7
100
AcDbLine
 10
66.719224978
 20
26.8692095512
 30
0.0
 11
67.7428479263
 21
26.8692095512
 31
0.0
  0
ARC
  5
E7
330
1F
100
AcDbEntity
  8
0
  6
CONTINUOUS
 62
     7
100
AcDbCircle
 10
66.7192236248
 20
26.3967688559
 30
0.0
 40
0.4724409448818854
100
AcDbArc
 50
90.0
 51
180.0
  0
LINE
  5
E8
330
1F
100
AcDbEntity
  8
0
  6
CONTINUOUS
 62
     7
100
AcDbLine
 10
66.246780729
 20
21.1120180321
 30
0.0
 11
66.246780729
 21
26.3967699955
 31
0.0
  0
LINE
  5
E9
330
1F
100
AcDbEntity
  8
0
  6
CONTINUOUS
 62
     7
100
AcDbLine
 10
63.2940276395
 20
20.6395761298
 30
0.0
 11
65.7743411733
 21
20.6395761298
 31
0.0
  0
LINE
  5
EA
330
1F
100
AcDbEntity
  8
0
  6
CONTINUOUS
 62
     7
100
AcDbLine
 10
63.2940276395
 20
20.719256276
 30
0.0
 11
63.2940276395
 21
20.6395761298
 31
0.0
  0
ARC
  5
EB
330
1F
100
AcDbEntity
  8
0
  6
CONTINUOUS
 62
     7
100
AcDbCircle
 10
63.2599452728
 20
20.9507973171
 30
0.0
 40
0.2035433070866204
100
AcDbArc
 50
287.6004667859
 51
114.8878920264
  0
ARC
  5
EC
330
1F
100
AcDbEntity
  8
0
  6
CONTINUOUS
 62
     7
100
AcDbCircle
 10
63.1577166018
 20
21.171152058
 30
0.0
 40
0.0393700787401592
100
AcDbArc
 50
270.0
 51
294.8878920264
  0
LINE
  5
ED
330
1F
100
AcDbEntity
  8
0
  6
CONTINUOUS
 62
     7
100
AcDbLine
 10
63.1577160408
 20
21.1317814305
 30
0.0
 11
62.8175706369
 21
21.1317814305
 31
0.0
  0
ARC
  5
EE
330
1F
100
AcDbEntity
  8
0
  6
CONTINUOUS
 62
     7
100
AcDbCircle
 10
62.8175718889
 20
21.0924119005
 30
0.0
 40
0.0393700787401592
100
AcDbArc
 50
90.0
 51
176.3380644245
  0
LINE
  5
EF
330
1F
100
AcDbEntity
  8
0
  6
CONTINUOUS
 62
     7
100
AcDbLine
 10
62.7782831974
 20
21.0949274562
 30
0.0
 11
62.7648932721
 21
20.8857198463
 31
0.0
  0
LINE
  5
F0
330
1F
100
AcDbEntity
  8
0
  6
CONTINUOUS
 62
     7
100
AcDbLine
 10
62.7648932721
 20
20.8857198463
 30
0.0
 11
62.3491438348
 21
20.8857198463
 31
0.0
  0
ARC
  5
F1
330
1F
100
AcDbEntity
  8
0
  6
CONTINUOUS
 62
     7
100
AcDbCircle
 10
62.3491448846
 20
20.9250890659
 30
0.0
 40
0.0393700787401556
100
AcDbArc
 50
180.0
 51
270.0
  0
LINE
  5
F2
330
1F
100
AcDbEntity
  8
0
  6
CONTINUOUS
 62
     7
100
AcDbLine
 10
62.3097766096
 20
21.3876871676
 30
0.0
 11
62.3097766096
 21
20.9250894182
 31
0.0
  0
ARC
  5
F3
330
1F
100
AcDbEntity
  8
0
  6
CONTINUOUS
 62
     7
100
AcDbCircle
 10
62.5459952783
 20
21.387687491
 30
0.0
 40
0.2362204724409445
100
AcDbArc
 50
90.0
 51
180.0
  0
LINE
  5
F4
330
1F
100
AcDbEntity
  8
0
  6
CONTINUOUS
 62
     7
100
AcDbLine
 10
65.0243410907
 20
21.6239069454
 30
0.0
 11
62.5459940408
 21
21.6239069454
 31
0.0
  0
ARC
  5
F5
330
1F
100
AcDbEntity
  8
0
  6
CONTINUOUS
 62
     7
100
AcDbCircle
 10
65.024341735
 20
22.0963489084
 30
0.0
 40
0.4724409448818996
100
AcDbArc
 50
270.0
 51
0.0
  0
LINE
  5
F6
330
1F
100
AcDbEntity
  8
0
  6
CONTINUOUS
 62
     7
100
AcDbLine
 10
65.4967806464
 20
26.8692095512
 30
0.0
 11
65.4967806464
 21
22.0963488477
 31
0.0
  0
ARC
  5
F7
330
1F
100
AcDbEntity
  8
0
  6
CONTINUOUS
 62
     7
100
AcDbCircle
 10
66.2467826799
 20
26.8692098008
 30
0.0
 40
0.75
100
AcDbArc
 50
120.0
 51
180.0
  0
ARC
  5
F8
330
1F
100
AcDbEntity
  8
0
  6
CONTINUOUS
 62
     7
100
AcDbCircle
 10
65.4967826799
 20
28.1682479064
 30
0.0
 40
0.75
100
AcDbArc
 50
300.0
 51
0.0
  0
LINE
  5
F9
330
1F
100
AcDbEntity
  8
0
  6
CONTINUOUS
 62
     7
100
AcDbLine
 10
66.246780729
 20
31.3273624236
 30
0.0
 11
66.246780729
 21
28.1682481979
 31
0.0
  0
ARC
  5
FA
330
1F
100
AcDbEntity
  8
0
  6
CONTINUOUS
 62
     7
100
AcDbCircle
 10
65.4967826799
 20
31.3273632961
 30
0.0
 40
0.75
100
AcDbArc
 50
0.0
 51
60.0
  0
ARC
  5
FB
330
1F
100
AcDbEntity
  8
0
  6
CONTINUOUS
 62
     7
100
AcDbCircle
 10
66.2467826799
 20
32.6264014018
 30
0.0
 40
0.7500000000000031
100
AcDbArc
 50
180.0
 51
240.0
  0
LINE
  5
FC
330
1F
100
AcDbEntity
  8
0
  6
CONTINUOUS
 62
     7
100
AcDbLine
 10
65.4967806464
 20
37.3992617738
 30
0.0
 11
65.4967806464
 21
32.6264010703
 31
0.0
  0
ARC
  5
FD
330
1F
100
AcDbEntity
  8
0
  6
CONTINUOUS
 62
     7
100
AcDbCircle
 10
65.024341735
 20
37.3992622942
 30
0.0
 40
0.472440944881896
100
AcDbArc
 50
0.0
 51
90.0
  0
LINE
  5
FE
330
1F
100
AcDbEntity
  8
0
  6
CONTINUOUS
 62
     7
100
AcDbLine
 10
62.5459940408
 20
37.8717036761
 30
0.0
 11
65.0243410907
 21
37.8717036761
 31
0.0
  0
ARC
  5
FF
330
1F
100
AcDbEntity
  8
0
  6
CONTINUOUS
 62
     7
100
AcDbCircle
 10
62.5459952783
 20
38.1079237115
 30
0.0
 40
0.2362204724409409
100
AcDbArc
 50
180.0
 51
270.0
  0
LINE
  5
100
330
1F
100
AcDbEntity
  8
0
  6
CONTINUOUS
 62
     7
100
AcDbLine
 10
62.3097766096
 20
38.5705212033
 30
0.0
 11
62.3097766096
 21
38.107923454
 31
0.0
  0
ARC
  5
101
330
1F
100
AcDbEntity
  8
0
  6
CONTINUOUS
 62
     7
100
AcDbCircle
 10
62.3491448846
 20
38.5705221367
 30
0.0
 40
0.0393700787401556
100
AcDbArc
 50
90.0
 51
180.0
  0
LINE
  5
102
330
1F
100
AcDbEntity
  8
0
  6
CONTINUOUS
 62
     7
100
AcDbLine
 10
62.3491438348
 20
38.6098931218
 30
0.0
 11
62.7648932721
 21
38.6098931218
 31
0.0
  0
LINE
  5
103
330
1F
100
AcDbEntity
  8
0
  6
CONTINUOUS
 62
     7
100
AcDbLine
 10
62.7648932721
 20
38.6098931218
 30
0.0
 11
62.7782831974
 21
38.4006855119
 31
0.0
  0
ARC
  5
104
330
1F
100
AcDbEntity
  8
0
  6
CONTINUOUS
 62
     7
100
AcDbCircle
 10
62.8175718889
 20
38.4031993021
 30
0.0
 40
0.039370078740159
100
AcDbArc
 50
183.6619355755
 51
270.0
  0
LINE
  5
105
330
1F
100
AcDbEntity
  8
0
  6
CONTINUOUS
 62
     7
100
AcDbLine
 10
62.8175706369
 20
38.363829191
 30
0.0
 11
63.1577160408
 21
38.363829191
 31
0.0
  0
ARC
  5
106
330
1F
100
AcDbEntity
  8
0
  6
CONTINUOUS
 62
     7
100
AcDbCircle
 10
63.1577166018
 20
38.3244591446
 30
0.0
 40
0.0393700787401641
100
AcDbArc
 50
65.1121079736
 51
90.0
  0
ARC
  5
107
330
1F
100
AcDbEntity
  8
0
  6
CONTINUOUS
 62
     7
100
AcDbCircle
 10
63.2599452728
 20
38.5448138855
 30
0.0
 40
0.2035433070866139
100
AcDbArc
 50
245.1121079736
 51
72.3995332141
  0
ARC
  5
108
330
1F
100
AcDbEntity
  8
0
  6
CONTINUOUS
 62
     7
100
AcDbCircle
 10
63.3333968531
 20
38.7763560595
 30
0.0
 40
0.0393700787401569
100
AcDbArc
 50
180.0
 51
252.3995332141
  0
LINE
  5
109
330
1F
100
AcDbEntity
  8
0
  6
CONTINUOUS
 62
     7
100
AcDbLine
 10
63.2940276395
 20
38.8560344917
 30
0.0
 11
63.2940276395
 21
38.7763566922
 31
0.0
  0
LINE
  5
10A
330
1F
100
AcDbEntity
  8
0
  6
CONTINUOUS
 62
     7
100
AcDbLine
 10
65.7743411733
 20
38.8560344917
 30
0.0
 11
63.2940276395
 21
38.8560344917
 31
0.0
  0
ARC
  5
10B
330
1F
100
AcDbEntity
  8
0
  6
CONTINUOUS
 62
     7
100
AcDbCircle
 10
65.774341735
 20
38.3835930029
 30
0.0
 40
0.472440944881896
100
AcDbArc
 50
0.0
 51
90.0
  0
LINE
  5
10C
330
1F
100
AcDbEntity
  8
0
  6
CONTINUOUS
 62
     7
100
AcDbLine
 10
66.246780729
 20
33.0988429726
 30
0.0
 11
66.246780729
 21
38.3835925894
 31
0.0
  0
ARC
  5
10D
330
1F
100
AcDbEntity
  8
0
  6
CONTINUOUS
 62
     7
100
AcDbCircle
 10
66.7192236248
 20
33.0988423467
 30
0.0
 40
0.4724409448818889
100
AcDbArc
 50
180.0
 51
270.0
  0
LINE
  5
10E
330
1F
100
AcDbEntity
  8
0
  6
CONTINUOUS
 62
     7
100
AcDbLine
 10
67.7428479263
 20
32.6264010703
 30
0.0
 11
66.719224978
 21
32.6264010703
 31
0.0
  0
ARC
  5
10F
330
1F
100
AcDbEntity
  8
0
  6
CONTINUOUS
 62
     7
100
AcDbCircle
 10
67.742845672
 20
33.0988423467
 30
0.0
 40
0.4724409448818889
100
AcDbArc
 50
270.0
 51
0.0
  0
LINE
  5
110
330
1F
100
AcDbEntity
  8
0
  6
CONTINUOUS
 62
     7
100
AcDbLine
 10
68.215287482
 20
38.3835925894
 30
0.0
 11
68.215287482
 21
33.0988429726
 31
0.0
  0
ARC
  5
111
330
1F
100
AcDbEntity
  8
0
  6
CONTINUOUS
 62
     7
100
AcDbCircle
 10
68.6877275618
 20
38.3835930029
 30
0.0
 40
0.4724409448818889
100
AcDbArc
 50
90.0
 51
180.0
  0
LINE
  5
112
330
1F
100
AcDbEntity
  8
0
  6
CONTINUOUS
 62
     7
100
AcDbLine
 10
71.1680405715
 20
38.8560344917
 30
0.0
 11
68.6877270377
 21
38.8560344917
 31
0.0
  0
LINE
  5
113
330
1F
100
AcDbEntity
  8
0
  6
CONTINUOUS
 62
     7
100
AcDbLine
 10
71.1680405715
 20
38.7763566922
 30
0.0
 11
71.1680405715
 21
38.8560344917
 31
0.0
  0
ARC
  5
114
330
1F
100
AcDbEntity
  8
0
  6
CONTINUOUS
 62
     7
100
AcDbCircle
 10
71.1286724437
 20
38.7763560595
 30
0.0
 40
0.0393700787401627
100
AcDbArc
 50
287.6004667859
 51
0.0
  0
ARC
  5
115
330
1F
100
AcDbEntity
  8
0
  6
CONTINUOUS
 62
     7
100
AcDbCircle
 10
71.202124024
 20
38.5448138855
 30
0.0
 40
0.2035433070866204
100
AcDbArc
 50
107.6004667859
 51
294.8878920264
  0
ARC
  5
116
330
1F
100
AcDbEntity
  8
0
  6
CONTINUOUS
 62
     7
100
AcDbCircle
 10
71.304352695
 20
38.3244591446
 30
0.0
 40
0.0393700787401576
100
AcDbArc
 50
90.0
 51
114.8878920264
  0
LINE
  5
117
330
1F
100
AcDbEntity
  8
0
  6
CONTINUOUS
 62
     7
100
AcDbLine
 10
71.3043521702
 20
38.363829191
 30
0.0
 11
71.6444975741
 21
38.363829191
 31
0.0
  0
ARC
  5
118
330
1F
100
AcDbEntity
  8
0
  6
CONTINUOUS
 62
     7
100
AcDbCircle
 10
71.644497408
 20
38.4031993021
 30
0.0
 40
0.039370078740159
100
AcDbArc
 50
270.0
 51
356.3380644245
  0
LINE
  5
119
330
1F
100
AcDbEntity
  8
0
  6
CONTINUOUS
 62
     7
100
AcDbLine
 10
71.6837850136
 20
38.4006855119
 30
0.0
 11
71.6971749389
 21
38.6098931218
 31
0.0
  0
LINE
  5
11A
330
1F
100
AcDbEntity
  8
0
  6
CONTINUOUS
 62
     7
100
AcDbLine
 10
71.6971749389
 20
38.6098931218
 30
0.0
 11
72.1129243761
 21
38.6098931218
 31
0.0
  0
ARC
  5
11B
330
1F
100
AcDbEntity
  8
0
  6
CONTINUOUS
 62
     7
100
AcDbCircle
 10
72.1129244122
 20
38.5705221367
 30
0.0
 40
0.0393700787401556
100
AcDbArc
 50
0.0
 51
90.0
  0
LINE
  5
11C
330
1F
100
AcDbEntity
  8
0
  6
CONTINUOUS
 62
     7
100
AcDbLine
 10
72.1522962947
 20
38.107923454
 30
0.0
 11
72.1522962947
 21
38.5705212033
 31
0.0
  0
ARC
  5
11D
330
1F
100
AcDbEntity
  8
0
  6
CONTINUOUS
 62
     7
100
AcDbCircle
 10
63.3333968531
 20
20.719255143
 30
0.0
 40
0.0393700787401569
100
AcDbArc
 50
107.6004667859
 51
180.0
  0
LINE
  5
11E
330
1F
100
AcDbEntity
  8
0
  6
CONTINUOUS
 62
     7
100
AcDbLine
 10
68.6877270377
 20
20.6395761298
 30
0.0
 11
71.1680405715
 21
20.6395761298
 31
0.0
  0
ARC
  5
11F
330
1F
100
AcDbEntity
  8
0
  6
CONTINUOUS
 62
     7
100
AcDbCircle
 10
65.774341735
 20
21.1120181997
 30
0.0
 40
0.472440944881896
100
AcDbArc
 50
270.0
 51
0.0
  0
ARC
  5
120
330
1F
100
AcDbEntity
  8
0
  6
CONTINUOUS
 62
     7
100
AcDbCircle
 10
40.5731602489
 20
43.4593281882
 30
0.0
 40
0.2035433070866151
100
AcDbArc
 50
356.0551815279
 51
24.887906855
  0
ARC
  5
121
330
1F
100
AcDbEntity
  8
0
  6
CONTINUOUS
 62
     7
100
AcDbCircle
 10
40.7935149634
 20
43.5615569163
 30
0.0
 40
0.0393700787401602
100
AcDbArc
 50
180.0
 51
204.887906855
  0
LINE
  5
122
330
1F
100
AcDbEntity
  8
0
  6
CONTINUOUS
 62
     7
100
AcDbLine
 10
40.7541463688
 20
43.8023235918
 30
0.0
 11
40.7541463688
 21
43.5615583731
 31
0.0
  0
ARC
  5
123
330
1F
100
AcDbEntity
  8
0
  6
CONTINUOUS
 62
     7
100
AcDbCircle
 10
40.7935167537
 20
43.8023220028
 30
0.0
 40
0.0393718690164034
100
AcDbArc
 50
155.1122159835
 51
180.0
  0
ARC
  5
124
330
1F
100
AcDbEntity
  8
0
  6
CONTINUOUS
 62
     7
100
AcDbCircle
 10
40.573160196
 20
43.9045510119
 30
0.0
 40
0.2035433070866164
100
AcDbArc
 50
335.1122159835
 51
162.3995463312
  0
ARC
  5
125
330
1F
100
AcDbEntity
  8
0
  6
CONTINUOUS
 62
     7
100
AcDbCircle
 10
40.3416180051
 20
43.9780025392
 30
0.0
 40
0.0393700787401581
100
AcDbArc
 50
270.0000629761
 51
342.3995463312
  0
LINE
  5
126
330
1F
100
AcDbEntity
  8
0
  6
CONTINUOUS
 62
     7
100
AcDbLine
 10
40.1824204934
 20
43.9386304971
 30
0.0
 11
40.341616521
 21
43.9386304971
 31
0.0
  0
ARC
  5
127
330
1F
100
AcDbEntity
  8
0
  6
CONTINUOUS
 62
     7
100
AcDbCircle
 10
40.1824197091
 20
43.9780023642
 30
0.0
 40
0.0393701270409149
100
AcDbArc
 50
197.6004799029
 51
270.0000629761
  0
ARC
  5
128
330
1F
100
AcDbEntity
  8
0
  6
CONTINUOUS
 62
     7
100
AcDbCircle
 10
39.9508775518
 20
43.9045507309
 30
0.0
 40
0.2035432587858486
100
AcDbArc
 50
17.6004799029
 51
204.8878223268
  0
ARC
  5
129
330
1F
100
AcDbEntity
  8
0
  6
CONTINUOUS
 62
     7
100
AcDbCircle
 10
39.7305228374
 20
43.8023223979
 30
0.0
 40
0.0393700090846358
100
AcDbArc
 50
0.0
 51
24.8878223268
  0
LINE
  5
12A
330
1F
100
AcDbEntity
  8
0
  6
CONTINUOUS
 62
     7
100
AcDbLine
 10
39.7698906456
 20
43.5615583731
 30
0.0
 11
39.7698906456
 21
43.8023235918
 31
0.0
  0
ARC
  5
12B
330
1F
100
AcDbEntity
  8
0
  6
CONTINUOUS
 62
     7
100
AcDbCircle
 10
39.7305228374
 20
43.5615565212
 30
0.0
 40
0.0393700787401556
100
AcDbArc
 50
335.1121228022
 51
0.0
  0
ARC
  5
12C
330
1F
100
AcDbEntity
  8
0
  6
CONTINUOUS
 62
     7
100
AcDbCircle
 10
39.9508776047
 20
43.4593279072
 30
0.0
 40
0.2035433070866185
100
AcDbArc
 50
155.1121228022
 51
183.9447391857
  0
LINE
  5
12D
330
1F
100
AcDbEntity
  8
0
  6
CONTINUOUS
 62
     7
100
AcDbLine
 10
39.747818154
 20
43.4453246225
 30
0.0
 11
24.5341197706
 21
43.4453246225
 31
0.0
  0
ARC
  5
12E
330
1F
100
AcDbEntity
  8
0
  6
CONTINUOUS
 62
     7
100
AcDbCircle
 10
24.3310578867
 20
43.4593281882
 30
0.0
 40
0.2035433070866181
100
AcDbArc
 50
356.0551815279
 51
24.887906855
  0
ARC
  5
12F
330
1F
100
AcDbEntity
  8
0
  6
CONTINUOUS
 62
     7
100
AcDbCircle
 10
24.5514126012
 20
43.5615569163
 30
0.0
 40
0.0393700787401592
100
AcDbArc
 50
180.0
 51
204.887906855
  0
LINE
  5
130
330
1F
100
AcDbEntity
  8
0
  6
CONTINUOUS
 62
     7
100
AcDbLine
 10
24.5120425856
 20
43.8023235918
 30
0.0
 11
24.5120425856
 21
43.5615583731
 31
0.0
  0
ARC
  5
131
330
1F
100
AcDbEntity
  8
0
  6
CONTINUOUS
 62
     7
100
AcDbCircle
 10
24.5514143914
 20
43.8023220028
 30
0.0
 40
0.03937186901641
100
AcDbArc
 50
155.1122159835
 51
180.0
  0
ARC
  5
132
330
1F
100
AcDbEntity
  8
0
  6
CONTINUOUS
 62
     7
100
AcDbCircle
 10
24.3310578338
 20
43.9045510119
 30
0.0
 40
0.2035433070866164
100
AcDbArc
 50
335.1122159835
 51
162.3995463312
  0
ARC
  5
133
330
1F
100
AcDbEntity
  8
0
  6
CONTINUOUS
 62
     7
100
AcDbCircle
 10
24.0995156429
 20
43.9780025392
 30
0.0
 40
0.0393700787401599
100
AcDbArc
 50
270.0000629761
 51
342.3995463312
  0
LINE
  5
134
330
1F
100
AcDbEntity
  8
0
  6
CONTINUOUS
 62
     7
100
AcDbLine
 10
23.9403167102
 20
43.9386304971
 30
0.0
 11
24.0995150845
 21
43.9386304971
 31
0.0
  0
ARC
  5
135
330
1F
100
AcDbEntity
  8
0
  6
CONTINUOUS
 62
     7
100
AcDbCircle
 10
23.9403173469
 20
43.9780023642
 30
0.0
 40
0.0393701270409183
100
AcDbArc
 50
197.6004799029
 51
270.0000629761
  0
ARC
  5
136
330
1F
100
AcDbEntity
  8
0
  6
CONTINUOUS
 62
     7
100
AcDbCircle
 10
23.7087751896
 20
43.9045507309
 30
0.0
 40
0.2035432587858553
100
AcDbArc
 50
17.6004799029
 51
204.8878223268
  0
ARC
  5
137
330
1F
100
AcDbEntity
  8
0
  6
CONTINUOUS
 62
     7
100
AcDbCircle
 10
23.4884204752
 20
43.8023223979
 30
0.0
 40
0.0393700090846352
100
AcDbArc
 50
0.0
 51
24.8878223268
  0
LINE
  5
138
330
1F
100
AcDbEntity
  8
0
  6
CONTINUOUS
 62
     7
100
AcDbLine
 10
23.5277915557
 20
43.5615583731
 30
0.0
 11
23.5277915557
 21
43.8023235918
 31
0.0
  0
ARC
  5
139
330
1F
100
AcDbEntity
  8
0
  6
CONTINUOUS
 62
     7
100
AcDbCircle
 10
23.4884204752
 20
43.5615565212
 30
0.0
 40
0.0393700787401592
100
AcDbArc
 50
335.1121228022
 51
0.0
  0
ARC
  5
13A
330
1F
100
AcDbEntity
  8
0
  6
CONTINUOUS
 62
     7
100
AcDbCircle
 10
23.7087752425
 20
43.4593279072
 30
0.0
 40
0.2035433070866204
100
AcDbArc
 50
155.1121228022
 51
183.9447391857
  0
LINE
  5
13B
330
1F
100
AcDbEntity
  8
0
  6
CONTINUOUS
 62
     7
100
AcDbLine
 10
23.5057143708
 20
43.4453246225
 30
0.0
 11
22.0522950008
 21
43.4453246225
 31
0.0
  0
LINE
  5
13C
330
1F
100
AcDbEntity
  8
0
  6
CONTINUOUS
 62
     7
100
AcDbLine
 10
22.0522950008
 20
44.2862710678
 30
0.0
 11
22.0522950008
 21
43.4453246225
 31
0.0
  0
ARC
  5
13D
330
1F
100
AcDbEntity
  8
0
  6
CONTINUOUS
 62
     7
100
AcDbCircle
 10
22.2885149634
 20
44.2862701682
 30
0.0
 40
0.236220472440948
100
AcDbArc
 50
90.0
 51
180.0
  0
LINE
  5
13E
330
1F
100
AcDbEntity
  8
0
  6
CONTINUOUS
 62
     7
100
AcDbLine
 10
41.6074126718
 20
44.522488499
 30
0.0
 11
22.2885147786
 21
44.522488499
 31
0.0
  0
ARC
  5
13F
330
1F
100
AcDbEntity
  8
0
  6
CONTINUOUS
 62
     7
100
AcDbCircle
 10
41.6074126012
 20
44.2862701682
 30
0.0
 40
0.2362204724409551
100
AcDbArc
 50
0.0
 51
90.0
  0
LINE
  5
140
330
1F
100
AcDbEntity
  8
0
  6
CONTINUOUS
 62
     7
100
AcDbLine
 10
41.8436347962
 20
43.4453246225
 30
0.0
 11
41.8436347962
 21
44.2862710678
 31
0.0
  0
LINE
  5
141
330
1F
100
AcDbEntity
  8
0
  6
CONTINUOUS
 62
     7
100
AcDbLine
 10
41.8436347962
 20
43.4453246225
 30
0.0
 11
40.7762235537
 21
43.4453246225
 31
0.0
  0
ARC
  5
142
330
1F
100
AcDbEntity
  8
0
  6
CONTINUOUS
 62
     7
100
AcDbCircle
 10
23.7087751896
 20
2.2470704159
 30
0.0
 40
0.2035432587858498
100
AcDbArc
 50
176.0551805904
 51
204.8878223268
  0
ARC
  5
143
330
1F
100
AcDbEntity
  8
0
  6
CONTINUOUS
 62
     7
100
AcDbCircle
 10
23.4884204752
 20
2.1448420829
 30
0.0
 40
0.0393700090846387
100
AcDbArc
 50
0.0
 51
24.8878223268
  0
LINE
  5
144
330
1F
100
AcDbEntity
  8
0
  6
CONTINUOUS
 62
     7
100
AcDbLine
 10
23.5277915557
 20
1.9040761506
 30
0.0
 11
23.5277915557
 21
2.1448421025
 31
0.0
  0
ARC
  5
145
330
1F
100
AcDbEntity
  8
0
  6
CONTINUOUS
 62
     7
100
AcDbCircle
 10
23.4884204752
 20
1.9040762063
 30
0.0
 40
0.0393700787401627
100
AcDbArc
 50
335.1121228022
 51
0.0
  0
ARC
  5
146
330
1F
100
AcDbEntity
  8
0
  6
CONTINUOUS
 62
     7
100
AcDbCircle
 10
23.7087752425
 20
1.8018475923
 30
0.0
 40
0.2035433070866181
100
AcDbArc
 50
155.1121228022
 51
342.3995463312
  0
ARC
  5
147
330
1F
100
AcDbEntity
  8
0
  6
CONTINUOUS
 62
     7
100
AcDbCircle
 10
23.9403174334
 20
1.728396065
 30
0.0
 40
0.039370078740157
100
AcDbArc
 50
90.0000629761
 51
162.3995463312
  0
LINE
  5
148
330
1F
100
AcDbEntity
  8
0
  6
CONTINUOUS
 62
     7
100
AcDbLine
 10
24.0995150845
 20
1.7677663119
 30
0.0
 11
23.9403167102
 21
1.7677661652
 31
0.0
  0
ARC
  5
149
330
1F
100
AcDbEntity
  8
0
  6
CONTINUOUS
 62
     7
100
AcDbCircle
 10
24.0995157295
 20
1.72839624
 30
0.0
 40
0.0393700787401594
100
AcDbArc
 50
17.6004799029
 51
90.0000629761
  0
ARC
  5
14A
330
1F
100
AcDbEntity
  8
0
  6
CONTINUOUS
 62
     7
100
AcDbCircle
 10
24.3310578867
 20
1.8018478733
 30
0.0
 40
0.2035433070866159
100
AcDbArc
 50
197.6004799029
 51
24.887906855
  0
ARC
  5
14B
330
1F
100
AcDbEntity
  8
0
  6
CONTINUOUS
 62
     7
100
AcDbCircle
 10
24.5514126012
 20
1.9040766013
 30
0.0
 40
0.0393700787401627
100
AcDbArc
 50
180.0
 51
204.887906855
  0
LINE
  5
14C
330
1F
100
AcDbEntity
  8
0
  6
CONTINUOUS
 62
     7
100
AcDbLine
 10
24.5120425856
 20
2.1448416625
 30
0.0
 11
24.5120425856
 21
1.9040765905
 31
0.0
  0
ARC
  5
14D
330
1F
100
AcDbEntity
  8
0
  6
CONTINUOUS
 62
     7
100
AcDbCircle
 10
24.5514143914
 20
2.1448416879
 30
0.0
 40
0.03937186901641
100
AcDbArc
 50
155.1122159835
 51
180.0
  0
ARC
  5
14E
330
1F
100
AcDbEntity
  8
0
  6
CONTINUOUS
 62
     7
100
AcDbCircle
 10
24.3310578338
 20
2.2470706969
 30
0.0
 40
0.2035433070866174
100
AcDbArc
 50
335.1122159835
 51
3.9447391857
  0
LINE
  5
14F
330
1F
100
AcDbEntity
  8
0
  6
CONTINUOUS
 62
     7
100
AcDbLine
 10
24.5341197706
 20
2.2610733598
 30
0.0
 11
39.747818154
 21
2.2610733598
 31
0.0
  0
ARC
  5
150
330
1F
100
AcDbEntity
  8
0
  6
CONTINUOUS
 62
     7
100
AcDbCircle
 10
39.9508775518
 20
2.2470704159
 30
0.0
 40
0.2035432587858574
100
AcDbArc
 50
176.0551805904
 51
204.8878223268
  0
ARC
  5
151
330
1F
100
AcDbEntity
  8
0
  6
CONTINUOUS
 62
     7
100
AcDbCircle
 10
39.7305228374
 20
2.1448420829
 30
0.0
 40
0.03937000908464
100
AcDbArc
 50
0.0
 51
24.8878223268
  0
LINE
  5
152
330
1F
100
AcDbEntity
  8
0
  6
CONTINUOUS
 62
     7
100
AcDbLine
 10
39.7698906456
 20
1.9040761506
 30
0.0
 11
39.7698906456
 21
2.1448421025
 31
0.0
  0
ARC
  5
153
330
1F
100
AcDbEntity
  8
0
  6
CONTINUOUS
 62
     7
100
AcDbCircle
 10
39.7305228374
 20
1.9040762063
 30
0.0
 40
0.0393700787401627
100
AcDbArc
 50
335.1121228022
 51
0.0
  0
ARC
  5
154
330
1F
100
AcDbEntity
  8
0
  6
CONTINUOUS
 62
     7
100
AcDbCircle
 10
39.9508776047
 20
1.8018475923
 30
0.0
 40
0.2035433070866214
100
AcDbArc
 50
155.1121228022
 51
342.3995463312
  0
ARC
  5
155
330
1F
100
AcDbEntity
  8
0
  6
CONTINUOUS
 62
     7
100
AcDbCircle
 10
40.1824197956
 20
1.728396065
 30
0.0
 40
0.0393700787401594
100
AcDbArc
 50
90.0000629761
 51
162.3995463312
  0
LINE
  5
156
330
1F
100
AcDbEntity
  8
0
  6
CONTINUOUS
 62
     7
100
AcDbLine
 10
40.341616521
 20
1.7677663119
 30
0.0
 11
40.1824204934
 21
1.7677661652
 31
0.0
  0
ARC
  5
157
330
1F
100
AcDbEntity
  8
0
  6
CONTINUOUS
 62
     7
100
AcDbCircle
 10
40.3416180917
 20
1.72839624
 30
0.0
 40
0.0393700787401562
100
AcDbArc
 50
17.6004799029
 51
90.0000629761
  0
ARC
  5
158
330
1F
100
AcDbEntity
  8
0
  6
CONTINUOUS
 62
     7
100
AcDbCircle
 10
40.5731602489
 20
1.8018478733
 30
0.0
 40
0.2035433070866146
100
AcDbArc
 50
197.6004799029
 51
24.887906855
  0
ARC
  5
159
330
1F
100
AcDbEntity
  8
0
  6
CONTINUOUS
 62
     7
100
AcDbCircle
 10
40.7935149634
 20
1.9040766013
 30
0.0
 40
0.0393700787401627
100
AcDbArc
 50
180.0
 51
204.887906855
  0
LINE
  5
15A
330
1F
100
AcDbEntity
  8
0
  6
CONTINUOUS
 62
     7
100
AcDbLine
 10
40.7541463688
 20
2.1448416625
 30
0.0
 11
40.7541463688
 21
1.9040765905
 31
0.0
  0
ARC
  5
15B
330
1F
100
AcDbEntity
  8
0
  6
CONTINUOUS
 62
     7
100
AcDbCircle
 10
40.7935167537
 20
2.1448416879
 30
0.0
 40
0.0393718690164064
100
AcDbArc
 50
155.1122159835
 51
180.0
  0
ARC
  5
15C
330
1F
100
AcDbEntity
  8
0
  6
CONTINUOUS
 62
     7
100
AcDbCircle
 10
40.573160196
 20
2.2470706969
 30
0.0
 40
0.2035433070866199
100
AcDbArc
 50
335.1122159835
 51
3.9447391857
  0
LINE
  5
15D
330
1F
100
AcDbEntity
  8
0
  6
CONTINUOUS
 62
     7
100
AcDbLine
 10
40.7762235537
 20
2.2610733598
 30
0.0
 11
41.8436347962
 21
2.2610733598
 31
0.0
  0
LINE
  5
15E
330
1F
100
AcDbEntity
  8
0
  6
CONTINUOUS
 62
     7
100
AcDbLine
 10
41.8436347962
 20
1.4201283812
 30
0.0
 11
41.8436347962
 21
2.2610733598
 31
0.0
  0
ARC
  5
15F
330
1F
100
AcDbEntity
  8
0
  6
CONTINUOUS
 62
     7
100
AcDbCircle
 10
41.6074126012
 20
1.4201284359
 30
0.0
 40
0.236220472440948
100
AcDbArc
 50
270.0
 51
0.0
  0
LINE
  5
160
330
1F
100
AcDbEntity
  8
0
  6
CONTINUOUS
 62
     7
100
AcDbLine
 10
22.2885147786
 20
1.1839079433
 30
0.0
 11
41.6074126718
 21
1.1839079433
 31
0.0
  0
ARC
  5
161
330
1F
100
AcDbEntity
  8
0
  6
CONTINUOUS
 62
     7
100
AcDbCircle
 10
22.2885149634
 20
1.4201284359
 30
0.0
 40
0.2362204724409496
100
AcDbArc
 50
180.0
 51
270.0
  0
LINE
  5
162
330
1F
100
AcDbEntity
  8
0
  6
CONTINUOUS
 62
     7
100
AcDbLine
 10
22.0522950008
 20
2.2610733598
 30
0.0
 11
22.0522950008
 21
1.4201283812
 31
0.0
  0
LINE
  5
163
330
1F
100
AcDbEntity
  8
0
  6
CONTINUOUS
 62
     7
100
AcDbLine
 10
22.0522950008
 20
2.2610733598
 30
0.0
 11
23.5057143708
 21
2.2610733598
 31
0.0
  0
ARC
  5
164
330
1F
100
AcDbEntity
  8
0
  6
CONTINUOUS
 62
     7
100
AcDbCircle
 10
41.6074126012
 20
41.5710968527
 30
0.0
 40
0.236220472440948
100
AcDbArc
 50
280.0
 51
0.0
  0
LINE
  5
165
330
1F
100
AcDbEntity
  8
0
  6
CONTINUOUS
 62
     7
100
AcDbLine
 10
41.6484319312
 20
41.3384646945
 30
0.0
 11
41.2514321441
 21
41.2684644364
 31
0.0
  0
ARC
  5
166
330
1F
100
AcDbEntity
  8
0
  6
CONTINUOUS
 62
     7
100
AcDbCircle
 10
41.2924519712
 20
41.0358316879
 30
0.0
 40
0.236220472440948
100
AcDbArc
 50
100.0
 51
180.0
  0
LINE
  5
167
330
1F
100
AcDbEntity
  8
0
  6
CONTINUOUS
 62
     7
100
AcDbLine
 10
41.0562292791
 20
41.0358326705
 30
0.0
 11
41.0562292791
 21
4.6705669251
 31
0.0
  0
ARC
  5
168
330
1F
100
AcDbEntity
  8
0
  6
CONTINUOUS
 62
     7
100
AcDbCircle
 10
41.2924519712
 20
4.6705669163
 30
0.0
 40
0.2362204724409458
100
AcDbArc
 50
180.0
 51
260.0
  0
LINE
  5
169
330
1F
100
AcDbEntity
  8
0
  6
CONTINUOUS
 62
     7
100
AcDbLine
 10
41.2514321441
 20
4.4379351592
 30
0.0
 11
41.6484319312
 21
4.3679334345
 31
0.0
  0
ARC
  5
16A
330
1F
100
AcDbEntity
  8
0
  6
CONTINUOUS
 62
     7
100
AcDbCircle
 10
41.6074126012
 20
4.1353017514
 30
0.0
 40
0.236220472440948
100
AcDbArc
 50
0.0
 51
80.0
  0
LINE
  5
16B
330
1F
100
AcDbEntity
  8
0
  6
CONTINUOUS
 62
     7
100
AcDbLine
 10
41.8436347962
 20
2.7878451012
 30
0.0
 11
41.8436347962
 21
4.1353016686
 31
0.0
  0
LINE
  5
16C
330
1F
100
AcDbEntity
  8
0
  6
CONTINUOUS
 62
     7
100
AcDbLine
 10
41.8436347962
 20
2.7878451012
 30
0.0
 11
40.2688284552
 21
2.7878451012
 31
0.0
  0
LINE
  5
16D
330
1F
100
AcDbEntity
  8
0
  6
CONTINUOUS
 62
     7
100
AcDbLine
 10
40.2688284552
 20
2.7878451012
 30
0.0
 11
40.2688284552
 21
42.9185556678
 31
0.0
  0
LINE
  5
16E
330
1F
100
AcDbEntity
  8
0
  6
CONTINUOUS
 62
     7
100
AcDbLine
 10
40.2688284552
 20
42.9185556678
 30
0.0
 11
41.8436347962
 21
42.9185556678
 31
0.0
  0
LINE
  5
16F
330
1F
100
AcDbEntity
  8
0
  6
CONTINUOUS
 62
     7
100
AcDbLine
 10
41.8436347962
 20
41.5710964604
 30
0.0
 11
41.8436347962
 21
42.9185556678
 31
0.0
  0
LINE
  5
170
330
1F
100
AcDbEntity
  8
0
  6
CONTINUOUS
 62
     7
100
AcDbLine
 10
22.0522950008
 20
42.9185556678
 30
0.0
 11
22.0522950008
 21
2.7878451012
 31
0.0
  0
LINE
  5
171
330
1F
100
AcDbEntity
  8
0
  6
CONTINUOUS
 62
     7
100
AcDbLine
 10
22.0522950008
 20
42.9185556678
 30
0.0
 11
39.7554447325
 21
42.9185556678
 31
0.0
  0
LINE
  5
172
330
1F
100
AcDbEntity
  8
0
  6
CONTINUOUS
 62
     7
100
AcDbLine
 10
39.7554447325
 20
42.9185556678
 30
0.0
 11
39.7554447325
 21
2.7878451012
 31
0.0
  0
LINE
  5
173
330
1F
100
AcDbEntity
  8
0
  6
CONTINUOUS
 62
     7
100
AcDbLine
 10
39.7554447325
 20
2.7878451012
 30
0.0
 11
22.0522950008
 21
2.7878451012
 31
0.0
  0
ARC
  5
174
330
1F
100
AcDbEntity
  8
0
  6
CONTINUOUS
 62
     7
100
AcDbCircle
 10
40.3416180051
 20
2.3205222242
 30
0.0
 40
0.0393700787401638
100
AcDbArc
 50
270.0000629761
 51
342.3995463312
  0
LINE
  5
175
330
1F
100
AcDbEntity
  8
0
  6
CONTINUOUS
 62
     7
100
AcDbLine
 10
40.341616521
 20
2.2811520879
 30
0.0
 11
40.1824204934
 21
2.2811519412
 31
0.0
  0
ARC
  5
176
330
1F
100
AcDbEntity
  8
0
  6
CONTINUOUS
 62
     7
100
AcDbCircle
 10
40.1824197091
 20
2.3205220492
 30
0.0
 40
0.0393700787401594
100
AcDbArc
 50
197.6004799029
 51
270.0000629761
  0
ARC
  5
177
330
1F
100
AcDbEntity
  8
0
  6
CONTINUOUS
 62
     7
100
AcDbCircle
 10
24.0995156429
 20
2.3205222242
 30
0.0
 40
0.0393700787401594
100
AcDbArc
 50
270.0000629761
 51
342.3995463312
  0
LINE
  5
178
330
1F
100
AcDbEntity
  8
0
  6
CONTINUOUS
 62
     7
100
AcDbLine
 10
24.0995150845
 20
2.2811520879
 30
0.0
 11
23.9403167102
 21
2.2811519412
 31
0.0
  0
ARC
  5
179
330
1F
100
AcDbEntity
  8
0
  6
CONTINUOUS
 62
     7
100
AcDbCircle
 10
23.9403173469
 20
2.3205220492
 30
0.0
 40
0.0393700787401561
100
AcDbArc
 50
197.6004799029
 51
270.0000629761
  0
ARC
  5
17A
330
1F
100
AcDbEntity
  8
0
  6
CONTINUOUS
 62
     7
100
AcDbCircle
 10
23.9403174334
 20
43.3858763799
 30
0.0
 40
0.0393700787401488
100
AcDbArc
 50
90.0000629761
 51
162.3995463312
  0
LINE
  5
17B
330
1F
100
AcDbEntity
  8
0
  6
CONTINUOUS
 62
     7
100
AcDbLine
 10
23.9403167102
 20
43.4252467744
 30
0.0
 11
24.0995150845
 21
43.4252467744
 31
0.0
  0
ARC
  5
17C
330
1F
100
AcDbEntity
  8
0
  6
CONTINUOUS
 62
     7
100
AcDbCircle
 10
24.0995157295
 20
43.3858765549
 30
0.0
 40
0.039370078740151
100
AcDbArc
 50
17.6004799029
 51
90.0000629761
  0
ARC
  5
17D
330
1F
100
AcDbEntity
  8
0
  6
CONTINUOUS
 62
     7
100
AcDbCircle
 10
40.1824197956
 20
43.3858763799
 30
0.0
 40
0.039370078740151
100
AcDbArc
 50
90.0000629761
 51
162.3995463312
  0
LINE
  5
17E
330
1F
100
AcDbEntity
  8
0
  6
CONTINUOUS
 62
     7
100
AcDbLine
 10
40.1824204934
 20
43.4252467744
 30
0.0
 11
40.341616521
 21
43.4252467744
 31
0.0
  0
ARC
  5
17F
330
1F
100
AcDbEntity
  8
0
  6
CONTINUOUS
 62
     7
100
AcDbCircle
 10
40.3416180917
 20
43.3858765549
 30
0.0
 40
0.0393700787401538
100
AcDbArc
 50
17.6004799029
 51
90.0000629761
  0
LINE
  5
180
330
1F
100
AcDbEntity
  8
0
  6
CONTINUOUS
 62
     7
100
AcDbLine
 10
22.0522950008
 20
42.9185556678
 30
0.0
 11
22.0522950008
 21
43.4453246225
 31
0.0
  0
LINE
  5
181
330
1F
100
AcDbEntity
  8
0
  6
CONTINUOUS
 62
     7
100
AcDbLine
 10
22.0522950008
 20
2.2610733598
 30
0.0
 11
22.0522950008
 21
2.7878451012
 31
0.0
  0
ARC
  5
182
330
1F
100
AcDbEntity
  8
0
  6
CONTINUOUS
 62
     7
100
AcDbCircle
 10
39.9508775518
 20
2.2470704159
 30
0.0
 40
0.2035433070866076
100
AcDbArc
 50
17.6004799029
 51
176.0551805904
  0
ARC
  5
183
330
1F
100
AcDbEntity
  8
0
  6
CONTINUOUS
 62
     7
100
AcDbCircle
 10
39.9508776047
 20
43.4593279072
 30
0.0
 40
0.2035433070866174
100
AcDbArc
 50
183.9447391857
 51
342.3995463312
  0
ARC
  5
184
330
1F
100
AcDbEntity
  8
0
  6
CONTINUOUS
 62
     7
100
AcDbCircle
 10
40.573160196
 20
2.2470706969
 30
0.0
 40
0.2035433070866177
100
AcDbArc
 50
3.9447391857
 51
162.3995463312
  0
ARC
  5
185
330
1F
100
AcDbEntity
  8
0
  6
CONTINUOUS
 62
     7
100
AcDbCircle
 10
40.5731602489
 20
43.4593281882
 30
0.0
 40
0.2035433070866164
100
AcDbArc
 50
197.6004799029
 51
356.0551815279
  0
LINE
  5
186
330
1F
100
AcDbEntity
  8
0
  6
CONTINUOUS
 62
     7
100
AcDbLine
 10
41.8436347962
 20
2.7878451012
 30
0.0
 11
41.8436347962
 21
2.2610733598
 31
0.0
  0
LINE
  5
187
330
1F
100
AcDbEntity
  8
0
  6
CONTINUOUS
 62
     7
100
AcDbLine
 10
41.8436347962
 20
43.4453246225
 30
0.0
 11
41.8436347962
 21
42.9185556678
 31
0.0
  0
ARC
  5
188
330
1F
100
AcDbEntity
  8
0
  6
CONTINUOUS
 62
     7
100
AcDbCircle
 10
24.3310578338
 20
2.2470706969
 30
0.0
 40
0.2035433070866174
100
AcDbArc
 50
3.9447391857
 51
162.3995463312
  0
ARC
  5
189
330
1F
100
AcDbEntity
  8
0
  6
CONTINUOUS
 62
     7
100
AcDbCircle
 10
24.3310578867
 20
43.4593281882
 30
0.0
 40
0.2035433070866197
100
AcDbArc
 50
197.6004799029
 51
356.0551815279
  0
ARC
  5
18A
330
1F
100
AcDbEntity
  8
0
  6
CONTINUOUS
 62
     7
100
AcDbCircle
 10
23.7087751896
 20
2.2470704159
 30
0.0
 40
0.2035433070866177
100
AcDbArc
 50
17.6004799029
 51
176.0551805904
  0
ARC
  5
18B
330
1F
100
AcDbEntity
  8
0
  6
CONTINUOUS
 62
     7
100
AcDbCircle
 10
23.7087752425
 20
43.4593279072
 30
0.0
 40
0.2035433070866231
100
AcDbArc
 50
183.9447391857
 51
342.3995463312
  0
ARC
  5
18C
330
1F
100
AcDbEntity
  8
0
  6
CONTINUOUS
 62
     7
100
AcDbCircle
 10
1.257806302
 20
1.4201284359
 30
0.0
 40
0.2362204724409538
100
AcDbArc
 50
180.0
 51
270.0
  0
LINE
  5
18D
330
1F
100
AcDbEntity
  8
0
  6
CONTINUOUS
 62
     7
100
AcDbLine
 10
1.0215858094
 20
1.4201283812
 30
0.0
 11
1.0215858094
 21
2.2610733598
 31
0.0
  0
LINE
  5
18E
330
1F
100
AcDbEntity
  8
0
  6
CONTINUOUS
 62
     7
100
AcDbLine
 10
2.4693124518
 20
2.2610733598
 30
0.0
 11
1.0215858094
 21
2.2610733598
 31
0.0
  0
ARC
  5
18F
330
1F
100
AcDbEntity
  8
0
  6
CONTINUOUS
 62
     7
100
AcDbCircle
 10
2.6723736148
 20
2.2470704159
 30
0.0
 40
0.2035432587858538
100
AcDbArc
 50
176.0551805903
 51
204.8878223268
  0
ARC
  5
190
330
1F
100
AcDbEntity
  8
0
  6
CONTINUOUS
 62
     7
100
AcDbCircle
 10
2.4520189004
 20
2.1448420829
 30
0.0
 40
0.0393700090846383
100
AcDbArc
 50
0.0
 51
24.8878223268
  0
LINE
  5
191
330
1F
100
AcDbEntity
  8
0
  6
CONTINUOUS
 62
     7
100
AcDbLine
 10
2.4913890501
 20
1.9040761506
 30
0.0
 11
2.4913890501
 21
2.1448421025
 31
0.0
  0
ARC
  5
192
330
1F
100
AcDbEntity
  8
0
  6
CONTINUOUS
 62
     7
100
AcDbCircle
 10
2.4520189004
 20
1.9040762063
 30
0.0
 40
0.0393700787401627
100
AcDbArc
 50
335.1121228022
 51
0.0
  0
ARC
  5
193
330
1F
100
AcDbEntity
  8
0
  6
CONTINUOUS
 62
     7
100
AcDbCircle
 10
2.6723736677
 20
1.8018475923
 30
0.0
 40
0.2035433070866158
100
AcDbArc
 50
155.1121228022
 51
342.3995463312
  0
ARC
  5
194
330
1F
100
AcDbEntity
  8
0
  6
CONTINUOUS
 62
     7
100
AcDbCircle
 10
2.9039158586
 20
1.728396065
 30
0.0
 40
0.0393700787401594
100
AcDbArc
 50
90.0000629761
 51
162.3995463312
  0
LINE
  5
195
330
1F
100
AcDbEntity
  8
0
  6
CONTINUOUS
 62
     7
100
AcDbLine
 10
3.0631140454
 20
1.7677663119
 30
0.0
 11
2.9039156712
 21
1.7677661652
 31
0.0
  0
ARC
  5
196
330
1F
100
AcDbEntity
  8
0
  6
CONTINUOUS
 62
     7
100
AcDbCircle
 10
3.0631141547
 20
1.72839624
 30
0.0
 40
0.0393700787401594
100
AcDbArc
 50
17.6004799029
 51
90.0000629761
  0
ARC
  5
197
330
1F
100
AcDbEntity
  8
0
  6
CONTINUOUS
 62
     7
100
AcDbCircle
 10
3.2946563119
 20
1.8018478733
 30
0.0
 40
0.203543307086615
100
AcDbArc
 50
197.6004799029
 51
24.887906855
  0
ARC
  5
198
330
1F
100
AcDbEntity
  8
0
  6
CONTINUOUS
 62
     7
100
AcDbCircle
 10
3.5150110264
 20
1.9040766013
 30
0.0
 40
0.0393700787401619
100
AcDbArc
 50
180.0
 51
204.887906855
  0
LINE
  5
199
330
1F
100
AcDbEntity
  8
0
  6
CONTINUOUS
 62
     7
100
AcDbLine
 10
3.4756409599
 20
2.1448416625
 30
0.0
 11
3.4756409599
 21
1.9040765905
 31
0.0
  0
ARC
  5
19A
330
1F
100
AcDbEntity
  8
0
  6
CONTINUOUS
 62
     7
100
AcDbCircle
 10
3.5150128166
 20
2.1448416879
 30
0.0
 40
0.0393718690164109
100
AcDbArc
 50
155.1122159835
 51
180.0
  0
ARC
  5
19B
330
1F
100
AcDbEntity
  8
0
  6
CONTINUOUS
 62
     7
100
AcDbCircle
 10
3.294656259
 20
2.2470706969
 30
0.0
 40
0.2035433070866156
100
AcDbArc
 50
335.1122159835
 51
3.9447391857
  0
LINE
  5
19C
330
1F
100
AcDbEntity
  8
0
  6
CONTINUOUS
 62
     7
100
AcDbLine
 10
18.7171077158
 20
2.2610733598
 30
0.0
 11
3.4977172649
 21
2.2610733598
 31
0.0
  0
ARC
  5
19D
330
1F
100
AcDbEntity
  8
0
  6
CONTINUOUS
 62
     7
100
AcDbCircle
 10
18.9201688904
 20
2.2470704159
 30
0.0
 40
0.203543258785852
100
AcDbArc
 50
176.0551805902
 51
204.8878223268
  0
ARC
  5
19E
330
1F
100
AcDbEntity
  8
0
  6
CONTINUOUS
 62
     7
100
AcDbCircle
 10
18.699814176
 20
2.1448420829
 30
0.0
 40
0.0393700090846352
100
AcDbArc
 50
0.0
 51
24.8878223268
  0
LINE
  5
19F
330
1F
100
AcDbEntity
  8
0
  6
CONTINUOUS
 62
     7
100
AcDbLine
 10
18.7391837275
 20
1.9040761506
 30
0.0
 11
18.7391837275
 21
2.1448421025
 31
0.0
  0
ARC
  5
1A0
330
1F
100
AcDbEntity
  8
0
  6
CONTINUOUS
 62
     7
100
AcDbCircle
 10
18.699814176
 20
1.9040762063
 30
0.0
 40
0.0393700787401592
100
AcDbArc
 50
335.1121228022
 51
0.0
  0
ARC
  5
1A1
330
1F
100
AcDbEntity
  8
0
  6
CONTINUOUS
 62
     7
100
AcDbCircle
 10
18.9201689433
 20
1.8018475923
 30
0.0
 40
0.2035433070866163
100
AcDbArc
 50
155.1121228022
 51
342.3995463312
  0
ARC
  5
1A2
330
1F
100
AcDbEntity
  8
0
  6
CONTINUOUS
 62
     7
100
AcDbCircle
 10
19.1517111342
 20
1.728396065
 30
0.0
 40
0.039370078740157
100
AcDbArc
 50
90.0000629761
 51
162.3995463312
  0
LINE
  5
1A3
330
1F
100
AcDbEntity
  8
0
  6
CONTINUOUS
 62
     7
100
AcDbLine
 10
19.3109096029
 20
1.7677663119
 30
0.0
 11
19.1517112286
 21
1.7677661652
 31
0.0
  0
ARC
  5
1A4
330
1F
100
AcDbEntity
  8
0
  6
CONTINUOUS
 62
     7
100
AcDbCircle
 10
19.3109094303
 20
1.72839624
 30
0.0
 40
0.0393700787401582
100
AcDbArc
 50
17.6004799029
 51
90.0000629761
  0
ARC
  5
1A5
330
1F
100
AcDbEntity
  8
0
  6
CONTINUOUS
 62
     7
100
AcDbCircle
 10
19.5424515875
 20
1.8018478733
 30
0.0
 40
0.2035433070866191
100
AcDbArc
 50
197.6004799029
 51
24.887906855
  0
ARC
  5
1A6
330
1F
100
AcDbEntity
  8
0
  6
CONTINUOUS
 62
     7
100
AcDbCircle
 10
19.762806302
 20
1.9040766013
 30
0.0
 40
0.0393700787401556
100
AcDbArc
 50
180.0
 51
204.887906855
  0
LINE
  5
1A7
330
1F
100
AcDbEntity
  8
0
  6
CONTINUOUS
 62
     7
100
AcDbLine
 10
19.7234359307
 20
2.1448416625
 30
0.0
 11
19.7234359307
 21
1.9040765905
 31
0.0
  0
ARC
  5
1A8
330
1F
100
AcDbEntity
  8
0
  6
CONTINUOUS
 62
     7
100
AcDbCircle
 10
19.7628080922
 20
2.1448416879
 30
0.0
 40
0.0393718690164127
100
AcDbArc
 50
155.1122159835
 51
180.0
  0
ARC
  5
1A9
330
1F
100
AcDbEntity
  8
0
  6
CONTINUOUS
 62
     7
100
AcDbCircle
 10
19.5424515346
 20
2.2470706969
 30
0.0
 40
0.2035433070866147
100
AcDbArc
 50
335.1122159835
 51
3.9447391858
  0
LINE
  5
1AA
330
1F
100
AcDbEntity
  8
0
  6
CONTINUOUS
 62
     7
100
AcDbLine
 10
20.8129243581
 20
2.2610733598
 30
0.0
 11
19.7455131156
 21
2.2610733598
 31
0.0
  0
LINE
  5
1AB
330
1F
100
AcDbEntity
  8
0
  6
CONTINUOUS
 62
     7
100
AcDbLine
 10
20.5767045803
 20
1.1839079433
 30
0.0
 11
1.2578062472
 21
1.1839079433
 31
0.0
  0
ARC
  5
1AC
330
1F
100
AcDbEntity
  8
0
  6
CONTINUOUS
 62
     7
100
AcDbCircle
 10
20.5767039398
 20
1.4201284359
 30
0.0
 40
0.2362204724409451
100
AcDbArc
 50
270.0
 51
0.0
  0
LINE
  5
1AD
330
1F
100
AcDbEntity
  8
0
  6
CONTINUOUS
 62
     7
100
AcDbLine
 10
20.8129243581
 20
2.2610733598
 30
0.0
 11
20.8129243581
 21
1.4201283812
 31
0.0
  0
LINE
  5
1AE
330
1F
100
AcDbEntity
  8
0
  6
CONTINUOUS
 62
     7
100
AcDbLine
 10
20.2207240526
 20
41.2684644364
 30
0.0
 11
20.6177238398
 21
41.3384646945
 31
0.0
  0
ARC
  5
1AF
330
1F
100
AcDbEntity
  8
0
  6
CONTINUOUS
 62
     7
100
AcDbCircle
 10
20.2617433098
 20
41.0358316879
 30
0.0
 40
0.2362204724409462
100
AcDbArc
 50
100.0
 51
180.0
  0
LINE
  5
1B0
330
1F
100
AcDbEntity
  8
0
  6
CONTINUOUS
 62
     7
100
AcDbLine
 10
20.0255235342
 20
4.6705669251
 30
0.0
 11
20.0255235342
 21
41.0358326705
 31
0.0
  0
ARC
  5
1B1
330
1F
100
AcDbEntity
  8
0
  6
CONTINUOUS
 62
     7
100
AcDbCircle
 10
20.2617433098
 20
4.6705669163
 30
0.0
 40
0.236220472440948
100
AcDbArc
 50
180.0
 51
260.0
  0
LINE
  5
1B2
330
1F
100
AcDbEntity
  8
0
  6
CONTINUOUS
 62
     7
100
AcDbLine
 10
19.238121537
 20
42.9185556678
 30
0.0
 11
19.238121537
 21
2.7878451012
 31
0.0
  0
LINE
  5
1B3
330
1F
100
AcDbEntity
  8
0
  6
CONTINUOUS
 62
     7
100
AcDbLine
 10
20.8129243581
 20
42.9185556678
 30
0.0
 11
19.238121537
 21
42.9185556678
 31
0.0
  0
LINE
  5
1B4
330
1F
100
AcDbEntity
  8
0
  6
CONTINUOUS
 62
     7
100
AcDbLine
 10
20.8129243581
 20
42.9185556678
 30
0.0
 11
20.8129243581
 21
41.5710964604
 31
0.0
  0
LINE
  5
1B5
330
1F
100
AcDbEntity
  8
0
  6
CONTINUOUS
 62
     7
100
AcDbLine
 10
20.6177238398
 20
4.3679334345
 30
0.0
 11
20.2207240526
 21
4.4379351592
 31
0.0
  0
ARC
  5
1B6
330
1F
100
AcDbEntity
  8
0
  6
CONTINUOUS
 62
     7
100
AcDbCircle
 10
20.5767039398
 20
41.5710968527
 30
0.0
 40
0.2362204724409449
100
AcDbArc
 50
280.0
 51
0.0
  0
LINE
  5
1B7
330
1F
100
AcDbEntity
  8
0
  6
CONTINUOUS
 62
     7
100
AcDbLine
 10
19.238121537
 20
2.7878451012
 30
0.0
 11
20.8129243581
 21
2.7878451012
 31
0.0
  0
ARC
  5
1B8
330
1F
100
AcDbEntity
  8
0
  6
CONTINUOUS
 62
     7
100
AcDbCircle
 10
20.5767039398
 20
4.1353017514
 30
0.0
 40
0.2362204724409445
100
AcDbArc
 50
0.0
 51
80.0
  0
LINE
  5
1B9
330
1F
100
AcDbEntity
  8
0
  6
CONTINUOUS
 62
     7
100
AcDbLine
 10
20.8129243581
 20
4.1353016686
 30
0.0
 11
20.8129243581
 21
2.7878451012
 31
0.0
  0
ARC
  5
1BA
330
1F
100
AcDbEntity
  8
0
  6
CONTINUOUS
 62
     7
100
AcDbCircle
 10
1.257806302
 20
44.2862701682
 30
0.0
 40
0.236220472440948
100
AcDbArc
 50
90.0
 51
180.0
  0
LINE
  5
1BB
330
1F
100
AcDbEntity
  8
0
  6
CONTINUOUS
 62
     7
100
AcDbLine
 10
1.2578062472
 20
44.522488499
 30
0.0
 11
20.5767045803
 21
44.522488499
 31
0.0
  0
ARC
  5
1BC
330
1F
100
AcDbEntity
  8
0
  6
CONTINUOUS
 62
     7
100
AcDbCircle
 10
19.5424515875
 20
43.4593281882
 30
0.0
 40
0.2035433070866144
100
AcDbArc
 50
356.055181528
 51
24.887906855
  0
ARC
  5
1BD
330
1F
100
AcDbEntity
  8
0
  6
CONTINUOUS
 62
     7
100
AcDbCircle
 10
19.762806302
 20
43.5615569163
 30
0.0
 40
0.0393700787401599
100
AcDbArc
 50
180.0
 51
204.887906855
  0
LINE
  5
1BE
330
1F
100
AcDbEntity
  8
0
  6
CONTINUOUS
 62
     7
100
AcDbLine
 10
19.7234359307
 20
43.8023235918
 30
0.0
 11
19.7234359307
 21
43.5615583731
 31
0.0
  0
ARC
  5
1BF
330
1F
100
AcDbEntity
  8
0
  6
CONTINUOUS
 62
     7
100
AcDbCircle
 10
19.7628080922
 20
43.8023220028
 30
0.0
 40
0.0393718690164067
100
AcDbArc
 50
155.1122159835
 51
180.0
  0
ARC
  5
1C0
330
1F
100
AcDbEntity
  8
0
  6
CONTINUOUS
 62
     7
100
AcDbCircle
 10
19.5424515346
 20
43.9045510119
 30
0.0
 40
0.2035433070866142
100
AcDbArc
 50
335.1122159835
 51
162.3995463312
  0
ARC
  5
1C1
330
1F
100
AcDbEntity
  8
0
  6
CONTINUOUS
 62
     7
100
AcDbCircle
 10
19.3109093437
 20
43.9780025392
 30
0.0
 40
0.0393700787401599
100
AcDbArc
 50
270.0000629761
 51
342.3995463312
  0
LINE
  5
1C2
330
1F
100
AcDbEntity
  8
0
  6
CONTINUOUS
 62
     7
100
AcDbLine
 10
19.1517112286
 20
43.9386304971
 30
0.0
 11
19.3109096029
 21
43.9386304971
 31
0.0
  0
ARC
  5
1C3
330
1F
100
AcDbEntity
  8
0
  6
CONTINUOUS
 62
     7
100
AcDbCircle
 10
19.1517110477
 20
43.9780023642
 30
0.0
 40
0.039370127040925
100
AcDbArc
 50
197.6004799029
 51
270.0000629761
  0
ARC
  5
1C4
330
1F
100
AcDbEntity
  8
0
  6
CONTINUOUS
 62
     7
100
AcDbCircle
 10
18.9201688904
 20
43.9045507309
 30
0.0
 40
0.2035432587858541
100
AcDbArc
 50
17.6004799029
 51
204.8878223268
  0
ARC
  5
1C5
330
1F
100
AcDbEntity
  8
0
  6
CONTINUOUS
 62
     7
100
AcDbCircle
 10
18.699814176
 20
43.8023223979
 30
0.0
 40
0.0393700090846387
100
AcDbArc
 50
0.0
 51
24.8878223268
  0
LINE
  5
1C6
330
1F
100
AcDbEntity
  8
0
  6
CONTINUOUS
 62
     7
100
AcDbLine
 10
18.7391837275
 20
43.5615583731
 30
0.0
 11
18.7391837275
 21
43.8023235918
 31
0.0
  0
ARC
  5
1C7
330
1F
100
AcDbEntity
  8
0
  6
CONTINUOUS
 62
     7
100
AcDbCircle
 10
18.699814176
 20
43.5615565212
 30
0.0
 40
0.0393700787401627
100
AcDbArc
 50
335.1121228022
 51
0.0
  0
ARC
  5
1C8
330
1F
100
AcDbEntity
  8
0
  6
CONTINUOUS
 62
     7
100
AcDbCircle
 10
18.9201689433
 20
43.4593279072
 30
0.0
 40
0.203543307086615
100
AcDbArc
 50
155.1121228022
 51
183.9447391857
  0
LINE
  5
1C9
330
1F
100
AcDbEntity
  8
0
  6
CONTINUOUS
 62
     7
100
AcDbLine
 10
3.4977172649
 20
43.4453246225
 30
0.0
 11
18.7171077158
 21
43.4453246225
 31
0.0
  0
ARC
  5
1CA
330
1F
100
AcDbEntity
  8
0
  6
CONTINUOUS
 62
     7
100
AcDbCircle
 10
3.2946563119
 20
43.4593281882
 30
0.0
 40
0.203543307086619
100
AcDbArc
 50
356.055181528
 51
24.887906855
  0
ARC
  5
1CB
330
1F
100
AcDbEntity
  8
0
  6
CONTINUOUS
 62
     7
100
AcDbCircle
 10
3.5150110264
 20
43.5615569163
 30
0.0
 40
0.0393700787401619
100
AcDbArc
 50
180.0
 51
204.887906855
  0
LINE
  5
1CC
330
1F
100
AcDbEntity
  8
0
  6
CONTINUOUS
 62
     7
100
AcDbLine
 10
3.4756409599
 20
43.8023235918
 30
0.0
 11
3.4756409599
 21
43.5615583731
 31
0.0
  0
ARC
  5
1CD
330
1F
100
AcDbEntity
  8
0
  6
CONTINUOUS
 62
     7
100
AcDbCircle
 10
3.5150128166
 20
43.8023220028
 30
0.0
 40
0.0393718690164091
100
AcDbArc
 50
155.1122159835
 51
180.0
  0
ARC
  5
1CE
330
1F
100
AcDbEntity
  8
0
  6
CONTINUOUS
 62
     7
100
AcDbCircle
 10
3.294656259
 20
43.9045510119
 30
0.0
 40
0.2035433070866141
100
AcDbArc
 50
335.1122159835
 51
162.3995463312
  0
ARC
  5
1CF
330
1F
100
AcDbEntity
  8
0
  6
CONTINUOUS
 62
     7
100
AcDbCircle
 10
3.0631140681
 20
43.9780025392
 30
0.0
 40
0.0393700787401602
100
AcDbArc
 50
270.0000629761
 51
342.3995463312
  0
LINE
  5
1D0
330
1F
100
AcDbEntity
  8
0
  6
CONTINUOUS
 62
     7
100
AcDbLine
 10
2.9039156712
 20
43.9386304971
 30
0.0
 11
3.0631140454
 21
43.9386304971
 31
0.0
  0
ARC
  5
1D1
330
1F
100
AcDbEntity
  8
0
  6
CONTINUOUS
 62
     7
100
AcDbCircle
 10
2.9039157721
 20
43.9780023642
 30
0.0
 40
0.0393701270409183
100
AcDbArc
 50
197.6004799029
 51
270.0000629761
  0
ARC
  5
1D2
330
1F
100
AcDbEntity
  8
0
  6
CONTINUOUS
 62
     7
100
AcDbCircle
 10
2.6723736148
 20
43.9045507309
 30
0.0
 40
0.2035432587858541
100
AcDbArc
 50
17.6004799029
 51
204.8878223268
  0
ARC
  5
1D3
330
1F
100
AcDbEntity
  8
0
  6
CONTINUOUS
 62
     7
100
AcDbCircle
 10
2.4520189004
 20
43.8023223979
 30
0.0
 40
0.0393700090846383
100
AcDbArc
 50
0.0
 51
24.8878223268
  0
LINE
  5
1D4
330
1F
100
AcDbEntity
  8
0
  6
CONTINUOUS
 62
     7
100
AcDbLine
 10
2.4913890501
 20
43.5615583731
 30
0.0
 11
2.4913890501
 21
43.8023235918
 31
0.0
  0
ARC
  5
1D5
330
1F
100
AcDbEntity
  8
0
  6
CONTINUOUS
 62
     7
100
AcDbCircle
 10
2.4520189004
 20
43.5615565212
 30
0.0
 40
0.0393700787401623
100
AcDbArc
 50
335.1121228022
 51
0.0
  0
ARC
  5
1D6
330
1F
100
AcDbEntity
  8
0
  6
CONTINUOUS
 62
     7
100
AcDbCircle
 10
2.6723736677
 20
43.4593279072
 30
0.0
 40
0.2035433070866204
100
AcDbArc
 50
155.1121228022
 51
183.9447391857
  0
LINE
  5
1D7
330
1F
100
AcDbEntity
  8
0
  6
CONTINUOUS
 62
     7
100
AcDbLine
 10
1.0215858094
 20
43.4453246225
 30
0.0
 11
2.4693124518
 21
43.4453246225
 31
0.0
  0
LINE
  5
1D8
330
1F
100
AcDbEntity
  8
0
  6
CONTINUOUS
 62
     7
100
AcDbLine
 10
1.0215858094
 20
43.4453246225
 30
0.0
 11
1.0215858094
 21
44.2862710678
 31
0.0
  0
LINE
  5
1D9
330
1F
100
AcDbEntity
  8
0
  6
CONTINUOUS
 62
     7
100
AcDbLine
 10
20.8129243581
 20
44.2862710678
 30
0.0
 11
20.8129243581
 21
43.4453246225
 31
0.0
  0
LINE
  5
1DA
330
1F
100
AcDbEntity
  8
0
  6
CONTINUOUS
 62
     7
100
AcDbLine
 10
19.7455131156
 20
43.4453246225
 30
0.0
 11
20.8129243581
 21
43.4453246225
 31
0.0
  0
ARC
  5
1DB
330
1F
100
AcDbEntity
  8
0
  6
CONTINUOUS
 62
     7
100
AcDbCircle
 10
20.5767039398
 20
44.2862701682
 30
0.0
 40
0.2362204724409551
100
AcDbArc
 50
0.0
 51
90.0
  0
LINE
  5
1DC
330
1F
100
AcDbEntity
  8
0
  6
CONTINUOUS
 62
     7
100
AcDbLine
 10
1.0215858094
 20
2.7878451012
 30
0.0
 11
18.7247354677
 21
2.7878451012
 31
0.0
  0
LINE
  5
1DD
330
1F
100
AcDbEntity
  8
0
  6
CONTINUOUS
 62
     7
100
AcDbLine
 10
1.0215858094
 20
2.7878451012
 30
0.0
 11
1.0215858094
 21
42.9185556678
 31
0.0
  0
LINE
  5
1DE
330
1F
100
AcDbEntity
  8
0
  6
CONTINUOUS
 62
     7
100
AcDbLine
 10
18.7247354677
 20
42.9185556678
 30
0.0
 11
1.0215858094
 21
42.9185556678
 31
0.0
  0
LINE
  5
1DF
330
1F
100
AcDbEntity
  8
0
  6
CONTINUOUS
 62
     7
100
AcDbLine
 10
18.7247354677
 20
2.7878451012
 30
0.0
 11
18.7247354677
 21
42.9185556678
 31
0.0
  0
ARC
  5
1E0
330
1F
100
AcDbEntity
  8
0
  6
CONTINUOUS
 62
     7
100
AcDbCircle
 10
19.3109093437
 20
2.3205222242
 30
0.0
 40
0.0393700787401594
100
AcDbArc
 50
270.0000629761
 51
342.3995463312
  0
LINE
  5
1E1
330
1F
100
AcDbEntity
  8
0
  6
CONTINUOUS
 62
     7
100
AcDbLine
 10
19.3109096029
 20
2.2811520879
 30
0.0
 11
19.1517112286
 21
2.2811519412
 31
0.0
  0
ARC
  5
1E2
330
1F
100
AcDbEntity
  8
0
  6
CONTINUOUS
 62
     7
100
AcDbCircle
 10
19.1517110477
 20
2.3205220492
 30
0.0
 40
0.0393700787401608
100
AcDbArc
 50
197.6004799029
 51
270.0000629761
  0
ARC
  5
1E3
330
1F
100
AcDbEntity
  8
0
  6
CONTINUOUS
 62
     7
100
AcDbCircle
 10
3.0631140681
 20
2.3205222242
 30
0.0
 40
0.0393700787401594
100
AcDbArc
 50
270.0000629761
 51
342.3995463312
  0
LINE
  5
1E4
330
1F
100
AcDbEntity
  8
0
  6
CONTINUOUS
 62
     7
100
AcDbLine
 10
3.0631140454
 20
2.2811520879
 30
0.0
 11
2.9039156712
 21
2.2811519412
 31
0.0
  0
ARC
  5
1E5
330
1F
100
AcDbEntity
  8
0
  6
CONTINUOUS
 62
     7
100
AcDbCircle
 10
2.9039157721
 20
2.3205220492
 30
0.0
 40
0.0393700787401594
100
AcDbArc
 50
197.6004799029
 51
270.0000629761
  0
ARC
  5
1E6
330
1F
100
AcDbEntity
  8
0
  6
CONTINUOUS
 62
     7
100
AcDbCircle
 10
2.9039158586
 20
43.3858763799
 30
0.0
 40
0.0393700787401598
100
AcDbArc
 50
90.0000629761
 51
162.3995463312
  0
LINE
  5
1E7
330
1F
100
AcDbEntity
  8
0
  6
CONTINUOUS
 62
     7
100
AcDbLine
 10
2.9039156712
 20
43.4252467744
 30
0.0
 11
3.0631140454
 21
43.4252467744
 31
0.0
  0
ARC
  5
1E8
330
1F
100
AcDbEntity
  8
0
  6
CONTINUOUS
 62
     7
100
AcDbCircle
 10
3.0631141547
 20
43.3858765549
 30
0.0
 40
0.0393700787401585
100
AcDbArc
 50
17.6004799029
 51
90.0000629761
  0
ARC
  5
1E9
330
1F
100
AcDbEntity
  8
0
  6
CONTINUOUS
 62
     7
100
AcDbCircle
 10
19.1517111342
 20
43.3858763799
 30
0.0
 40
0.0393700787401581
100
AcDbArc
 50
90.0000629761
 51
162.3995463312
  0
LINE
  5
1EA
330
1F
100
AcDbEntity
  8
0
  6
CONTINUOUS
 62
     7
100
AcDbLine
 10
19.1517112286
 20
43.4252467744
 30
0.0
 11
19.3109096029
 21
43.4252467744
 31
0.0
  0
ARC
  5
1EB
330
1F
100
AcDbEntity
  8
0
  6
CONTINUOUS
 62
     7
100
AcDbCircle
 10
19.3109094303
 20
43.3858765549
 30
0.0
 40
0.0393700787401615
100
AcDbArc
 50
17.6004799029
 51
90.0000629761
  0
LINE
  5
1EC
330
1F
100
AcDbEntity
  8
0
  6
CONTINUOUS
 62
     7
100
AcDbLine
 10
1.0215858094
 20
2.7878451012
 30
0.0
 11
1.0215858094
 21
2.2610733598
 31
0.0
  0
LINE
  5
1ED
330
1F
100
AcDbEntity
  8
0
  6
CONTINUOUS
 62
     7
100
AcDbLine
 10
1.0215858094
 20
43.4453246225
 30
0.0
 11
1.0215858094
 21
42.9185556678
 31
0.0
  0
ARC
  5
1EE
330
1F
100
AcDbEntity
  8
0
  6
CONTINUOUS
 62
     7
100
AcDbCircle
 10
3.2946563119
 20
43.4593281882
 30
0.0
 40
0.2035433070866122
100
AcDbArc
 50
197.6004799029
 51
356.055181528
  0
ARC
  5
1EF
330
1F
100
AcDbEntity
  8
0
  6
CONTINUOUS
 62
     7
100
AcDbCircle
 10
2.6723736148
 20
2.2470704159
 30
0.0
 40
0.2035433070866122
100
AcDbArc
 50
17.6004799029
 51
176.0551805902
  0
ARC
  5
1F0
330
1F
100
AcDbEntity
  8
0
  6
CONTINUOUS
 62
     7
100
AcDbCircle
 10
2.6723736677
 20
43.4593279072
 30
0.0
 40
0.2035433070866167
100
AcDbArc
 50
183.9447391857
 51
342.3995463312
  0
ARC
  5
1F1
330
1F
100
AcDbEntity
  8
0
  6
CONTINUOUS
 62
     7
100
AcDbCircle
 10
3.294656259
 20
2.2470706969
 30
0.0
 40
0.2035433070866162
100
AcDbArc
 50
3.9447391858
 51
162.3995463312
  0
ARC
  5
1F2
330
1F
100
AcDbEntity
  8
0
  6
CONTINUOUS
 62
     7
100
AcDbCircle
 10
18.9201689433
 20
43.4593279072
 30
0.0
 40
0.2035433070866142
100
AcDbArc
 50
183.9447391857
 51
342.3995463312
  0
ARC
  5
1F3
330
1F
100
AcDbEntity
  8
0
  6
CONTINUOUS
 62
     7
100
AcDbCircle
 10
18.9201688904
 20
2.2470704159
 30
0.0
 40
0.2035433070866063
100
AcDbArc
 50
17.6004799029
 51
176.0551805903
  0
ARC
  5
1F4
330
1F
100
AcDbEntity
  8
0
  6
CONTINUOUS
 62
     7
100
AcDbCircle
 10
19.5424515875
 20
43.4593281882
 30
0.0
 40
0.2035433070866154
100
AcDbArc
 50
197.6004799029
 51
356.055181528
  0
ARC
  5
1F5
330
1F
100
AcDbEntity
  8
0
  6
CONTINUOUS
 62
     7
100
AcDbCircle
 10
19.5424515346
 20
2.2470706969
 30
0.0
 40
0.2035433070866195
100
AcDbArc
 50
3.9447391857
 51
162.3995463312
  0
LINE
  5
1F6
330
1F
100
AcDbEntity
  8
0
  6
CONTINUOUS
 62
     7
100
AcDbLine
 10
20.8129243581
 20
42.9185556678
 30
0.0
 11
20.8129243581
 21
43.4453246225
 31
0.0
  0
LINE
  5
1F7
330
1F
100
AcDbEntity
  8
0
  6
CONTINUOUS
 62
     7
100
AcDbLine
 10
20.8129243581
 20
2.2610733598
 30
0.0
 11
20.8129243581
 21
2.7878451012
 31
0.0
  0
LINE
  5
1F8
330
1F
100
AcDbEntity
  8
0
  6
CONTINUOUS
 62
     7
100
AcDbLine
 10
61.0704036203
 20
22.2146171348
 30
0.0
 11
61.0704036203
 21
23.7894187825
 31
0.0
  0
LINE
  5
1F9
330
1F
100
AcDbEntity
  8
0
  6
CONTINUOUS
 62
     7
100
AcDbLine
 10
52.6963875043
 20
23.7894187825
 30
0.0
 11
52.6963875043
 21
22.2146171348
 31
0.0
  0
LINE
  5
1FA
330
1F
100
AcDbEntity
  8
0
  6
CONTINUOUS
 62
     7
100
AcDbLine
 10
52.6963875043
 20
23.7894187825
 30
0.0
 11
61.0704036203
 21
23.7894187825
 31
0.0
  0
LINE
  5
1FB
330
1F
100
AcDbEntity
  8
0
  6
CONTINUOUS
 62
     7
100
AcDbLine
 10
52.6963875043
 20
22.2146171348
 30
0.0
 11
61.0704036203
 21
22.2146171348
 31
0.0
  0
LINE
  5
1FC
330
1F
100
AcDbEntity
  8
0
  6
CONTINUOUS
 62
     7
100
AcDbLine
 10
61.0704036203
 20
42.0059569302
 30
0.0
 11
52.6963875043
 21
42.0059569302
 31
0.0
  0
LINE
  5
1FD
330
1F
100
AcDbEntity
  8
0
  6
CONTINUOUS
 62
     7
100
AcDbLine
 10
61.0704036203
 20
24.2961122358
 30
0.0
 11
52.6963875043
 21
24.2961122358
 31
0.0
  0
LINE
  5
1FE
330
1F
100
AcDbEntity
  8
0
  6
CONTINUOUS
 62
     7
100
AcDbLine
 10
52.6963875043
 20
42.0059569302
 30
0.0
 11
52.6963875043
 21
24.2961122358
 31
0.0
  0
LINE
  5
1FF
330
1F
100
AcDbEntity
  8
0
  6
CONTINUOUS
 62
     7
100
AcDbLine
 10
61.0704036203
 20
24.2961122358
 30
0.0
 11
61.0704036203
 21
42.0059569302
 31
0.0
  0
LINE
  5
200
330
1F
100
AcDbEntity
  8
0
  6
CONTINUOUS
 62
     7
100
AcDbLine
 10
52.6963875043
 20
23.7894187825
 30
0.0
 11
52.6963875043
 21
24.2961122358
 31
0.0
  0
LINE
  5
201
330
1F
100
AcDbEntity
  8
0
  6
CONTINUOUS
 62
     7
100
AcDbLine
 10
61.0704036203
 20
24.2961122358
 30
0.0
 11
61.0704036203
 21
23.7894187825
 31
0.0
  0
LINE
  5
202
330
1F
100
AcDbEntity
  8
0
  6
CONTINUOUS
 62
     7
100
AcDbLine
 10
52.6963875043
 20
2.7587109844
 30
0.0
 11
52.6963875043
 21
1.1839079433
 31
0.0
  0
LINE
  5
203
330
1F
100
AcDbEntity
  8
0
  6
CONTINUOUS
 62
     7
100
AcDbLine
 10
61.0704036203
 20
2.7587109844
 30
0.0
 11
52.6963875043
 21
2.7587109844
 31
0.0
  0
LINE
  5
204
330
1F
100
AcDbEntity
  8
0
  6
CONTINUOUS
 62
     7
100
AcDbLine
 10
52.6963875043
 20
1.1839079433
 30
0.0
 11
61.0704036203
 21
1.1839079433
 31
0.0
  0
LINE
  5
205
330
1F
100
AcDbEntity
  8
0
  6
CONTINUOUS
 62
     7
100
AcDbLine
 10
61.0704036203
 20
1.1839079433
 30
0.0
 11
61.0704036203
 21
2.7587109844
 31
0.0
  0
LINE
  5
206
330
1F
100
AcDbEntity
  8
0
  6
CONTINUOUS
 62
     7
100
AcDbLine
 10
61.0704036203
 20
20.9752464921
 30
0.0
 11
52.6963875043
 21
20.9752464921
 31
0.0
  0
LINE
  5
207
330
1F
100
AcDbEntity
  8
0
  6
CONTINUOUS
 62
     7
100
AcDbLine
 10
52.6963875043
 20
3.2654041444
 30
0.0
 11
61.0704036203
 21
3.2654041444
 31
0.0
  0
LINE
  5
208
330
1F
100
AcDbEntity
  8
0
  6
CONTINUOUS
 62
     7
100
AcDbLine
 10
52.6963875043
 20
20.9752464921
 30
0.0
 11
52.6963875043
 21
3.2654041444
 31
0.0
  0
LINE
  5
209
330
1F
100
AcDbEntity
  8
0
  6
CONTINUOUS
 62
     7
100
AcDbLine
 10
61.0704036203
 20
3.2654041444
 30
0.0
 11
61.0704036203
 21
20.9752464921
 31
0.0
  0
LINE
  5
20A
330
1F
100
AcDbEntity
  8
0
  6
CONTINUOUS
 62
     7
100
AcDbLine
 10
52.6963875043
 20
2.7587109844
 30
0.0
 11
52.6963875043
 21
3.2654041444
 31
0.0
  0
LINE
  5
20B
330
1F
100
AcDbEntity
  8
0
  6
CONTINUOUS
 62
     7
100
AcDbLine
 10
61.0704036203
 20
3.2654041444
 30
0.0
 11
61.0704036203
 21
2.7587109844
 31
0.0
  0
LINE
  5
20C
330
1F
100
AcDbEntity
  8
0
  6
CONTINUOUS
 62
     7
100
AcDbLine
 10
51.4570192083
 20
41.841387098
 30
0.0
 11
43.0830030923
 21
41.841387098
 31
0.0
  0
LINE
  5
20D
330
1F
100
AcDbEntity
  8
0
  6
CONTINUOUS
 62
     7
100
AcDbLine
 10
51.4570192083
 20
1.1839079433
 30
0.0
 11
51.4570192083
 21
41.841387098
 31
0.0
  0
LINE
  5
20E
330
1F
100
AcDbEntity
  8
0
  6
CONTINUOUS
 62
     7
100
AcDbLine
 10
43.0830030923
 20
1.1839079433
 30
0.0
 11
51.4570192083
 21
1.1839079433
 31
0.0
  0
LINE
  5
20F
330
1F
100
AcDbEntity
  8
0
  6
CONTINUOUS
 62
     7
100
AcDbLine
 10
43.0830030923
 20
41.841387098
 30
0.0
 11
43.0830030923
 21
1.1839079433
 31
0.0
  0
LINE
  5
210
330
1F
100
AcDbEntity
  8
POCKETS
100
AcDbLine
 10
61.4641055146
 20
3.2654040265
 30
0.0
 11
52.3026881917
 21
3.2654040265
 31
0.0
  0
LINE
  5
211
330
1F
100
AcDbEntity
  8
POCKETS
100
AcDbLine
 10
52.3026881917
 20
3.2654040265
 30
0.0
 11
52.3026881917
 21
2.7587111131
 31
0.0
  0
LINE
  5
212
330
1F
100
AcDbEntity
  8
POCKETS
100
AcDbLine
 10
52.3026881917
 20
2.7587111131
 30
0.0
 11
61.4641055146
 21
2.7587111131
 31
0.0
  0
LINE
  5
213
330
1F
100
AcDbEntity
  8
PROFILES_OUTSIDE
100
AcDbLine
 10
20.8129244122
 20
41.5710968527
 30
0.0
 11
20.8129244122
 21
44.5224906407
 31
0.0
  0
LINE
  5
214
330
1F
100
AcDbEntity
  8
PROFILES_OUTSIDE
100
AcDbLine
 10
20.8129244122
 20
44.5224906407
 30
0.0
 11
1.0215858295
 21
44.5224906407
 31
0.0
  0
LINE
  5
215
330
1F
100
AcDbEntity
  8
PROFILES_OUTSIDE
100
AcDbLine
 10
1.0215858295
 20
44.5224906407
 30
0.0
 11
1.0215858295
 21
1.1839079635
 31
0.0
  0
LINE
  5
216
330
1F
100
AcDbEntity
  8
PROFILES_OUTSIDE
100
AcDbLine
 10
1.0215858295
 20
1.1839079635
 30
0.0
 11
20.8129244122
 21
1.1839079635
 31
0.0
  0
LINE
  5
217
330
1F
100
AcDbEntity
  8
POCKETS
100
AcDbLine
 10
61.4641055146
 20
2.7587111131
 30
0.0
 11
61.4641055146
 21
3.2654040265
 31
0.0
  0
LINE
  5
218
330
1F
100
AcDbEntity
  8
PROFILES_OUTSIDE
100
AcDbLine
 10
20.8129244122
 20
1.1839079635
 30
0.0
 11
20.8129244122
 21
4.1353017514
 31
0.0
  0
LINE
  5
219
330
1F
100
AcDbEntity
  8
PROFILES_OUTSIDE
100
AcDbLine
 10
20.6177231943
 20
4.3679335041
 30
0.0
 11
20.2207240553
 21
4.4379351636
 31
0.0
  0
LINE
  5
21A
330
1F
100
AcDbEntity
  8
PROFILES_OUTSIDE
100
AcDbLine
 10
20.0255228374
 20
4.6705669163
 30
0.0
 11
20.0255228374
 21
41.0358316879
 31
0.0
  0
LINE
  5
21B
330
1F
100
AcDbEntity
  8
PROFILES_OUTSIDE
100
AcDbLine
 10
20.2207240553
 20
41.2684634405
 30
0.0
 11
20.6177231943
 21
41.3384651001
 31
0.0
  0
LINE
  5
21C
330
1F
100
AcDbEntity
  8
PROFILES_INSIDE
100
AcDbLine
 10
19.7234362232
 20
43.5615569163
 30
0.0
 11
19.7234362232
 21
43.8023220028
 31
0.0
  0
LINE
  5
21D
330
1F
100
AcDbEntity
  8
PROFILES_INSIDE
100
AcDbLine
 10
19.1517110909
 20
43.4252464587
 30
0.0
 11
19.310909387
 21
43.4252466337
 31
0.0
  0
LINE
  5
21E
330
1F
100
AcDbEntity
  8
PROFILES_INSIDE
100
AcDbLine
 10
18.7391841851
 20
43.8023223979
 30
0.0
 11
18.7391842547
 21
43.5615565212
 31
0.0
  0
LINE
  5
21F
330
1F
100
AcDbEntity
  8
PROFILES_INSIDE
100
AcDbLine
 10
19.310909387
 20
43.9386324604
 30
0.0
 11
19.1517110909
 21
43.938632219
 31
0.0
  0
LINE
  5
220
330
1F
100
AcDbEntity
  8
PROFILES_OUTSIDE
100
AcDbLine
 10
51.4570189004
 20
1.1839079635
 30
0.0
 11
51.4570189004
 21
41.8413882785
 31
0.0
  0
LINE
  5
221
330
1F
100
AcDbEntity
  8
PROFILES_OUTSIDE
100
AcDbLine
 10
51.4570189004
 20
41.8413882785
 30
0.0
 11
43.0830031524
 21
41.8413882785
 31
0.0
  0
LINE
  5
222
330
1F
100
AcDbEntity
  8
PROFILES_OUTSIDE
100
AcDbLine
 10
43.0830031524
 20
41.8413882785
 30
0.0
 11
43.0830031524
 21
1.1839079635
 31
0.0
  0
LINE
  5
223
330
1F
100
AcDbEntity
  8
PROFILES_OUTSIDE
100
AcDbLine
 10
43.0830031524
 20
1.1839079635
 30
0.0
 11
51.4570189004
 21
1.1839079635
 31
0.0
  0
LINE
  5
224
330
1F
100
AcDbEntity
  8
PROFILES_OUTSIDE
100
AcDbLine
 10
61.0704047272
 20
20.9752465462
 30
0.0
 11
52.6963889791
 21
20.9752465462
 31
0.0
  0
LINE
  5
225
330
1F
100
AcDbEntity
  8
PROFILES_OUTSIDE
100
AcDbLine
 10
52.6963889791
 20
20.9752465462
 30
0.0
 11
52.6963889791
 21
1.1839079635
 31
0.0
  0
LINE
  5
226
330
1F
100
AcDbEntity
  8
PROFILES_OUTSIDE
100
AcDbLine
 10
52.6963889791
 20
1.1839079635
 30
0.0
 11
61.0704047272
 21
1.1839079635
 31
0.0
  0
LINE
  5
227
330
1F
100
AcDbEntity
  8
PROFILES_OUTSIDE
100
AcDbLine
 10
61.0704047272
 20
1.1839079635
 30
0.0
 11
61.0704047272
 21
20.9752465462
 31
0.0
  0
LINE
  5
228
330
1F
100
AcDbEntity
  8
PROFILES_OUTSIDE
100
AcDbLine
 10
52.6963889791
 20
42.0059552076
 30
0.0
 11
52.6963889791
 21
22.2146166249
 31
0.0
  0
LINE
  5
229
330
1F
100
AcDbEntity
  8
PROFILES_OUTSIDE
100
AcDbLine
 10
52.6963889791
 20
22.2146166249
 30
0.0
 11
61.0704047272
 21
22.2146166249
 31
0.0
  0
LINE
  5
22A
330
1F
100
AcDbEntity
  8
BOX_STOCK
100
AcDbLine
 10
0.0082000027
 20
0.1705221367
 30
0.0
 11
96.0711921287
 21
0.1705221367
 31
0.0
  0
LINE
  5
22B
330
1F
100
AcDbEntity
  8
BOX_STOCK
100
AcDbLine
 10
96.0711921287
 20
0.1705221367
 30
0.0
 11
96.0711921287
 21
48.2020181997
 31
0.0
  0
LINE
  5
22C
330
1F
100
AcDbEntity
  8
BOX_STOCK
100
AcDbLine
 10
96.0711921287
 20
48.2020181997
 30
0.0
 11
0.0082000027
 21
48.2020181997
 31
0.0
  0
LINE
  5
22D
330
1F
100
AcDbEntity
  8
BOX_STOCK
100
AcDbLine
 10
0.0082000027
 20
48.2020181997
 30
0.0
 11
0.0082000027
 21
0.1705221367
 31
0.0
  0
LINE
  5
22E
330
1F
100
AcDbEntity
  8
POCKETS
100
AcDbLine
 10
61.4641055146
 20
24.2961126879
 30
0.0
 11
52.3026881917
 21
24.2961126879
 31
0.0
  0
LINE
  5
22F
330
1F
100
AcDbEntity
  8
PROFILES_OUTSIDE
100
AcDbLine
 10
61.0704047272
 20
22.2146166249
 30
0.0
 11
61.0704047272
 21
42.0059552076
 31
0.0
  0
LINE
  5
230
330
1F
100
AcDbEntity
  8
POCKETS
100
AcDbLine
 10
52.3026881917
 20
24.2961126879
 30
0.0
 11
52.3026881917
 21
23.7894197745
 31
0.0
  0
LINE
  5
231
330
1F
100
AcDbEntity
  8
POCKETS
100
AcDbLine
 10
52.3026881917
 20
23.7894197745
 30
0.0
 11
61.4641055146
 21
23.7894197745
 31
0.0
  0
LINE
  5
232
330
1F
100
AcDbEntity
  8
POCKETS
100
AcDbLine
 10
61.4641055146
 20
23.7894197745
 30
0.0
 11
61.4641055146
 21
24.2961126879
 31
0.0
  0
LINE
  5
233
330
1F
100
AcDbEntity
  8
PROFILES_OUTSIDE
100
AcDbLine
 10
61.0704047272
 20
42.0059552076
 30
0.0
 11
52.6963889791
 21
42.0059552076
 31
0.0
  0
LINE
  5
234
330
1F
100
AcDbEntity
  8
PROFILES_INSIDE
100
AcDbLine
 10
3.4756409476
 20
43.5615569163
 30
0.0
 11
3.4756409476
 21
43.8023220028
 31
0.0
  0
LINE
  5
235
330
1F
100
AcDbEntity
  8
PROFILES_INSIDE
100
AcDbLine
 10
3.0631141114
 20
43.9386324604
 30
0.0
 11
2.9039158153
 21
43.9386322613
 31
0.0
  0
LINE
  5
236
330
1F
100
AcDbEntity
  8
PROFILES_INSIDE
100
AcDbLine
 10
2.4913889034
 20
43.8023223979
 30
0.0
 11
2.4913889791
 21
43.5615565212
 31
0.0
  0
LINE
  5
237
330
1F
100
AcDbEntity
  8
PROFILES_INSIDE
100
AcDbLine
 10
2.9039158153
 20
43.4252464587
 30
0.0
 11
3.0631141114
 21
43.4252466337
 31
0.0
  0
LINE
  5
238
330
1F
100
AcDbEntity
  8
PROFILES_INSIDE
100
AcDbLine
 10
19.7234362232
 20
1.9040766013
 30
0.0
 11
19.7234362232
 21
2.1448416879
 31
0.0
  0
LINE
  5
239
330
1F
100
AcDbEntity
  8
PROFILES_INSIDE
100
AcDbLine
 10
19.310909387
 20
2.2811521455
 30
0.0
 11
19.1517110909
 21
2.2811519644
 31
0.0
  0
LINE
  5
23A
330
1F
100
AcDbEntity
  8
PROFILES_INSIDE
100
AcDbLine
 10
18.739184173
 20
2.1448420829
 30
0.0
 11
18.7391842547
 21
1.9040762063
 31
0.0
  0
LINE
  5
23B
330
1F
100
AcDbEntity
  8
PROFILES_INSIDE
100
AcDbLine
 10
19.1517110909
 20
1.7677661437
 30
0.0
 11
19.310909387
 21
1.7677663187
 31
0.0
  0
LINE
  5
23C
330
1F
100
AcDbEntity
  8
PROFILES_INSIDE
100
AcDbLine
 10
2.4913889095
 20
2.1448420829
 30
0.0
 11
2.4913889791
 21
1.9040762063
 31
0.0
  0
LINE
  5
23D
330
1F
100
AcDbEntity
  8
PROFILES_INSIDE
100
AcDbLine
 10
2.9039158153
 20
1.7677661437
 30
0.0
 11
3.0631141114
 21
1.7677663187
 31
0.0
  0
LINE
  5
23E
330
1F
100
AcDbEntity
  8
PROFILES_INSIDE
100
AcDbLine
 10
3.4756409476
 20
1.9040766013
 30
0.0
 11
3.4756409476
 21
2.1448416879
 31
0.0
  0
LINE
  5
23F
330
1F
100
AcDbEntity
  8
PROFILES_INSIDE
100
AcDbLine
 10
3.0631141114
 20
2.2811521455
 30
0.0
 11
2.9039158153
 21
2.2811519705
 31
0.0
  0
LINE
  5
240
330
1F
100
AcDbEntity
  8
PROFILES_OUTSIDE
100
AcDbLine
 10
62.7648929161
 20
19.1542229241
 30
0.0
 11
62.3491448846
 21
19.1542229241
 31
0.0
  0
LINE
  5
241
330
1F
100
AcDbEntity
  8
PROFILES_OUTSIDE
100
AcDbLine
 10
62.7782821932
 20
18.9450154702
 30
0.0
 11
62.7648929161
 21
19.1542229241
 31
0.0
  0
LINE
  5
242
330
1F
100
AcDbEntity
  8
PROFILES_OUTSIDE
100
AcDbLine
 10
63.1577166018
 20
18.908159932
 30
0.0
 11
62.8175718889
 21
18.908159932
 31
0.0
  0
LINE
  5
243
330
1F
100
AcDbEntity
  8
PROFILES_OUTSIDE
100
AcDbLine
 10
63.2940267744
 20
19.4003646564
 30
0.0
 11
63.2940267744
 21
19.3206867682
 31
0.0
  0
LINE
  5
244
330
1F
100
AcDbEntity
  8
PROFILES_OUTSIDE
100
AcDbLine
 10
65.774341735
 20
19.4003646564
 30
0.0
 11
63.2940267744
 21
19.4003646564
 31
0.0
  0
LINE
  5
245
330
1F
100
AcDbEntity
  8
PROFILES_OUTSIDE
100
AcDbLine
 10
66.2467826799
 20
13.6431730554
 30
0.0
 11
66.2467826799
 21
18.9279237115
 31
0.0
  0
LINE
  5
246
330
1F
100
AcDbEntity
  8
PROFILES_OUTSIDE
100
AcDbLine
 10
67.742845672
 20
13.1707321105
 30
0.0
 11
66.7192236248
 21
13.1707321105
 31
0.0
  0
LINE
  5
247
330
1F
100
AcDbEntity
  8
PROFILES_OUTSIDE
100
AcDbLine
 10
68.2152866169
 20
18.9279237115
 30
0.0
 11
68.2152866169
 21
13.6431730554
 31
0.0
  0
LINE
  5
248
330
1F
100
AcDbEntity
  8
PROFILES_INSIDE
100
AcDbLine
 10
40.7541448846
 20
43.5615569163
 30
0.0
 11
40.7541448846
 21
43.8023220028
 31
0.0
  0
LINE
  5
249
330
1F
100
AcDbEntity
  8
PROFILES_INSIDE
100
AcDbLine
 10
40.1824197523
 20
43.4252464587
 30
0.0
 11
40.3416180484
 21
43.4252466337
 31
0.0
  0
LINE
  5
24A
330
1F
100
AcDbEntity
  8
PROFILES_INSIDE
100
AcDbLine
 10
39.7698928465
 20
43.8023223979
 30
0.0
 11
39.7698929161
 21
43.5615565212
 31
0.0
  0
LINE
  5
24B
330
1F
100
AcDbEntity
  8
PROFILES_INSIDE
100
AcDbLine
 10
40.3416180484
 20
43.9386324604
 30
0.0
 11
40.1824197523
 21
43.938632219
 31
0.0
  0
LINE
  5
24C
330
1F
100
AcDbEntity
  8
PROFILES_INSIDE
100
AcDbLine
 10
24.5120425224
 20
43.5615569163
 30
0.0
 11
24.5120425224
 21
43.8023220028
 31
0.0
  0
LINE
  5
24D
330
1F
100
AcDbEntity
  8
PROFILES_INSIDE
100
AcDbLine
 10
24.0995156862
 20
43.9386324604
 30
0.0
 11
23.9403173901
 21
43.9386322613
 31
0.0
  0
LINE
  5
24E
330
1F
100
AcDbEntity
  8
PROFILES_INSIDE
100
AcDbLine
 10
23.5277904782
 20
43.8023223979
 30
0.0
 11
23.5277905539
 21
43.5615565212
 31
0.0
  0
LINE
  5
24F
330
1F
100
AcDbEntity
  8
PROFILES_INSIDE
100
AcDbLine
 10
23.9403173901
 20
43.4252464587
 30
0.0
 11
24.0995156862
 21
43.4252466337
 31
0.0
  0
LINE
  5
250
330
1F
100
AcDbEntity
  8
PROFILES_INSIDE
100
AcDbLine
 10
40.7541448846
 20
1.9040766013
 30
0.0
 11
40.7541448846
 21
2.1448416879
 31
0.0
  0
LINE
  5
251
330
1F
100
AcDbEntity
  8
PROFILES_INSIDE
100
AcDbLine
 10
40.3416180484
 20
2.2811521455
 30
0.0
 11
40.1824197523
 21
2.2811519644
 31
0.0
  0
LINE
  5
252
330
1F
100
AcDbEntity
  8
PROFILES_INSIDE
100
AcDbLine
 10
39.7698928344
 20
2.1448420829
 30
0.0
 11
39.7698929161
 21
1.9040762063
 31
0.0
  0
LINE
  5
253
330
1F
100
AcDbEntity
  8
PROFILES_INSIDE
100
AcDbLine
 10
40.1824197523
 20
1.7677661437
 30
0.0
 11
40.3416180484
 21
1.7677663187
 31
0.0
  0
LINE
  5
254
330
1F
100
AcDbEntity
  8
PROFILES_OUTSIDE
100
AcDbLine
 10
71.1680425224
 20
19.4003646564
 30
0.0
 11
68.6877275618
 21
19.4003646564
 31
0.0
  0
LINE
  5
255
330
1F
100
AcDbEntity
  8
PROFILES_OUTSIDE
100
AcDbLine
 10
71.1680425224
 20
19.3206867682
 30
0.0
 11
71.1680425224
 21
19.4003646564
 31
0.0
  0
LINE
  5
256
330
1F
100
AcDbEntity
  8
PROFILES_OUTSIDE
100
AcDbLine
 10
71.644497408
 20
18.908159932
 30
0.0
 11
71.304352695
 21
18.908159932
 31
0.0
  0
LINE
  5
257
330
1F
100
AcDbEntity
  8
PROFILES_OUTSIDE
100
AcDbLine
 10
71.6971763807
 20
19.1542229241
 30
0.0
 11
71.6837871036
 21
18.9450154702
 31
0.0
  0
LINE
  5
258
330
1F
100
AcDbEntity
  8
PROFILES_OUTSIDE
100
AcDbLine
 10
72.1129244122
 20
19.1542229241
 30
0.0
 11
71.6971763807
 21
19.1542229241
 31
0.0
  0
LINE
  5
259
330
1F
100
AcDbEntity
  8
PROFILES_INSIDE
100
AcDbLine
 10
23.5277904843
 20
2.1448420829
 30
0.0
 11
23.5277905539
 21
1.9040762063
 31
0.0
  0
LINE
  5
25A
330
1F
100
AcDbEntity
  8
PROFILES_INSIDE
100
AcDbLine
 10
23.9403173901
 20
1.7677661437
 30
0.0
 11
24.0995156862
 21
1.7677663187
 31
0.0
  0
LINE
  5
25B
330
1F
100
AcDbEntity
  8
PROFILES_INSIDE
100
AcDbLine
 10
24.5120425224
 20
1.9040766013
 30
0.0
 11
24.5120425224
 21
2.1448416879
 31
0.0
  0
LINE
  5
25C
330
1F
100
AcDbEntity
  8
PROFILES_INSIDE
100
AcDbLine
 10
24.0995156862
 20
2.2811521455
 30
0.0
 11
23.9403173901
 21
2.2811519705
 31
0.0
  0
LINE
  5
25D
330
1F
100
AcDbEntity
  8
PROFILES_OUTSIDE
100
AcDbLine
 10
22.0522944909
 20
44.2862701682
 30
0.0
 11
22.0522944909
 21
1.4201284359
 31
0.0
  0
LINE
  5
25E
330
1F
100
AcDbEntity
  8
PROFILES_OUTSIDE
100
AcDbLine
 10
41.6074126012
 20
44.5224906407
 30
0.0
 11
22.2885149634
 21
44.5224906407
 31
0.0
  0
LINE
  5
25F
330
1F
100
AcDbEntity
  8
PROFILES_OUTSIDE
100
AcDbLine
 10
41.8436330736
 20
41.5710968527
 30
0.0
 11
41.8436330736
 21
44.2862701682
 31
0.0
  0
LINE
  5
260
330
1F
100
AcDbEntity
  8
PROFILES_OUTSIDE
100
AcDbLine
 10
41.2514327167
 20
41.2684634405
 30
0.0
 11
41.6484318557
 21
41.3384651001
 31
0.0
  0
LINE
  5
261
330
1F
100
AcDbEntity
  8
POCKETS
100
AcDbLine
 10
21.2200110264
 20
2.7878449714
 30
0.0
 11
20.826310239
 21
2.7878449714
 31
0.0
  0
LINE
  5
262
330
1F
100
AcDbEntity
  8
PROFILES_OUTSIDE
100
AcDbLine
 10
72.1522944909
 20
18.6522544202
 30
0.0
 11
72.1522944909
 21
19.1148528454
 31
0.0
  0
LINE
  5
263
330
1F
100
AcDbEntity
  8
PROFILES_OUTSIDE
100
AcDbLine
 10
69.4377275618
 20
18.4160339477
 30
0.0
 11
71.9160740185
 21
18.4160339477
 31
0.0
  0
LINE
  5
264
330
1F
100
AcDbEntity
  8
PROFILES_OUTSIDE
100
AcDbLine
 10
68.9652866169
 20
13.1707321105
 30
0.0
 11
68.9652866169
 21
17.9435930029
 31
0.0
  0
LINE
  5
265
330
1F
100
AcDbEntity
  8
PROFILES_OUTSIDE
100
AcDbLine
 10
68.2152866169
 20
8.7125786151
 30
0.0
 11
68.2152866169
 21
11.8716940048
 31
0.0
  0
LINE
  5
266
330
1F
100
AcDbEntity
  8
PROFILES_OUTSIDE
100
AcDbLine
 10
68.9652866169
 20
2.640679617
 30
0.0
 11
68.9652866169
 21
7.4135405094
 31
0.0
  0
LINE
  5
267
330
1F
100
AcDbEntity
  8
PROFILES_OUTSIDE
100
AcDbLine
 10
71.9160740185
 20
2.1682386722
 30
0.0
 11
69.4377275618
 21
2.1682386722
 31
0.0
  0
LINE
  5
268
330
1F
100
AcDbEntity
  8
PROFILES_OUTSIDE
100
AcDbLine
 10
72.1522944909
 20
1.4694197745
 30
0.0
 11
72.1522944909
 21
1.9320181997
 31
0.0
  0
LINE
  5
269
330
1F
100
AcDbEntity
  8
PROFILES_OUTSIDE
100
AcDbLine
 10
71.6971763807
 20
1.4300496958
 30
0.0
 11
72.1129244122
 21
1.4300496958
 31
0.0
  0
LINE
  5
26A
330
1F
100
AcDbEntity
  8
PROFILES_OUTSIDE
100
AcDbLine
 10
71.6837871036
 20
1.6392571497
 30
0.0
 11
71.6971763807
 21
1.4300496958
 31
0.0
  0
LINE
  5
26B
330
1F
100
AcDbEntity
  8
PROFILES_OUTSIDE
100
AcDbLine
 10
71.304352695
 20
1.6761126879
 30
0.0
 11
71.644497408
 21
1.6761126879
 31
0.0
  0
LINE
  5
26C
330
1F
100
AcDbEntity
  8
PROFILES_OUTSIDE
100
AcDbLine
 10
71.1680425224
 20
1.1839079635
 30
0.0
 11
71.1680425224
 21
1.2635858517
 31
0.0
  0
LINE
  5
26D
330
1F
100
AcDbEntity
  8
PROFILES_OUTSIDE
100
AcDbLine
 10
68.6877275618
 20
1.1839079635
 30
0.0
 11
71.1680425224
 21
1.1839079635
 31
0.0
  0
LINE
  5
26E
330
1F
100
AcDbEntity
  8
PROFILES_OUTSIDE
100
AcDbLine
 10
68.2152866169
 20
6.9410995645
 30
0.0
 11
68.2152866169
 21
1.6563489084
 31
0.0
  0
LINE
  5
26F
330
1F
100
AcDbEntity
  8
PROFILES_OUTSIDE
100
AcDbLine
 10
66.7192236248
 20
7.4135405094
 30
0.0
 11
67.742845672
 21
7.4135405094
 31
0.0
  0
LINE
  5
270
330
1F
100
AcDbEntity
  8
PROFILES_OUTSIDE
100
AcDbLine
 10
66.2467826799
 20
1.6563489084
 30
0.0
 11
66.2467826799
 21
6.9410995645
 31
0.0
  0
LINE
  5
271
330
1F
100
AcDbEntity
  8
PROFILES_OUTSIDE
100
AcDbLine
 10
63.2940267744
 20
1.1839079635
 30
0.0
 11
65.774341735
 21
1.1839079635
 31
0.0
  0
LINE
  5
272
330
1F
100
AcDbEntity
  8
PROFILES_OUTSIDE
100
AcDbLine
 10
41.0562314988
 20
4.6705669163
 30
0.0
 11
41.0562314988
 21
41.0358316879
 31
0.0
  0
LINE
  5
273
330
1F
100
AcDbEntity
  8
POCKETS
100
AcDbLine
 10
21.2200110264
 20
2.2610733178
 30
0.0
 11
21.2200110264
 21
2.7878449714
 31
0.0
  0
LINE
  5
274
330
1F
100
AcDbEntity
  8
PROFILES_OUTSIDE
100
AcDbLine
 10
41.6484318557
 20
4.3679335041
 30
0.0
 11
41.2514327167
 21
4.4379351636
 31
0.0
  0
LINE
  5
275
330
1F
100
AcDbEntity
  8
POCKETS
100
AcDbLine
 10
20.826310239
 20
2.2610733178
 30
0.0
 11
21.2200110264
 21
2.2610733178
 31
0.0
  0
LINE
  5
276
330
1F
100
AcDbEntity
  8
POCKETS
100
AcDbLine
 10
1.0082000027
 20
2.2610733178
 30
0.0
 11
20.826310239
 21
2.2610733178
 31
0.0
  0
LINE
  5
277
330
1F
100
AcDbEntity
  8
POCKETS
100
AcDbLine
 10
0.6144992153
 20
2.2610733178
 30
0.0
 11
1.0082000027
 21
2.2610733178
 31
0.0
  0
LINE
  5
278
330
1F
100
AcDbEntity
  8
POCKETS
100
AcDbLine
 10
0.6144992153
 20
2.7878449714
 30
0.0
 11
0.6144992153
 21
2.2610733178
 31
0.0
  0
LINE
  5
279
330
1F
100
AcDbEntity
  8
POCKETS
100
AcDbLine
 10
1.0082000027
 20
2.7878449714
 30
0.0
 11
0.6144992153
 21
2.7878449714
 31
0.0
  0
LINE
  5
27A
330
1F
100
AcDbEntity
  8
POCKETS
100
AcDbLine
 10
18.7247354358
 20
2.7878449714
 30
0.0
 11
1.0082000027
 21
2.7878449714
 31
0.0
  0
LINE
  5
27B
330
1F
100
AcDbEntity
  8
POCKETS
100
AcDbLine
 10
18.7247354358
 20
42.9185536328
 30
0.0
 11
18.7247354358
 21
2.7878449714
 31
0.0
  0
LINE
  5
27C
330
1F
100
AcDbEntity
  8
POCKETS
100
AcDbLine
 10
1.0082000027
 20
42.9185536328
 30
0.0
 11
18.7247354358
 21
42.9185536328
 31
0.0
  0
LINE
  5
27D
330
1F
100
AcDbEntity
  8
POCKETS
100
AcDbLine
 10
0.6144992153
 20
42.9185536328
 30
0.0
 11
1.0082000027
 21
42.9185536328
 31
0.0
  0
LINE
  5
27E
330
1F
100
AcDbEntity
  8
POCKETS
100
AcDbLine
 10
0.6144992153
 20
43.4453252863
 30
0.0
 11
0.6144992153
 21
42.9185536328
 31
0.0
  0
LINE
  5
27F
330
1F
100
AcDbEntity
  8
POCKETS
100
AcDbLine
 10
1.0082000027
 20
43.4453252863
 30
0.0
 11
0.6144992153
 21
43.4453252863
 31
0.0
  0
LINE
  5
280
330
1F
100
AcDbEntity
  8
POCKETS
100
AcDbLine
 10
20.826310239
 20
43.4453252863
 30
0.0
 11
1.0082000027
 21
43.4453252863
 31
0.0
  0
LINE
  5
281
330
1F
100
AcDbEntity
  8
POCKETS
100
AcDbLine
 10
21.2200110264
 20
43.4453252863
 30
0.0
 11
20.826310239
 21
43.4453252863
 31
0.0
  0
LINE
  5
282
330
1F
100
AcDbEntity
  8
POCKETS
100
AcDbLine
 10
21.2200110264
 20
42.9185536328
 30
0.0
 11
21.2200110264
 21
43.4453252863
 31
0.0
  0
LINE
  5
283
330
1F
100
AcDbEntity
  8
POCKETS
100
AcDbLine
 10
20.826310239
 20
42.9185536328
 30
0.0
 11
21.2200110264
 21
42.9185536328
 31
0.0
  0
LINE
  5
284
330
1F
100
AcDbEntity
  8
POCKETS
100
AcDbLine
 10
19.2381212626
 20
42.9185536328
 30
0.0
 11
20.826310239
 21
42.9185536328
 31
0.0
  0
LINE
  5
285
330
1F
100
AcDbEntity
  8
PROFILES_OUTSIDE
100
AcDbLine
 10
63.2940267744
 20
1.2635858517
 30
0.0
 11
63.2940267744
 21
1.1839079635
 31
0.0
  0
LINE
  5
286
330
1F
100
AcDbEntity
  8
PROFILES_OUTSIDE
100
AcDbLine
 10
62.8175718889
 20
1.6761126879
 30
0.0
 11
63.1577166018
 21
1.6761126879
 31
0.0
  0
LINE
  5
287
330
1F
100
AcDbEntity
  8
PROFILES_OUTSIDE
100
AcDbLine
 10
62.7648929161
 20
1.4300496958
 30
0.0
 11
62.7782821932
 21
1.6392571497
 31
0.0
  0
LINE
  5
288
330
1F
100
AcDbEntity
  8
PROFILES_OUTSIDE
100
AcDbLine
 10
62.3491448846
 20
1.4300496958
 30
0.0
 11
62.7648929161
 21
1.4300496958
 31
0.0
  0
LINE
  5
289
330
1F
100
AcDbEntity
  8
PROFILES_OUTSIDE
100
AcDbLine
 10
62.3097748059
 20
1.9320181997
 30
0.0
 11
62.3097748059
 21
1.4694197745
 31
0.0
  0
LINE
  5
28A
330
1F
100
AcDbEntity
  8
PROFILES_OUTSIDE
100
AcDbLine
 10
65.024341735
 20
2.1682386722
 30
0.0
 11
62.5459952783
 21
2.1682386722
 31
0.0
  0
LINE
  5
28B
330
1F
100
AcDbEntity
  8
PROFILES_OUTSIDE
100
AcDbLine
 10
65.4967826799
 20
7.4135405094
 30
0.0
 11
65.4967826799
 21
2.640679617
 31
0.0
  0
LINE
  5
28C
330
1F
100
AcDbEntity
  8
PROFILES_OUTSIDE
100
AcDbLine
 10
66.2467826799
 20
11.8716940048
 30
0.0
 11
66.2467826799
 21
8.7125786151
 31
0.0
  0
LINE
  5
28D
330
1F
100
AcDbEntity
  8
PROFILES_OUTSIDE
100
AcDbLine
 10
65.4967826799
 20
17.9435930029
 30
0.0
 11
65.4967826799
 21
13.1707321105
 31
0.0
  0
LINE
  5
28E
330
1F
100
AcDbEntity
  8
PROFILES_OUTSIDE
100
AcDbLine
 10
62.5459952783
 20
18.4160339477
 30
0.0
 11
65.024341735
 21
18.4160339477
 31
0.0
  0
LINE
  5
28F
330
1F
100
AcDbEntity
  8
PROFILES_OUTSIDE
100
AcDbLine
 10
62.3097748059
 20
19.1148528454
 30
0.0
 11
62.3097748059
 21
18.6522544202
 31
0.0
  0
LINE
  5
290
330
1F
100
AcDbEntity
  8
POCKETS
100
AcDbLine
 10
19.2381212626
 20
2.7878449714
 30
0.0
 11
19.2381212626
 21
42.9185536328
 31
0.0
  0
LINE
  5
291
330
1F
100
AcDbEntity
  8
PROFILES_OUTSIDE
100
AcDbLine
 10
71.6971763807
 20
20.8857189871
 30
0.0
 11
72.1129244122
 21
20.8857189871
 31
0.0
  0
LINE
  5
292
330
1F
100
AcDbEntity
  8
PROFILES_OUTSIDE
100
AcDbLine
 10
71.6837871036
 20
21.094926441
 30
0.0
 11
71.6971763807
 21
20.8857189871
 31
0.0
  0
LINE
  5
293
330
1F
100
AcDbEntity
  8
PROFILES_OUTSIDE
100
AcDbLine
 10
71.304352695
 20
21.1317819792
 30
0.0
 11
71.644497408
 21
21.1317819792
 31
0.0
  0
LINE
  5
294
330
1F
100
AcDbEntity
  8
PROFILES_OUTSIDE
100
AcDbLine
 10
71.1680425224
 20
20.6395772548
 30
0.0
 11
71.1680425224
 21
20.719255143
 31
0.0
  0
LINE
  5
295
330
1F
100
AcDbEntity
  8
PROFILES_OUTSIDE
100
AcDbLine
 10
68.6877275618
 20
20.6395772548
 30
0.0
 11
71.1680425224
 21
20.6395772548
 31
0.0
  0
LINE
  5
296
330
1F
100
AcDbEntity
  8
PROFILES_OUTSIDE
100
AcDbLine
 10
68.2152866169
 20
26.3967688559
 30
0.0
 11
68.2152866169
 21
21.1120181997
 31
0.0
  0
LINE
  5
297
330
1F
100
AcDbEntity
  8
PROFILES_OUTSIDE
100
AcDbLine
 10
66.7192236248
 20
26.8692098008
 30
0.0
 11
67.742845672
 21
26.8692098008
 31
0.0
  0
LINE
  5
298
330
1F
100
AcDbEntity
  8
PROFILES_OUTSIDE
100
AcDbLine
 10
66.2467826799
 20
21.1120181997
 30
0.0
 11
66.2467826799
 21
26.3967688559
 31
0.0
  0
LINE
  5
299
330
1F
100
AcDbEntity
  8
PROFILES_OUTSIDE
100
AcDbLine
 10
63.2940267744
 20
20.6395772548
 30
0.0
 11
65.774341735
 21
20.6395772548
 31
0.0
  0
LINE
  5
29A
330
1F
100
AcDbEntity
  8
PROFILES_OUTSIDE
100
AcDbLine
 10
63.2940267744
 20
20.719255143
 30
0.0
 11
63.2940267744
 21
20.6395772548
 31
0.0
  0
LINE
  5
29B
330
1F
100
AcDbEntity
  8
PROFILES_OUTSIDE
100
AcDbLine
 10
62.8175718889
 20
21.1317819792
 30
0.0
 11
63.1577166018
 21
21.1317819792
 31
0.0
  0
LINE
  5
29C
330
1F
100
AcDbEntity
  8
PROFILES_OUTSIDE
100
AcDbLine
 10
62.7648929161
 20
20.8857189871
 30
0.0
 11
62.7782821932
 21
21.094926441
 31
0.0
  0
LINE
  5
29D
330
1F
100
AcDbEntity
  8
PROFILES_OUTSIDE
100
AcDbLine
 10
62.3491448846
 20
20.8857189871
 30
0.0
 11
62.7648929161
 21
20.8857189871
 31
0.0
  0
LINE
  5
29E
330
1F
100
AcDbEntity
  8
PROFILES_OUTSIDE
100
AcDbLine
 10
62.3097748059
 20
21.387687491
 30
0.0
 11
62.3097748059
 21
20.9250890659
 31
0.0
  0
LINE
  5
29F
330
1F
100
AcDbEntity
  8
PROFILES_OUTSIDE
100
AcDbLine
 10
65.024341735
 20
21.6239079635
 30
0.0
 11
62.5459952783
 21
21.6239079635
 31
0.0
  0
LINE
  5
2A0
330
1F
100
AcDbEntity
  8
PROFILES_OUTSIDE
100
AcDbLine
 10
65.4967826799
 20
26.8692098008
 30
0.0
 11
65.4967826799
 21
22.0963489084
 31
0.0
  0
LINE
  5
2A1
330
1F
100
AcDbEntity
  8
PROFILES_OUTSIDE
100
AcDbLine
 10
66.2467826799
 20
31.3273632961
 30
0.0
 11
66.2467826799
 21
28.1682479064
 31
0.0
  0
LINE
  5
2A2
330
1F
100
AcDbEntity
  8
PROFILES_OUTSIDE
100
AcDbLine
 10
65.4967826799
 20
37.3992622942
 30
0.0
 11
65.4967826799
 21
32.6264014018
 31
0.0
  0
LINE
  5
2A3
330
1F
100
AcDbEntity
  8
PROFILES_OUTSIDE
100
AcDbLine
 10
62.5459952783
 20
37.8717032391
 30
0.0
 11
65.024341735
 21
37.8717032391
 31
0.0
  0
LINE
  5
2A4
330
1F
100
AcDbEntity
  8
PROFILES_OUTSIDE
100
AcDbLine
 10
62.3097748059
 20
38.5705221367
 30
0.0
 11
62.3097748059
 21
38.1079237115
 31
0.0
  0
LINE
  5
2A5
330
1F
100
AcDbEntity
  8
PROFILES_OUTSIDE
100
AcDbLine
 10
62.7648929161
 20
38.6098922155
 30
0.0
 11
62.3491448846
 21
38.6098922155
 31
0.0
  0
LINE
  5
2A6
330
1F
100
AcDbEntity
  8
PROFILES_OUTSIDE
100
AcDbLine
 10
62.7782821932
 20
38.4006847615
 30
0.0
 11
62.7648929161
 21
38.6098922155
 31
0.0
  0
LINE
  5
2A7
330
1F
100
AcDbEntity
  8
PROFILES_OUTSIDE
100
AcDbLine
 10
63.1577166018
 20
38.3638292233
 30
0.0
 11
62.8175718889
 21
38.3638292233
 31
0.0
  0
LINE
  5
2A8
330
1F
100
AcDbEntity
  8
PROFILES_OUTSIDE
100
AcDbLine
 10
63.2940267744
 20
38.8560339477
 30
0.0
 11
63.2940267744
 21
38.7763560595
 31
0.0
  0
LINE
  5
2A9
330
1F
100
AcDbEntity
  8
PROFILES_OUTSIDE
100
AcDbLine
 10
65.774341735
 20
38.8560339477
 30
0.0
 11
63.2940267744
 21
38.8560339477
 31
0.0
  0
LINE
  5
2AA
330
1F
100
AcDbEntity
  8
PROFILES_OUTSIDE
100
AcDbLine
 10
66.2467826799
 20
33.0988423467
 30
0.0
 11
66.2467826799
 21
38.3835930029
 31
0.0
  0
LINE
  5
2AB
330
1F
100
AcDbEntity
  8
PROFILES_OUTSIDE
100
AcDbLine
 10
67.742845672
 20
32.6264014018
 30
0.0
 11
66.7192236248
 21
32.6264014018
 31
0.0
  0
LINE
  5
2AC
330
1F
100
AcDbEntity
  8
PROFILES_OUTSIDE
100
AcDbLine
 10
68.2152866169
 20
38.3835930029
 30
0.0
 11
68.2152866169
 21
33.0988423467
 31
0.0
  0
LINE
  5
2AD
330
1F
100
AcDbEntity
  8
PROFILES_OUTSIDE
100
AcDbLine
 10
71.1680425224
 20
38.8560339477
 30
0.0
 11
68.6877275618
 21
38.8560339477
 31
0.0
  0
LINE
  5
2AE
330
1F
100
AcDbEntity
  8
PROFILES_OUTSIDE
100
AcDbLine
 10
71.1680425224
 20
38.7763560595
 30
0.0
 11
71.1680425224
 21
38.8560339477
 31
0.0
  0
LINE
  5
2AF
330
1F
100
AcDbEntity
  8
PROFILES_OUTSIDE
100
AcDbLine
 10
71.644497408
 20
38.3638292233
 30
0.0
 11
71.304352695
 21
38.3638292233
 31
0.0
  0
LINE
  5
2B0
330
1F
100
AcDbEntity
  8
PROFILES_OUTSIDE
100
AcDbLine
 10
71.6971763807
 20
38.6098922155
 30
0.0
 11
71.6837871036
 21
38.4006847615
 31
0.0
  0
LINE
  5
2B1
330
1F
100
AcDbEntity
  8
PROFILES_OUTSIDE
100
AcDbLine
 10
72.1129244122
 20
38.6098922155
 30
0.0
 11
71.6971763807
 21
38.6098922155
 31
0.0
  0
LINE
  5
2B2
330
1F
100
AcDbEntity
  8
PROFILES_OUTSIDE
100
AcDbLine
 10
72.1522944909
 20
38.1079237115
 30
0.0
 11
72.1522944909
 21
38.5705221367
 31
0.0
  0
LINE
  5
2B3
330
1F
100
AcDbEntity
  8
PROFILES_OUTSIDE
100
AcDbLine
 10
69.4377275618
 20
37.8717032391
 30
0.0
 11
71.9160740185
 21
37.8717032391
 31
0.0
  0
LINE
  5
2B4
330
1F
100
AcDbEntity
  8
PROFILES_OUTSIDE
100
AcDbLine
 10
68.9652866169
 20
32.6264014018
 30
0.0
 11
68.9652866169
 21
37.3992622942
 31
0.0
  0
LINE
  5
2B5
330
1F
100
AcDbEntity
  8
PROFILES_OUTSIDE
100
AcDbLine
 10
68.2152866169
 20
28.1682479064
 30
0.0
 11
68.2152866169
 21
31.3273632961
 31
0.0
  0
LINE
  5
2B6
330
1F
100
AcDbEntity
  8
PROFILES_OUTSIDE
100
AcDbLine
 10
68.9652866169
 20
22.0963489084
 30
0.0
 11
68.9652866169
 21
26.8692098008
 31
0.0
  0
LINE
  5
2B7
330
1F
100
AcDbEntity
  8
PROFILES_OUTSIDE
100
AcDbLine
 10
71.9160740185
 20
21.6239079635
 30
0.0
 11
69.4377275618
 21
21.6239079635
 31
0.0
  0
LINE
  5
2B8
330
1F
100
AcDbEntity
  8
PROFILES_OUTSIDE
100
AcDbLine
 10
72.1522944909
 20
20.9250890659
 30
0.0
 11
72.1522944909
 21
21.387687491
 31
0.0
  0
LINE
  5
2B9
330
1F
100
AcDbEntity
  8
POCKETS
100
AcDbLine
 10
20.826310239
 20
2.7878449714
 30
0.0
 11
19.2381212626
 21
2.7878449714
 31
0.0
  0
LINE
  5
2BA
330
1F
100
AcDbEntity
  8
POCKETS
100
AcDbLine
 10
40.268829924
 20
42.9185536328
 30
0.0
 11
41.8570189004
 21
42.9185536328
 31
0.0
  0
LINE
  5
2BB
330
1F
100
AcDbEntity
  8
POCKETS
100
AcDbLine
 10
41.8570189004
 20
42.9185536328
 30
0.0
 11
42.2507196878
 21
42.9185536328
 31
0.0
  0
LINE
  5
2BC
330
1F
100
AcDbEntity
  8
POCKETS
100
AcDbLine
 10
42.2507196878
 20
42.9185536328
 30
0.0
 11
42.2507196878
 21
43.4453252863
 31
0.0
  0
LINE
  5
2BD
330
1F
100
AcDbEntity
  8
POCKETS
100
AcDbLine
 10
42.2507196878
 20
43.4453252863
 30
0.0
 11
41.8570189004
 21
43.4453252863
 31
0.0
  0
LINE
  5
2BE
330
1F
100
AcDbEntity
  8
POCKETS
100
AcDbLine
 10
41.8570189004
 20
43.4453252863
 30
0.0
 11
22.0389086642
 21
43.4453252863
 31
0.0
  0
LINE
  5
2BF
330
1F
100
AcDbEntity
  8
POCKETS
100
AcDbLine
 10
22.0389086642
 20
43.4453252863
 30
0.0
 11
21.6452078768
 21
43.4453252863
 31
0.0
  0
LINE
  5
2C0
330
1F
100
AcDbEntity
  8
POCKETS
100
AcDbLine
 10
21.6452078768
 20
43.4453252863
 30
0.0
 11
21.6452078768
 21
42.9185536328
 31
0.0
  0
LINE
  5
2C1
330
1F
100
AcDbEntity
  8
POCKETS
100
AcDbLine
 10
21.6452078768
 20
42.9185536328
 30
0.0
 11
22.0389086642
 21
42.9185536328
 31
0.0
  0
LINE
  5
2C2
330
1F
100
AcDbEntity
  8
POCKETS
100
AcDbLine
 10
22.0389086642
 20
42.9185536328
 30
0.0
 11
39.7554440972
 21
42.9185536328
 31
0.0
  0
LINE
  5
2C3
330
1F
100
AcDbEntity
  8
POCKETS
100
AcDbLine
 10
39.7554440972
 20
42.9185536328
 30
0.0
 11
39.7554440972
 21
2.7878449714
 31
0.0
  0
LINE
  5
2C4
330
1F
100
AcDbEntity
  8
POCKETS
100
AcDbLine
 10
39.7554440972
 20
2.7878449714
 30
0.0
 11
22.0389086642
 21
2.7878449714
 31
0.0
  0
LINE
  5
2C5
330
1F
100
AcDbEntity
  8
POCKETS
100
AcDbLine
 10
22.0389086642
 20
2.7878449714
 30
0.0
 11
21.6452078768
 21
2.7878449714
 31
0.0
  0
LINE
  5
2C6
330
1F
100
AcDbEntity
  8
POCKETS
100
AcDbLine
 10
21.6452078768
 20
2.7878449714
 30
0.0
 11
21.6452078768
 21
2.2610733178
 31
0.0
  0
LINE
  5
2C7
330
1F
100
AcDbEntity
  8
POCKETS
100
AcDbLine
 10
21.6452078768
 20
2.2610733178
 30
0.0
 11
22.0389086642
 21
2.2610733178
 31
0.0
  0
LINE
  5
2C8
330
1F
100
AcDbEntity
  8
POCKETS
100
AcDbLine
 10
22.0389086642
 20
2.2610733178
 30
0.0
 11
41.8570189004
 21
2.2610733178
 31
0.0
  0
LINE
  5
2C9
330
1F
100
AcDbEntity
  8
POCKETS
100
AcDbLine
 10
41.8570189004
 20
2.2610733178
 30
0.0
 11
42.2507196878
 21
2.2610733178
 31
0.0
  0
LINE
  5
2CA
330
1F
100
AcDbEntity
  8
POCKETS
100
AcDbLine
 10
42.2507196878
 20
2.2610733178
 30
0.0
 11
42.2507196878
 21
2.7878449714
 31
0.0
  0
LINE
  5
2CB
330
1F
100
AcDbEntity
  8
POCKETS
100
AcDbLine
 10
42.2507196878
 20
2.7878449714
 30
0.0
 11
41.8570189004
 21
2.7878449714
 31
0.0
  0
LINE
  5
2CC
330
1F
100
AcDbEntity
  8
POCKETS
100
AcDbLine
 10
41.8570189004
 20
2.7878449714
 30
0.0
 11
40.268829924
 21
2.7878449714
 31
0.0
  0
LINE
  5
2CD
330
1F
100
AcDbEntity
  8
POCKETS
100
AcDbLine
 10
40.268829924
 20
2.7878449714
 30
0.0
 11
40.268829924
 21
42.9185536328
 31
0.0
  0
LINE
  5
2CE
330
1F
100
AcDbEntity
  8
PROFILES_OUTSIDE
100
AcDbLine
 10
41.8436330736
 20
1.4201284359
 30
0.0
 11
41.8436330736
 21
4.1353017514
 31
0.0
  0
LINE
  5
2CF
330
1F
100
AcDbEntity
  8
PROFILES_OUTSIDE
100
AcDbLine
 10
22.2885149634
 20
1.1839079635
 30
0.0
 11
41.6074126012
 21
1.1839079635
 31
0.0
  0
ARC
  5
2D0
330
1F
100
AcDbEntity
  8
PROFILES_OUTSIDE
100
AcDbCircle
 10
20.5767039398
 20
4.1353017514
 30
0.0
 40
0.2362204724409445
100
AcDbArc
 50
0.0
 51
80.0
  0
ARC
  5
2D1
330
1F
100
AcDbEntity
  8
PROFILES_OUTSIDE
100
AcDbCircle
 10
20.2617433098
 20
4.6705669163
 30
0.0
 40
0.236220472440948
100
AcDbArc
 50
180.0
 51
260.0
  0
ARC
  5
2D2
330
1F
100
AcDbEntity
  8
PROFILES_OUTSIDE
100
AcDbCircle
 10
20.2617433098
 20
41.0358316879
 30
0.0
 40
0.2362204724409462
100
AcDbArc
 50
100.0
 51
180.0
  0
ARC
  5
2D3
330
1F
100
AcDbEntity
  8
PROFILES_OUTSIDE
100
AcDbCircle
 10
20.5767039398
 20
41.5710968527
 30
0.0
 40
0.2362204724409449
100
AcDbArc
 50
280.0
 51
0.0
  0
ARC
  5
2D4
330
1F
100
AcDbEntity
  8
PROFILES_INSIDE
100
AcDbCircle
 10
20.5491448846
 20
34.0580009919
 30
0.0
 40
0.2362204724409519
100
AcDbArc
 50
280.0
 51
0.0
  0
ARC
  5
2D5
330
1F
100
AcDbEntity
  8
PROFILES_OUTSIDE
100
AcDbCircle
 10
72.1129244122
 20
19.1148528454
 30
0.0
 40
0.0393700787401592
100
AcDbArc
 50
0.0
 51
90.0
  0
ARC
  5
2D6
330
1F
100
AcDbEntity
  8
PROFILES_INSIDE
100
AcDbCircle
 10
19.3109093437
 20
43.9780025392
 30
0.0
 40
0.0393700787401581
100
AcDbArc
 50
270.0000629761
 51
342.3995463312
  0
ARC
  5
2D7
330
1F
100
AcDbEntity
  8
PROFILES_INSIDE
100
AcDbCircle
 10
19.5424515346
 20
43.9045510119
 30
0.0
 40
0.2035433070866142
100
AcDbArc
 50
335.1122159835
 51
162.3995463312
  0
ARC
  5
2D8
330
1F
100
AcDbEntity
  8
PROFILES_INSIDE
100
AcDbCircle
 10
19.7628080922
 20
43.8023220028
 30
0.0
 40
0.0393718690164067
100
AcDbArc
 50
155.1122159835
 51
180.0
  0
ARC
  5
2D9
330
1F
100
AcDbEntity
  8
PROFILES_INSIDE
100
AcDbCircle
 10
19.762806302
 20
43.5615569163
 30
0.0
 40
0.0393700787401599
100
AcDbArc
 50
180.0
 51
204.887906855
  0
ARC
  5
2DA
330
1F
100
AcDbEntity
  8
PROFILES_INSIDE
100
AcDbCircle
 10
19.5424515875
 20
43.4593281882
 30
0.0
 40
0.203543307086612
100
AcDbArc
 50
197.6004799029
 51
24.887906855
  0
ARC
  5
2DB
330
1F
100
AcDbEntity
  8
PROFILES_INSIDE
100
AcDbCircle
 10
19.3109094303
 20
43.3858765549
 30
0.0
 40
0.0393700787401615
100
AcDbArc
 50
17.6004799029
 51
90.0000629761
  0
ARC
  5
2DC
330
1F
100
AcDbEntity
  8
PROFILES_INSIDE
100
AcDbCircle
 10
19.1517111342
 20
43.3858763799
 30
0.0
 40
0.0393700787401543
100
AcDbArc
 50
90.0000629761
 51
162.3995463312
  0
ARC
  5
2DD
330
1F
100
AcDbEntity
  8
PROFILES_INSIDE
100
AcDbCircle
 10
18.9201689433
 20
43.4593279072
 30
0.0
 40
0.203543307086615
100
AcDbArc
 50
155.1121228022
 51
342.3995463312
  0
ARC
  5
2DE
330
1F
100
AcDbEntity
  8
PROFILES_INSIDE
100
AcDbCircle
 10
18.699814176
 20
43.5615565212
 30
0.0
 40
0.0393700787401573
100
AcDbArc
 50
335.1121228022
 51
0.0
  0
ARC
  5
2DF
330
1F
100
AcDbEntity
  8
PROFILES_INSIDE
100
AcDbCircle
 10
18.699814176
 20
43.8023223979
 30
0.0
 40
0.0393700090846316
100
AcDbArc
 50
0.0
 51
24.8878223268
  0
ARC
  5
2E0
330
1F
100
AcDbEntity
  8
PROFILES_INSIDE
100
AcDbCircle
 10
18.9201688904
 20
43.9045507309
 30
0.0
 40
0.2035432406730689
100
AcDbArc
 50
17.6004799029
 51
204.8878223268
  0
ARC
  5
2E1
330
1F
100
AcDbEntity
  8
PROFILES_INSIDE
100
AcDbCircle
 10
19.1517110477
 20
43.9780023642
 30
0.0
 40
0.0393701451537034
100
AcDbArc
 50
197.6004799029
 51
270.0000629761
  0
ARC
  5
2E2
330
1F
100
AcDbEntity
  8
PROFILES_INSIDE
100
AcDbCircle
 10
3.5150128166
 20
43.8023220028
 30
0.0
 40
0.0393718690164135
100
AcDbArc
 50
155.1122159835
 51
180.0
  0
ARC
  5
2E3
330
1F
100
AcDbEntity
  8
PROFILES_INSIDE
100
AcDbCircle
 10
3.294656259
 20
43.9045510119
 30
0.0
 40
0.2035433070866141
100
AcDbArc
 50
335.1122159835
 51
162.3995463312
  0
ARC
  5
2E4
330
1F
100
AcDbEntity
  8
PROFILES_INSIDE
100
AcDbCircle
 10
3.0631140681
 20
43.9780025392
 30
0.0
 40
0.0393700787401602
100
AcDbArc
 50
270.0000629761
 51
342.3995463312
  0
ARC
  5
2E5
330
1F
100
AcDbEntity
  8
PROFILES_INSIDE
100
AcDbCircle
 10
2.9039157721
 20
43.9780023642
 30
0.0
 40
0.0393701149657284
100
AcDbArc
 50
197.6004799029
 51
270.0000629761
  0
ARC
  5
2E6
330
1F
100
AcDbEntity
  8
PROFILES_INSIDE
100
AcDbCircle
 10
2.6723736148
 20
43.9045507309
 30
0.0
 40
0.2035432708610439
100
AcDbArc
 50
17.6004799029
 51
204.8878223268
  0
ARC
  5
2E7
330
1F
100
AcDbEntity
  8
PROFILES_INSIDE
100
AcDbCircle
 10
2.4520189004
 20
43.8023223979
 30
0.0
 40
0.0393700030470403
100
AcDbArc
 50
0.0
 51
24.8878223268
  0
ARC
  5
2E8
330
1F
100
AcDbEntity
  8
PROFILES_INSIDE
100
AcDbCircle
 10
2.4520189004
 20
43.5615565212
 30
0.0
 40
0.0393700787401653
100
AcDbArc
 50
335.1121228022
 51
0.0
  0
ARC
  5
2E9
330
1F
100
AcDbEntity
  8
PROFILES_INSIDE
100
AcDbCircle
 10
2.6723736677
 20
43.4593279072
 30
0.0
 40
0.2035433070866114
100
AcDbArc
 50
155.1121228022
 51
342.3995463312
  0
ARC
  5
2EA
330
1F
100
AcDbEntity
  8
PROFILES_INSIDE
100
AcDbCircle
 10
2.9039158586
 20
43.3858763799
 30
0.0
 40
0.039370078740162
100
AcDbArc
 50
90.0000629761
 51
162.3995463312
  0
ARC
  5
2EB
330
1F
100
AcDbEntity
  8
PROFILES_INSIDE
100
AcDbCircle
 10
3.0631141547
 20
43.3858765549
 30
0.0
 40
0.0393700787401581
100
AcDbArc
 50
17.6004799029
 51
90.0000629761
  0
ARC
  5
2EC
330
1F
100
AcDbEntity
  8
PROFILES_INSIDE
100
AcDbCircle
 10
3.2946563119
 20
43.4593281882
 30
0.0
 40
0.203543307086616
100
AcDbArc
 50
197.6004799029
 51
24.887906855
  0
ARC
  5
2ED
330
1F
100
AcDbEntity
  8
PROFILES_INSIDE
100
AcDbCircle
 10
3.5150110264
 20
43.5615569163
 30
0.0
 40
0.0393700787401619
100
AcDbArc
 50
180.0
 51
204.887906855
  0
ARC
  5
2EE
330
1F
100
AcDbEntity
  8
PROFILES_INSIDE
100
AcDbCircle
 10
19.5424515875
 20
1.8018478733
 30
0.0
 40
0.2035433070866191
100
AcDbArc
 50
197.6004799029
 51
24.887906855
  0
ARC
  5
2EF
330
1F
100
AcDbEntity
  8
PROFILES_INSIDE
100
AcDbCircle
 10
19.762806302
 20
1.9040766013
 30
0.0
 40
0.0393700787401556
100
AcDbArc
 50
180.0
 51
204.887906855
  0
ARC
  5
2F0
330
1F
100
AcDbEntity
  8
PROFILES_INSIDE
100
AcDbCircle
 10
19.7628080922
 20
2.1448416879
 30
0.0
 40
0.0393718690164127
100
AcDbArc
 50
155.1122159835
 51
180.0
  0
ARC
  5
2F1
330
1F
100
AcDbEntity
  8
PROFILES_INSIDE
100
AcDbCircle
 10
19.5424515346
 20
2.2470706969
 30
0.0
 40
0.2035433070866153
100
AcDbArc
 50
335.1122159835
 51
162.3995463312
  0
ARC
  5
2F2
330
1F
100
AcDbEntity
  8
PROFILES_INSIDE
100
AcDbCircle
 10
19.3109093437
 20
2.3205222242
 30
0.0
 40
0.0393700787401594
100
AcDbArc
 50
270.0000629761
 51
342.3995463312
  0
ARC
  5
2F3
330
1F
100
AcDbEntity
  8
PROFILES_INSIDE
100
AcDbCircle
 10
19.1517110477
 20
2.3205220492
 30
0.0
 40
0.0393701089281367
100
AcDbArc
 50
197.6004799029
 51
270.0000629761
  0
ARC
  5
2F4
330
1F
100
AcDbEntity
  8
PROFILES_INSIDE
100
AcDbCircle
 10
18.9201688904
 20
2.2470704159
 30
0.0
 40
0.2035432768986337
100
AcDbArc
 50
17.6004799029
 51
204.8878223268
  0
ARC
  5
2F5
330
1F
100
AcDbEntity
  8
PROFILES_INSIDE
100
AcDbCircle
 10
18.699814176
 20
2.1448420829
 30
0.0
 40
0.0393699970094445
100
AcDbArc
 50
0.0
 51
24.8878223268
  0
ARC
  5
2F6
330
1F
100
AcDbEntity
  8
PROFILES_INSIDE
100
AcDbCircle
 10
18.699814176
 20
1.9040762063
 30
0.0
 40
0.0393700787401592
100
AcDbArc
 50
335.1121228022
 51
0.0
  0
ARC
  5
2F7
330
1F
100
AcDbEntity
  8
PROFILES_INSIDE
100
AcDbCircle
 10
18.9201689433
 20
1.8018475923
 30
0.0
 40
0.2035433070866187
100
AcDbArc
 50
155.1121228022
 51
342.3995463312
  0
ARC
  5
2F8
330
1F
100
AcDbEntity
  8
PROFILES_INSIDE
100
AcDbCircle
 10
19.1517111342
 20
1.728396065
 30
0.0
 40
0.0393700787401536
100
AcDbArc
 50
90.0000629761
 51
162.3995463312
  0
ARC
  5
2F9
330
1F
100
AcDbEntity
  8
PROFILES_INSIDE
100
AcDbCircle
 10
19.3109094303
 20
1.72839624
 30
0.0
 40
0.0393700787401582
100
AcDbArc
 50
17.6004799029
 51
90.0000629761
  0
ARC
  5
2FA
330
1F
100
AcDbEntity
  8
PROFILES_INSIDE
100
AcDbCircle
 10
2.4520189004
 20
1.9040762063
 30
0.0
 40
0.0393700787401627
100
AcDbArc
 50
335.1121228022
 51
0.0
  0
ARC
  5
2FB
330
1F
100
AcDbEntity
  8
PROFILES_INSIDE
100
AcDbCircle
 10
2.6723736677
 20
1.8018475923
 30
0.0
 40
0.2035433070866158
100
AcDbArc
 50
155.1121228022
 51
342.3995463312
  0
ARC
  5
2FC
330
1F
100
AcDbEntity
  8
PROFILES_INSIDE
100
AcDbCircle
 10
2.9039158586
 20
1.728396065
 30
0.0
 40
0.039370078740155
100
AcDbArc
 50
90.0000629761
 51
162.3995463312
  0
ARC
  5
2FD
330
1F
100
AcDbEntity
  8
PROFILES_INSIDE
100
AcDbCircle
 10
3.0631141547
 20
1.72839624
 30
0.0
 40
0.0393700787401594
100
AcDbArc
 50
17.6004799029
 51
90.0000629761
  0
ARC
  5
2FE
330
1F
100
AcDbEntity
  8
PROFILES_INSIDE
100
AcDbCircle
 10
3.2946563119
 20
1.8018478733
 30
0.0
 40
0.203543307086615
100
AcDbArc
 50
197.6004799029
 51
24.887906855
  0
ARC
  5
2FF
330
1F
100
AcDbEntity
  8
PROFILES_INSIDE
100
AcDbCircle
 10
3.5150110264
 20
1.9040766013
 30
0.0
 40
0.0393700787401619
100
AcDbArc
 50
180.0
 51
204.887906855
  0
ARC
  5
300
330
1F
100
AcDbEntity
  8
PROFILES_INSIDE
100
AcDbCircle
 10
3.5150128166
 20
2.1448416879
 30
0.0
 40
0.0393718690164091
100
AcDbArc
 50
155.1122159835
 51
180.0
  0
ARC
  5
301
330
1F
100
AcDbEntity
  8
PROFILES_INSIDE
100
AcDbCircle
 10
3.294656259
 20
2.2470706969
 30
0.0
 40
0.2035433070866189
100
AcDbArc
 50
335.1122159835
 51
162.3995463312
  0
ARC
  5
302
330
1F
100
AcDbEntity
  8
PROFILES_INSIDE
100
AcDbCircle
 10
3.0631140681
 20
2.3205222242
 30
0.0
 40
0.0393700787401594
100
AcDbArc
 50
270.0000629761
 51
342.3995463312
  0
ARC
  5
303
330
1F
100
AcDbEntity
  8
PROFILES_INSIDE
100
AcDbCircle
 10
2.9039157721
 20
2.3205220492
 30
0.0
 40
0.0393700847777526
100
AcDbArc
 50
197.6004799029
 51
270.0000629761
  0
ARC
  5
304
330
1F
100
AcDbEntity
  8
PROFILES_INSIDE
100
AcDbCircle
 10
2.6723736148
 20
2.2470704159
 30
0.0
 40
0.2035433010490179
100
AcDbArc
 50
17.6004799029
 51
204.8878223268
  0
ARC
  5
305
330
1F
100
AcDbEntity
  8
PROFILES_INSIDE
100
AcDbCircle
 10
2.4520189004
 20
2.1448420829
 30
0.0
 40
0.0393700090846383
100
AcDbArc
 50
0.0
 51
24.8878223268
  0
ARC
  5
306
330
1F
100
AcDbEntity
  8
PROFILES_INSIDE
100
AcDbCircle
 10
40.3416180051
 20
43.9780025392
 30
0.0
 40
0.0393700787401581
100
AcDbArc
 50
270.0000629761
 51
342.3995463312
  0
ARC
  5
307
330
1F
100
AcDbEntity
  8
PROFILES_INSIDE
100
AcDbCircle
 10
40.573160196
 20
43.9045510119
 30
0.0
 40
0.2035433070866121
100
AcDbArc
 50
335.1122159835
 51
162.3995463312
  0
ARC
  5
308
330
1F
100
AcDbEntity
  8
PROFILES_INSIDE
100
AcDbCircle
 10
40.7935167537
 20
43.8023220028
 30
0.0
 40
0.0393718690164099
100
AcDbArc
 50
155.1122159835
 51
180.0
  0
ARC
  5
309
330
1F
100
AcDbEntity
  8
PROFILES_INSIDE
100
AcDbCircle
 10
40.7935149634
 20
43.5615569163
 30
0.0
 40
0.0393700787401602
100
AcDbArc
 50
180.0
 51
204.887906855
  0
ARC
  5
30A
330
1F
100
AcDbEntity
  8
PROFILES_INSIDE
100
AcDbCircle
 10
40.5731602489
 20
43.4593281882
 30
0.0
 40
0.2035433070866164
100
AcDbArc
 50
197.6004799029
 51
24.887906855
  0
ARC
  5
30B
330
1F
100
AcDbEntity
  8
PROFILES_INSIDE
100
AcDbCircle
 10
40.3416180917
 20
43.3858765549
 30
0.0
 40
0.0393700787401538
100
AcDbArc
 50
17.6004799029
 51
90.0000629761
  0
ARC
  5
30C
330
1F
100
AcDbEntity
  8
PROFILES_INSIDE
100
AcDbCircle
 10
40.1824197956
 20
43.3858763799
 30
0.0
 40
0.039370078740151
100
AcDbArc
 50
90.0000629761
 51
162.3995463312
  0
ARC
  5
30D
330
1F
100
AcDbEntity
  8
PROFILES_INSIDE
100
AcDbCircle
 10
39.9508776047
 20
43.4593279072
 30
0.0
 40
0.2035433070866185
100
AcDbArc
 50
155.1121228022
 51
342.3995463312
  0
ARC
  5
30E
330
1F
100
AcDbEntity
  8
PROFILES_INSIDE
100
AcDbCircle
 10
39.7305228374
 20
43.5615565212
 30
0.0
 40
0.0393700787401556
100
AcDbArc
 50
335.1121228022
 51
0.0
  0
ARC
  5
30F
330
1F
100
AcDbEntity
  8
PROFILES_INSIDE
100
AcDbCircle
 10
39.7305228374
 20
43.8023223979
 30
0.0
 40
0.0393700090846281
100
AcDbArc
 50
0.0
 51
24.8878223268
  0
ARC
  5
310
330
1F
100
AcDbEntity
  8
PROFILES_INSIDE
100
AcDbCircle
 10
39.9508775518
 20
43.9045507309
 30
0.0
 40
0.20354324067306
100
AcDbArc
 50
17.6004799029
 51
204.8878223268
  0
ARC
  5
311
330
1F
100
AcDbEntity
  8
PROFILES_INSIDE
100
AcDbCircle
 10
40.1824197091
 20
43.9780023642
 30
0.0
 40
0.0393701451537034
100
AcDbArc
 50
197.6004799029
 51
270.0000629761
  0
ARC
  5
312
330
1F
100
AcDbEntity
  8
PROFILES_INSIDE
100
AcDbCircle
 10
24.5514143914
 20
43.8023220028
 30
0.0
 40
0.03937186901641
100
AcDbArc
 50
155.1122159835
 51
180.0
  0
ARC
  5
313
330
1F
100
AcDbEntity
  8
PROFILES_INSIDE
100
AcDbCircle
 10
24.3310578338
 20
43.9045510119
 30
0.0
 40
0.2035433070866164
100
AcDbArc
 50
335.1122159835
 51
162.3995463312
  0
ARC
  5
314
330
1F
100
AcDbEntity
  8
PROFILES_INSIDE
100
AcDbCircle
 10
24.0995156429
 20
43.9780025392
 30
0.0
 40
0.0393700787401599
100
AcDbArc
 50
270.0000629761
 51
342.3995463312
  0
ARC
  5
315
330
1F
100
AcDbEntity
  8
PROFILES_INSIDE
100
AcDbCircle
 10
23.9403173469
 20
43.9780023642
 30
0.0
 40
0.0393701149657251
100
AcDbArc
 50
197.6004799029
 51
270.0000629761
  0
ARC
  5
316
330
1F
100
AcDbEntity
  8
PROFILES_INSIDE
100
AcDbCircle
 10
23.7087751896
 20
43.9045507309
 30
0.0
 40
0.2035432708610485
100
AcDbArc
 50
17.6004799029
 51
204.8878223268
  0
ARC
  5
317
330
1F
100
AcDbEntity
  8
PROFILES_INSIDE
100
AcDbCircle
 10
23.4884204752
 20
43.8023223979
 30
0.0
 40
0.0393700030470363
100
AcDbArc
 50
0.0
 51
24.8878223268
  0
ARC
  5
318
330
1F
100
AcDbEntity
  8
PROFILES_INSIDE
100
AcDbCircle
 10
23.4884204752
 20
43.5615565212
 30
0.0
 40
0.0393700787401573
100
AcDbArc
 50
335.1121228022
 51
0.0
  0
ARC
  5
319
330
1F
100
AcDbEntity
  8
PROFILES_INSIDE
100
AcDbCircle
 10
23.7087752425
 20
43.4593279072
 30
0.0
 40
0.2035433070866197
100
AcDbArc
 50
155.1121228022
 51
342.3995463312
  0
ARC
  5
31A
330
1F
100
AcDbEntity
  8
PROFILES_INSIDE
100
AcDbCircle
 10
23.9403174334
 20
43.3858763799
 30
0.0
 40
0.0393700787401488
100
AcDbArc
 50
90.0000629761
 51
162.3995463312
  0
ARC
  5
31B
330
1F
100
AcDbEntity
  8
PROFILES_INSIDE
100
AcDbCircle
 10
24.0995157295
 20
43.3858765549
 30
0.0
 40
0.039370078740151
100
AcDbArc
 50
17.6004799029
 51
90.0000629761
  0
ARC
  5
31C
330
1F
100
AcDbEntity
  8
PROFILES_INSIDE
100
AcDbCircle
 10
24.3310578867
 20
43.4593281882
 30
0.0
 40
0.2035433070866197
100
AcDbArc
 50
197.6004799029
 51
24.887906855
  0
ARC
  5
31D
330
1F
100
AcDbEntity
  8
PROFILES_INSIDE
100
AcDbCircle
 10
24.5514126012
 20
43.5615569163
 30
0.0
 40
0.0393700787401592
100
AcDbArc
 50
180.0
 51
204.887906855
  0
ARC
  5
31E
330
1F
100
AcDbEntity
  8
PROFILES_INSIDE
100
AcDbCircle
 10
40.5731602489
 20
1.8018478733
 30
0.0
 40
0.2035433070866157
100
AcDbArc
 50
197.6004799029
 51
24.887906855
  0
ARC
  5
31F
330
1F
100
AcDbEntity
  8
PROFILES_INSIDE
100
AcDbCircle
 10
40.7935149634
 20
1.9040766013
 30
0.0
 40
0.0393700787401627
100
AcDbArc
 50
180.0
 51
204.887906855
  0
ARC
  5
320
330
1F
100
AcDbEntity
  8
PROFILES_INSIDE
100
AcDbCircle
 10
40.7935167537
 20
2.1448416879
 30
0.0
 40
0.0393718690164064
100
AcDbArc
 50
155.1122159835
 51
180.0
  0
ARC
  5
321
330
1F
100
AcDbEntity
  8
PROFILES_INSIDE
100
AcDbCircle
 10
40.573160196
 20
2.2470706969
 30
0.0
 40
0.203543307086622
100
AcDbArc
 50
335.1122159835
 51
162.3995463312
  0
ARC
  5
322
330
1F
100
AcDbEntity
  8
PROFILES_INSIDE
100
AcDbCircle
 10
40.3416180051
 20
2.3205222242
 30
0.0
 40
0.039370078740155
100
AcDbArc
 50
270.0000629761
 51
342.3995463312
  0
ARC
  5
323
330
1F
100
AcDbEntity
  8
PROFILES_INSIDE
100
AcDbCircle
 10
40.1824197091
 20
2.3205220492
 30
0.0
 40
0.0393701089281334
100
AcDbArc
 50
197.6004799029
 51
270.0000629761
  0
ARC
  5
324
330
1F
100
AcDbEntity
  8
PROFILES_INSIDE
100
AcDbCircle
 10
39.9508775518
 20
2.2470704159
 30
0.0
 40
0.2035432768986317
100
AcDbArc
 50
17.6004799029
 51
204.8878223268
  0
ARC
  5
325
330
1F
100
AcDbEntity
  8
PROFILES_INSIDE
100
AcDbCircle
 10
39.7305228374
 20
2.1448420829
 30
0.0
 40
0.0393699970094445
100
AcDbArc
 50
0.0
 51
24.8878223268
  0
ARC
  5
326
330
1F
100
AcDbEntity
  8
PROFILES_INSIDE
100
AcDbCircle
 10
39.7305228374
 20
1.9040762063
 30
0.0
 40
0.0393700787401627
100
AcDbArc
 50
335.1121228022
 51
0.0
  0
ARC
  5
327
330
1F
100
AcDbEntity
  8
PROFILES_INSIDE
100
AcDbCircle
 10
39.9508776047
 20
1.8018475923
 30
0.0
 40
0.2035433070866196
100
AcDbArc
 50
155.1121228022
 51
342.3995463312
  0
ARC
  5
328
330
1F
100
AcDbEntity
  8
PROFILES_INSIDE
100
AcDbCircle
 10
40.1824197956
 20
1.728396065
 30
0.0
 40
0.0393700787401594
100
AcDbArc
 50
90.0000629761
 51
162.3995463312
  0
ARC
  5
329
330
1F
100
AcDbEntity
  8
PROFILES_INSIDE
100
AcDbCircle
 10
40.3416180917
 20
1.72839624
 30
0.0
 40
0.0393700787401594
100
AcDbArc
 50
17.6004799029
 51
90.0000629761
  0
ARC
  5
32A
330
1F
100
AcDbEntity
  8
PROFILES_INSIDE
100
AcDbCircle
 10
23.4884204752
 20
1.9040762063
 30
0.0
 40
0.0393700787401627
100
AcDbArc
 50
335.1121228022
 51
0.0
  0
ARC
  5
32B
330
1F
100
AcDbEntity
  8
PROFILES_INSIDE
100
AcDbCircle
 10
23.7087752425
 20
1.8018475923
 30
0.0
 40
0.2035433070866181
100
AcDbArc
 50
155.1121228022
 51
342.3995463312
  0
ARC
  5
32C
330
1F
100
AcDbEntity
  8
PROFILES_INSIDE
100
AcDbCircle
 10
23.9403174334
 20
1.728396065
 30
0.0
 40
0.039370078740157
100
AcDbArc
 50
90.0000629761
 51
162.3995463312
  0
ARC
  5
32D
330
1F
100
AcDbEntity
  8
PROFILES_INSIDE
100
AcDbCircle
 10
24.0995157295
 20
1.72839624
 30
0.0
 40
0.0393700787401562
100
AcDbArc
 50
17.6004799029
 51
90.0000629761
  0
ARC
  5
32E
330
1F
100
AcDbEntity
  8
PROFILES_INSIDE
100
AcDbCircle
 10
24.3310578867
 20
1.8018478733
 30
0.0
 40
0.2035433070866159
100
AcDbArc
 50
197.6004799029
 51
24.887906855
  0
ARC
  5
32F
330
1F
100
AcDbEntity
  8
PROFILES_INSIDE
100
AcDbCircle
 10
24.5514126012
 20
1.9040766013
 30
0.0
 40
0.0393700787401627
100
AcDbArc
 50
180.0
 51
204.887906855
  0
ARC
  5
330
330
1F
100
AcDbEntity
  8
PROFILES_INSIDE
100
AcDbCircle
 10
24.5514143914
 20
2.1448416879
 30
0.0
 40
0.03937186901641
100
AcDbArc
 50
155.1122159835
 51
180.0
  0
ARC
  5
331
330
1F
100
AcDbEntity
  8
PROFILES_INSIDE
100
AcDbCircle
 10
24.3310578338
 20
2.2470706969
 30
0.0
 40
0.2035433070866167
100
AcDbArc
 50
335.1122159835
 51
162.3995463312
  0
ARC
  5
332
330
1F
100
AcDbEntity
  8
PROFILES_INSIDE
100
AcDbCircle
 10
24.0995156429
 20
2.3205222242
 30
0.0
 40
0.0393700787401604
100
AcDbArc
 50
270.0000629761
 51
342.3995463312
  0
ARC
  5
333
330
1F
100
AcDbEntity
  8
PROFILES_INSIDE
100
AcDbCircle
 10
23.9403173469
 20
2.3205220492
 30
0.0
 40
0.03937008477775
100
AcDbArc
 50
197.6004799029
 51
270.0000629761
  0
ARC
  5
334
330
1F
100
AcDbEntity
  8
PROFILES_INSIDE
100
AcDbCircle
 10
23.7087751896
 20
2.2470704159
 30
0.0
 40
0.2035433010490205
100
AcDbArc
 50
17.6004799029
 51
204.8878223268
  0
ARC
  5
335
330
1F
100
AcDbEntity
  8
PROFILES_INSIDE
100
AcDbCircle
 10
23.4884204752
 20
2.1448420829
 30
0.0
 40
0.0393700090846387
100
AcDbArc
 50
0.0
 51
24.8878223268
  0
ARC
  5
336
330
1F
100
AcDbEntity
  8
PROFILES_OUTSIDE
100
AcDbCircle
 10
22.2885149634
 20
44.2862701682
 30
0.0
 40
0.236220472440948
100
AcDbArc
 50
90.0
 51
180.0
  0
ARC
  5
337
330
1F
100
AcDbEntity
  8
PROFILES_OUTSIDE
100
AcDbCircle
 10
41.6074126012
 20
44.2862701682
 30
0.0
 40
0.236220472440948
100
AcDbArc
 50
0.0
 51
90.0
  0
ARC
  5
338
330
1F
100
AcDbEntity
  8
PROFILES_OUTSIDE
100
AcDbCircle
 10
41.6074126012
 20
41.5710968527
 30
0.0
 40
0.236220472440948
100
AcDbArc
 50
280.0
 51
0.0
  0
ARC
  5
339
330
1F
100
AcDbEntity
  8
PROFILES_OUTSIDE
100
AcDbCircle
 10
41.2924519712
 20
41.0358316879
 30
0.0
 40
0.2362204724409409
100
AcDbArc
 50
100.0
 51
180.0
  0
ARC
  5
33A
330
1F
100
AcDbEntity
  8
PROFILES_OUTSIDE
100
AcDbCircle
 10
41.2924519712
 20
4.6705669163
 30
0.0
 40
0.2362204724409551
100
AcDbArc
 50
180.0
 51
260.0
  0
ARC
  5
33B
330
1F
100
AcDbEntity
  8
PROFILES_OUTSIDE
100
AcDbCircle
 10
41.6074126012
 20
4.1353017514
 30
0.0
 40
0.236220472440948
100
AcDbArc
 50
0.0
 51
80.0
  0
ARC
  5
33C
330
1F
100
AcDbEntity
  8
PROFILES_OUTSIDE
100
AcDbCircle
 10
41.6074126012
 20
1.4201284359
 30
0.0
 40
0.236220472440948
100
AcDbArc
 50
270.0
 51
0.0
  0
ARC
  5
33D
330
1F
100
AcDbEntity
  8
PROFILES_OUTSIDE
100
AcDbCircle
 10
22.2885149634
 20
1.4201284359
 30
0.0
 40
0.2362204724409451
100
AcDbArc
 50
180.0
 51
270.0
  0
ARC
  5
33E
330
1F
100
AcDbEntity
  8
PROFILES_OUTSIDE
100
AcDbCircle
 10
69.4377275618
 20
17.9435930029
 30
0.0
 40
0.4724409448818925
100
AcDbArc
 50
90.0
 51
180.0
  0
ARC
  5
33F
330
1F
100
AcDbEntity
  8
PROFILES_OUTSIDE
100
AcDbCircle
 10
69.4377275618
 20
2.640679617
 30
0.0
 40
0.4724409448818903
100
AcDbArc
 50
180.0
 51
270.0
  0
ARC
  5
340
330
1F
100
AcDbEntity
  8
PROFILES_OUTSIDE
100
AcDbCircle
 10
72.1129244122
 20
1.4694197745
 30
0.0
 40
0.0393700787401619
100
AcDbArc
 50
270.0
 51
0.0
  0
ARC
  5
341
330
1F
100
AcDbEntity
  8
PROFILES_OUTSIDE
100
AcDbCircle
 10
62.8175718889
 20
18.9475300107
 30
0.0
 40
0.039370078740159
100
AcDbArc
 50
183.6619355755
 51
270.0
  0
ARC
  5
342
330
1F
100
AcDbEntity
  8
PROFILES_OUTSIDE
100
AcDbCircle
 10
63.1577166018
 20
18.8687898533
 30
0.0
 40
0.0393700787401592
100
AcDbArc
 50
65.1121079736
 51
90.0
  0
ARC
  5
343
330
1F
100
AcDbEntity
  8
PROFILES_OUTSIDE
100
AcDbCircle
 10
63.2599452728
 20
19.0891445942
 30
0.0
 40
0.2035433070866172
100
AcDbArc
 50
245.1121079736
 51
72.3995332141
  0
ARC
  5
344
330
1F
100
AcDbEntity
  8
PROFILES_OUTSIDE
100
AcDbCircle
 10
63.3333968531
 20
19.3206867682
 30
0.0
 40
0.0393700787401603
100
AcDbArc
 50
180.0
 51
252.3995332141
  0
ARC
  5
345
330
1F
100
AcDbEntity
  8
PROFILES_OUTSIDE
100
AcDbCircle
 10
65.774341735
 20
18.9279237115
 30
0.0
 40
0.472440944881896
100
AcDbArc
 50
0.0
 51
90.0
  0
ARC
  5
346
330
1F
100
AcDbEntity
  8
PROFILES_OUTSIDE
100
AcDbCircle
 10
66.7192236248
 20
13.6431730554
 30
0.0
 40
0.4724409448818889
100
AcDbArc
 50
180.0
 51
270.0
  0
ARC
  5
347
330
1F
100
AcDbEntity
  8
PROFILES_OUTSIDE
100
AcDbCircle
 10
67.742845672
 20
13.6431730554
 30
0.0
 40
0.472440944881896
100
AcDbArc
 50
270.0
 51
0.0
  0
ARC
  5
348
330
1F
100
AcDbEntity
  8
PROFILES_OUTSIDE
100
AcDbCircle
 10
68.6877275618
 20
18.9279237115
 30
0.0
 40
0.4724409448818889
100
AcDbArc
 50
90.0
 51
180.0
  0
ARC
  5
349
330
1F
100
AcDbEntity
  8
PROFILES_OUTSIDE
100
AcDbCircle
 10
71.1286724437
 20
19.3206867682
 30
0.0
 40
0.0393700787401569
100
AcDbArc
 50
287.6004667859
 51
0.0
  0
ARC
  5
34A
330
1F
100
AcDbEntity
  8
PROFILES_OUTSIDE
100
AcDbCircle
 10
71.202124024
 20
19.0891445942
 30
0.0
 40
0.2035433070866172
100
AcDbArc
 50
107.6004667859
 51
294.8878920264
  0
ARC
  5
34B
330
1F
100
AcDbEntity
  8
PROFILES_OUTSIDE
100
AcDbCircle
 10
71.304352695
 20
18.8687898533
 30
0.0
 40
0.0393700787401556
100
AcDbArc
 50
90.0
 51
114.8878920264
  0
ARC
  5
34C
330
1F
100
AcDbEntity
  8
PROFILES_OUTSIDE
100
AcDbCircle
 10
71.644497408
 20
18.9475300107
 30
0.0
 40
0.039370078740159
100
AcDbArc
 50
270.0
 51
356.3380644245
  0
ARC
  5
34D
330
1F
100
AcDbEntity
  8
PROFILES_OUTSIDE
100
AcDbCircle
 10
71.9160740185
 20
18.6522544202
 30
0.0
 40
0.2362204724409445
100
AcDbArc
 50
270.0
 51
0.0
  0
ARC
  5
34E
330
1F
100
AcDbEntity
  8
PROFILES_OUTSIDE
100
AcDbCircle
 10
62.3491448846
 20
1.4694197745
 30
0.0
 40
0.0393700787401532
100
AcDbArc
 50
180.0
 51
270.0
  0
ARC
  5
34F
330
1F
100
AcDbEntity
  8
PROFILES_OUTSIDE
100
AcDbCircle
 10
68.2152866169
 20
13.1707321105
 30
0.0
 40
0.75
100
AcDbArc
 50
300.0
 51
0.0
  0
ARC
  5
350
330
1F
100
AcDbEntity
  8
PROFILES_OUTSIDE
100
AcDbCircle
 10
68.9652866169
 20
11.8716940048
 30
0.0
 40
0.75
100
AcDbArc
 50
120.0
 51
180.0
  0
ARC
  5
351
330
1F
100
AcDbEntity
  8
PROFILES_OUTSIDE
100
AcDbCircle
 10
68.9652866169
 20
8.7125786151
 30
0.0
 40
0.75
100
AcDbArc
 50
180.0
 51
240.0
  0
ARC
  5
352
330
1F
100
AcDbEntity
  8
PROFILES_OUTSIDE
100
AcDbCircle
 10
68.2152866169
 20
7.4135405094
 30
0.0
 40
0.75
100
AcDbArc
 50
0.0
 51
60.0
  0
ARC
  5
353
330
1F
100
AcDbEntity
  8
PROFILES_OUTSIDE
100
AcDbCircle
 10
71.9160740185
 20
1.9320181997
 30
0.0
 40
0.236220472440948
100
AcDbArc
 50
0.0
 51
90.0
  0
ARC
  5
354
330
1F
100
AcDbEntity
  8
PROFILES_OUTSIDE
100
AcDbCircle
 10
65.024341735
 20
2.640679617
 30
0.0
 40
0.472440944881896
100
AcDbArc
 50
270.0
 51
0.0
  0
ARC
  5
355
330
1F
100
AcDbEntity
  8
PROFILES_OUTSIDE
100
AcDbCircle
 10
71.644497408
 20
1.6367426092
 30
0.0
 40
0.0393700787401619
100
AcDbArc
 50
3.6619355755
 51
90.0
  0
ARC
  5
356
330
1F
100
AcDbEntity
  8
PROFILES_OUTSIDE
100
AcDbCircle
 10
71.304352695
 20
1.7154827666
 30
0.0
 40
0.0393700787401532
100
AcDbArc
 50
245.1121079736
 51
270.0
  0
ARC
  5
357
330
1F
100
AcDbEntity
  8
PROFILES_OUTSIDE
100
AcDbCircle
 10
71.202124024
 20
1.4951280257
 30
0.0
 40
0.2035433070866226
100
AcDbArc
 50
65.1121079736
 51
252.3995332141
  0
ARC
  5
358
330
1F
100
AcDbEntity
  8
PROFILES_OUTSIDE
100
AcDbCircle
 10
71.1286724437
 20
1.2635858517
 30
0.0
 40
0.0393700787401485
100
AcDbArc
 50
0.0
 51
72.3995332142
  0
ARC
  5
359
330
1F
100
AcDbEntity
  8
PROFILES_OUTSIDE
100
AcDbCircle
 10
68.6877275618
 20
1.6563489084
 30
0.0
 40
0.4724409448818818
100
AcDbArc
 50
180.0
 51
270.0
  0
ARC
  5
35A
330
1F
100
AcDbEntity
  8
PROFILES_OUTSIDE
100
AcDbCircle
 10
67.742845672
 20
6.9410995645
 30
0.0
 40
0.472440944881896
100
AcDbArc
 50
0.0
 51
90.0
  0
ARC
  5
35B
330
1F
100
AcDbEntity
  8
PROFILES_OUTSIDE
100
AcDbCircle
 10
66.7192236248
 20
6.9410995645
 30
0.0
 40
0.4724409448818907
100
AcDbArc
 50
90.0
 51
180.0
  0
ARC
  5
35C
330
1F
100
AcDbEntity
  8
PROFILES_OUTSIDE
100
AcDbCircle
 10
65.774341735
 20
1.6563489084
 30
0.0
 40
0.472440944881896
100
AcDbArc
 50
270.0
 51
0.0
  0
ARC
  5
35D
330
1F
100
AcDbEntity
  8
PROFILES_OUTSIDE
100
AcDbCircle
 10
63.3333968531
 20
1.2635858517
 30
0.0
 40
0.039370078740152
100
AcDbArc
 50
107.6004667859
 51
180.0
  0
ARC
  5
35E
330
1F
100
AcDbEntity
  8
PROFILES_OUTSIDE
100
AcDbCircle
 10
63.2599452728
 20
1.4951280257
 30
0.0
 40
0.2035433070866183
100
AcDbArc
 50
287.6004667859
 51
114.8878920264
  0
ARC
  5
35F
330
1F
100
AcDbEntity
  8
PROFILES_OUTSIDE
100
AcDbCircle
 10
63.1577166018
 20
1.7154827666
 30
0.0
 40
0.0393700787401542
100
AcDbArc
 50
270.0
 51
294.8878920264
  0
ARC
  5
360
330
1F
100
AcDbEntity
  8
PROFILES_OUTSIDE
100
AcDbCircle
 10
62.8175718889
 20
1.6367426092
 30
0.0
 40
0.039370078740159
100
AcDbArc
 50
90.0
 51
176.3380644245
  0
ARC
  5
361
330
1F
100
AcDbEntity
  8
PROFILES_OUTSIDE
100
AcDbCircle
 10
62.5459952783
 20
1.9320181997
 30
0.0
 40
0.2362204724409362
100
AcDbArc
 50
90.0
 51
180.0
  0
ARC
  5
362
330
1F
100
AcDbEntity
  8
PROFILES_OUTSIDE
100
AcDbCircle
 10
65.024341735
 20
17.9435930029
 30
0.0
 40
0.472440944881896
100
AcDbArc
 50
0.0
 51
90.0
  0
ARC
  5
363
330
1F
100
AcDbEntity
  8
PROFILES_OUTSIDE
100
AcDbCircle
 10
66.2467826799
 20
7.4135405094
 30
0.0
 40
0.75
100
AcDbArc
 50
120.0
 51
180.0
  0
ARC
  5
364
330
1F
100
AcDbEntity
  8
PROFILES_OUTSIDE
100
AcDbCircle
 10
65.4967826799
 20
8.7125786151
 30
0.0
 40
0.75
100
AcDbArc
 50
300.0
 51
0.0
  0
ARC
  5
365
330
1F
100
AcDbEntity
  8
PROFILES_OUTSIDE
100
AcDbCircle
 10
65.4967826799
 20
11.8716940048
 30
0.0
 40
0.75
100
AcDbArc
 50
0.0
 51
60.0
  0
ARC
  5
366
330
1F
100
AcDbEntity
  8
PROFILES_OUTSIDE
100
AcDbCircle
 10
66.2467826799
 20
13.1707321105
 30
0.0
 40
0.75
100
AcDbArc
 50
180.0
 51
240.0
  0
ARC
  5
367
330
1F
100
AcDbEntity
  8
PROFILES_OUTSIDE
100
AcDbCircle
 10
62.5459952783
 20
18.6522544202
 30
0.0
 40
0.2362204724409409
100
AcDbArc
 50
180.0
 51
270.0
  0
ARC
  5
368
330
1F
100
AcDbEntity
  8
PROFILES_OUTSIDE
100
AcDbCircle
 10
62.3491448846
 20
19.1148528454
 30
0.0
 40
0.0393700787401556
100
AcDbArc
 50
90.0
 51
180.0
  0
ARC
  5
369
330
1F
100
AcDbEntity
  8
PROFILES_OUTSIDE
100
AcDbCircle
 10
62.3491448846
 20
20.9250890659
 30
0.0
 40
0.0393700787401556
100
AcDbArc
 50
180.0
 51
270.0
  0
ARC
  5
36A
330
1F
100
AcDbEntity
  8
PROFILES_OUTSIDE
100
AcDbCircle
 10
65.024341735
 20
22.0963489084
 30
0.0
 40
0.472440944881896
100
AcDbArc
 50
270.0
 51
0.0
  0
ARC
  5
36B
330
1F
100
AcDbEntity
  8
PROFILES_OUTSIDE
100
AcDbCircle
 10
65.024341735
 20
37.3992622942
 30
0.0
 40
0.472440944881896
100
AcDbArc
 50
0.0
 51
90.0
  0
ARC
  5
36C
330
1F
100
AcDbEntity
  8
PROFILES_OUTSIDE
100
AcDbCircle
 10
62.3491448846
 20
38.5705221367
 30
0.0
 40
0.0393700787401556
100
AcDbArc
 50
90.0
 51
180.0
  0
ARC
  5
36D
330
1F
100
AcDbEntity
  8
PROFILES_OUTSIDE
100
AcDbCircle
 10
71.644497408
 20
21.0924119005
 30
0.0
 40
0.039370078740159
100
AcDbArc
 50
3.6619355755
 51
90.0
  0
ARC
  5
36E
330
1F
100
AcDbEntity
  8
PROFILES_OUTSIDE
100
AcDbCircle
 10
71.304352695
 20
21.171152058
 30
0.0
 40
0.0393700787401576
100
AcDbArc
 50
245.1121079736
 51
270.0
  0
ARC
  5
36F
330
1F
100
AcDbEntity
  8
PROFILES_OUTSIDE
100
AcDbCircle
 10
71.202124024
 20
20.9507973171
 30
0.0
 40
0.2035433070866204
100
AcDbArc
 50
65.1121079736
 51
252.3995332141
  0
ARC
  5
370
330
1F
100
AcDbEntity
  8
PROFILES_OUTSIDE
100
AcDbCircle
 10
71.1286724437
 20
20.719255143
 30
0.0
 40
0.0393700787401569
100
AcDbArc
 50
0.0
 51
72.3995332141
  0
ARC
  5
371
330
1F
100
AcDbEntity
  8
PROFILES_OUTSIDE
100
AcDbCircle
 10
68.6877275618
 20
21.1120181997
 30
0.0
 40
0.4724409448818925
100
AcDbArc
 50
180.0
 51
270.0
  0
ARC
  5
372
330
1F
100
AcDbEntity
  8
PROFILES_OUTSIDE
100
AcDbCircle
 10
67.742845672
 20
26.3967688559
 30
0.0
 40
0.472440944881896
100
AcDbArc
 50
0.0
 51
90.0
  0
ARC
  5
373
330
1F
100
AcDbEntity
  8
PROFILES_OUTSIDE
100
AcDbCircle
 10
66.7192236248
 20
26.3967688559
 30
0.0
 40
0.4724409448818854
100
AcDbArc
 50
90.0
 51
180.0
  0
ARC
  5
374
330
1F
100
AcDbEntity
  8
PROFILES_OUTSIDE
100
AcDbCircle
 10
65.774341735
 20
21.1120181997
 30
0.0
 40
0.472440944881896
100
AcDbArc
 50
270.0
 51
0.0
  0
ARC
  5
375
330
1F
100
AcDbEntity
  8
PROFILES_OUTSIDE
100
AcDbCircle
 10
63.3333968531
 20
20.719255143
 30
0.0
 40
0.0393700787401569
100
AcDbArc
 50
107.6004667859
 51
180.0
  0
ARC
  5
376
330
1F
100
AcDbEntity
  8
PROFILES_OUTSIDE
100
AcDbCircle
 10
63.2599452728
 20
20.9507973171
 30
0.0
 40
0.2035433070866139
100
AcDbArc
 50
287.6004667859
 51
114.8878920264
  0
ARC
  5
377
330
1F
100
AcDbEntity
  8
PROFILES_OUTSIDE
100
AcDbCircle
 10
63.1577166018
 20
21.171152058
 30
0.0
 40
0.0393700787401611
100
AcDbArc
 50
270.0
 51
294.8878920264
  0
ARC
  5
378
330
1F
100
AcDbEntity
  8
PROFILES_OUTSIDE
100
AcDbCircle
 10
62.8175718889
 20
21.0924119005
 30
0.0
 40
0.0393700787401592
100
AcDbArc
 50
90.0
 51
176.3380644245
  0
ARC
  5
379
330
1F
100
AcDbEntity
  8
PROFILES_OUTSIDE
100
AcDbCircle
 10
62.5459952783
 20
21.387687491
 30
0.0
 40
0.2362204724409516
100
AcDbArc
 50
90.0
 51
180.0
  0
ARC
  5
37A
330
1F
100
AcDbEntity
  8
PROFILES_OUTSIDE
100
AcDbCircle
 10
72.1129244122
 20
38.5705221367
 30
0.0
 40
0.0393700787401556
100
AcDbArc
 50
0.0
 51
90.0
  0
ARC
  5
37B
330
1F
100
AcDbEntity
  8
PROFILES_OUTSIDE
100
AcDbCircle
 10
66.2467826799
 20
26.8692098008
 30
0.0
 40
0.75
100
AcDbArc
 50
120.0
 51
180.0
  0
ARC
  5
37C
330
1F
100
AcDbEntity
  8
PROFILES_OUTSIDE
100
AcDbCircle
 10
65.4967826799
 20
28.1682479064
 30
0.0
 40
0.75
100
AcDbArc
 50
300.0
 51
0.0
  0
ARC
  5
37D
330
1F
100
AcDbEntity
  8
PROFILES_OUTSIDE
100
AcDbCircle
 10
65.4967826799
 20
31.3273632961
 30
0.0
 40
0.75
100
AcDbArc
 50
0.0
 51
60.0
  0
ARC
  5
37E
330
1F
100
AcDbEntity
  8
PROFILES_OUTSIDE
100
AcDbCircle
 10
66.2467826799
 20
32.6264014018
 30
0.0
 40
0.7500000000000031
100
AcDbArc
 50
180.0
 51
240.0
  0
ARC
  5
37F
330
1F
100
AcDbEntity
  8
PROFILES_OUTSIDE
100
AcDbCircle
 10
62.5459952783
 20
38.1079237115
 30
0.0
 40
0.2362204724409409
100
AcDbArc
 50
180.0
 51
270.0
  0
ARC
  5
380
330
1F
100
AcDbEntity
  8
PROFILES_OUTSIDE
100
AcDbCircle
 10
69.4377275618
 20
37.3992622942
 30
0.0
 40
0.4724409448818889
100
AcDbArc
 50
90.0
 51
180.0
  0
ARC
  5
381
330
1F
100
AcDbEntity
  8
PROFILES_OUTSIDE
100
AcDbCircle
 10
62.8175718889
 20
38.4031993021
 30
0.0
 40
0.039370078740159
100
AcDbArc
 50
183.6619355755
 51
270.0
  0
ARC
  5
382
330
1F
100
AcDbEntity
  8
PROFILES_OUTSIDE
100
AcDbCircle
 10
63.1577166018
 20
38.3244591446
 30
0.0
 40
0.0393700787401627
100
AcDbArc
 50
65.1121079736
 51
90.0
  0
ARC
  5
383
330
1F
100
AcDbEntity
  8
PROFILES_OUTSIDE
100
AcDbCircle
 10
63.2599452728
 20
38.5448138855
 30
0.0
 40
0.2035433070866204
100
AcDbArc
 50
245.1121079736
 51
72.3995332141
  0
ARC
  5
384
330
1F
100
AcDbEntity
  8
PROFILES_OUTSIDE
100
AcDbCircle
 10
63.3333968531
 20
38.7763560595
 30
0.0
 40
0.0393700787401569
100
AcDbArc
 50
180.0
 51
252.3995332141
  0
ARC
  5
385
330
1F
100
AcDbEntity
  8
PROFILES_OUTSIDE
100
AcDbCircle
 10
65.774341735
 20
38.3835930029
 30
0.0
 40
0.472440944881896
100
AcDbArc
 50
0.0
 51
90.0
  0
ARC
  5
386
330
1F
100
AcDbEntity
  8
PROFILES_OUTSIDE
100
AcDbCircle
 10
66.7192236248
 20
33.0988423467
 30
0.0
 40
0.4724409448818889
100
AcDbArc
 50
180.0
 51
270.0
  0
ARC
  5
387
330
1F
100
AcDbEntity
  8
PROFILES_OUTSIDE
100
AcDbCircle
 10
67.742845672
 20
33.0988423467
 30
0.0
 40
0.472440944881896
100
AcDbArc
 50
270.0
 51
0.0
  0
ARC
  5
388
330
1F
100
AcDbEntity
  8
PROFILES_OUTSIDE
100
AcDbCircle
 10
68.6877275618
 20
38.3835930029
 30
0.0
 40
0.4724409448818889
100
AcDbArc
 50
90.0
 51
180.0
  0
ARC
  5
389
330
1F
100
AcDbEntity
  8
PROFILES_OUTSIDE
100
AcDbCircle
 10
71.1286724437
 20
38.7763560595
 30
0.0
 40
0.0393700787401569
100
AcDbArc
 50
287.6004667859
 51
0.0
  0
ARC
  5
38A
330
1F
100
AcDbEntity
  8
PROFILES_OUTSIDE
100
AcDbCircle
 10
71.202124024
 20
38.5448138855
 30
0.0
 40
0.2035433070866204
100
AcDbArc
 50
107.6004667859
 51
294.8878920264
  0
ARC
  5
38B
330
1F
100
AcDbEntity
  8
PROFILES_OUTSIDE
100
AcDbCircle
 10
71.304352695
 20
38.3244591446
 30
0.0
 40
0.0393700787401556
100
AcDbArc
 50
90.0
 51
114.8878920264
  0
ARC
  5
38C
330
1F
100
AcDbEntity
  8
PROFILES_OUTSIDE
100
AcDbCircle
 10
71.644497408
 20
38.4031993021
 30
0.0
 40
0.0393700787401627
100
AcDbArc
 50
270.0
 51
356.3380644245
  0
ARC
  5
38D
330
1F
100
AcDbEntity
  8
PROFILES_OUTSIDE
100
AcDbCircle
 10
71.9160740185
 20
38.1079237115
 30
0.0
 40
0.2362204724409409
100
AcDbArc
 50
270.0
 51
0.0
  0
ARC
  5
38E
330
1F
100
AcDbEntity
  8
PROFILES_OUTSIDE
100
AcDbCircle
 10
69.4377275618
 20
22.0963489084
 30
0.0
 40
0.4724409448818818
100
AcDbArc
 50
180.0
 51
270.0
  0
ARC
  5
38F
330
1F
100
AcDbEntity
  8
PROFILES_OUTSIDE
100
AcDbCircle
 10
68.2152866169
 20
32.6264014018
 30
0.0
 40
0.7500000000000031
100
AcDbArc
 50
300.0
 51
0.0
  0
ARC
  5
390
330
1F
100
AcDbEntity
  8
PROFILES_OUTSIDE
100
AcDbCircle
 10
68.9652866169
 20
31.3273632961
 30
0.0
 40
0.75
100
AcDbArc
 50
120.0
 51
180.0
  0
ARC
  5
391
330
1F
100
AcDbEntity
  8
PROFILES_OUTSIDE
100
AcDbCircle
 10
68.9652866169
 20
28.1682479064
 30
0.0
 40
0.75
100
AcDbArc
 50
180.0
 51
240.0
  0
ARC
  5
392
330
1F
100
AcDbEntity
  8
PROFILES_OUTSIDE
100
AcDbCircle
 10
68.2152866169
 20
26.8692098008
 30
0.0
 40
0.75
100
AcDbArc
 50
0.0
 51
60.0
  0
ARC
  5
393
330
1F
100
AcDbEntity
  8
PROFILES_OUTSIDE
100
AcDbCircle
 10
71.9160740185
 20
21.387687491
 30
0.0
 40
0.2362204724409445
100
AcDbArc
 50
0.0
 51
90.0
  0
ARC
  5
394
330
1F
100
AcDbEntity
  8
PROFILES_OUTSIDE
100
AcDbCircle
 10
72.1129244122
 20
20.9250890659
 30
0.0
 40
0.0393700787401592
100
AcDbArc
 50
270.0
 51
0.0
  0
ENDSEC
  0
SECTION
  2
OBJECTS
  0
DICTIONARY
  5
C
330
0
100
AcDbDictionary
  3
ACAD_GROUP
350
D
  3
ACAD_MLINESTYLE
350
17
  3
ACAD_SCALELIST
350
47
  0
DICTIONARY
  5
D
102
{ACAD_REACTORS
330
C
102
}
330
C
100
AcDbDictionary
  0
DICTIONARY
  5
17
102
{ACAD_REACTORS
330
C
102
}
330
C
100
AcDbDictionary
  3
STANDARD
350
18
  0
DICTIONARY
  5
47
102
{ACAD_REACTORS
330
C
102
}
330
C
100
AcDbDictionary
  0
MLINESTYLE
  5
18
102
{ACAD_REACTORS
330
17
102
}
330
17
100
AcDbMlineStyle
  2
Standard
 70
     0
  3

 62
   256
 51
90.0
 52
90.0
 71
     2
 49
0.5
 62
   256
  6
BYLAYER
 49
-0.5
 62
   256
  6
BYLAYER
  0
ENDSEC
  0
EOF
