  0
SECTION
  2
HEADER
  9
$ACADVER
  1
AC1014
  9
$ACADMAINTVER
 70
     9
  9
$DWGCODEPAGE
  3
ANSI_1252
  9
$INSBASE
 10
0.0
 20
0.0
 30
0.0
  9
$EXTMIN
 10
0.0
 20
0.0
 30
0.0
  9
$EXTMAX
 10
2440.0
 20
1220.0
 30
0.0
  9
$LIMMIN
 10
0.0
 20
0.0
  9
$LIMMAX
 10
2440.0
 20
1220.0
  9
$ORTHOMODE
 70
     0
  9
$REGENMODE
 70
     1
  9
$FILLMODE
 70
     1
  9
$QTEXTMODE
 70
     0
  9
$MIRRTEXT
 70
     1
  9
$DRAGMODE
 70
     2
  9
$LTSCALE
 40
1.0
  9
$OSMODE
 70
    37
  9
$ATTMODE
 70
     1
  9
$TEXTSIZE
 40
3.5
  9
$TRACEWID
 40
1.0
  9
$TEXTSTYLE
  7
STANDARD
  9
$CLAYER
  8
0
  9
$CELTYPE
  6
BYLAYER
  9
$CECOLOR
 62
   256
  9
$CELTSCALE
 40
1.0
  9
$DELOBJ
 70
     1
  9
$DISPSILH
 70
     0
  9
$DIMSCALE
 40
1.0
  9
$DIMASZ
 40
3.302
  9
$DIMEXO
 40
1.0
  9
$DIMDLI
 40
3.75
  9
$DIMRND
 40
0.0
  9
$DIMDLE
 40
0.0
  9
$DIMEXE
 40
1.0
  9
$DIMTP
 40
0.0
  9
$DIMTM
 40
0.0
  9
$DIMTXT
 40
4.5861111111
  9
$DIMCEN
 40
2.5
  9
$DIMTSZ
 40
0.0
  9
$DIMTOL
 70
     0
  9
$DIMLIM
 70
     0
  9
$DIMTIH
 70
     1
  9
$DIMTOH
 70
     1
  9
$DIMSE1
 70
     0
  9
$DIMSE2
 70
     0
  9
$DIMTAD
 70
     1
  9
$DIMZIN
 70
     0
  9
$DIMBLK
  1

  9
$DIMASO
 70
     1
  9
$DIMSHO
 70
     1
  9
$DIMPOST
  1

  9
$DIMAPOST
  1

  9
$DIMALT
 70
     0
  9
$DIMALTD
 70
     3
  9
$DIMALTF
 40
0.0393700787
  9
$DIMLFAC
 40
1.0
  9
$DIMTOFL
 70
     1
  9
$DIMTVP
 40
0.0
  9
$DIMTIX
 70
     0
  9
$DIMSOXD
 70
     0
  9
$DIMSAH
 70
     0
  9
$DIMBLK1
  1

  9
$DIMBLK2
  1

  9
$DIMSTYLE
  2
ISO-25
  9
$DIMCLRD
 70
     0
  9
$DIMCLRE
 70
     0
  9
$DIMCLRT
 70
     0
  9
$DIMTFAC
 40
1.0
  9
$DIMGAP
 40
1.524
  9
$DIMJUST
 70
     0
  9
$DIMSD1
 70
     0
  9
$DIMSD2
 70
     0
  9
$DIMTOLJ
 70
     0
  9
$DIMTZIN
 70
     0
  9
$DIMALTZ
 70
     0
  9
$DIMALTTZ
 70
     0
  9
$DIMFIT
 70
     3
  9
$DIMUPT
 70
     0
  9
$DIMUNIT
 70
     2
  9
$DIMDEC
 70
     2
  9
$DIMTDEC
 70
     2
  9
$DIMALTU
 70
     2
  9
$DIMALTTD
 70
     3
  9
$DIMTXSTY
  7
STANDARD
  9
$DIMAUNIT
 70
     0
  9
$LUNITS
 70
     2
  9
$LUPREC
 70
     2
  9
$SKETCHINC
 40
1.0
  9
$FILLETRAD
 40
10.0
  9
$AUNITS
 70
     0
  9
$AUPREC
 70
     2
  9
$MENU
  1
.
  9
$ELEVATION
 40
0.0
  9
$PELEVATION
 40
0.0
  9
$THICKNESS
 40
0.0
  9
$LIMCHECK
 70
     0
  9
$CHAMFERA
 40
0.0
  9
$CHAMFERB
 40
0.0
  9
$CHAMFERC
 40
0.0
  9
$CHAMFERD
 40
0.0
  9
$SKPOLY
 70
     0
  9
$TDCREATE
 40
2457722.360531759
  9
$TDUPDATE
 40
2457722.360532084
  9
$TDINDWG
 40
0.0000000116
  9
$TDUSRTIMER
 40
0.0000000116
  9
$USRTIMER
 70
     1
  9
$ANGBASE
 50
0.0
  9
$ANGDIR
 70
     0
  9
$PDMODE
 70
     0
  9
$PDSIZE
 40
-1.0
  9
$PLINEWID
 40
0.0
  9
$COORDS
 70
     1
  9
$SPLFRAME
 70
     0
  9
$SPLINETYPE
 70
     6
  9
$SPLINESEGS
 70
     8
  9
$ATTDIA
 70
     0
  9
$ATTREQ
 70
     1
  9
$HANDLING
 70
     1
  9
$HANDSEED
  5
395
  9
$SURFTAB1
 70
     6
  9
$SURFTAB2
 70
     6
  9
$SURFTYPE
 70
     6
  9
$SURFU
 70
     6
  9
$SURFV
 70
     6
  9
$UCSNAME
  2

  9
$UCSORG
 10
0.0
 20
0.0
 30
0.0
  9
$UCSXDIR
 10
1.0
 20
0.0
 30
0.0
  9
$UCSYDIR
 10
0.0
 20
1.0
 30
0.0
  9
$PUCSNAME
  2

  9
$PUCSORG
 10
0.0
 20
0.0
 30
0.0
  9
$PUCSXDIR
 10
1.0
 20
0.0
 30
0.0
  9
$PUCSYDIR
 10
0.0
 20
1.0
 30
0.0
  9
$USERI1
 70
     0
  9
$USERI2
 70
     0
  9
$USERI3
 70
     0
  9
$USERI4
 70
     0
  9
$USERI5
 70
     0
  9
$USERR1
 40
0.0
  9
$USERR2
 40
0.0
  9
$USERR3
 40
0.0
  9
$USERR4
 40
0.0
  9
$USERR5
 40
0.0
  9
$WORLDVIEW
 70
     1
  9
$SHADEDGE
 70
     3
  9
$SHADEDIF
 70
    70
  9
$TILEMODE
 70
     1
  9
$MAXACTVP
 70
    64
  9
$PINSBASE
 10
0.0
 20
0.0
 30
0.0
  9
$PLIMCHECK
 70
     0
  9
$PEXTMIN
 10
1.0000000000E+20
 20
1.0000000000E+20
 30
1.0000000000E+20
  9
$PEXTMAX
 10
-1.0000000000E+20
 20
-1.0000000000E+20
 30
-1.0000000000E+20
  9
$PLIMMIN
 10
0.0
 20
0.0
  9
$PLIMMAX
 10
420.0
 20
297.0
  9
$UNITMODE
 70
     0
  9
$VISRETAIN
 70
     1
  9
$PLINEGEN
 70
     0
  9
$PSLTSCALE
 70
     1
  9
$TREEDEPTH
 70
  3020
  9
$PICKSTYLE
 70
     1
  9
$CMLSTYLE
  2
STANDARD
  9
$CMLJUST
 70
     0
  9
$CMLSCALE
 40
20.0
  9
$PROXYGRAPHICS
 70
     1
  9
$MEASUREMENT
 70
     1
  0
ENDSEC
  0
SECTION
  2
CLASSES
  0
CLASS
  1
ACDBDICTIONARYWDFLT
  2
AcDbDictionaryWithDefault
  3
ObjectDBX Classes
 90
        0
280
     0
281
     0
  0
CLASS
  1
VISUALSTYLE
  2
AcDbVisualStyle
  3
ObjectDBX Classes
 90
     4095
280
     0
281
     0
  0
CLASS
  1
MATERIAL
  2
AcDbMaterial
  3
ObjectDBX Classes
 90
     1153
280
     0
281
     0
  0
CLASS
  1
SCALE
  2
AcDbScale
  3
ObjectDBX Classes
 90
     1153
280
     0
281
     0
  0
CLASS
  1
TABLESTYLE
  2
AcDbTableStyle
  3
ObjectDBX Classes
 90
     4095
280
     0
281
     0
  0
CLASS
  1
MLEADERSTYLE
  2
AcDbMLeaderStyle
  3
ACDB_MLEADERSTYLE_CLASS
 90
     4095
280
     0
281
     0
  0
CLASS
  1
SUN
  2
AcDbSun
  3
SCENEOE
 90
     1153
280
     0
281
     0
  0
CLASS
  1
XRECORD
  2
AcDbXrecord
  3
ObjectDBX Classes
 90
        0
280
     0
281
     0
  0
CLASS
  1
LWPOLYLINE
  2
AcDbPolyline
  3
ObjectDBX Classes
 90
        0
280
     0
281
     1
  0
CLASS
  1
HATCH
  2
AcDbHatch
  3
ObjectDBX Classes
 90
        0
280
     0
281
     1
  0
ENDSEC
  0
SECTION
  2
TABLES
  0
TABLE
  2
VPORT
  5
8
330
0
100
AcDbSymbolTable
 70
     1
  0
VPORT
  5
29
330
8
100
AcDbSymbolTableRecord
100
AcDbViewportTableRecord
  2
*ACTIVE
 70
     0
 10
0.0
 20
0.0
 11
1.0
 21
1.0
 12
1220.0
 22
610.0
 13
0.0
 23
0.0
 14
10.0
 24
10.0
 15
10.0
 25
10.0
 16
0.0
 26
0.0
 36
1.0
 17
0.0
 27
0.0
 37
0.0
 40
1220.0
 41
2.0
 42
50.0
 43
0.0
 44
0.0
 50
0.0
 51
0.0
 71
     0
 72
  2000
 73
     1
 74
     3
 75
     0
 76
     0
 77
     0
 78
     0
  0
ENDTAB
  0
TABLE
  2
LTYPE
  5
5
330
0
100
AcDbSymbolTable
 70
     6
  0
LTYPE
  5
14
330
5
100
AcDbSymbolTableRecord
100
AcDbLinetypeTableRecord
  2
BYBLOCK
 70
     0
  3

 72
    65
 73
     0
 40
0.0
  0
LTYPE
  5
15
330
5
100
AcDbSymbolTableRecord
100
AcDbLinetypeTableRecord
  2
BYLAYER
 70
     0
  3

 72
    65
 73
     0
 40
0.0
  0
LTYPE
  5
16
330
5
100
AcDbSymbolTableRecord
100
AcDbLinetypeTableRecord
  2
CONTINUOUS
 70
     0
  3
Solid line
 72
    65
 73
     0
 40
0.0
  0
LTYPE
  5
6E
330
5
100
AcDbSymbolTableRecord
100
AcDbLinetypeTableRecord
  2
HIDDEN
 70
     0
  3
Hidden __ __ __ __ __ __ __ __ __ __ __ __ __ __
 72
    65
 73
     2
 40
1.905
 49
1.27
 74
     0
 49
-0.635
 74
     0
  0
LTYPE
  5
6F
330
5
100
AcDbSymbolTableRecord
100
AcDbLinetypeTableRecord
  2
PHANTOM
 70
     0
  3
Phantom ______  __  __  ______  __  __  ______
 72
    65
 73
     6
 40
12.7
 49
6.35
 74
     0
 49
-1.27
 74
     0
 49
1.27
 74
     0
 49
-1.27
 74
     0
 49
1.27
 74
     0
 49
-1.27
 74
     0
  0
LTYPE
  5
70
330
5
100
AcDbSymbolTableRecord
100
AcDbLinetypeTableRecord
  2
CENTER
 70
     0
  3
Center ____ _ ____ _ ____ _ ____ _ ____ _ ____
 72
    65
 73
     4
 40
10.16
 49
6.35
 74
     0
 49
-1.27
 74
     0
 49
1.27
 74
     0
 49
-1.27
 74
     0
  0
LTYPE
  5
71
330
5
100
AcDbSymbolTableRecord
100
AcDbLinetypeTableRecord
  2
CENTERX2
 70
     0
  3
Center (2x) ________  __  ________  __  _____
 72
    65
 73
     4
 40
20.32
 49
12.7
 74
     0
 49
-2.54
 74
     0
 49
2.54
 74
     0
 49
-2.54
 74
     0
  0
LTYPE
  5
72
330
5
100
AcDbSymbolTableRecord
100
AcDbLinetypeTableRecord
  2
DOT2
 70
     0
  3
Dot (.5x) ........................................
 72
    65
 73
     2
 40
0.635
 49
0.0
 74
     0
 49
-0.635
 74
     0
  0
ENDTAB
  0
TABLE
  2
LAYER
  5
2
330
0
100
AcDbSymbolTable
 70
     6
  0
LAYER
  5
10
330
2
100
AcDbSymbolTableRecord
100
AcDbLayerTableRecord
  2
0
 70
     0
 62
     7
  6
CONTINUOUS
  0
LAYER
  5
73
330
2
100
AcDbSymbolTableRecord
100
AcDbLayerTableRecord
  2
BOX_STOCK
 70
     0
 62
     1
  6
CONTINUOUS
  0
LAYER
  5
74
330
2
100
AcDbSymbolTableRecord
100
AcDbLayerTableRecord
  2
HOLES
 70
     0
 62
    30
  6
CONTINUOUS
  0
LAYER
  5
75
330
2
100
AcDbSymbolTableRecord
100
AcDbLayerTableRecord
  2
POCKETS
 70
     0
 62
   171
  6
CONTINUOUS
  0
LAYER
  5
76
330
2
100
AcDbSymbolTableRecord
100
AcDbLayerTableRecord
  2
PROFILES_OUTSIDE
 70
     0
 62
     6
  6
CONTINUOUS
  0
LAYER
  5
77
330
2
100
AcDbSymbolTableRecord
100
AcDbLayerTableRecord
  2
PROFILES_INSIDE
 70
     0
 62
     4
  6
CONTINUOUS
  0
ENDTAB
  0
TABLE
  2
STYLE
  5
3
330
0
100
AcDbSymbolTable
 70
     1
  0
STYLE
  5
11
330
3
100
AcDbSymbolTableRecord
100
AcDbTextStyleTableRecord
  2
STANDARD
 70
     0
 40
0.0
 41
1.0
 50
0.0
 71
     0
 42
3.5
  3
txt
  4

  0
ENDTAB
  0
TABLE
  2
VIEW
  5
6
330
0
100
AcDbSymbolTable
 70
     0
  0
ENDTAB
  0
TABLE
  2
UCS
  5
7
330
0
100
AcDbSymbolTable
 70
     0
  0
ENDTAB
  0
TABLE
  2
APPID
  5
9
330
0
100
AcDbSymbolTable
 70
     1
  0
APPID
  5
12
330
9
100
AcDbSymbolTableRecord
100
AcDbRegAppTableRecord
  2
ACAD
 70
     0
  0
ENDTAB
  0
TABLE
  2
DIMSTYLE
  5
A
330
0
100
AcDbSymbolTable
 70
     1
  0
DIMSTYLE
105
27
330
A
100
AcDbSymbolTableRecord
100
AcDbDimStyleTableRecord
  2
ISO-25
 70
     0
  3

  4

  5

  6

  7

 40
1.0
 41
2.5
 42
0.625
 43
3.75
 44
1.25
 45
0.0
 46
0.0
 47
0.0
 48
0.0
140
2.5
141
2.5
142
0.0
143
0.0393700787
144
1.0
145
0.0
146
1.0
147
0.625
 71
     0
 72
     0
 73
     0
 74
     0
 75
     0
 76
     0
 77
     1
 78
     8
170
     0
171
     3
172
     1
173
     0
174
     0
175
     0
176
     0
177
     0
178
     0
270
     2
271
     2
272
     2
273
     2
274
     3
340
11
275
     0
280
     0
281
     0
282
     0
283
     0
284
     8
285
     0
286
     0
287
     3
288
     0
  0
ENDTAB
  0
TABLE
  2
BLOCK_RECORD
  5
1
330
0
100
AcDbSymbolTable
 70
     1
  0
BLOCK_RECORD
  5
1F
330
1
100
AcDbSymbolTableRecord
100
AcDbBlockTableRecord
  2
*MODEL_SPACE
  0
BLOCK_RECORD
  5
1B
330
1
100
AcDbSymbolTableRecord
100
AcDbBlockTableRecord
  2
*PAPER_SPACE
  0
BLOCK_RECORD
  5
23
330
1
100
AcDbSymbolTableRecord
100
AcDbBlockTableRecord
  2
*PAPER_SPACE0
  0
ENDTAB
  0
ENDSEC
  0
SECTION
  2
BLOCKS
  0
BLOCK
  5
20
330
1F
100
AcDbEntity
  8
0
100
AcDbBlockBegin
  2
*MODEL_SPACE
 70
     0
 10
0.0
 20
0.0
 30
0.0
  3
*MODEL_SPACE
  1

  0
ENDBLK
  5
21
330
1F
100
AcDbEntity
  8
0
100
AcDbBlockEnd
  0
BLOCK
  5
1C
330
1B
100
AcDbEntity
 67
     1
  8
0
100
AcDbBlockBegin
  2
*PAPER_SPACE
 70
     0
 10
0.0
 20
0.0
 30
0.0
  3
*PAPER_SPACE
  1

  0
ENDBLK
  5
1D
330
1B
100
AcDbEntity
 67
     1
  8
0
100
AcDbBlockEnd
  0
BLOCK
  5
24
330
23
100
AcDbEntity
  8
0
100
AcDbBlockBegin
  2
*PAPER_SPACE0
 70
     0
 10
0.0
 20
0.0
 30
0.0
  3
*PAPER_SPACE0
  1

  0
ENDBLK
  5
25
330
23
100
AcDbEntity
  8
0
100
AcDbBlockEnd
  0
ENDSEC
  0
SECTION
  2
ENTITIES
  0
ARC
  5
78
330
1F
100
AcDbEntity
  8
0
  6
CONTINUOUS
 62
     7
100
AcDbCircle
 10
1588.6682800697
 20
49.0732622726
 30
0.0
 40
6.0
100
AcDbArc
 50
90.0
 51
180.0
  0
LINE
  5
79
330
1F
100
AcDbEntity
  8
0
  6
CONTINUOUS
 62
     7
100
AcDbLine
 10
1651.6182637047
 20
55.073262614
 30
0.0
 11
1588.6682486366
 21
55.073262614
 31
0.0
  0
ARC
  5
7A
330
1F
100
AcDbEntity
  8
0
  6
CONTINUOUS
 62
     7
100
AcDbCircle
 10
1651.6182800697
 20
67.0732622726
 30
0.0
 40
12.0
100
AcDbArc
 50
270.0
 51
0.0
  0
LINE
  5
7B
330
1F
100
AcDbEntity
  8
0
  6
CONTINUOUS
 62
     7
100
AcDbLine
 10
1663.6182284187
 20
188.3039339006
 30
0.0
 11
1663.6182284187
 21
67.073264581
 31
0.0
  0
ARC
  5
7C
330
1F
100
AcDbEntity
  8
0
  6
CONTINUOUS
 62
     7
100
AcDbCircle
 10
1682.6682800697
 20
188.3039289393
 30
0.0
 40
19.04999999999995
100
AcDbArc
 50
120.0
 51
180.0
  0
ARC
  5
7D
330
1F
100
AcDbEntity
  8
0
  6
CONTINUOUS
 62
     7
100
AcDbCircle
 10
1663.6182800697
 20
221.2994968235
 30
0.0
 40
19.04999999999997
100
AcDbArc
 50
300.0
 51
0.0
  0
LINE
  5
7E
330
1F
100
AcDbEntity
  8
0
  6
CONTINUOUS
 62
     7
100
AcDbLine
 10
1682.6682305168
 20
301.54103176
 30
0.0
 11
1682.6682305168
 21
221.2995006264
 31
0.0
  0
ARC
  5
7F
330
1F
100
AcDbEntity
  8
0
  6
CONTINUOUS
 62
     7
100
AcDbCircle
 10
1663.6182800697
 20
301.5410277218
 30
0.0
 40
19.05000000000006
100
AcDbArc
 50
0.0
 51
60.0
  0
ARC
  5
80
330
1F
100
AcDbEntity
  8
0
  6
CONTINUOUS
 62
     7
100
AcDbCircle
 10
1682.6682800697
 20
334.536595606
 30
0.0
 40
19.04999999999973
100
AcDbArc
 50
180.0
 51
240.0
  0
LINE
  5
81
330
1F
100
AcDbEntity
  8
0
  6
CONTINUOUS
 62
     7
100
AcDbLine
 10
1663.6182284187
 20
455.767275256
 30
0.0
 11
1663.6182284187
 21
334.5365835846
 31
0.0
  0
ARC
  5
82
330
1F
100
AcDbEntity
  8
0
  6
CONTINUOUS
 62
     7
100
AcDbCircle
 10
1651.6182800697
 20
455.7672622726
 30
0.0
 40
12.0
100
AcDbArc
 50
0.0
 51
90.0
  0
LINE
  5
83
330
1F
100
AcDbEntity
  8
0
  6
CONTINUOUS
 62
     7
100
AcDbLine
 10
1588.6682486366
 20
467.7672697723
 30
0.0
 11
1651.6182637047
 21
467.7672697723
 31
0.0
  0
ARC
  5
84
330
1F
100
AcDbEntity
  8
0
  6
CONTINUOUS
 62
     7
100
AcDbCircle
 10
1588.6682800697
 20
473.7672622726
 30
0.0
 40
6.000000000000227
100
AcDbArc
 50
180.0
 51
270.0
  0
LINE
  5
85
330
1F
100
AcDbEntity
  8
0
  6
CONTINUOUS
 62
     7
100
AcDbLine
 10
1582.6683258842
 20
485.5172647655
 30
0.0
 11
1582.6683258842
 21
473.7672521294
 31
0.0
  0
ARC
  5
86
330
1F
100
AcDbEntity
  8
0
  6
CONTINUOUS
 62
     7
100
AcDbCircle
 10
1583.6682800697
 20
485.5172622726
 30
0.0
 40
1.0
100
AcDbArc
 50
90.0
 51
180.0
  0
LINE
  5
87
330
1F
100
AcDbEntity
  8
0
  6
CONTINUOUS
 62
     7
100
AcDbLine
 10
1583.668253405
 20
486.5172518909
 30
0.0
 11
1594.2282891105
 21
486.5172518909
 31
0.0
  0
LINE
  5
88
330
1F
100
AcDbEntity
  8
0
  6
CONTINUOUS
 62
     7
100
AcDbLine
 10
1594.2282891105
 20
486.5172518909
 30
0.0
 11
1594.5683932136
 21
481.2033785999
 31
0.0
  0
ARC
  5
89
330
1F
100
AcDbEntity
  8
0
  6
CONTINUOUS
 62
     7
100
AcDbCircle
 10
1595.5663259768
 20
481.2672622726
 30
0.0
 40
1.00000000000016
100
AcDbArc
 50
183.6619355755
 51
270.0
  0
LINE
  5
8A
330
1F
100
AcDbEntity
  8
0
  6
CONTINUOUS
 62
     7
100
AcDbLine
 10
1595.5662941765
 20
480.2672578514
 30
0.0
 11
1604.2059874366
 21
480.2672578514
 31
0.0
  0
ARC
  5
8B
330
1F
100
AcDbEntity
  8
0
  6
CONTINUOUS
 62
     7
100
AcDbCircle
 10
1604.2060016863
 20
479.2672622726
 30
0.0
 40
1.0
100
AcDbArc
 50
65.1121079736
 51
90.0
  0
ARC
  5
8C
330
1F
100
AcDbEntity
  8
0
  6
CONTINUOUS
 62
     7
100
AcDbCircle
 10
1606.8026099301
 20
484.8642726914
 30
0.0
 40
5.17000000000008
100
AcDbArc
 50
245.1121079736
 51
72.3995332141
  0
ARC
  5
8D
330
1F
100
AcDbEntity
  8
0
  6
CONTINUOUS
 62
     7
100
AcDbCircle
 10
1608.6682800697
 20
490.7454439124
 30
0.0
 40
1.0
100
AcDbArc
 50
180.0
 51
252.3995332141
  0
LINE
  5
8E
330
1F
100
AcDbEntity
  8
0
  6
CONTINUOUS
 62
     7
100
AcDbLine
 10
1607.6683020424
 20
492.7692724884
 30
0.0
 11
1607.6683020424
 21
490.7454563797
 31
0.0
  0
LINE
  5
8F
330
1F
100
AcDbEntity
  8
0
  6
CONTINUOUS
 62
     7
100
AcDbLine
 10
1670.6682658027
 20
492.7692724884
 30
0.0
 11
1607.6683020424
 21
492.7692724884
 31
0.0
  0
ARC
  5
90
330
1F
100
AcDbEntity
  8
0
  6
CONTINUOUS
 62
     7
100
AcDbCircle
 10
1670.6682800697
 20
480.7692622726
 30
0.0
 40
12.0
100
AcDbArc
 50
0.0
 51
90.0
  0
LINE
  5
91
330
1F
100
AcDbEntity
  8
0
  6
CONTINUOUS
 62
     7
100
AcDbLine
 10
1682.6682305168
 20
346.5366079033
 30
0.0
 11
1682.6682305168
 21
480.7692481697
 31
0.0
  0
ARC
  5
92
330
1F
100
AcDbEntity
  8
0
  6
CONTINUOUS
 62
     7
100
AcDbCircle
 10
1694.6682800697
 20
346.536595606
 30
0.0
 40
11.99999999999994
100
AcDbArc
 50
180.0
 51
270.0
  0
LINE
  5
93
330
1F
100
AcDbEntity
  8
0
  6
CONTINUOUS
 62
     7
100
AcDbLine
 10
1720.6683373283
 20
334.5365835846
 30
0.0
 11
1694.6683144401
 21
334.5365835846
 31
0.0
  0
ARC
  5
94
330
1F
100
AcDbEntity
  8
0
  6
CONTINUOUS
 62
     7
100
AcDbCircle
 10
1720.6682800697
 20
346.536595606
 30
0.0
 40
12.00000000000023
100
AcDbArc
 50
270.0
 51
0.0
  0
LINE
  5
95
330
1F
100
AcDbEntity
  8
0
  6
CONTINUOUS
 62
     7
100
AcDbLine
 10
1732.6683020424
 20
480.7692481697
 30
0.0
 11
1732.6683020424
 21
346.5366079033
 31
0.0
  0
ARC
  5
96
330
1F
100
AcDbEntity
  8
0
  6
CONTINUOUS
 62
     7
100
AcDbCircle
 10
1744.6682800697
 20
480.7692622726
 30
0.0
 40
12.0
100
AcDbArc
 50
90.0
 51
180.0
  0
LINE
  5
97
330
1F
100
AcDbEntity
  8
0
  6
CONTINUOUS
 62
     7
100
AcDbLine
 10
1807.6682305168
 20
492.7692724884
 30
0.0
 11
1744.6682667564
 21
492.7692724884
 31
0.0
  0
LINE
  5
98
330
1F
100
AcDbEntity
  8
0
  6
CONTINUOUS
 62
     7
100
AcDbLine
 10
1807.6682305168
 20
490.7454563797
 30
0.0
 11
1807.6682305168
 21
492.7692724884
 31
0.0
  0
ARC
  5
99
330
1F
100
AcDbEntity
  8
0
  6
CONTINUOUS
 62
     7
100
AcDbCircle
 10
1806.6682800697
 20
490.7454439124
 30
0.0
 40
1.0
100
AcDbArc
 50
287.6004667859
 51
0.0
  0
ARC
  5
9A
330
1F
100
AcDbEntity
  8
0
  6
CONTINUOUS
 62
     7
100
AcDbCircle
 10
1808.5339502093
 20
484.8642726914
 30
0.0
 40
5.17000000000003
100
AcDbArc
 50
107.6004667859
 51
294.8878920264
  0
ARC
  5
9B
330
1F
100
AcDbEntity
  8
0
  6
CONTINUOUS
 62
     7
100
AcDbCircle
 10
1811.1305584531
 20
479.2672622726
 30
0.0
 40
1.0
100
AcDbArc
 50
90.0
 51
114.8878920264
  0
LINE
  5
9C
330
1F
100
AcDbEntity
  8
0
  6
CONTINUOUS
 62
     7
100
AcDbLine
 10
1811.1305451225
 20
480.2672578514
 30
0.0
 11
1819.7702383827
 21
480.2672578514
 31
0.0
  0
ARC
  5
9D
330
1F
100
AcDbEntity
  8
0
  6
CONTINUOUS
 62
     7
100
AcDbCircle
 10
1819.7702341626
 20
481.2672622726
 30
0.0
 40
1.00000000000016
100
AcDbArc
 50
270.0
 51
356.3380644245
  0
LINE
  5
9E
330
1F
100
AcDbEntity
  8
0
  6
CONTINUOUS
 62
     7
100
AcDbLine
 10
1820.7681393455
 20
481.2033785999
 30
0.0
 11
1821.1082434486
 21
486.5172518909
 31
0.0
  0
LINE
  5
9F
330
1F
100
AcDbEntity
  8
0
  6
CONTINUOUS
 62
     7
100
AcDbLine
 10
1821.1082434486
 20
486.5172518909
 30
0.0
 11
1831.6682791542
 21
486.5172518909
 31
0.0
  0
ARC
  5
A0
330
1F
100
AcDbEntity
  8
0
  6
CONTINUOUS
 62
     7
100
AcDbCircle
 10
1831.6682800697
 20
485.5172622726
 30
0.0
 40
1.0
100
AcDbArc
 50
0.0
 51
90.0
  0
LINE
  5
A1
330
1F
100
AcDbEntity
  8
0
  6
CONTINUOUS
 62
     7
100
AcDbLine
 10
1832.6683258842
 20
473.7672521294
 30
0.0
 11
1832.6683258842
 21
485.5172647655
 31
0.0
  0
ARC
  5
A2
330
1F
100
AcDbEntity
  8
0
  6
CONTINUOUS
 62
     7
100
AcDbCircle
 10
1826.6682800697
 20
473.7672622726
 30
0.0
 40
6.0
100
AcDbArc
 50
270.0
 51
0.0
  0
LINE
  5
A3
330
1F
100
AcDbEntity
  8
0
  6
CONTINUOUS
 62
     7
100
AcDbLine
 10
1763.7182688545
 20
467.7672697723
 30
0.0
 11
1826.6682839225
 21
467.7672697723
 31
0.0
  0
ARC
  5
A4
330
1F
100
AcDbEntity
  8
0
  6
CONTINUOUS
 62
     7
100
AcDbCircle
 10
1763.7182800697
 20
455.7672622726
 30
0.0
 40
12.00000000000017
100
AcDbArc
 50
90.0
 51
180.0
  0
LINE
  5
A5
330
1F
100
AcDbEntity
  8
0
  6
CONTINUOUS
 62
     7
100
AcDbLine
 10
1751.7183041404
 20
334.5365835846
 30
0.0
 11
1751.7183041404
 21
455.767275256
 31
0.0
  0
ARC
  5
A6
330
1F
100
AcDbEntity
  8
0
  6
CONTINUOUS
 62
     7
100
AcDbCircle
 10
1732.6682800697
 20
334.536595606
 30
0.0
 40
19.04999999999995
100
AcDbArc
 50
300.0
 51
0.0
  0
ARC
  5
A7
330
1F
100
AcDbEntity
  8
0
  6
CONTINUOUS
 62
     7
100
AcDbCircle
 10
1751.7182800697
 20
301.5410277218
 30
0.0
 40
19.05000000000006
100
AcDbArc
 50
120.0
 51
180.0
  0
LINE
  5
A8
330
1F
100
AcDbEntity
  8
0
  6
CONTINUOUS
 62
     7
100
AcDbLine
 10
1732.6683020424
 20
221.2995006264
 30
0.0
 11
1732.6683020424
 21
301.54103176
 31
0.0
  0
ARC
  5
A9
330
1F
100
AcDbEntity
  8
0
  6
CONTINUOUS
 62
     7
100
AcDbCircle
 10
1751.7182800697
 20
221.2994968235
 30
0.0
 40
19.04999999999997
100
AcDbArc
 50
180.0
 51
240.0
  0
ARC
  5
AA
330
1F
100
AcDbEntity
  8
0
  6
CONTINUOUS
 62
     7
100
AcDbCircle
 10
1732.6682800697
 20
188.3039289393
 30
0.0
 40
19.04999999999995
100
AcDbArc
 50
0.0
 51
60.0
  0
LINE
  5
AB
330
1F
100
AcDbEntity
  8
0
  6
CONTINUOUS
 62
     7
100
AcDbLine
 10
1751.7183041404
 20
67.073264581
 30
0.0
 11
1751.7183041404
 21
188.3039339006
 31
0.0
  0
ARC
  5
AC
330
1F
100
AcDbEntity
  8
0
  6
CONTINUOUS
 62
     7
100
AcDbCircle
 10
1763.7182800697
 20
67.0732622726
 30
0.0
 40
12.00000000000001
100
AcDbArc
 50
180.0
 51
270.0
  0
LINE
  5
AD
330
1F
100
AcDbEntity
  8
0
  6
CONTINUOUS
 62
     7
100
AcDbLine
 10
1826.6682839225
 20
55.073262614
 30
0.0
 11
1763.7182688545
 21
55.073262614
 31
0.0
  0
ARC
  5
AE
330
1F
100
AcDbEntity
  8
0
  6
CONTINUOUS
 62
     7
100
AcDbCircle
 10
1826.6682800697
 20
49.0732622726
 30
0.0
 40
6.0
100
AcDbArc
 50
0.0
 51
90.0
  0
LINE
  5
AF
330
1F
100
AcDbEntity
  8
0
  6
CONTINUOUS
 62
     7
100
AcDbLine
 10
1832.6683258842
 20
37.3232638955
 30
0.0
 11
1832.6683258842
 21
49.0732616306
 31
0.0
  0
ARC
  5
B0
330
1F
100
AcDbEntity
  8
0
  6
CONTINUOUS
 62
     7
100
AcDbCircle
 10
1831.6682800697
 20
37.3232622726
 30
0.0
 40
1.0
100
AcDbArc
 50
270.0
 51
0.0
  0
LINE
  5
B1
330
1F
100
AcDbEntity
  8
0
  6
CONTINUOUS
 62
     7
100
AcDbLine
 10
1831.6682791542
 20
36.323261869
 30
0.0
 11
1821.1082434486
 21
36.323261869
 31
0.0
  0
LINE
  5
B2
330
1F
100
AcDbEntity
  8
0
  6
CONTINUOUS
 62
     7
100
AcDbLine
 10
1821.1082434486
 20
36.323261869
 30
0.0
 11
1820.7681393455
 21
41.6371314347
 31
0.0
  0
ARC
  5
B3
330
1F
100
AcDbEntity
  8
0
  6
CONTINUOUS
 62
     7
100
AcDbCircle
 10
1819.7702341626
 20
41.5732622726
 30
0.0
 40
1.00000000000016
100
AcDbArc
 50
3.6619355755
 51
90.0
  0
LINE
  5
B4
330
1F
100
AcDbEntity
  8
0
  6
CONTINUOUS
 62
     7
100
AcDbLine
 10
1819.7702383827
 20
42.5732633591
 30
0.0
 11
1811.1305451225
 21
42.5732633591
 31
0.0
  0
ARC
  5
B5
330
1F
100
AcDbEntity
  8
0
  6
CONTINUOUS
 62
     7
100
AcDbCircle
 10
1811.1305584531
 20
43.5732622726
 30
0.0
 40
1.0
100
AcDbArc
 50
245.1121079736
 51
270.0
  0
ARC
  5
B6
330
1F
100
AcDbEntity
  8
0
  6
CONTINUOUS
 62
     7
100
AcDbCircle
 10
1808.5339502093
 20
37.9762518538
 30
0.0
 40
5.170000000000043
100
AcDbArc
 50
65.1121079736
 51
252.3995332141
  0
ARC
  5
B7
330
1F
100
AcDbEntity
  8
0
  6
CONTINUOUS
 62
     7
100
AcDbCircle
 10
1806.6682800697
 20
32.0950806329
 30
0.0
 40
0.9999999999999638
100
AcDbArc
 50
0.0
 51
72.3995332141
  0
LINE
  5
B8
330
1F
100
AcDbEntity
  8
0
  6
CONTINUOUS
 62
     7
100
AcDbLine
 10
1807.6682305168
 20
30.0712617606
 30
0.0
 11
1807.6682305168
 21
32.095079732
 31
0.0
  0
LINE
  5
B9
330
1F
100
AcDbEntity
  8
0
  6
CONTINUOUS
 62
     7
100
AcDbLine
 10
1744.6682667564
 20
30.0712617606
 30
0.0
 11
1807.6682305168
 21
30.0712617606
 31
0.0
  0
ARC
  5
BA
330
1F
100
AcDbEntity
  8
0
  6
CONTINUOUS
 62
     7
100
AcDbCircle
 10
1744.6682800697
 20
42.0712622726
 30
0.0
 40
12.00000000000001
100
AcDbArc
 50
180.0
 51
270.0
  0
LINE
  5
BB
330
1F
100
AcDbEntity
  8
0
  6
CONTINUOUS
 62
     7
100
AcDbLine
 10
1732.6683020424
 20
176.3039244831
 30
0.0
 11
1732.6683020424
 21
42.0712618649
 31
0.0
  0
ARC
  5
BC
330
1F
100
AcDbEntity
  8
0
  6
CONTINUOUS
 62
     7
100
AcDbCircle
 10
1720.6682800697
 20
176.3039289393
 30
0.0
 40
12.00000000000023
100
AcDbArc
 50
0.0
 51
90.0
  0
LINE
  5
BD
330
1F
100
AcDbEntity
  8
0
  6
CONTINUOUS
 62
     7
100
AcDbLine
 10
1694.6683144401
 20
188.3039339006
 30
0.0
 11
1720.6683373283
 21
188.3039339006
 31
0.0
  0
ARC
  5
BE
330
1F
100
AcDbEntity
  8
0
  6
CONTINUOUS
 62
     7
100
AcDbCircle
 10
1694.6682800697
 20
176.3039289393
 30
0.0
 40
12.0
100
AcDbArc
 50
90.0
 51
180.0
  0
LINE
  5
BF
330
1F
100
AcDbEntity
  8
0
  6
CONTINUOUS
 62
     7
100
AcDbLine
 10
1682.6682305168
 20
42.0712618649
 30
0.0
 11
1682.6682305168
 21
176.3039244831
 31
0.0
  0
ARC
  5
C0
330
1F
100
AcDbEntity
  8
0
  6
CONTINUOUS
 62
     7
100
AcDbCircle
 10
1670.6682800697
 20
42.0712622726
 30
0.0
 40
12.00000000000001
100
AcDbArc
 50
270.0
 51
0.0
  0
LINE
  5
C1
330
1F
100
AcDbEntity
  8
0
  6
CONTINUOUS
 62
     7
100
AcDbLine
 10
1607.6683020424
 20
30.0712617606
 30
0.0
 11
1670.6682658027
 21
30.0712617606
 31
0.0
  0
LINE
  5
C2
330
1F
100
AcDbEntity
  8
0
  6
CONTINUOUS
 62
     7
100
AcDbLine
 10
1607.6683020424
 20
32.095079732
 30
0.0
 11
1607.6683020424
 21
30.0712617606
 31
0.0
  0
ARC
  5
C3
330
1F
100
AcDbEntity
  8
0
  6
CONTINUOUS
 62
     7
100
AcDbCircle
 10
1608.6682800697
 20
32.0950806329
 30
0.0
 40
1.000000000000227
100
AcDbArc
 50
107.6004667859
 51
180.0
  0
ARC
  5
C4
330
1F
100
AcDbEntity
  8
0
  6
CONTINUOUS
 62
     7
100
AcDbCircle
 10
1606.8026099301
 20
37.9762518538
 30
0.0
 40
5.170000000000043
100
AcDbArc
 50
287.6004667859
 51
114.8878920264
  0
ARC
  5
C5
330
1F
100
AcDbEntity
  8
0
  6
CONTINUOUS
 62
     7
100
AcDbCircle
 10
1604.2060016863
 20
43.5732622726
 30
0.0
 40
0.9999999999999791
100
AcDbArc
 50
270.0
 51
294.8878920264
  0
LINE
  5
C6
330
1F
100
AcDbEntity
  8
0
  6
CONTINUOUS
 62
     7
100
AcDbLine
 10
1604.2059874366
 20
42.5732633591
 30
0.0
 11
1595.5662941765
 21
42.5732633591
 31
0.0
  0
ARC
  5
C7
330
1F
100
AcDbEntity
  8
0
  6
CONTINUOUS
 62
     7
100
AcDbCircle
 10
1595.5663259768
 20
41.5732622726
 30
0.0
 40
1.00000000000016
100
AcDbArc
 50
90.0
 51
176.3380644245
  0
LINE
  5
C8
330
1F
100
AcDbEntity
  8
0
  6
CONTINUOUS
 62
     7
100
AcDbLine
 10
1594.5683932136
 20
41.6371314347
 30
0.0
 11
1594.2282891105
 21
36.323261869
 31
0.0
  0
LINE
  5
C9
330
1F
100
AcDbEntity
  8
0
  6
CONTINUOUS
 62
     7
100
AcDbLine
 10
1594.2282891105
 20
36.323261869
 30
0.0
 11
1583.668253405
 21
36.323261869
 31
0.0
  0
ARC
  5
CA
330
1F
100
AcDbEntity
  8
0
  6
CONTINUOUS
 62
     7
100
AcDbCircle
 10
1583.6682800697
 20
37.3232622726
 30
0.0
 40
1.000000000000114
100
AcDbArc
 50
180.0
 51
270.0
  0
LINE
  5
CB
330
1F
100
AcDbEntity
  8
0
  6
CONTINUOUS
 62
     7
100
AcDbLine
 10
1582.6683258842
 20
49.0732616306
 30
0.0
 11
1582.6683258842
 21
37.3232638955
 31
0.0
  0
ARC
  5
CC
330
1F
100
AcDbEntity
  8
0
  6
CONTINUOUS
 62
     7
100
AcDbCircle
 10
1826.6682800697
 20
967.9412622726
 30
0.0
 40
6.0
100
AcDbArc
 50
270.0
 51
0.0
  0
LINE
  5
CD
330
1F
100
AcDbEntity
  8
0
  6
CONTINUOUS
 62
     7
100
AcDbLine
 10
1763.7182688545
 20
961.9412733734
 30
0.0
 11
1826.6682839225
 21
961.9412733734
 31
0.0
  0
ARC
  5
CE
330
1F
100
AcDbEntity
  8
0
  6
CONTINUOUS
 62
     7
100
AcDbCircle
 10
1763.7182800697
 20
949.9412622726
 30
0.0
 40
12.0
100
AcDbArc
 50
90.0
 51
180.0
  0
LINE
  5
CF
330
1F
100
AcDbEntity
  8
0
  6
CONTINUOUS
 62
     7
100
AcDbLine
 10
1751.7183041404
 20
828.7105871857
 30
0.0
 11
1751.7183041404
 21
949.9412490547
 31
0.0
  0
ARC
  5
D0
330
1F
100
AcDbEntity
  8
0
  6
CONTINUOUS
 62
     7
100
AcDbCircle
 10
1732.6682800697
 20
828.710595606
 30
0.0
 40
19.04999999999995
100
AcDbArc
 50
300.0
 51
0.0
  0
ARC
  5
D1
330
1F
100
AcDbEntity
  8
0
  6
CONTINUOUS
 62
     7
100
AcDbCircle
 10
1751.7182800697
 20
795.7150277218
 30
0.0
 40
19.05000000000001
100
AcDbArc
 50
120.0
 51
180.0
  0
LINE
  5
D2
330
1F
100
AcDbEntity
  8
0
  6
CONTINUOUS
 62
     7
100
AcDbLine
 10
1732.6683020424
 20
715.4735042274
 30
0.0
 11
1732.6683020424
 21
795.7150055588
 31
0.0
  0
ARC
  5
D3
330
1F
100
AcDbEntity
  8
0
  6
CONTINUOUS
 62
     7
100
AcDbCircle
 10
1751.7182800697
 20
715.4734968235
 30
0.0
 40
19.05000000000001
100
AcDbArc
 50
180.0
 51
240.0
  0
ARC
  5
D4
330
1F
100
AcDbEntity
  8
0
  6
CONTINUOUS
 62
     7
100
AcDbCircle
 10
1732.6682800697
 20
682.4779289393
 30
0.0
 40
19.04999999999995
100
AcDbArc
 50
0.0
 51
60.0
  0
LINE
  5
D5
330
1F
100
AcDbEntity
  8
0
  6
CONTINUOUS
 62
     7
100
AcDbLine
 10
1751.7183041404
 20
561.2472607315
 30
0.0
 11
1751.7183041404
 21
682.4779226005
 31
0.0
  0
ARC
  5
D6
330
1F
100
AcDbEntity
  8
0
  6
CONTINUOUS
 62
     7
100
AcDbCircle
 10
1763.7182800697
 20
561.2472622726
 30
0.0
 40
12.0
100
AcDbArc
 50
180.0
 51
270.0
  0
LINE
  5
D7
330
1F
100
AcDbEntity
  8
0
  6
CONTINUOUS
 62
     7
100
AcDbLine
 10
1826.6682839225
 20
549.2472364128
 30
0.0
 11
1763.7182688545
 21
549.2472364128
 31
0.0
  0
ARC
  5
D8
330
1F
100
AcDbEntity
  8
0
  6
CONTINUOUS
 62
     7
100
AcDbCircle
 10
1826.6682800697
 20
543.2472622726
 30
0.0
 40
6.000000000000227
100
AcDbArc
 50
0.0
 51
90.0
  0
LINE
  5
D9
330
1F
100
AcDbEntity
  8
0
  6
CONTINUOUS
 62
     7
100
AcDbLine
 10
1832.6683258842
 20
531.4972712219
 30
0.0
 11
1832.6683258842
 21
543.2472540558
 31
0.0
  0
ARC
  5
DA
330
1F
100
AcDbEntity
  8
0
  6
CONTINUOUS
 62
     7
100
AcDbCircle
 10
1831.6682800697
 20
531.4972622726
 30
0.0
 40
1.000000000000227
100
AcDbArc
 50
270.0
 51
0.0
  0
LINE
  5
DB
330
1F
100
AcDbEntity
  8
0
  6
CONTINUOUS
 62
     7
100
AcDbLine
 10
1831.6682791542
 20
530.4972840965
 30
0.0
 11
1821.1082434486
 21
530.4972840965
 31
0.0
  0
LINE
  5
DC
330
1F
100
AcDbEntity
  8
0
  6
CONTINUOUS
 62
     7
100
AcDbLine
 10
1821.1082434486
 20
530.4972840965
 30
0.0
 11
1820.7681393455
 21
535.8111573875
 31
0.0
  0
ARC
  5
DD
330
1F
100
AcDbEntity
  8
0
  6
CONTINUOUS
 62
     7
100
AcDbCircle
 10
1819.7702341626
 20
535.7472622726
 30
0.0
 40
1.000000000000156
100
AcDbArc
 50
3.6619355755
 51
90.0
  0
LINE
  5
DE
330
1F
100
AcDbEntity
  8
0
  6
CONTINUOUS
 62
     7
100
AcDbLine
 10
1819.7702383827
 20
536.7472483337
 30
0.0
 11
1811.1305451225
 21
536.7472483337
 31
0.0
  0
ARC
  5
DF
330
1F
100
AcDbEntity
  8
0
  6
CONTINUOUS
 62
     7
100
AcDbCircle
 10
1811.1305584531
 20
537.7472622726
 30
0.0
 40
1.0
100
AcDbArc
 50
245.1121079736
 51
270.0
  0
LINE
  5
E0
330
1F
100
AcDbEntity
  8
0
  6
CONTINUOUS
 62
     7
100
AcDbLine
 10
1807.6682305168
 20
524.2452336967
 30
0.0
 11
1807.6682305168
 21
526.2691094101
 31
0.0
  0
LINE
  5
E1
330
1F
100
AcDbEntity
  8
0
  6
CONTINUOUS
 62
     7
100
AcDbLine
 10
1732.6683020424
 20
670.4779578865
 30
0.0
 11
1732.6683020424
 21
536.2452580154
 31
0.0
  0
ARC
  5
E2
330
1F
100
AcDbEntity
  8
0
  6
CONTINUOUS
 62
     7
100
AcDbCircle
 10
1720.6682800697
 20
670.4779289393
 30
0.0
 40
12.0
100
AcDbArc
 50
0.0
 51
90.0
  0
LINE
  5
E3
330
1F
100
AcDbEntity
  8
0
  6
CONTINUOUS
 62
     7
100
AcDbLine
 10
1694.6683144401
 20
682.4779226005
 30
0.0
 11
1720.6683373283
 21
682.4779226005
 31
0.0
  0
ARC
  5
E4
330
1F
100
AcDbEntity
  8
0
  6
CONTINUOUS
 62
     7
100
AcDbCircle
 10
1694.6682800697
 20
670.4779289393
 30
0.0
 40
12.0
100
AcDbArc
 50
90.0
 51
180.0
  0
LINE
  5
E5
330
1F
100
AcDbEntity
  8
0
  6
CONTINUOUS
 62
     7
100
AcDbLine
 10
1682.6682305168
 20
536.2452580154
 30
0.0
 11
1682.6682305168
 21
670.4779578865
 31
0.0
  0
LINE
  5
E6
330
1F
100
AcDbEntity
  8
0
  6
CONTINUOUS
 62
     7
100
AcDbLine
 10
1607.6683020424
 20
526.2691094101
 30
0.0
 11
1607.6683020424
 21
524.2452336967
 31
0.0
  0
ARC
  5
E7
330
1F
100
AcDbEntity
  8
0
  6
CONTINUOUS
 62
     7
100
AcDbCircle
 10
1604.2060016863
 20
537.7472622726
 30
0.0
 40
1.0
100
AcDbArc
 50
270.0
 51
294.8878920264
  0
LINE
  5
E8
330
1F
100
AcDbEntity
  8
0
  6
CONTINUOUS
 62
     7
100
AcDbLine
 10
1604.2059874366
 20
536.7472483337
 30
0.0
 11
1595.5662941765
 21
536.7472483337
 31
0.0
  0
ARC
  5
E9
330
1F
100
AcDbEntity
  8
0
  6
CONTINUOUS
 62
     7
100
AcDbCircle
 10
1595.5663259768
 20
535.7472622726
 30
0.0
 40
1.000000000000156
100
AcDbArc
 50
90.0
 51
176.3380644245
  0
LINE
  5
EA
330
1F
100
AcDbEntity
  8
0
  6
CONTINUOUS
 62
     7
100
AcDbLine
 10
1594.5683932136
 20
535.8111573875
 30
0.0
 11
1594.2282891105
 21
530.4972840965
 31
0.0
  0
LINE
  5
EB
330
1F
100
AcDbEntity
  8
0
  6
CONTINUOUS
 62
     7
100
AcDbLine
 10
1594.2282891105
 20
530.4972840965
 30
0.0
 11
1583.668253405
 21
530.4972840965
 31
0.0
  0
ARC
  5
EC
330
1F
100
AcDbEntity
  8
0
  6
CONTINUOUS
 62
     7
100
AcDbCircle
 10
1583.6682800697
 20
531.4972622726
 30
0.0
 40
1.0
100
AcDbArc
 50
180.0
 51
270.0
  0
LINE
  5
ED
330
1F
100
AcDbEntity
  8
0
  6
CONTINUOUS
 62
     7
100
AcDbLine
 10
1582.6683258842
 20
543.2472540558
 30
0.0
 11
1582.6683258842
 21
531.4972712219
 31
0.0
  0
ARC
  5
EE
330
1F
100
AcDbEntity
  8
0
  6
CONTINUOUS
 62
     7
100
AcDbCircle
 10
1588.6682800697
 20
543.2472622726
 30
0.0
 40
6.000000000000114
100
AcDbArc
 50
90.0
 51
180.0
  0
LINE
  5
EF
330
1F
100
AcDbEntity
  8
0
  6
CONTINUOUS
 62
     7
100
AcDbLine
 10
1651.6182637047
 20
549.2472364128
 30
0.0
 11
1588.6682486366
 21
549.2472364128
 31
0.0
  0
ARC
  5
F0
330
1F
100
AcDbEntity
  8
0
  6
CONTINUOUS
 62
     7
100
AcDbCircle
 10
1651.6182800697
 20
561.2472622726
 30
0.0
 40
12.0
100
AcDbArc
 50
270.0
 51
0.0
  0
LINE
  5
F1
330
1F
100
AcDbEntity
  8
0
  6
CONTINUOUS
 62
     7
100
AcDbLine
 10
1663.6182284187
 20
682.4779226005
 30
0.0
 11
1663.6182284187
 21
561.2472607315
 31
0.0
  0
ARC
  5
F2
330
1F
100
AcDbEntity
  8
0
  6
CONTINUOUS
 62
     7
100
AcDbCircle
 10
1682.6682800697
 20
682.4779289393
 30
0.0
 40
19.04999999999995
100
AcDbArc
 50
120.0
 51
180.0
  0
ARC
  5
F3
330
1F
100
AcDbEntity
  8
0
  6
CONTINUOUS
 62
     7
100
AcDbCircle
 10
1663.6182800697
 20
715.4734968235
 30
0.0
 40
19.05000000000001
100
AcDbArc
 50
300.0
 51
0.0
  0
LINE
  5
F4
330
1F
100
AcDbEntity
  8
0
  6
CONTINUOUS
 62
     7
100
AcDbLine
 10
1682.6682305168
 20
795.7150055588
 30
0.0
 11
1682.6682305168
 21
715.4735042274
 31
0.0
  0
ARC
  5
F5
330
1F
100
AcDbEntity
  8
0
  6
CONTINUOUS
 62
     7
100
AcDbCircle
 10
1663.6182800697
 20
795.7150277218
 30
0.0
 40
19.05000000000011
100
AcDbArc
 50
0.0
 51
60.0
  0
ARC
  5
F6
330
1F
100
AcDbEntity
  8
0
  6
CONTINUOUS
 62
     7
100
AcDbCircle
 10
1682.6682800697
 20
828.710595606
 30
0.0
 40
19.04999999999995
100
AcDbArc
 50
180.0
 51
240.0
  0
LINE
  5
F7
330
1F
100
AcDbEntity
  8
0
  6
CONTINUOUS
 62
     7
100
AcDbLine
 10
1663.6182284187
 20
949.9412490547
 30
0.0
 11
1663.6182284187
 21
828.7105871857
 31
0.0
  0
ARC
  5
F8
330
1F
100
AcDbEntity
  8
0
  6
CONTINUOUS
 62
     7
100
AcDbCircle
 10
1651.6182800697
 20
949.9412622726
 30
0.0
 40
12.00000000000011
100
AcDbArc
 50
0.0
 51
90.0
  0
LINE
  5
F9
330
1F
100
AcDbEntity
  8
0
  6
CONTINUOUS
 62
     7
100
AcDbLine
 10
1588.6682486366
 20
961.9412733734
 30
0.0
 11
1651.6182637047
 21
961.9412733734
 31
0.0
  0
ARC
  5
FA
330
1F
100
AcDbEntity
  8
0
  6
CONTINUOUS
 62
     7
100
AcDbCircle
 10
1588.6682800697
 20
967.9412622726
 30
0.0
 40
6.0
100
AcDbArc
 50
180.0
 51
270.0
  0
LINE
  5
FB
330
1F
100
AcDbEntity
  8
0
  6
CONTINUOUS
 62
     7
100
AcDbLine
 10
1582.6683258842
 20
979.6912385643
 30
0.0
 11
1582.6683258842
 21
967.9412557304
 31
0.0
  0
ARC
  5
FC
330
1F
100
AcDbEntity
  8
0
  6
CONTINUOUS
 62
     7
100
AcDbCircle
 10
1583.6682800697
 20
979.6912622726
 30
0.0
 40
1.0
100
AcDbArc
 50
90.0
 51
180.0
  0
LINE
  5
FD
330
1F
100
AcDbEntity
  8
0
  6
CONTINUOUS
 62
     7
100
AcDbLine
 10
1583.668253405
 20
980.6912852943
 30
0.0
 11
1594.2282891105
 21
980.6912852943
 31
0.0
  0
LINE
  5
FE
330
1F
100
AcDbEntity
  8
0
  6
CONTINUOUS
 62
     7
100
AcDbLine
 10
1594.2282891105
 20
980.6912852943
 30
0.0
 11
1594.5683932136
 21
975.3774120033
 31
0.0
  0
ARC
  5
FF
330
1F
100
AcDbEntity
  8
0
  6
CONTINUOUS
 62
     7
100
AcDbCircle
 10
1595.5663259768
 20
975.4412622726
 30
0.0
 40
1.000000000000163
100
AcDbArc
 50
183.6619355755
 51
270.0
  0
LINE
  5
100
330
1F
100
AcDbEntity
  8
0
  6
CONTINUOUS
 62
     7
100
AcDbLine
 10
1595.5662941765
 20
974.4412614525
 30
0.0
 11
1604.2059874366
 21
974.4412614525
 31
0.0
  0
ARC
  5
101
330
1F
100
AcDbEntity
  8
0
  6
CONTINUOUS
 62
     7
100
AcDbCircle
 10
1604.2060016863
 20
973.4412622726
 30
0.0
 40
1.000000000000037
100
AcDbArc
 50
65.1121079736
 51
90.0
  0
ARC
  5
102
330
1F
100
AcDbEntity
  8
0
  6
CONTINUOUS
 62
     7
100
AcDbCircle
 10
1606.8026099301
 20
979.0382726914
 30
0.0
 40
5.170000000000028
100
AcDbArc
 50
245.1121079736
 51
72.3995332141
  0
ARC
  5
103
330
1F
100
AcDbEntity
  8
0
  6
CONTINUOUS
 62
     7
100
AcDbCircle
 10
1608.6682800697
 20
984.9194439124
 30
0.0
 40
1.0
100
AcDbArc
 50
180.0
 51
252.3995332141
  0
LINE
  5
104
330
1F
100
AcDbEntity
  8
0
  6
CONTINUOUS
 62
     7
100
AcDbLine
 10
1607.6683020424
 20
986.9432760895
 30
0.0
 11
1607.6683020424
 21
984.9194599808
 31
0.0
  0
LINE
  5
105
330
1F
100
AcDbEntity
  8
0
  6
CONTINUOUS
 62
     7
100
AcDbLine
 10
1670.6682658027
 20
986.9432760895
 30
0.0
 11
1607.6683020424
 21
986.9432760895
 31
0.0
  0
ARC
  5
106
330
1F
100
AcDbEntity
  8
0
  6
CONTINUOUS
 62
     7
100
AcDbCircle
 10
1670.6682800697
 20
974.9432622726
 30
0.0
 40
12.0
100
AcDbArc
 50
0.0
 51
90.0
  0
LINE
  5
107
330
1F
100
AcDbEntity
  8
0
  6
CONTINUOUS
 62
     7
100
AcDbLine
 10
1682.6682305168
 20
840.7106115044
 30
0.0
 11
1682.6682305168
 21
974.9432517708
 31
0.0
  0
ARC
  5
108
330
1F
100
AcDbEntity
  8
0
  6
CONTINUOUS
 62
     7
100
AcDbCircle
 10
1694.6682800697
 20
840.710595606
 30
0.0
 40
12.0
100
AcDbArc
 50
180.0
 51
270.0
  0
LINE
  5
109
330
1F
100
AcDbEntity
  8
0
  6
CONTINUOUS
 62
     7
100
AcDbLine
 10
1720.6683373283
 20
828.7105871857
 30
0.0
 11
1694.6683144401
 21
828.7105871857
 31
0.0
  0
ARC
  5
10A
330
1F
100
AcDbEntity
  8
0
  6
CONTINUOUS
 62
     7
100
AcDbCircle
 10
1720.6682800697
 20
840.710595606
 30
0.0
 40
12.0
100
AcDbArc
 50
270.0
 51
0.0
  0
LINE
  5
10B
330
1F
100
AcDbEntity
  8
0
  6
CONTINUOUS
 62
     7
100
AcDbLine
 10
1732.6683020424
 20
974.9432517708
 30
0.0
 11
1732.6683020424
 21
840.7106115044
 31
0.0
  0
ARC
  5
10C
330
1F
100
AcDbEntity
  8
0
  6
CONTINUOUS
 62
     7
100
AcDbCircle
 10
1744.6682800697
 20
974.9432622726
 30
0.0
 40
12.0
100
AcDbArc
 50
90.0
 51
180.0
  0
LINE
  5
10D
330
1F
100
AcDbEntity
  8
0
  6
CONTINUOUS
 62
     7
100
AcDbLine
 10
1807.6682305168
 20
986.9432760895
 30
0.0
 11
1744.6682667564
 21
986.9432760895
 31
0.0
  0
LINE
  5
10E
330
1F
100
AcDbEntity
  8
0
  6
CONTINUOUS
 62
     7
100
AcDbLine
 10
1807.6682305168
 20
984.9194599808
 30
0.0
 11
1807.6682305168
 21
986.9432760895
 31
0.0
  0
ARC
  5
10F
330
1F
100
AcDbEntity
  8
0
  6
CONTINUOUS
 62
     7
100
AcDbCircle
 10
1806.6682800697
 20
984.9194439124
 30
0.0
 40
1.0
100
AcDbArc
 50
287.6004667859
 51
0.0
  0
ARC
  5
110
330
1F
100
AcDbEntity
  8
0
  6
CONTINUOUS
 62
     7
100
AcDbCircle
 10
1808.5339502093
 20
979.0382726914
 30
0.0
 40
5.170000000000131
100
AcDbArc
 50
107.6004667859
 51
294.8878920264
  0
ARC
  5
111
330
1F
100
AcDbEntity
  8
0
  6
CONTINUOUS
 62
     7
100
AcDbCircle
 10
1811.1305584531
 20
973.4412622726
 30
0.0
 40
0.999999999999934
100
AcDbArc
 50
90.0
 51
114.8878920264
  0
LINE
  5
112
330
1F
100
AcDbEntity
  8
0
  6
CONTINUOUS
 62
     7
100
AcDbLine
 10
1811.1305451225
 20
974.4412614525
 30
0.0
 11
1819.7702383827
 21
974.4412614525
 31
0.0
  0
ARC
  5
113
330
1F
100
AcDbEntity
  8
0
  6
CONTINUOUS
 62
     7
100
AcDbCircle
 10
1819.7702341626
 20
975.4412622726
 30
0.0
 40
1.000000000000163
100
AcDbArc
 50
270.0
 51
356.3380644245
  0
LINE
  5
114
330
1F
100
AcDbEntity
  8
0
  6
CONTINUOUS
 62
     7
100
AcDbLine
 10
1820.7681393455
 20
975.3774120033
 30
0.0
 11
1821.1082434486
 21
980.6912852943
 31
0.0
  0
LINE
  5
115
330
1F
100
AcDbEntity
  8
0
  6
CONTINUOUS
 62
     7
100
AcDbLine
 10
1821.1082434486
 20
980.6912852943
 30
0.0
 11
1831.6682791542
 21
980.6912852943
 31
0.0
  0
ARC
  5
116
330
1F
100
AcDbEntity
  8
0
  6
CONTINUOUS
 62
     7
100
AcDbCircle
 10
1831.6682800697
 20
979.6912622726
 30
0.0
 40
1.0
100
AcDbArc
 50
0.0
 51
90.0
  0
LINE
  5
117
330
1F
100
AcDbEntity
  8
0
  6
CONTINUOUS
 62
     7
100
AcDbLine
 10
1832.6683258842
 20
967.9412557304
 30
0.0
 11
1832.6683258842
 21
979.6912385643
 31
0.0
  0
ARC
  5
118
330
1F
100
AcDbEntity
  8
0
  6
CONTINUOUS
 62
     7
100
AcDbCircle
 10
1670.6682800697
 20
536.2452622726
 30
0.0
 40
12.00000000000011
100
AcDbArc
 50
270.0
 51
0.0
  0
ARC
  5
119
330
1F
100
AcDbEntity
  8
0
  6
CONTINUOUS
 62
     7
100
AcDbCircle
 10
1806.6682800697
 20
526.2690806329
 30
0.0
 40
0.9999999999999909
100
AcDbArc
 50
0.0
 51
72.3995332141
  0
ARC
  5
11A
330
1F
100
AcDbEntity
  8
0
  6
CONTINUOUS
 62
     7
100
AcDbCircle
 10
1608.6682800697
 20
526.2690806329
 30
0.0
 40
1.000000000000227
100
AcDbArc
 50
107.6004667859
 51
180.0
  0
LINE
  5
11B
330
1F
100
AcDbEntity
  8
0
  6
CONTINUOUS
 62
     7
100
AcDbLine
 10
1607.6683020424
 20
524.2452336967
 30
0.0
 11
1670.6682658027
 21
524.2452336967
 31
0.0
  0
ARC
  5
11C
330
1F
100
AcDbEntity
  8
0
  6
CONTINUOUS
 62
     7
100
AcDbCircle
 10
1606.8026099301
 20
532.1502518538
 30
0.0
 40
5.170000000000138
100
AcDbArc
 50
287.6004667859
 51
114.8878920264
  0
ARC
  5
11D
330
1F
100
AcDbEntity
  8
0
  6
CONTINUOUS
 62
     7
100
AcDbCircle
 10
1808.5339502093
 20
532.1502518538
 30
0.0
 40
5.17000000000007
100
AcDbArc
 50
65.1121079736
 51
252.3995332141
  0
ARC
  5
11E
330
1F
100
AcDbEntity
  8
0
  6
CONTINUOUS
 62
     7
100
AcDbCircle
 10
1744.6682800697
 20
536.2452622726
 30
0.0
 40
12.00000000000023
100
AcDbArc
 50
180.0
 51
270.0
  0
LINE
  5
11F
330
1F
100
AcDbEntity
  8
0
  6
CONTINUOUS
 62
     7
100
AcDbLine
 10
1744.6682667564
 20
524.2452336967
 30
0.0
 11
1807.6682305168
 21
524.2452336967
 31
0.0
  0
LINE
  5
120
330
1F
100
AcDbEntity
  8
0
  6
CONTINUOUS
 62
     7
100
AcDbLine
 10
1338.4882426094
 20
564.2512752235
 30
0.0
 11
1551.1882519554
 21
564.2512752235
 31
0.0
  0
LINE
  5
121
330
1F
100
AcDbEntity
  8
0
  6
CONTINUOUS
 62
     7
100
AcDbLine
 10
1338.4882426094
 20
604.2512370766
 30
0.0
 11
1338.4882426094
 21
564.2512752235
 31
0.0
  0
LINE
  5
122
330
1F
100
AcDbEntity
  8
0
  6
CONTINUOUS
 62
     7
100
AcDbLine
 10
1338.4882426094
 20
604.2512370766
 30
0.0
 11
1551.1882519554
 21
604.2512370766
 31
0.0
  0
LINE
  5
123
330
1F
100
AcDbEntity
  8
0
  6
CONTINUOUS
 62
     7
100
AcDbLine
 10
1551.1882519554
 20
564.2512752235
 30
0.0
 11
1551.1882519554
 21
604.2512370766
 31
0.0
  0
LINE
  5
124
330
1F
100
AcDbEntity
  8
0
  6
CONTINUOUS
 62
     7
100
AcDbLine
 10
1551.1882519554
 20
1066.9513060272
 30
0.0
 11
1338.4882426094
 21
1066.9513060272
 31
0.0
  0
LINE
  5
125
330
1F
100
AcDbEntity
  8
0
  6
CONTINUOUS
 62
     7
100
AcDbLine
 10
1551.1882519554
 20
617.1212507904
 30
0.0
 11
1338.4882426094
 21
617.1212507904
 31
0.0
  0
LINE
  5
126
330
1F
100
AcDbEntity
  8
0
  6
CONTINUOUS
 62
     7
100
AcDbLine
 10
1338.4882426094
 20
1066.9513060272
 30
0.0
 11
1338.4882426094
 21
617.1212507904
 31
0.0
  0
LINE
  5
127
330
1F
100
AcDbEntity
  8
0
  6
CONTINUOUS
 62
     7
100
AcDbLine
 10
1551.1882519554
 20
617.1212507904
 30
0.0
 11
1551.1882519554
 21
1066.9513060272
 31
0.0
  0
LINE
  5
128
330
1F
100
AcDbEntity
  8
0
  6
CONTINUOUS
 62
     7
100
AcDbLine
 10
1338.4882426094
 20
604.2512370766
 30
0.0
 11
1338.4882426094
 21
617.1212507904
 31
0.0
  0
LINE
  5
129
330
1F
100
AcDbEntity
  8
0
  6
CONTINUOUS
 62
     7
100
AcDbLine
 10
1551.1882519554
 20
617.1212507904
 30
0.0
 11
1551.1882519554
 21
604.2512370766
 31
0.0
  0
LINE
  5
12A
330
1F
100
AcDbEntity
  8
0
  6
CONTINUOUS
 62
     7
100
AcDbLine
 10
1338.4882426094
 20
70.0712590039
 30
0.0
 11
1338.4882426094
 21
30.0712617606
 31
0.0
  0
LINE
  5
12B
330
1F
100
AcDbEntity
  8
0
  6
CONTINUOUS
 62
     7
100
AcDbLine
 10
1551.1882519554
 20
70.0712590039
 30
0.0
 11
1338.4882426094
 21
70.0712590039
 31
0.0
  0
LINE
  5
12C
330
1F
100
AcDbEntity
  8
0
  6
CONTINUOUS
 62
     7
100
AcDbLine
 10
1551.1882519554
 20
30.0712617606
 30
0.0
 11
1551.1882519554
 21
70.0712590039
 31
0.0
  0
LINE
  5
12D
330
1F
100
AcDbEntity
  8
0
  6
CONTINUOUS
 62
     7
100
AcDbLine
 10
1338.4882426094
 20
30.0712617606
 30
0.0
 11
1551.1882519554
 21
30.0712617606
 31
0.0
  0
LINE
  5
12E
330
1F
100
AcDbEntity
  8
0
  6
CONTINUOUS
 62
     7
100
AcDbLine
 10
1551.1882519554
 20
532.7712608993
 30
0.0
 11
1338.4882426094
 21
532.7712608993
 31
0.0
  0
LINE
  5
12F
330
1F
100
AcDbEntity
  8
0
  6
CONTINUOUS
 62
     7
100
AcDbLine
 10
1338.4882426094
 20
82.9412652672
 30
0.0
 11
1551.1882519554
 21
82.9412652672
 31
0.0
  0
LINE
  5
130
330
1F
100
AcDbEntity
  8
0
  6
CONTINUOUS
 62
     7
100
AcDbLine
 10
1338.4882426094
 20
532.7712608993
 30
0.0
 11
1338.4882426094
 21
82.9412652672
 31
0.0
  0
LINE
  5
131
330
1F
100
AcDbEntity
  8
0
  6
CONTINUOUS
 62
     7
100
AcDbLine
 10
1551.1882519554
 20
82.9412652672
 30
0.0
 11
1551.1882519554
 21
532.7712608993
 31
0.0
  0
LINE
  5
132
330
1F
100
AcDbEntity
  8
0
  6
CONTINUOUS
 62
     7
100
AcDbLine
 10
1338.4882426094
 20
70.0712590039
 30
0.0
 11
1338.4882426094
 21
82.9412652672
 31
0.0
  0
LINE
  5
133
330
1F
100
AcDbEntity
  8
0
  6
CONTINUOUS
 62
     7
100
AcDbLine
 10
1551.1882519554
 20
82.9412652672
 30
0.0
 11
1551.1882519554
 21
70.0712590039
 31
0.0
  0
LINE
  5
134
330
1F
100
AcDbEntity
  8
0
  6
CONTINUOUS
 62
     7
100
AcDbLine
 10
1094.3082785438
 20
30.0712617606
 30
0.0
 11
1307.0082878898
 21
30.0712617606
 31
0.0
  0
LINE
  5
135
330
1F
100
AcDbEntity
  8
0
  6
CONTINUOUS
 62
     7
100
AcDbLine
 10
1307.0082878898
 20
1062.7712322891
 30
0.0
 11
1094.3082785438
 21
1062.7712322891
 31
0.0
  0
LINE
  5
136
330
1F
100
AcDbEntity
  8
0
  6
CONTINUOUS
 62
     7
100
AcDbLine
 10
1307.0082878898
 20
30.0712617606
 30
0.0
 11
1307.0082878898
 21
1062.7712322891
 31
0.0
  0
LINE
  5
137
330
1F
100
AcDbEntity
  8
0
  6
CONTINUOUS
 62
     7
100
AcDbLine
 10
1094.3082785438
 20
1062.7712322891
 30
0.0
 11
1094.3082785438
 21
30.0712617606
 31
0.0
  0
ARC
  5
138
330
1F
100
AcDbEntity
  8
0
  6
CONTINUOUS
 62
     7
100
AcDbCircle
 10
1030.5582703229
 20
1103.8669359809
 30
0.0
 40
5.169999999999962
100
AcDbArc
 50
356.0551815279
 51
24.887906855
  0
ARC
  5
139
330
1F
100
AcDbEntity
  8
0
  6
CONTINUOUS
 62
     7
100
AcDbCircle
 10
1036.1552800697
 20
1106.4635456733
 30
0.0
 40
1.0
100
AcDbArc
 50
180.0
 51
204.887906855
  0
LINE
  5
13A
330
1F
100
AcDbEntity
  8
0
  6
CONTINUOUS
 62
     7
100
AcDbLine
 10
1035.1553177665
 20
1112.5790192306
 30
0.0
 11
1035.1553177665
 21
1106.4635826767
 31
0.0
  0
ARC
  5
13B
330
1F
100
AcDbEntity
  8
0
  6
CONTINUOUS
 62
     7
100
AcDbCircle
 10
1036.1553255427
 20
1112.578978872
 30
0.0
 40
1.000045473016598
100
AcDbArc
 50
155.1122159835
 51
180.0
  0
ARC
  5
13C
330
1F
100
AcDbEntity
  8
0
  6
CONTINUOUS
 62
     7
100
AcDbCircle
 10
1030.5582689789
 20
1115.1755957017
 30
0.0
 40
5.170000000000005
100
AcDbArc
 50
335.1122159835
 51
162.3995463312
  0
ARC
  5
13D
330
1F
100
AcDbEntity
  8
0
  6
CONTINUOUS
 62
     7
100
AcDbCircle
 10
1024.6770973308
 20
1117.0412644949
 30
0.0
 40
1.000000000000149
100
AcDbArc
 50
270.0000629761
 51
342.3995463312
  0
LINE
  5
13E
330
1F
100
AcDbEntity
  8
0
  6
CONTINUOUS
 62
     7
100
AcDbLine
 10
1020.633480532
 20
1116.0412146271
 30
0.0
 11
1024.6770596336
 21
1116.0412146271
 31
0.0
  0
ARC
  5
13F
330
1F
100
AcDbEntity
  8
0
  6
CONTINUOUS
 62
     7
100
AcDbCircle
 10
1020.6334606103
 20
1117.0412600504
 30
0.0
 40
1.00000122683915
100
AcDbArc
 50
197.6004799029
 51
270.0000629761
  0
ARC
  5
140
330
1F
100
AcDbEntity
  8
0
  6
CONTINUOUS
 62
     7
100
AcDbCircle
 10
1014.7522898165
 20
1115.1755885644
 30
0.0
 40
5.169998773160715
100
AcDbArc
 50
17.6004799029
 51
204.8878223268
  0
ARC
  5
141
330
1F
100
AcDbEntity
  8
0
  6
CONTINUOUS
 62
     7
100
AcDbCircle
 10
1009.1552800697
 20
1112.5789889065
 30
0.0
 40
0.9999982307496111
100
AcDbArc
 50
0.0
 51
24.8878223268
  0
LINE
  5
142
330
1F
100
AcDbEntity
  8
0
  6
CONTINUOUS
 62
     7
100
AcDbLine
 10
1010.1552223991
 20
1106.4635826767
 30
0.0
 11
1010.1552223991
 21
1112.5790192306
 31
0.0
  0
ARC
  5
143
330
1F
100
AcDbEntity
  8
0
  6
CONTINUOUS
 62
     7
100
AcDbCircle
 10
1009.1552800697
 20
1106.4635356388
 30
0.0
 40
0.9999999999998863
100
AcDbArc
 50
335.1121228022
 51
0.0
  0
ARC
  5
144
330
1F
100
AcDbEntity
  8
0
  6
CONTINUOUS
 62
     7
100
AcDbCircle
 10
1014.7522911605
 20
1103.8669288436
 30
0.0
 40
5.170000000000044
100
AcDbArc
 50
155.1121228022
 51
183.9447391857
  0
LINE
  5
145
330
1F
100
AcDbEntity
  8
0
  6
CONTINUOUS
 62
     7
100
AcDbLine
 10
1009.5945811104
 20
1103.5112454117
 30
0.0
 11
623.1666421722
 21
1103.5112454117
 31
0.0
  0
ARC
  5
146
330
1F
100
AcDbEntity
  8
0
  6
CONTINUOUS
 62
     7
100
AcDbCircle
 10
618.0088703229
 20
1103.8669359809
 30
0.0
 40
5.170000000000059
100
AcDbArc
 50
356.0551815279
 51
24.887906855
  0
ARC
  5
147
330
1F
100
AcDbEntity
  8
0
  6
CONTINUOUS
 62
     7
100
AcDbCircle
 10
623.6058800697
 20
1106.4635456733
 30
0.0
 40
1.0
100
AcDbArc
 50
180.0
 51
204.887906855
  0
LINE
  5
148
330
1F
100
AcDbEntity
  8
0
  6
CONTINUOUS
 62
     7
100
AcDbLine
 10
622.6058816742
 20
1112.5790192306
 30
0.0
 11
622.6058816742
 21
1106.4635826767
 31
0.0
  0
ARC
  5
149
330
1F
100
AcDbEntity
  8
0
  6
CONTINUOUS
 62
     7
100
AcDbCircle
 10
623.6059255427
 20
1112.578978872
 30
0.0
 40
1.00004547301685
100
AcDbArc
 50
155.1122159835
 51
180.0
  0
ARC
  5
14A
330
1F
100
AcDbEntity
  8
0
  6
CONTINUOUS
 62
     7
100
AcDbCircle
 10
618.0088689789
 20
1115.1755957017
 30
0.0
 40
5.170000000000005
100
AcDbArc
 50
335.1122159835
 51
162.3995463312
  0
ARC
  5
14B
330
1F
100
AcDbEntity
  8
0
  6
CONTINUOUS
 62
     7
100
AcDbCircle
 10
612.1276973308
 20
1117.0412644949
 30
0.0
 40
1.000000000000149
100
AcDbArc
 50
270.0000629761
 51
342.3995463312
  0
LINE
  5
14C
330
1F
100
AcDbEntity
  8
0
  6
CONTINUOUS
 62
     7
100
AcDbLine
 10
608.0840444397
 20
1116.0412146271
 30
0.0
 11
612.1276831459
 21
1116.0412146271
 31
0.0
  0
ARC
  5
14D
330
1F
100
AcDbEntity
  8
0
  6
CONTINUOUS
 62
     7
100
AcDbCircle
 10
608.0840606103
 20
1117.0412600504
 30
0.0
 40
1.000001226839258
100
AcDbArc
 50
197.6004799029
 51
270.0000629761
  0
ARC
  5
14E
330
1F
100
AcDbEntity
  8
0
  6
CONTINUOUS
 62
     7
100
AcDbCircle
 10
602.2028898165
 20
1115.1755885644
 30
0.0
 40
5.169998773160715
100
AcDbArc
 50
17.6004799029
 51
204.8878223268
  0
ARC
  5
14F
330
1F
100
AcDbEntity
  8
0
  6
CONTINUOUS
 62
     7
100
AcDbCircle
 10
596.6058800697
 20
1112.5789889064
 30
0.0
 40
0.9999982307497248
100
AcDbArc
 50
0.0
 51
24.8878223268
  0
LINE
  5
150
330
1F
100
AcDbEntity
  8
0
  6
CONTINUOUS
 62
     7
100
AcDbLine
 10
597.605905516
 20
1106.4635826767
 30
0.0
 11
597.605905516
 21
1112.5790192306
 31
0.0
  0
ARC
  5
151
330
1F
100
AcDbEntity
  8
0
  6
CONTINUOUS
 62
     7
100
AcDbCircle
 10
596.6058800697
 20
1106.4635356388
 30
0.0
 40
1.0
100
AcDbArc
 50
335.1121228022
 51
0.0
  0
ARC
  5
152
330
1F
100
AcDbEntity
  8
0
  6
CONTINUOUS
 62
     7
100
AcDbCircle
 10
602.2028911605
 20
1103.8669288436
 30
0.0
 40
5.170000000000181
100
AcDbArc
 50
155.1121228022
 51
183.9447391857
  0
LINE
  5
153
330
1F
100
AcDbEntity
  8
0
  6
CONTINUOUS
 62
     7
100
AcDbLine
 10
597.045145018
 20
1103.5112454117
 30
0.0
 11
560.1282930206
 21
1103.5112454117
 31
0.0
  0
LINE
  5
154
330
1F
100
AcDbEntity
  8
0
  6
CONTINUOUS
 62
     7
100
AcDbLine
 10
560.1282930206
 20
1124.8712851227
 30
0.0
 11
560.1282930206
 21
1103.5112454117
 31
0.0
  0
ARC
  5
155
330
1F
100
AcDbEntity
  8
0
  6
CONTINUOUS
 62
     7
100
AcDbCircle
 10
566.1282800697
 20
1124.8712622726
 30
0.0
 40
6.0
100
AcDbArc
 50
90.0
 51
180.0
  0
LINE
  5
156
330
1F
100
AcDbEntity
  8
0
  6
CONTINUOUS
 62
     7
100
AcDbLine
 10
1056.8282818626
 20
1130.871207875
 30
0.0
 11
566.1282753776
 21
1130.871207875
 31
0.0
  0
ARC
  5
157
330
1F
100
AcDbEntity
  8
0
  6
CONTINUOUS
 62
     7
100
AcDbCircle
 10
1056.8282800697
 20
1124.8712622726
 30
0.0
 40
6.0
100
AcDbArc
 50
0.0
 51
90.0
  0
LINE
  5
158
330
1F
100
AcDbEntity
  8
0
  6
CONTINUOUS
 62
     7
100
AcDbLine
 10
1062.8283238243
 20
1103.5112454117
 30
0.0
 11
1062.8283238243
 21
1124.8712851227
 31
0.0
  0
LINE
  5
159
330
1F
100
AcDbEntity
  8
0
  6
CONTINUOUS
 62
     7
100
AcDbLine
 10
1062.8283238243
 20
1103.5112454117
 30
0.0
 11
1035.7160782646
 21
1103.5112454117
 31
0.0
  0
ARC
  5
15A
330
1F
100
AcDbEntity
  8
0
  6
CONTINUOUS
 62
     7
100
AcDbCircle
 10
602.2028898165
 20
57.0755885644
 30
0.0
 40
5.169998773160657
100
AcDbArc
 50
176.0551805904
 51
204.8878223268
  0
ARC
  5
15B
330
1F
100
AcDbEntity
  8
0
  6
CONTINUOUS
 62
     7
100
AcDbCircle
 10
596.6058800697
 20
54.4789889064
 30
0.0
 40
0.9999982307498385
100
AcDbArc
 50
0.0
 51
24.8878223268
  0
LINE
  5
15C
330
1F
100
AcDbEntity
  8
0
  6
CONTINUOUS
 62
     7
100
AcDbLine
 10
597.605905516
 20
48.3635342241
 30
0.0
 11
597.605905516
 21
54.4789894045
 31
0.0
  0
ARC
  5
15D
330
1F
100
AcDbEntity
  8
0
  6
CONTINUOUS
 62
     7
100
AcDbCircle
 10
596.6058800697
 20
48.3635356388
 30
0.0
 40
1.000000000000114
100
AcDbArc
 50
335.1121228022
 51
0.0
  0
ARC
  5
15E
330
1F
100
AcDbEntity
  8
0
  6
CONTINUOUS
 62
     7
100
AcDbCircle
 10
602.2028911605
 20
45.7669288436
 30
0.0
 40
5.170000000000154
100
AcDbArc
 50
155.1121228022
 51
342.3995463312
  0
ARC
  5
15F
330
1F
100
AcDbEntity
  8
0
  6
CONTINUOUS
 62
     7
100
AcDbCircle
 10
608.0840628086
 20
43.9012600504
 30
0.0
 40
1.000000000000054
100
AcDbArc
 50
90.0000629761
 51
162.3995463312
  0
LINE
  5
160
330
1F
100
AcDbEntity
  8
0
  6
CONTINUOUS
 62
     7
100
AcDbLine
 10
612.1276831459
 20
44.9012643218
 30
0.0
 11
608.0840444397
 21
44.9012605965
 31
0.0
  0
ARC
  5
161
330
1F
100
AcDbEntity
  8
0
  6
CONTINUOUS
 62
     7
100
AcDbCircle
 10
612.1276995291
 20
43.9012644949
 30
0.0
 40
1.000000000000054
100
AcDbArc
 50
17.6004799029
 51
90.0000629761
  0
ARC
  5
162
330
1F
100
AcDbEntity
  8
0
  6
CONTINUOUS
 62
     7
100
AcDbCircle
 10
618.0088703229
 20
45.7669359809
 30
0.0
 40
5.170000000000075
100
AcDbArc
 50
197.6004799029
 51
24.887906855
  0
ARC
  5
163
330
1F
100
AcDbEntity
  8
0
  6
CONTINUOUS
 62
     7
100
AcDbCircle
 10
623.6058800697
 20
48.3635456732
 30
0.0
 40
1.000000000000114
100
AcDbArc
 50
180.0
 51
204.887906855
  0
LINE
  5
164
330
1F
100
AcDbEntity
  8
0
  6
CONTINUOUS
 62
     7
100
AcDbLine
 10
622.6058816742
 20
54.4789782286
 30
0.0
 11
622.6058816742
 21
48.3635453999
 31
0.0
  0
ARC
  5
165
330
1F
100
AcDbEntity
  8
0
  6
CONTINUOUS
 62
     7
100
AcDbCircle
 10
623.6059255427
 20
54.478978872
 30
0.0
 40
1.000045473016826
100
AcDbArc
 50
155.1122159835
 51
180.0
  0
ARC
  5
166
330
1F
100
AcDbEntity
  8
0
  6
CONTINUOUS
 62
     7
100
AcDbCircle
 10
618.0088689789
 20
57.0755957017
 30
0.0
 40
5.170000000000022
100
AcDbArc
 50
335.1122159835
 51
3.9447391857
  0
LINE
  5
167
330
1F
100
AcDbEntity
  8
0
  6
CONTINUOUS
 62
     7
100
AcDbLine
 10
623.1666421722
 20
57.4312633396
 30
0.0
 11
1009.5945811104
 21
57.4312633396
 31
0.0
  0
ARC
  5
168
330
1F
100
AcDbEntity
  8
0
  6
CONTINUOUS
 62
     7
100
AcDbCircle
 10
1014.7522898165
 20
57.0755885644
 30
0.0
 40
5.169998773160786
100
AcDbArc
 50
176.0551805904
 51
204.8878223268
  0
ARC
  5
169
330
1F
100
AcDbEntity
  8
0
  6
CONTINUOUS
 62
     7
100
AcDbCircle
 10
1009.1552800697
 20
54.4789889064
 30
0.0
 40
0.9999982307498385
100
AcDbArc
 50
0.0
 51
24.8878223268
  0
LINE
  5
16A
330
1F
100
AcDbEntity
  8
0
  6
CONTINUOUS
 62
     7
100
AcDbLine
 10
1010.1552223991
 20
48.3635342241
 30
0.0
 11
1010.1552223991
 21
54.4789894045
 31
0.0
  0
ARC
  5
16B
330
1F
100
AcDbEntity
  8
0
  6
CONTINUOUS
 62
     7
100
AcDbCircle
 10
1009.1552800697
 20
48.3635356388
 30
0.0
 40
1.000000000000114
100
AcDbArc
 50
335.1121228022
 51
0.0
  0
ARC
  5
16C
330
1F
100
AcDbEntity
  8
0
  6
CONTINUOUS
 62
     7
100
AcDbCircle
 10
1014.7522911605
 20
45.7669288436
 30
0.0
 40
5.170000000000083
100
AcDbArc
 50
155.1121228022
 51
342.3995463312
  0
ARC
  5
16D
330
1F
100
AcDbEntity
  8
0
  6
CONTINUOUS
 62
     7
100
AcDbCircle
 10
1020.6334628086
 20
43.9012600504
 30
0.0
 40
1.00000000000005
100
AcDbArc
 50
90.0000629761
 51
162.3995463312
  0
LINE
  5
16E
330
1F
100
AcDbEntity
  8
0
  6
CONTINUOUS
 62
     7
100
AcDbLine
 10
1024.6770596336
 20
44.9012643218
 30
0.0
 11
1020.633480532
 21
44.9012605965
 31
0.0
  0
ARC
  5
16F
330
1F
100
AcDbEntity
  8
0
  6
CONTINUOUS
 62
     7
100
AcDbCircle
 10
1024.6770995291
 20
43.9012644949
 30
0.0
 40
0.9999999999999433
100
AcDbArc
 50
17.6004799029
 51
90.0000629761
  0
ARC
  5
170
330
1F
100
AcDbEntity
  8
0
  6
CONTINUOUS
 62
     7
100
AcDbCircle
 10
1030.5582703229
 20
45.7669359809
 30
0.0
 40
5.170000000000181
100
AcDbArc
 50
197.6004799029
 51
24.887906855
  0
ARC
  5
171
330
1F
100
AcDbEntity
  8
0
  6
CONTINUOUS
 62
     7
100
AcDbCircle
 10
1036.1552800697
 20
48.3635456732
 30
0.0
 40
1.0
100
AcDbArc
 50
180.0
 51
204.887906855
  0
LINE
  5
172
330
1F
100
AcDbEntity
  8
0
  6
CONTINUOUS
 62
     7
100
AcDbLine
 10
1035.1553177665
 20
54.4789782286
 30
0.0
 11
1035.1553177665
 21
48.3635453999
 31
0.0
  0
ARC
  5
173
330
1F
100
AcDbEntity
  8
0
  6
CONTINUOUS
 62
     7
100
AcDbCircle
 10
1036.1553255427
 20
54.478978872
 30
0.0
 40
1.000045473016598
100
AcDbArc
 50
155.1122159835
 51
180.0
  0
ARC
  5
174
330
1F
100
AcDbEntity
  8
0
  6
CONTINUOUS
 62
     7
100
AcDbCircle
 10
1030.5582689789
 20
57.0755957017
 30
0.0
 40
5.170000000000107
100
AcDbArc
 50
335.1122159835
 51
3.9447391857
  0
LINE
  5
175
330
1F
100
AcDbEntity
  8
0
  6
CONTINUOUS
 62
     7
100
AcDbLine
 10
1035.7160782646
 20
57.4312633396
 30
0.0
 11
1062.8283238243
 21
57.4312633396
 31
0.0
  0
LINE
  5
176
330
1F
100
AcDbEntity
  8
0
  6
CONTINUOUS
 62
     7
100
AcDbLine
 10
1062.8283238243
 20
36.0712608815
 30
0.0
 11
1062.8283238243
 21
57.4312633396
 31
0.0
  0
ARC
  5
177
330
1F
100
AcDbEntity
  8
0
  6
CONTINUOUS
 62
     7
100
AcDbCircle
 10
1056.8282800697
 20
36.0712622726
 30
0.0
 40
6.000000000000004
100
AcDbArc
 50
270.0
 51
0.0
  0
LINE
  5
178
330
1F
100
AcDbEntity
  8
0
  6
CONTINUOUS
 62
     7
100
AcDbLine
 10
566.1282753776
 20
30.0712617606
 30
0.0
 11
1056.8282818626
 21
30.0712617606
 31
0.0
  0
ARC
  5
179
330
1F
100
AcDbEntity
  8
0
  6
CONTINUOUS
 62
     7
100
AcDbCircle
 10
566.1282800697
 20
36.0712622726
 30
0.0
 40
6.000000000000117
100
AcDbArc
 50
180.0
 51
270.0
  0
LINE
  5
17A
330
1F
100
AcDbEntity
  8
0
  6
CONTINUOUS
 62
     7
100
AcDbLine
 10
560.1282930206
 20
57.4312633396
 30
0.0
 11
560.1282930206
 21
36.0712608815
 31
0.0
  0
LINE
  5
17B
330
1F
100
AcDbEntity
  8
0
  6
CONTINUOUS
 62
     7
100
AcDbLine
 10
560.1282930206
 20
57.4312633396
 30
0.0
 11
597.045145018
 21
57.4312633396
 31
0.0
  0
ARC
  5
17C
330
1F
100
AcDbEntity
  8
0
  6
CONTINUOUS
 62
     7
100
AcDbCircle
 10
1056.8282800697
 20
1055.9058600597
 30
0.0
 40
6.0
100
AcDbArc
 50
280.0
 51
0.0
  0
LINE
  5
17D
330
1F
100
AcDbEntity
  8
0
  6
CONTINUOUS
 62
     7
100
AcDbLine
 10
1057.8701710533
 20
1049.9970032394
 30
0.0
 11
1047.7863764595
 21
1048.2189966858
 31
0.0
  0
ARC
  5
17E
330
1F
100
AcDbEntity
  8
0
  6
CONTINUOUS
 62
     7
100
AcDbCircle
 10
1048.8282800697
 20
1042.3101248714
 30
0.0
 40
6.0
100
AcDbArc
 50
100.0
 51
180.0
  0
LINE
  5
17F
330
1F
100
AcDbEntity
  8
0
  6
CONTINUOUS
 62
     7
100
AcDbLine
 10
1042.8282236885
 20
1042.3101498306
 30
0.0
 11
1042.8282236885
 21
118.6323998988
 31
0.0
  0
ARC
  5
180
330
1F
100
AcDbEntity
  8
0
  6
CONTINUOUS
 62
     7
100
AcDbCircle
 10
1048.8282800697
 20
118.6323996739
 30
0.0
 40
6.000000000000026
100
AcDbArc
 50
180.0
 51
260.0
  0
LINE
  5
181
330
1F
100
AcDbEntity
  8
0
  6
CONTINUOUS
 62
     7
100
AcDbLine
 10
1047.7863764595
 20
112.7235530436
 30
0.0
 11
1057.8701710533
 21
110.9455092371
 31
0.0
  0
ARC
  5
182
330
1F
100
AcDbEntity
  8
0
  6
CONTINUOUS
 62
     7
100
AcDbCircle
 10
1056.8282800697
 20
105.0366644856
 30
0.0
 40
6.0
100
AcDbArc
 50
0.0
 51
80.0
  0
LINE
  5
183
330
1F
100
AcDbEntity
  8
0
  6
CONTINUOUS
 62
     7
100
AcDbLine
 10
1062.8283238243
 20
70.81126557
 30
0.0
 11
1062.8283238243
 21
105.0366623819
 31
0.0
  0
LINE
  5
184
330
1F
100
AcDbEntity
  8
0
  6
CONTINUOUS
 62
     7
100
AcDbLine
 10
1062.8283238243
 20
70.81126557
 30
0.0
 11
1022.828242762
 21
70.81126557
 31
0.0
  0
LINE
  5
185
330
1F
100
AcDbEntity
  8
0
  6
CONTINUOUS
 62
     7
100
AcDbLine
 10
1022.828242762
 20
70.81126557
 30
0.0
 11
1022.828242762
 21
1090.1313139618
 31
0.0
  0
LINE
  5
186
330
1F
100
AcDbEntity
  8
0
  6
CONTINUOUS
 62
     7
100
AcDbLine
 10
1022.828242762
 20
1090.1313139618
 30
0.0
 11
1062.8283238243
 21
1090.1313139618
 31
0.0
  0
LINE
  5
187
330
1F
100
AcDbEntity
  8
0
  6
CONTINUOUS
 62
     7
100
AcDbLine
 10
1062.8283238243
 20
1055.9058500946
 30
0.0
 11
1062.8283238243
 21
1090.1313139618
 31
0.0
  0
LINE
  5
188
330
1F
100
AcDbEntity
  8
0
  6
CONTINUOUS
 62
     7
100
AcDbLine
 10
560.1282930206
 20
1090.1313139618
 30
0.0
 11
560.1282930206
 21
70.81126557
 31
0.0
  0
LINE
  5
189
330
1F
100
AcDbEntity
  8
0
  6
CONTINUOUS
 62
     7
100
AcDbLine
 10
560.1282930206
 20
1090.1313139618
 30
0.0
 11
1009.7882962059
 21
1090.1313139618
 31
0.0
  0
LINE
  5
18A
330
1F
100
AcDbEntity
  8
0
  6
CONTINUOUS
 62
     7
100
AcDbLine
 10
1009.7882962059
 20
70.81126557
 30
0.0
 11
560.1282930206
 21
70.81126557
 31
0.0
  0
LINE
  5
18B
330
1F
100
AcDbEntity
  8
0
  6
CONTINUOUS
 62
     7
100
AcDbLine
 10
1009.7882962059
 20
1090.1313139618
 30
0.0
 11
1009.7882962059
 21
70.81126557
 31
0.0
  0
ARC
  5
18C
330
1F
100
AcDbEntity
  8
0
  6
CONTINUOUS
 62
     7
100
AcDbCircle
 10
1024.6770973308
 20
58.9412644949
 30
0.0
 40
1.000000000000271
100
AcDbArc
 50
270.0000629761
 51
342.3995463312
  0
LINE
  5
18D
330
1F
100
AcDbEntity
  8
0
  6
CONTINUOUS
 62
     7
100
AcDbLine
 10
1024.6770596336
 20
57.941263032
 30
0.0
 11
1020.633480532
 21
57.9412593067
 31
0.0
  0
ARC
  5
18E
330
1F
100
AcDbEntity
  8
0
  6
CONTINUOUS
 62
     7
100
AcDbCircle
 10
1020.6334606103
 20
58.9412600504
 30
0.0
 40
1.000000000000054
100
AcDbArc
 50
197.6004799029
 51
270.0000629761
  0
ARC
  5
18F
330
1F
100
AcDbEntity
  8
0
  6
CONTINUOUS
 62
     7
100
AcDbCircle
 10
612.1276973308
 20
58.9412644949
 30
0.0
 40
1.00000000000005
100
AcDbArc
 50
270.0000629761
 51
342.3995463312
  0
LINE
  5
190
330
1F
100
AcDbEntity
  8
0
  6
CONTINUOUS
 62
     7
100
AcDbLine
 10
612.1276831459
 20
57.941263032
 30
0.0
 11
608.0840444397
 21
57.9412593067
 31
0.0
  0
ARC
  5
191
330
1F
100
AcDbEntity
  8
0
  6
CONTINUOUS
 62
     7
100
AcDbCircle
 10
608.0840606103
 20
58.9412600504
 30
0.0
 40
0.9999999999999433
100
AcDbArc
 50
197.6004799029
 51
270.0000629761
  0
ARC
  5
192
330
1F
100
AcDbEntity
  8
0
  6
CONTINUOUS
 62
     7
100
AcDbCircle
 10
608.0840628086
 20
1102.0012600504
 30
0.0
 40
0.999999999999922
100
AcDbArc
 50
90.0000629761
 51
162.3995463312
  0
LINE
  5
193
330
1F
100
AcDbEntity
  8
0
  6
CONTINUOUS
 62
     7
100
AcDbLine
 10
608.0840444397
 20
1103.001268071
 30
0.0
 11
612.1276831459
 21
1103.001268071
 31
0.0
  0
ARC
  5
194
330
1F
100
AcDbEntity
  8
0
  6
CONTINUOUS
 62
     7
100
AcDbCircle
 10
612.1276995291
 20
1102.0012644949
 30
0.0
 40
0.9999999999998359
100
AcDbArc
 50
17.6004799029
 51
90.0000629761
  0
ARC
  5
195
330
1F
100
AcDbEntity
  8
0
  6
CONTINUOUS
 62
     7
100
AcDbCircle
 10
1020.6334628086
 20
1102.0012600504
 30
0.0
 40
0.9999999999999525
100
AcDbArc
 50
90.0000629761
 51
162.3995463312
  0
LINE
  5
196
330
1F
100
AcDbEntity
  8
0
  6
CONTINUOUS
 62
     7
100
AcDbLine
 10
1020.633480532
 20
1103.001268071
 30
0.0
 11
1024.6770596336
 21
1103.001268071
 31
0.0
  0
ARC
  5
197
330
1F
100
AcDbEntity
  8
0
  6
CONTINUOUS
 62
     7
100
AcDbCircle
 10
1024.6770995291
 20
1102.0012644949
 30
0.0
 40
0.9999999999998359
100
AcDbArc
 50
17.6004799029
 51
90.0000629761
  0
LINE
  5
198
330
1F
100
AcDbEntity
  8
0
  6
CONTINUOUS
 62
     7
100
AcDbLine
 10
560.1282930206
 20
1090.1313139618
 30
0.0
 11
560.1282930206
 21
1103.5112454117
 31
0.0
  0
LINE
  5
199
330
1F
100
AcDbEntity
  8
0
  6
CONTINUOUS
 62
     7
100
AcDbLine
 10
560.1282930206
 20
57.4312633396
 30
0.0
 11
560.1282930206
 21
70.81126557
 31
0.0
  0
ARC
  5
19A
330
1F
100
AcDbEntity
  8
0
  6
CONTINUOUS
 62
     7
100
AcDbCircle
 10
1014.7522898165
 20
57.0755885644
 30
0.0
 40
5.169999999999856
100
AcDbArc
 50
17.6004799029
 51
176.0551805904
  0
ARC
  5
19B
330
1F
100
AcDbEntity
  8
0
  6
CONTINUOUS
 62
     7
100
AcDbCircle
 10
1030.5582689789
 20
57.0755957017
 30
0.0
 40
5.169999999999916
100
AcDbArc
 50
3.9447391857
 51
162.3995463312
  0
ARC
  5
19C
330
1F
100
AcDbEntity
  8
0
  6
CONTINUOUS
 62
     7
100
AcDbCircle
 10
1014.7522911605
 20
1103.8669288436
 30
0.0
 40
5.170000000000079
100
AcDbArc
 50
183.9447391857
 51
342.3995463312
  0
ARC
  5
19D
330
1F
100
AcDbEntity
  8
0
  6
CONTINUOUS
 62
     7
100
AcDbCircle
 10
1030.5582703229
 20
1103.8669359809
 30
0.0
 40
5.170000000000245
100
AcDbArc
 50
197.6004799029
 51
356.0551815279
  0
LINE
  5
19E
330
1F
100
AcDbEntity
  8
0
  6
CONTINUOUS
 62
     7
100
AcDbLine
 10
1062.8283238243
 20
70.81126557
 30
0.0
 11
1062.8283238243
 21
57.4312633396
 31
0.0
  0
LINE
  5
19F
330
1F
100
AcDbEntity
  8
0
  6
CONTINUOUS
 62
     7
100
AcDbLine
 10
1062.8283238243
 20
1103.5112454117
 30
0.0
 11
1062.8283238243
 21
1090.1313139618
 31
0.0
  0
ARC
  5
1A0
330
1F
100
AcDbEntity
  8
0
  6
CONTINUOUS
 62
     7
100
AcDbCircle
 10
618.0088689789
 20
57.0755957017
 30
0.0
 40
5.170000000000041
100
AcDbArc
 50
3.9447391857
 51
162.3995463312
  0
ARC
  5
1A1
330
1F
100
AcDbEntity
  8
0
  6
CONTINUOUS
 62
     7
100
AcDbCircle
 10
618.0088703229
 20
1103.8669359809
 30
0.0
 40
5.170000000000137
100
AcDbArc
 50
197.6004799029
 51
356.0551815279
  0
ARC
  5
1A2
330
1F
100
AcDbEntity
  8
0
  6
CONTINUOUS
 62
     7
100
AcDbCircle
 10
602.2028898165
 20
57.0755885644
 30
0.0
 40
5.170000000000075
100
AcDbArc
 50
17.6004799029
 51
176.0551805904
  0
ARC
  5
1A3
330
1F
100
AcDbEntity
  8
0
  6
CONTINUOUS
 62
     7
100
AcDbCircle
 10
602.2028911605
 20
1103.8669288436
 30
0.0
 40
5.170000000000079
100
AcDbArc
 50
183.9447391857
 51
342.3995463312
  0
LINE
  5
1A4
330
1F
100
AcDbEntity
  8
0
  6
CONTINUOUS
 62
     7
100
AcDbLine
 10
513.6063909362
 20
1048.2189966858
 30
0.0
 11
523.6901855301
 21
1049.9970032394
 31
0.0
  0
ARC
  5
1A5
330
1F
100
AcDbEntity
  8
0
  6
CONTINUOUS
 62
     7
100
AcDbCircle
 10
514.6482800697
 20
1042.3101248714
 30
0.0
 40
6.0
100
AcDbArc
 50
100.0
 51
180.0
  0
LINE
  5
1A6
330
1F
100
AcDbEntity
  8
0
  6
CONTINUOUS
 62
     7
100
AcDbLine
 10
508.6482977699
 20
118.6323998988
 30
0.0
 11
508.6482977699
 21
1042.3101498306
 31
0.0
  0
ARC
  5
1A7
330
1F
100
AcDbEntity
  8
0
  6
CONTINUOUS
 62
     7
100
AcDbCircle
 10
514.6482800697
 20
118.6323996739
 30
0.0
 40
6.0
100
AcDbArc
 50
180.0
 51
260.0
  0
LINE
  5
1A8
330
1F
100
AcDbEntity
  8
0
  6
CONTINUOUS
 62
     7
100
AcDbLine
 10
523.6901855301
 20
110.9455092371
 30
0.0
 11
513.6063909362
 21
112.7235530436
 31
0.0
  0
ARC
  5
1A9
330
1F
100
AcDbEntity
  8
0
  6
CONTINUOUS
 62
     7
100
AcDbCircle
 10
522.6482800697
 20
105.0366644856
 30
0.0
 40
6.0
100
AcDbArc
 50
0.0
 51
80.0
  0
LINE
  5
1AA
330
1F
100
AcDbEntity
  8
0
  6
CONTINUOUS
 62
     7
100
AcDbLine
 10
528.6482786964
 20
105.0366623819
 30
0.0
 11
528.6482786964
 21
70.81126557
 31
0.0
  0
LINE
  5
1AB
330
1F
100
AcDbEntity
  8
0
  6
CONTINUOUS
 62
     7
100
AcDbLine
 10
488.6482870411
 20
70.81126557
 30
0.0
 11
528.6482786964
 21
70.81126557
 31
0.0
  0
LINE
  5
1AC
330
1F
100
AcDbEntity
  8
0
  6
CONTINUOUS
 62
     7
100
AcDbLine
 10
488.6482870411
 20
1090.1313139618
 30
0.0
 11
488.6482870411
 21
70.81126557
 31
0.0
  0
LINE
  5
1AD
330
1F
100
AcDbEntity
  8
0
  6
CONTINUOUS
 62
     7
100
AcDbLine
 10
528.6482786964
 20
1090.1313139618
 30
0.0
 11
488.6482870411
 21
1090.1313139618
 31
0.0
  0
ARC
  5
1AE
330
1F
100
AcDbEntity
  8
0
  6
CONTINUOUS
 62
     7
100
AcDbCircle
 10
522.6482800697
 20
1055.9058600597
 30
0.0
 40
6.0
100
AcDbArc
 50
280.0
 51
0.0
  0
LINE
  5
1AF
330
1F
100
AcDbEntity
  8
0
  6
CONTINUOUS
 62
     7
100
AcDbLine
 10
528.6482786964
 20
1090.1313139618
 30
0.0
 11
528.6482786964
 21
1055.9058500946
 31
0.0
  0
ARC
  5
1B0
330
1F
100
AcDbEntity
  8
0
  6
CONTINUOUS
 62
     7
100
AcDbCircle
 10
31.9482800697
 20
36.0712622726
 30
0.0
 40
6.000000000000227
100
AcDbArc
 50
180.0
 51
270.0
  0
LINE
  5
1B1
330
1F
100
AcDbEntity
  8
0
  6
CONTINUOUS
 62
     7
100
AcDbLine
 10
25.9482795577
 20
36.0712608815
 30
0.0
 11
25.9482795577
 21
57.4312633396
 31
0.0
  0
LINE
  5
1B2
330
1F
100
AcDbEntity
  8
0
  6
CONTINUOUS
 62
     7
100
AcDbLine
 10
62.7205362748
 20
57.4312633396
 30
0.0
 11
25.9482795577
 21
57.4312633396
 31
0.0
  0
ARC
  5
1B3
330
1F
100
AcDbEntity
  8
0
  6
CONTINUOUS
 62
     7
100
AcDbCircle
 10
67.8782898165
 20
57.0755885644
 30
0.0
 40
5.169998773160681
100
AcDbArc
 50
176.0551805903
 51
204.8878223268
  0
ARC
  5
1B4
330
1F
100
AcDbEntity
  8
0
  6
CONTINUOUS
 62
     7
100
AcDbCircle
 10
62.2812800697
 20
54.4789889064
 30
0.0
 40
0.9999982307498101
100
AcDbArc
 50
0.0
 51
24.8878223268
  0
LINE
  5
1B5
330
1F
100
AcDbEntity
  8
0
  6
CONTINUOUS
 62
     7
100
AcDbLine
 10
63.2812818717
 20
48.3635342241
 30
0.0
 11
63.2812818717
 21
54.4789894045
 31
0.0
  0
ARC
  5
1B6
330
1F
100
AcDbEntity
  8
0
  6
CONTINUOUS
 62
     7
100
AcDbCircle
 10
62.2812800697
 20
48.3635356388
 30
0.0
 40
1.000000000000125
100
AcDbArc
 50
335.1121228022
 51
0.0
  0
ARC
  5
1B7
330
1F
100
AcDbEntity
  8
0
  6
CONTINUOUS
 62
     7
100
AcDbCircle
 10
67.8782911605
 20
45.7669288436
 30
0.0
 40
5.170000000000041
100
AcDbArc
 50
155.1121228022
 51
342.3995463312
  0
ARC
  5
1B8
330
1F
100
AcDbEntity
  8
0
  6
CONTINUOUS
 62
     7
100
AcDbCircle
 10
73.7594628086
 20
43.9012600504
 30
0.0
 40
0.9999999999999483
100
AcDbArc
 50
90.0000629761
 51
162.3995463312
  0
LINE
  5
1B9
330
1F
100
AcDbEntity
  8
0
  6
CONTINUOUS
 62
     7
100
AcDbLine
 10
77.8030967544
 20
44.9012643218
 30
0.0
 11
73.7594580482
 21
44.9012605965
 31
0.0
  0
ARC
  5
1BA
330
1F
100
AcDbEntity
  8
0
  6
CONTINUOUS
 62
     7
100
AcDbCircle
 10
77.8030995291
 20
43.9012644949
 30
0.0
 40
1.00000000000005
100
AcDbArc
 50
17.6004799029
 51
90.0000629761
  0
ARC
  5
1BB
330
1F
100
AcDbEntity
  8
0
  6
CONTINUOUS
 62
     7
100
AcDbCircle
 10
83.6842703229
 20
45.7669359809
 30
0.0
 40
5.170000000000026
100
AcDbArc
 50
197.6004799029
 51
24.887906855
  0
ARC
  5
1BC
330
1F
100
AcDbEntity
  8
0
  6
CONTINUOUS
 62
     7
100
AcDbCircle
 10
89.2812800697
 20
48.3635456732
 30
0.0
 40
1.000000000000114
100
AcDbArc
 50
180.0
 51
204.887906855
  0
LINE
  5
1BD
330
1F
100
AcDbEntity
  8
0
  6
CONTINUOUS
 62
     7
100
AcDbLine
 10
88.2812803816
 20
54.4789782286
 30
0.0
 11
88.2812803816
 21
48.3635453999
 31
0.0
  0
ARC
  5
1BE
330
1F
100
AcDbEntity
  8
0
  6
CONTINUOUS
 62
     7
100
AcDbCircle
 10
89.2813255427
 20
54.478978872
 30
0.0
 40
1.000045473016842
100
AcDbArc
 50
155.1122159835
 51
180.0
  0
ARC
  5
1BF
330
1F
100
AcDbEntity
  8
0
  6
CONTINUOUS
 62
     7
100
AcDbCircle
 10
83.6842689789
 20
57.0755957017
 30
0.0
 40
5.170000000000029
100
AcDbArc
 50
335.1122159835
 51
3.9447391857
  0
LINE
  5
1C0
330
1F
100
AcDbEntity
  8
0
  6
CONTINUOUS
 62
     7
100
AcDbLine
 10
475.4145359825
 20
57.4312633396
 30
0.0
 11
88.8420185279
 21
57.4312633396
 31
0.0
  0
ARC
  5
1C1
330
1F
100
AcDbEntity
  8
0
  6
CONTINUOUS
 62
     7
100
AcDbCircle
 10
480.5722898165
 20
57.0755885644
 30
0.0
 40
5.169998773160642
100
AcDbArc
 50
176.0551805902
 51
204.8878223268
  0
ARC
  5
1C2
330
1F
100
AcDbEntity
  8
0
  6
CONTINUOUS
 62
     7
100
AcDbCircle
 10
474.9752800697
 20
54.4789889064
 30
0.0
 40
0.9999982307497213
100
AcDbArc
 50
0.0
 51
24.8878223268
  0
LINE
  5
1C3
330
1F
100
AcDbEntity
  8
0
  6
CONTINUOUS
 62
     7
100
AcDbLine
 10
475.9752666782
 20
48.3635342241
 30
0.0
 11
475.9752666782
 21
54.4789894045
 31
0.0
  0
ARC
  5
1C4
330
1F
100
AcDbEntity
  8
0
  6
CONTINUOUS
 62
     7
100
AcDbCircle
 10
474.9752800697
 20
48.3635356388
 30
0.0
 40
1.0
100
AcDbArc
 50
335.1121228022
 51
0.0
  0
ARC
  5
1C5
330
1F
100
AcDbEntity
  8
0
  6
CONTINUOUS
 62
     7
100
AcDbCircle
 10
480.5722911605
 20
45.7669288436
 30
0.0
 40
5.17000000000006
100
AcDbArc
 50
155.1121228022
 51
342.3995463312
  0
ARC
  5
1C6
330
1F
100
AcDbEntity
  8
0
  6
CONTINUOUS
 62
     7
100
AcDbCircle
 10
486.4534628086
 20
43.9012600504
 30
0.0
 40
0.9999999999998919
100
AcDbArc
 50
90.0000629761
 51
162.3995463312
  0
LINE
  5
1C7
330
1F
100
AcDbEntity
  8
0
  6
CONTINUOUS
 62
     7
100
AcDbLine
 10
490.4971039127
 20
44.9012643218
 30
0.0
 11
486.4534652065
 21
44.9012605965
 31
0.0
  0
ARC
  5
1C8
330
1F
100
AcDbEntity
  8
0
  6
CONTINUOUS
 62
     7
100
AcDbCircle
 10
490.4970995291
 20
43.9012644949
 30
0.0
 40
0.9999999999999308
100
AcDbArc
 50
17.6004799029
 51
90.0000629761
  0
ARC
  5
1C9
330
1F
100
AcDbEntity
  8
0
  6
CONTINUOUS
 62
     7
100
AcDbCircle
 10
496.3782703229
 20
45.7669359809
 30
0.0
 40
5.170000000000108
100
AcDbArc
 50
197.6004799029
 51
24.887906855
  0
ARC
  5
1CA
330
1F
100
AcDbEntity
  8
0
  6
CONTINUOUS
 62
     7
100
AcDbCircle
 10
501.9752800697
 20
48.3635456732
 30
0.0
 40
1.0
100
AcDbArc
 50
180.0
 51
204.887906855
  0
LINE
  5
1CB
330
1F
100
AcDbEntity
  8
0
  6
CONTINUOUS
 62
     7
100
AcDbLine
 10
500.9752726387
 20
54.4789782286
 30
0.0
 11
500.9752726387
 21
48.3635453999
 31
0.0
  0
ARC
  5
1CC
330
1F
100
AcDbEntity
  8
0
  6
CONTINUOUS
 62
     7
100
AcDbCircle
 10
501.9753255427
 20
54.478978872
 30
0.0
 40
1.000045473016832
100
AcDbArc
 50
155.1122159835
 51
180.0
  0
ARC
  5
1CD
330
1F
100
AcDbEntity
  8
0
  6
CONTINUOUS
 62
     7
100
AcDbCircle
 10
496.3782689789
 20
57.0755957017
 30
0.0
 40
5.170000000000003
100
AcDbArc
 50
335.1122159835
 51
3.9447391858
  0
LINE
  5
1CE
330
1F
100
AcDbEntity
  8
0
  6
CONTINUOUS
 62
     7
100
AcDbLine
 10
528.6482786964
 20
57.4312633396
 30
0.0
 11
501.5360331367
 21
57.4312633396
 31
0.0
  0
LINE
  5
1CF
330
1F
100
AcDbEntity
  8
0
  6
CONTINUOUS
 62
     7
100
AcDbLine
 10
522.6482963394
 20
30.0712617606
 30
0.0
 11
31.9482786785
 21
30.0712617606
 31
0.0
  0
LINE
  5
1D0
330
1F
100
AcDbEntity
  8
0
  6
CONTINUOUS
 62
     7
100
AcDbLine
 10
528.6482786964
 20
57.4312633396
 30
0.0
 11
528.6482786964
 21
36.0712608815
 31
0.0
  0
ARC
  5
1D1
330
1F
100
AcDbEntity
  8
0
  6
CONTINUOUS
 62
     7
100
AcDbCircle
 10
522.6482800697
 20
36.0712622726
 30
0.0
 40
6.000000000000007
100
AcDbArc
 50
270.0
 51
0.0
  0
ARC
  5
1D2
330
1F
100
AcDbEntity
  8
0
  6
CONTINUOUS
 62
     7
100
AcDbCircle
 10
31.9482800697
 20
1124.8712622726
 30
0.0
 40
6.000000000000007
100
AcDbArc
 50
90.0
 51
180.0
  0
ARC
  5
1D3
330
1F
100
AcDbEntity
  8
0
  6
CONTINUOUS
 62
     7
100
AcDbCircle
 10
496.3782703229
 20
1103.8669359809
 30
0.0
 40
5.169999999999964
100
AcDbArc
 50
356.055181528
 51
24.887906855
  0
ARC
  5
1D4
330
1F
100
AcDbEntity
  8
0
  6
CONTINUOUS
 62
     7
100
AcDbCircle
 10
501.9752800697
 20
1106.4635456733
 30
0.0
 40
1.000000000000076
100
AcDbArc
 50
180.0
 51
204.887906855
  0
LINE
  5
1D5
330
1F
100
AcDbEntity
  8
0
  6
CONTINUOUS
 62
     7
100
AcDbLine
 10
500.9752726387
 20
1112.5790192306
 30
0.0
 11
500.9752726387
 21
1106.4635826767
 31
0.0
  0
ARC
  5
1D6
330
1F
100
AcDbEntity
  8
0
  6
CONTINUOUS
 62
     7
100
AcDbCircle
 10
501.9753255427
 20
1112.578978872
 30
0.0
 40
1.000045473016826
100
AcDbArc
 50
155.1122159835
 51
180.0
  0
ARC
  5
1D7
330
1F
100
AcDbEntity
  8
0
  6
CONTINUOUS
 62
     7
100
AcDbCircle
 10
496.3782689789
 20
1115.1755957017
 30
0.0
 40
5.170000000000039
100
AcDbArc
 50
335.1122159835
 51
162.3995463312
  0
ARC
  5
1D8
330
1F
100
AcDbEntity
  8
0
  6
CONTINUOUS
 62
     7
100
AcDbCircle
 10
490.4970973308
 20
1117.0412644949
 30
0.0
 40
0.9999999999999525
100
AcDbArc
 50
270.0000629761
 51
342.3995463312
  0
LINE
  5
1D9
330
1F
100
AcDbEntity
  8
0
  6
CONTINUOUS
 62
     7
100
AcDbLine
 10
486.4534652065
 20
1116.0412146271
 30
0.0
 11
490.4971039127
 21
1116.0412146271
 31
0.0
  0
ARC
  5
1DA
330
1F
100
AcDbEntity
  8
0
  6
CONTINUOUS
 62
     7
100
AcDbCircle
 10
486.4534606103
 20
1117.0412600504
 30
0.0
 40
1.000001226839489
100
AcDbArc
 50
197.6004799029
 51
270.0000629761
  0
ARC
  5
1DB
330
1F
100
AcDbEntity
  8
0
  6
CONTINUOUS
 62
     7
100
AcDbCircle
 10
480.5722898165
 20
1115.1755885644
 30
0.0
 40
5.169998773160729
100
AcDbArc
 50
17.6004799029
 51
204.8878223268
  0
ARC
  5
1DC
330
1F
100
AcDbEntity
  8
0
  6
CONTINUOUS
 62
     7
100
AcDbCircle
 10
474.9752800697
 20
1112.5789889064
 30
0.0
 40
0.9999982307497817
100
AcDbArc
 50
0.0
 51
24.8878223268
  0
LINE
  5
1DD
330
1F
100
AcDbEntity
  8
0
  6
CONTINUOUS
 62
     7
100
AcDbLine
 10
475.9752666782
 20
1106.4635826767
 30
0.0
 11
475.9752666782
 21
1112.5790192306
 31
0.0
  0
ARC
  5
1DE
330
1F
100
AcDbEntity
  8
0
  6
CONTINUOUS
 62
     7
100
AcDbCircle
 10
474.9752800697
 20
1106.4635356388
 30
0.0
 40
1.000000000000114
100
AcDbArc
 50
335.1121228022
 51
0.0
  0
ARC
  5
1DF
330
1F
100
AcDbEntity
  8
0
  6
CONTINUOUS
 62
     7
100
AcDbCircle
 10
480.5722911605
 20
1103.8669288436
 30
0.0
 40
5.169999999999987
100
AcDbArc
 50
155.1121228022
 51
183.9447391857
  0
LINE
  5
1E0
330
1F
100
AcDbEntity
  8
0
  6
CONTINUOUS
 62
     7
100
AcDbLine
 10
88.8420185279
 20
1103.5112454117
 30
0.0
 11
475.4145359825
 21
1103.5112454117
 31
0.0
  0
ARC
  5
1E1
330
1F
100
AcDbEntity
  8
0
  6
CONTINUOUS
 62
     7
100
AcDbCircle
 10
83.6842703229
 20
1103.8669359809
 30
0.0
 40
5.170000000000109
100
AcDbArc
 50
356.055181528
 51
24.887906855
  0
ARC
  5
1E2
330
1F
100
AcDbEntity
  8
0
  6
CONTINUOUS
 62
     7
100
AcDbCircle
 10
89.2812800697
 20
1106.4635456733
 30
0.0
 40
1.000000000000114
100
AcDbArc
 50
180.0
 51
204.887906855
  0
LINE
  5
1E3
330
1F
100
AcDbEntity
  8
0
  6
CONTINUOUS
 62
     7
100
AcDbLine
 10
88.2812803816
 20
1112.5790192306
 30
0.0
 11
88.2812803816
 21
1106.4635826767
 31
0.0
  0
ARC
  5
1E4
330
1F
100
AcDbEntity
  8
0
  6
CONTINUOUS
 62
     7
100
AcDbCircle
 10
89.2813255427
 20
1112.578978872
 30
0.0
 40
1.000045473016804
100
AcDbArc
 50
155.1122159835
 51
180.0
  0
ARC
  5
1E5
330
1F
100
AcDbEntity
  8
0
  6
CONTINUOUS
 62
     7
100
AcDbCircle
 10
83.6842689789
 20
1115.1755957017
 30
0.0
 40
5.169999999999995
100
AcDbArc
 50
335.1122159835
 51
162.3995463312
  0
ARC
  5
1E6
330
1F
100
AcDbEntity
  8
0
  6
CONTINUOUS
 62
     7
100
AcDbCircle
 10
77.8030973308
 20
1117.0412644949
 30
0.0
 40
0.9999999999999921
100
AcDbArc
 50
270.0000629761
 51
342.3995463312
  0
LINE
  5
1E7
330
1F
100
AcDbEntity
  8
0
  6
CONTINUOUS
 62
     7
100
AcDbLine
 10
73.7594580482
 20
1116.0412146271
 30
0.0
 11
77.8030967544
 21
1116.0412146271
 31
0.0
  0
ARC
  5
1E8
330
1F
100
AcDbEntity
  8
0
  6
CONTINUOUS
 62
     7
100
AcDbCircle
 10
73.7594606103
 20
1117.0412600504
 30
0.0
 40
1.000001226839354
100
AcDbArc
 50
197.6004799029
 51
270.0000629761
  0
ARC
  5
1E9
330
1F
100
AcDbEntity
  8
0
  6
CONTINUOUS
 62
     7
100
AcDbCircle
 10
67.8782898165
 20
1115.1755885644
 30
0.0
 40
5.169998773160743
100
AcDbArc
 50
17.6004799029
 51
204.8878223268
  0
ARC
  5
1EA
330
1F
100
AcDbEntity
  8
0
  6
CONTINUOUS
 62
     7
100
AcDbCircle
 10
62.2812800697
 20
1112.5789889064
 30
0.0
 40
0.9999982307498101
100
AcDbArc
 50
0.0
 51
24.8878223268
  0
LINE
  5
1EB
330
1F
100
AcDbEntity
  8
0
  6
CONTINUOUS
 62
     7
100
AcDbLine
 10
63.2812818717
 20
1106.4635826767
 30
0.0
 11
63.2812818717
 21
1112.5790192306
 31
0.0
  0
ARC
  5
1EC
330
1F
100
AcDbEntity
  8
0
  6
CONTINUOUS
 62
     7
100
AcDbCircle
 10
62.2812800697
 20
1106.4635356388
 30
0.0
 40
1.000000000000114
100
AcDbArc
 50
335.1121228022
 51
0.0
  0
ARC
  5
1ED
330
1F
100
AcDbEntity
  8
0
  6
CONTINUOUS
 62
     7
100
AcDbCircle
 10
67.8782911605
 20
1103.8669288436
 30
0.0
 40
5.170000000000083
100
AcDbArc
 50
155.1121228022
 51
183.9447391857
  0
LINE
  5
1EE
330
1F
100
AcDbEntity
  8
0
  6
CONTINUOUS
 62
     7
100
AcDbLine
 10
25.9482795577
 20
1103.5112454117
 30
0.0
 11
62.7205362748
 21
1103.5112454117
 31
0.0
  0
LINE
  5
1EF
330
1F
100
AcDbEntity
  8
0
  6
CONTINUOUS
 62
     7
100
AcDbLine
 10
25.9482795577
 20
1103.5112454117
 30
0.0
 11
25.9482795577
 21
1124.8712851227
 31
0.0
  0
LINE
  5
1F0
330
1F
100
AcDbEntity
  8
0
  6
CONTINUOUS
 62
     7
100
AcDbLine
 10
31.9482786785
 20
1130.871207875
 30
0.0
 11
522.6482963394
 21
1130.871207875
 31
0.0
  0
ARC
  5
1F1
330
1F
100
AcDbEntity
  8
0
  6
CONTINUOUS
 62
     7
100
AcDbCircle
 10
522.6482800697
 20
1124.8712622726
 30
0.0
 40
6.0
100
AcDbArc
 50
0.0
 51
90.0
  0
LINE
  5
1F2
330
1F
100
AcDbEntity
  8
0
  6
CONTINUOUS
 62
     7
100
AcDbLine
 10
501.5360331367
 20
1103.5112454117
 30
0.0
 11
528.6482786964
 21
1103.5112454117
 31
0.0
  0
LINE
  5
1F3
330
1F
100
AcDbEntity
  8
0
  6
CONTINUOUS
 62
     7
100
AcDbLine
 10
528.6482786964
 20
1124.8712851227
 30
0.0
 11
528.6482786964
 21
1103.5112454117
 31
0.0
  0
LINE
  5
1F4
330
1F
100
AcDbEntity
  8
0
  6
CONTINUOUS
 62
     7
100
AcDbLine
 10
25.9482795577
 20
70.81126557
 30
0.0
 11
475.6082808803
 21
70.81126557
 31
0.0
  0
LINE
  5
1F5
330
1F
100
AcDbEntity
  8
0
  6
CONTINUOUS
 62
     7
100
AcDbLine
 10
25.9482795577
 20
70.81126557
 30
0.0
 11
25.9482795577
 21
1090.1313139618
 31
0.0
  0
LINE
  5
1F6
330
1F
100
AcDbEntity
  8
0
  6
CONTINUOUS
 62
     7
100
AcDbLine
 10
475.6082808803
 20
1090.1313139618
 30
0.0
 11
25.9482795577
 21
1090.1313139618
 31
0.0
  0
LINE
  5
1F7
330
1F
100
AcDbEntity
  8
0
  6
CONTINUOUS
 62
     7
100
AcDbLine
 10
475.6082808803
 20
70.81126557
 30
0.0
 11
475.6082808803
 21
1090.1313139618
 31
0.0
  0
ARC
  5
1F8
330
1F
100
AcDbEntity
  8
0
  6
CONTINUOUS
 62
     7
100
AcDbCircle
 10
490.4970973308
 20
58.9412644949
 30
0.0
 40
1.00000000000005
100
AcDbArc
 50
270.0000629761
 51
342.3995463312
  0
LINE
  5
1F9
330
1F
100
AcDbEntity
  8
0
  6
CONTINUOUS
 62
     7
100
AcDbLine
 10
490.4971039127
 20
57.941263032
 30
0.0
 11
486.4534652065
 21
57.9412593067
 31
0.0
  0
ARC
  5
1FA
330
1F
100
AcDbEntity
  8
0
  6
CONTINUOUS
 62
     7
100
AcDbCircle
 10
486.4534606103
 20
58.9412600504
 30
0.0
 40
1.000000000000054
100
AcDbArc
 50
197.6004799029
 51
270.0000629761
  0
ARC
  5
1FB
330
1F
100
AcDbEntity
  8
0
  6
CONTINUOUS
 62
     7
100
AcDbCircle
 10
77.8030973308
 20
58.9412644949
 30
0.0
 40
1.00000000000005
100
AcDbArc
 50
270.0000629761
 51
342.3995463312
  0
LINE
  5
1FC
330
1F
100
AcDbEntity
  8
0
  6
CONTINUOUS
 62
     7
100
AcDbLine
 10
77.8030967544
 20
57.941263032
 30
0.0
 11
73.7594580482
 21
57.9412593067
 31
0.0
  0
ARC
  5
1FD
330
1F
100
AcDbEntity
  8
0
  6
CONTINUOUS
 62
     7
100
AcDbCircle
 10
73.7594606103
 20
58.9412600504
 30
0.0
 40
1.00000000000005
100
AcDbArc
 50
197.6004799029
 51
270.0000629761
  0
ARC
  5
1FE
330
1F
100
AcDbEntity
  8
0
  6
CONTINUOUS
 62
     7
100
AcDbCircle
 10
73.7594628086
 20
1102.0012600504
 30
0.0
 40
1.000000000000149
100
AcDbArc
 50
90.0000629761
 51
162.3995463312
  0
LINE
  5
1FF
330
1F
100
AcDbEntity
  8
0
  6
CONTINUOUS
 62
     7
100
AcDbLine
 10
73.7594580482
 20
1103.001268071
 30
0.0
 11
77.8030967544
 21
1103.001268071
 31
0.0
  0
ARC
  5
200
330
1F
100
AcDbEntity
  8
0
  6
CONTINUOUS
 62
     7
100
AcDbCircle
 10
77.8030995291
 20
1102.0012644949
 30
0.0
 40
1.000000000000149
100
AcDbArc
 50
17.6004799029
 51
90.0000629761
  0
ARC
  5
201
330
1F
100
AcDbEntity
  8
0
  6
CONTINUOUS
 62
     7
100
AcDbCircle
 10
486.4534628086
 20
1102.0012600504
 30
0.0
 40
1.000000000000149
100
AcDbArc
 50
90.0000629761
 51
162.3995463312
  0
LINE
  5
202
330
1F
100
AcDbEntity
  8
0
  6
CONTINUOUS
 62
     7
100
AcDbLine
 10
486.4534652065
 20
1103.001268071
 30
0.0
 11
490.4971039127
 21
1103.001268071
 31
0.0
  0
ARC
  5
203
330
1F
100
AcDbEntity
  8
0
  6
CONTINUOUS
 62
     7
100
AcDbCircle
 10
490.4970995291
 20
1102.0012644949
 30
0.0
 40
1.000000000000149
100
AcDbArc
 50
17.6004799029
 51
90.0000629761
  0
LINE
  5
204
330
1F
100
AcDbEntity
  8
0
  6
CONTINUOUS
 62
     7
100
AcDbLine
 10
25.9482795577
 20
70.81126557
 30
0.0
 11
25.9482795577
 21
57.4312633396
 31
0.0
  0
LINE
  5
205
330
1F
100
AcDbEntity
  8
0
  6
CONTINUOUS
 62
     7
100
AcDbLine
 10
25.9482795577
 20
1103.5112454117
 30
0.0
 11
25.9482795577
 21
1090.1313139618
 31
0.0
  0
ARC
  5
206
330
1F
100
AcDbEntity
  8
0
  6
CONTINUOUS
 62
     7
100
AcDbCircle
 10
67.8782898165
 20
57.0755885644
 30
0.0
 40
5.169999999999959
100
AcDbArc
 50
17.6004799029
 51
176.0551805902
  0
ARC
  5
207
330
1F
100
AcDbEntity
  8
0
  6
CONTINUOUS
 62
     7
100
AcDbCircle
 10
67.8782911605
 20
1103.8669288436
 30
0.0
 40
5.170000000000071
100
AcDbArc
 50
183.9447391857
 51
342.3995463312
  0
ARC
  5
208
330
1F
100
AcDbEntity
  8
0
  6
CONTINUOUS
 62
     7
100
AcDbCircle
 10
83.6842703229
 20
1103.8669359809
 30
0.0
 40
5.169999999999948
100
AcDbArc
 50
197.6004799029
 51
356.055181528
  0
ARC
  5
209
330
1F
100
AcDbEntity
  8
0
  6
CONTINUOUS
 62
     7
100
AcDbCircle
 10
83.6842689789
 20
57.0755957017
 30
0.0
 40
5.170000000000041
100
AcDbArc
 50
3.9447391858
 51
162.3995463312
  0
ARC
  5
20A
330
1F
100
AcDbEntity
  8
0
  6
CONTINUOUS
 62
     7
100
AcDbCircle
 10
480.5722911605
 20
1103.8669288436
 30
0.0
 40
5.170000000000093
100
AcDbArc
 50
183.9447391857
 51
342.3995463312
  0
ARC
  5
20B
330
1F
100
AcDbEntity
  8
0
  6
CONTINUOUS
 62
     7
100
AcDbCircle
 10
480.5722898165
 20
57.0755885644
 30
0.0
 40
5.169999999999823
100
AcDbArc
 50
17.6004799029
 51
176.0551805903
  0
ARC
  5
20C
330
1F
100
AcDbEntity
  8
0
  6
CONTINUOUS
 62
     7
100
AcDbCircle
 10
496.3782703229
 20
1103.8669359809
 30
0.0
 40
5.169999999999979
100
AcDbArc
 50
197.6004799029
 51
356.055181528
  0
ARC
  5
20D
330
1F
100
AcDbEntity
  8
0
  6
CONTINUOUS
 62
     7
100
AcDbCircle
 10
496.3782689789
 20
57.0755957017
 30
0.0
 40
5.170000000000154
100
AcDbArc
 50
3.9447391857
 51
162.3995463312
  0
LINE
  5
20E
330
1F
100
AcDbEntity
  8
0
  6
CONTINUOUS
 62
     7
100
AcDbLine
 10
528.6482786964
 20
57.4312633396
 30
0.0
 11
528.6482786964
 21
70.81126557
 31
0.0
  0
LINE
  5
20F
330
1F
100
AcDbEntity
  8
0
  6
CONTINUOUS
 62
     7
100
AcDbLine
 10
528.6482786964
 20
1090.1313139618
 30
0.0
 11
528.6482786964
 21
1103.5112454117
 31
0.0
  0
LINE
  5
210
330
1F
100
AcDbEntity
  8
POCKETS
100
AcDbLine
 10
1561.1882800697
 20
82.9412622726
 30
0.0
 11
1328.4882800697
 21
82.9412622726
 31
0.0
  0
LINE
  5
211
330
1F
100
AcDbEntity
  8
POCKETS
100
AcDbLine
 10
1328.4882800697
 20
82.9412622726
 30
0.0
 11
1328.4882800697
 21
70.0712622726
 31
0.0
  0
LINE
  5
212
330
1F
100
AcDbEntity
  8
POCKETS
100
AcDbLine
 10
1328.4882800697
 20
70.0712622726
 30
0.0
 11
1561.1882800697
 21
70.0712622726
 31
0.0
  0
LINE
  5
213
330
1F
100
AcDbEntity
  8
PROFILES_OUTSIDE
100
AcDbLine
 10
528.6482800697
 20
1055.9058600597
 30
0.0
 11
528.6482800697
 21
1130.8712622726
 31
0.0
  0
LINE
  5
214
330
1F
100
AcDbEntity
  8
PROFILES_OUTSIDE
100
AcDbLine
 10
528.6482800697
 20
1130.8712622726
 30
0.0
 11
25.9482800697
 21
1130.8712622726
 31
0.0
  0
LINE
  5
215
330
1F
100
AcDbEntity
  8
PROFILES_OUTSIDE
100
AcDbLine
 10
25.9482800697
 20
1130.8712622726
 30
0.0
 11
25.9482800697
 21
30.0712622726
 31
0.0
  0
LINE
  5
216
330
1F
100
AcDbEntity
  8
PROFILES_OUTSIDE
100
AcDbLine
 10
25.9482800697
 20
30.0712622726
 30
0.0
 11
528.6482800697
 21
30.0712622726
 31
0.0
  0
LINE
  5
217
330
1F
100
AcDbEntity
  8
POCKETS
100
AcDbLine
 10
1561.1882800697
 20
70.0712622726
 30
0.0
 11
1561.1882800697
 21
82.9412622726
 31
0.0
  0
LINE
  5
218
330
1F
100
AcDbEntity
  8
PROFILES_OUTSIDE
100
AcDbLine
 10
528.6482800697
 20
30.0712622726
 30
0.0
 11
528.6482800697
 21
105.0366644856
 31
0.0
  0
LINE
  5
219
330
1F
100
AcDbEntity
  8
PROFILES_OUTSIDE
100
AcDbLine
 10
523.6901691357
 20
110.9455110036
 30
0.0
 11
513.6063910037
 21
112.7235531558
 31
0.0
  0
LINE
  5
21A
330
1F
100
AcDbEntity
  8
PROFILES_OUTSIDE
100
AcDbLine
 10
508.6482800697
 20
118.6323996739
 30
0.0
 11
508.6482800697
 21
1042.3101248714
 31
0.0
  0
LINE
  5
21B
330
1F
100
AcDbEntity
  8
PROFILES_OUTSIDE
100
AcDbLine
 10
513.6063910037
 20
1048.2189713895
 30
0.0
 11
523.6901691357
 21
1049.9970135416
 31
0.0
  0
LINE
  5
21C
330
1F
100
AcDbEntity
  8
PROFILES_INSIDE
100
AcDbLine
 10
500.9752800697
 20
1106.4635456733
 30
0.0
 11
500.9752800697
 21
1112.578978872
 31
0.0
  0
LINE
  5
21D
330
1F
100
AcDbEntity
  8
PROFILES_INSIDE
100
AcDbLine
 10
486.4534617095
 20
1103.0012600504
 30
0.0
 11
490.4970984299
 21
1103.0012644949
 31
0.0
  0
LINE
  5
21E
330
1F
100
AcDbEntity
  8
PROFILES_INSIDE
100
AcDbLine
 10
475.9752783005
 20
1112.5789889064
 30
0.0
 11
475.9752800697
 21
1106.4635356388
 31
0.0
  0
LINE
  5
21F
330
1F
100
AcDbEntity
  8
PROFILES_INSIDE
100
AcDbLine
 10
490.4970984299
 20
1116.0412644949
 30
0.0
 11
486.4534617095
 21
1116.0412583635
 31
0.0
  0
LINE
  5
220
330
1F
100
AcDbEntity
  8
PROFILES_OUTSIDE
100
AcDbLine
 10
1307.0082800697
 20
30.0712622726
 30
0.0
 11
1307.0082800697
 21
1062.7712622726
 31
0.0
  0
LINE
  5
221
330
1F
100
AcDbEntity
  8
PROFILES_OUTSIDE
100
AcDbLine
 10
1307.0082800697
 20
1062.7712622726
 30
0.0
 11
1094.3082800697
 21
1062.7712622726
 31
0.0
  0
LINE
  5
222
330
1F
100
AcDbEntity
  8
PROFILES_OUTSIDE
100
AcDbLine
 10
1094.3082800697
 20
1062.7712622726
 30
0.0
 11
1094.3082800697
 21
30.0712622726
 31
0.0
  0
LINE
  5
223
330
1F
100
AcDbEntity
  8
PROFILES_OUTSIDE
100
AcDbLine
 10
1094.3082800697
 20
30.0712622726
 30
0.0
 11
1307.0082800697
 21
30.0712622726
 31
0.0
  0
LINE
  5
224
330
1F
100
AcDbEntity
  8
PROFILES_OUTSIDE
100
AcDbLine
 10
1551.1882800697
 20
532.7712622726
 30
0.0
 11
1338.4882800697
 21
532.7712622726
 31
0.0
  0
LINE
  5
225
330
1F
100
AcDbEntity
  8
PROFILES_OUTSIDE
100
AcDbLine
 10
1338.4882800697
 20
532.7712622726
 30
0.0
 11
1338.4882800697
 21
30.0712622726
 31
0.0
  0
LINE
  5
226
330
1F
100
AcDbEntity
  8
PROFILES_OUTSIDE
100
AcDbLine
 10
1338.4882800697
 20
30.0712622726
 30
0.0
 11
1551.1882800697
 21
30.0712622726
 31
0.0
  0
LINE
  5
227
330
1F
100
AcDbEntity
  8
PROFILES_OUTSIDE
100
AcDbLine
 10
1551.1882800697
 20
30.0712622726
 30
0.0
 11
1551.1882800697
 21
532.7712622726
 31
0.0
  0
LINE
  5
228
330
1F
100
AcDbEntity
  8
PROFILES_OUTSIDE
100
AcDbLine
 10
1338.4882800697
 20
1066.9512622726
 30
0.0
 11
1338.4882800697
 21
564.2512622726
 31
0.0
  0
LINE
  5
229
330
1F
100
AcDbEntity
  8
PROFILES_OUTSIDE
100
AcDbLine
 10
1338.4882800697
 20
564.2512622726
 30
0.0
 11
1551.1882800697
 21
564.2512622726
 31
0.0
  0
LINE
  5
22A
330
1F
100
AcDbEntity
  8
BOX_STOCK
100
AcDbLine
 10
0.2082800697
 20
4.3312622726
 30
0.0
 11
2440.2082800697
 21
4.3312622726
 31
0.0
  0
LINE
  5
22B
330
1F
100
AcDbEntity
  8
BOX_STOCK
100
AcDbLine
 10
2440.2082800697
 20
4.3312622726
 30
0.0
 11
2440.2082800697
 21
1224.3312622726
 31
0.0
  0
LINE
  5
22C
330
1F
100
AcDbEntity
  8
BOX_STOCK
100
AcDbLine
 10
2440.2082800697
 20
1224.3312622726
 30
0.0
 11
0.2082800697
 21
1224.3312622726
 31
0.0
  0
LINE
  5
22D
330
1F
100
AcDbEntity
  8
BOX_STOCK
100
AcDbLine
 10
0.2082800697
 20
1224.3312622726
 30
0.0
 11
0.2082800697
 21
4.3312622726
 31
0.0
  0
LINE
  5
22E
330
1F
100
AcDbEntity
  8
POCKETS
100
AcDbLine
 10
1561.1882800697
 20
617.1212622726
 30
0.0
 11
1328.4882800697
 21
617.1212622726
 31
0.0
  0
LINE
  5
22F
330
1F
100
AcDbEntity
  8
PROFILES_OUTSIDE
100
AcDbLine
 10
1551.1882800697
 20
564.2512622726
 30
0.0
 11
1551.1882800697
 21
1066.9512622726
 31
0.0
  0
LINE
  5
230
330
1F
100
AcDbEntity
  8
POCKETS
100
AcDbLine
 10
1328.4882800697
 20
617.1212622726
 30
0.0
 11
1328.4882800697
 21
604.2512622726
 31
0.0
  0
LINE
  5
231
330
1F
100
AcDbEntity
  8
POCKETS
100
AcDbLine
 10
1328.4882800697
 20
604.2512622726
 30
0.0
 11
1561.1882800697
 21
604.2512622726
 31
0.0
  0
LINE
  5
232
330
1F
100
AcDbEntity
  8
POCKETS
100
AcDbLine
 10
1561.1882800697
 20
604.2512622726
 30
0.0
 11
1561.1882800697
 21
617.1212622726
 31
0.0
  0
LINE
  5
233
330
1F
100
AcDbEntity
  8
PROFILES_OUTSIDE
100
AcDbLine
 10
1551.1882800697
 20
1066.9512622726
 30
0.0
 11
1338.4882800697
 21
1066.9512622726
 31
0.0
  0
LINE
  5
234
330
1F
100
AcDbEntity
  8
PROFILES_INSIDE
100
AcDbLine
 10
88.2812800697
 20
1106.4635456733
 30
0.0
 11
88.2812800697
 21
1112.578978872
 31
0.0
  0
LINE
  5
235
330
1F
100
AcDbEntity
  8
PROFILES_INSIDE
100
AcDbLine
 10
77.8030984299
 20
1116.0412644949
 30
0.0
 11
73.7594617095
 21
1116.041259437
 31
0.0
  0
LINE
  5
236
330
1F
100
AcDbEntity
  8
PROFILES_INSIDE
100
AcDbLine
 10
63.2812781471
 20
1112.5789889064
 30
0.0
 11
63.2812800697
 21
1106.4635356388
 31
0.0
  0
LINE
  5
237
330
1F
100
AcDbEntity
  8
PROFILES_INSIDE
100
AcDbLine
 10
73.7594617095
 20
1103.0012600504
 30
0.0
 11
77.8030984299
 21
1103.0012644949
 31
0.0
  0
LINE
  5
238
330
1F
100
AcDbEntity
  8
PROFILES_INSIDE
100
AcDbLine
 10
500.9752800697
 20
48.3635456732
 30
0.0
 11
500.9752800697
 21
54.478978872
 31
0.0
  0
LINE
  5
239
330
1F
100
AcDbEntity
  8
PROFILES_INSIDE
100
AcDbLine
 10
490.4970984299
 20
57.9412644949
 30
0.0
 11
486.4534617095
 21
57.941259897
 31
0.0
  0
LINE
  5
23A
330
1F
100
AcDbEntity
  8
PROFILES_INSIDE
100
AcDbLine
 10
475.9752779937
 20
54.4789889064
 30
0.0
 11
475.9752800697
 21
48.3635356388
 31
0.0
  0
LINE
  5
23B
330
1F
100
AcDbEntity
  8
PROFILES_INSIDE
100
AcDbLine
 10
486.4534617095
 20
44.9012600504
 30
0.0
 11
490.4970984299
 21
44.9012644949
 31
0.0
  0
LINE
  5
23C
330
1F
100
AcDbEntity
  8
PROFILES_INSIDE
100
AcDbLine
 10
63.2812783005
 20
54.4789889064
 30
0.0
 11
63.2812800697
 21
48.3635356388
 31
0.0
  0
LINE
  5
23D
330
1F
100
AcDbEntity
  8
PROFILES_INSIDE
100
AcDbLine
 10
73.7594617095
 20
44.9012600504
 30
0.0
 11
77.8030984299
 21
44.9012644949
 31
0.0
  0
LINE
  5
23E
330
1F
100
AcDbEntity
  8
PROFILES_INSIDE
100
AcDbLine
 10
88.2812800697
 20
48.3635456732
 30
0.0
 11
88.2812800697
 21
54.478978872
 31
0.0
  0
LINE
  5
23F
330
1F
100
AcDbEntity
  8
PROFILES_INSIDE
100
AcDbLine
 10
77.8030984299
 20
57.9412644949
 30
0.0
 11
73.7594617095
 21
57.9412600504
 31
0.0
  0
LINE
  5
240
330
1F
100
AcDbEntity
  8
PROFILES_OUTSIDE
100
AcDbLine
 10
1594.2282800697
 20
486.5172622726
 30
0.0
 11
1583.6682800697
 21
486.5172622726
 31
0.0
  0
LINE
  5
241
330
1F
100
AcDbEntity
  8
PROFILES_OUTSIDE
100
AcDbLine
 10
1594.5683677068
 20
481.2033929433
 30
0.0
 11
1594.2282800697
 21
486.5172622726
 31
0.0
  0
LINE
  5
242
330
1F
100
AcDbEntity
  8
PROFILES_OUTSIDE
100
AcDbLine
 10
1604.2060016863
 20
480.2672622726
 30
0.0
 11
1595.5663259768
 21
480.2672622726
 31
0.0
  0
LINE
  5
243
330
1F
100
AcDbEntity
  8
PROFILES_OUTSIDE
100
AcDbLine
 10
1607.6682800697
 20
492.7692622726
 30
0.0
 11
1607.6682800697
 21
490.7454439124
 31
0.0
  0
LINE
  5
244
330
1F
100
AcDbEntity
  8
PROFILES_OUTSIDE
100
AcDbLine
 10
1670.6682800697
 20
492.7692622726
 30
0.0
 11
1607.6682800697
 21
492.7692622726
 31
0.0
  0
LINE
  5
245
330
1F
100
AcDbEntity
  8
PROFILES_OUTSIDE
100
AcDbLine
 10
1682.6682800697
 20
346.536595606
 30
0.0
 11
1682.6682800697
 21
480.7692622726
 31
0.0
  0
LINE
  5
246
330
1F
100
AcDbEntity
  8
PROFILES_OUTSIDE
100
AcDbLine
 10
1720.6682800697
 20
334.536595606
 30
0.0
 11
1694.6682800697
 21
334.536595606
 31
0.0
  0
LINE
  5
247
330
1F
100
AcDbEntity
  8
PROFILES_OUTSIDE
100
AcDbLine
 10
1732.6682800697
 20
480.7692622726
 30
0.0
 11
1732.6682800697
 21
346.536595606
 31
0.0
  0
LINE
  5
248
330
1F
100
AcDbEntity
  8
PROFILES_INSIDE
100
AcDbLine
 10
1035.1552800697
 20
1106.4635456733
 30
0.0
 11
1035.1552800697
 21
1112.578978872
 31
0.0
  0
LINE
  5
249
330
1F
100
AcDbEntity
  8
PROFILES_INSIDE
100
AcDbLine
 10
1020.6334617095
 20
1103.0012600504
 30
0.0
 11
1024.6770984299
 21
1103.0012644949
 31
0.0
  0
LINE
  5
24A
330
1F
100
AcDbEntity
  8
PROFILES_INSIDE
100
AcDbLine
 10
1010.1552783005
 20
1112.5789889065
 30
0.0
 11
1010.1552800697
 21
1106.4635356388
 31
0.0
  0
LINE
  5
24B
330
1F
100
AcDbEntity
  8
PROFILES_INSIDE
100
AcDbLine
 10
1024.6770984299
 20
1116.0412644949
 30
0.0
 11
1020.6334617095
 21
1116.0412583635
 31
0.0
  0
LINE
  5
24C
330
1F
100
AcDbEntity
  8
PROFILES_INSIDE
100
AcDbLine
 10
622.6058800697
 20
1106.4635456733
 30
0.0
 11
622.6058800697
 21
1112.578978872
 31
0.0
  0
LINE
  5
24D
330
1F
100
AcDbEntity
  8
PROFILES_INSIDE
100
AcDbLine
 10
612.1276984299
 20
1116.0412644949
 30
0.0
 11
608.0840617095
 21
1116.041259437
 31
0.0
  0
LINE
  5
24E
330
1F
100
AcDbEntity
  8
PROFILES_INSIDE
100
AcDbLine
 10
597.6058781471
 20
1112.5789889064
 30
0.0
 11
597.6058800697
 21
1106.4635356388
 31
0.0
  0
LINE
  5
24F
330
1F
100
AcDbEntity
  8
PROFILES_INSIDE
100
AcDbLine
 10
608.0840617095
 20
1103.0012600504
 30
0.0
 11
612.1276984299
 21
1103.0012644949
 31
0.0
  0
LINE
  5
250
330
1F
100
AcDbEntity
  8
PROFILES_INSIDE
100
AcDbLine
 10
1035.1552800697
 20
48.3635456732
 30
0.0
 11
1035.1552800697
 21
54.478978872
 31
0.0
  0
LINE
  5
251
330
1F
100
AcDbEntity
  8
PROFILES_INSIDE
100
AcDbLine
 10
1024.6770984299
 20
57.9412644949
 30
0.0
 11
1020.6334617095
 21
57.941259897
 31
0.0
  0
LINE
  5
252
330
1F
100
AcDbEntity
  8
PROFILES_INSIDE
100
AcDbLine
 10
1010.1552779937
 20
54.4789889064
 30
0.0
 11
1010.1552800697
 21
48.3635356388
 31
0.0
  0
LINE
  5
253
330
1F
100
AcDbEntity
  8
PROFILES_INSIDE
100
AcDbLine
 10
1020.6334617095
 20
44.9012600504
 30
0.0
 11
1024.6770984299
 21
44.9012644949
 31
0.0
  0
LINE
  5
254
330
1F
100
AcDbEntity
  8
PROFILES_OUTSIDE
100
AcDbLine
 10
1807.6682800697
 20
492.7692622726
 30
0.0
 11
1744.6682800697
 21
492.7692622726
 31
0.0
  0
LINE
  5
255
330
1F
100
AcDbEntity
  8
PROFILES_OUTSIDE
100
AcDbLine
 10
1807.6682800697
 20
490.7454439124
 30
0.0
 11
1807.6682800697
 21
492.7692622726
 31
0.0
  0
LINE
  5
256
330
1F
100
AcDbEntity
  8
PROFILES_OUTSIDE
100
AcDbLine
 10
1819.7702341626
 20
480.2672622726
 30
0.0
 11
1811.1305584531
 21
480.2672622726
 31
0.0
  0
LINE
  5
257
330
1F
100
AcDbEntity
  8
PROFILES_OUTSIDE
100
AcDbLine
 10
1821.1082800697
 20
486.5172622726
 30
0.0
 11
1820.7681924326
 21
481.2033929433
 31
0.0
  0
LINE
  5
258
330
1F
100
AcDbEntity
  8
PROFILES_OUTSIDE
100
AcDbLine
 10
1831.6682800697
 20
486.5172622726
 30
0.0
 11
1821.1082800697
 21
486.5172622726
 31
0.0
  0
LINE
  5
259
330
1F
100
AcDbEntity
  8
PROFILES_INSIDE
100
AcDbLine
 10
597.6058783005
 20
54.4789889064
 30
0.0
 11
597.6058800697
 21
48.3635356388
 31
0.0
  0
LINE
  5
25A
330
1F
100
AcDbEntity
  8
PROFILES_INSIDE
100
AcDbLine
 10
608.0840617095
 20
44.9012600504
 30
0.0
 11
612.1276984299
 21
44.9012644949
 31
0.0
  0
LINE
  5
25B
330
1F
100
AcDbEntity
  8
PROFILES_INSIDE
100
AcDbLine
 10
622.6058800697
 20
48.3635456732
 30
0.0
 11
622.6058800697
 21
54.478978872
 31
0.0
  0
LINE
  5
25C
330
1F
100
AcDbEntity
  8
PROFILES_INSIDE
100
AcDbLine
 10
612.1276984299
 20
57.9412644949
 30
0.0
 11
608.0840617095
 21
57.9412600504
 31
0.0
  0
LINE
  5
25D
330
1F
100
AcDbEntity
  8
PROFILES_OUTSIDE
100
AcDbLine
 10
560.1282800697
 20
1124.8712622726
 30
0.0
 11
560.1282800697
 21
36.0712622726
 31
0.0
  0
LINE
  5
25E
330
1F
100
AcDbEntity
  8
PROFILES_OUTSIDE
100
AcDbLine
 10
1056.8282800697
 20
1130.8712622726
 30
0.0
 11
566.1282800697
 21
1130.8712622726
 31
0.0
  0
LINE
  5
25F
330
1F
100
AcDbEntity
  8
PROFILES_OUTSIDE
100
AcDbLine
 10
1062.8282800697
 20
1055.9058600597
 30
0.0
 11
1062.8282800697
 21
1124.8712622726
 31
0.0
  0
LINE
  5
260
330
1F
100
AcDbEntity
  8
PROFILES_OUTSIDE
100
AcDbLine
 10
1047.7863910037
 20
1048.2189713895
 30
0.0
 11
1057.8701691357
 21
1049.9970135416
 31
0.0
  0
LINE
  5
261
330
1F
100
AcDbEntity
  8
POCKETS
100
AcDbLine
 10
538.9882800697
 20
70.8112622726
 30
0.0
 11
528.9882800697
 21
70.8112622726
 31
0.0
  0
LINE
  5
262
330
1F
100
AcDbEntity
  8
PROFILES_OUTSIDE
100
AcDbLine
 10
1832.6682800697
 20
473.7672622726
 30
0.0
 11
1832.6682800697
 21
485.5172622726
 31
0.0
  0
LINE
  5
263
330
1F
100
AcDbEntity
  8
PROFILES_OUTSIDE
100
AcDbLine
 10
1763.7182800697
 20
467.7672622726
 30
0.0
 11
1826.6682800697
 21
467.7672622726
 31
0.0
  0
LINE
  5
264
330
1F
100
AcDbEntity
  8
PROFILES_OUTSIDE
100
AcDbLine
 10
1751.7182800697
 20
334.536595606
 30
0.0
 11
1751.7182800697
 21
455.7672622726
 31
0.0
  0
LINE
  5
265
330
1F
100
AcDbEntity
  8
PROFILES_OUTSIDE
100
AcDbLine
 10
1732.6682800697
 20
221.2994968235
 30
0.0
 11
1732.6682800697
 21
301.5410277218
 31
0.0
  0
LINE
  5
266
330
1F
100
AcDbEntity
  8
PROFILES_OUTSIDE
100
AcDbLine
 10
1751.7182800697
 20
67.0732622726
 30
0.0
 11
1751.7182800697
 21
188.3039289393
 31
0.0
  0
LINE
  5
267
330
1F
100
AcDbEntity
  8
PROFILES_OUTSIDE
100
AcDbLine
 10
1826.6682800697
 20
55.0732622726
 30
0.0
 11
1763.7182800697
 21
55.0732622726
 31
0.0
  0
LINE
  5
268
330
1F
100
AcDbEntity
  8
PROFILES_OUTSIDE
100
AcDbLine
 10
1832.6682800697
 20
37.3232622726
 30
0.0
 11
1832.6682800697
 21
49.0732622726
 31
0.0
  0
LINE
  5
269
330
1F
100
AcDbEntity
  8
PROFILES_OUTSIDE
100
AcDbLine
 10
1821.1082800697
 20
36.3232622726
 30
0.0
 11
1831.6682800697
 21
36.3232622726
 31
0.0
  0
LINE
  5
26A
330
1F
100
AcDbEntity
  8
PROFILES_OUTSIDE
100
AcDbLine
 10
1820.7681924326
 20
41.6371316019
 30
0.0
 11
1821.1082800697
 21
36.3232622726
 31
0.0
  0
LINE
  5
26B
330
1F
100
AcDbEntity
  8
PROFILES_OUTSIDE
100
AcDbLine
 10
1811.1305584531
 20
42.5732622726
 30
0.0
 11
1819.7702341626
 21
42.5732622726
 31
0.0
  0
LINE
  5
26C
330
1F
100
AcDbEntity
  8
PROFILES_OUTSIDE
100
AcDbLine
 10
1807.6682800697
 20
30.0712622726
 30
0.0
 11
1807.6682800697
 21
32.0950806329
 31
0.0
  0
LINE
  5
26D
330
1F
100
AcDbEntity
  8
PROFILES_OUTSIDE
100
AcDbLine
 10
1744.6682800697
 20
30.0712622726
 30
0.0
 11
1807.6682800697
 21
30.0712622726
 31
0.0
  0
LINE
  5
26E
330
1F
100
AcDbEntity
  8
PROFILES_OUTSIDE
100
AcDbLine
 10
1732.6682800697
 20
176.3039289393
 30
0.0
 11
1732.6682800697
 21
42.0712622726
 31
0.0
  0
LINE
  5
26F
330
1F
100
AcDbEntity
  8
PROFILES_OUTSIDE
100
AcDbLine
 10
1694.6682800697
 20
188.3039289393
 30
0.0
 11
1720.6682800697
 21
188.3039289393
 31
0.0
  0
LINE
  5
270
330
1F
100
AcDbEntity
  8
PROFILES_OUTSIDE
100
AcDbLine
 10
1682.6682800697
 20
42.0712622726
 30
0.0
 11
1682.6682800697
 21
176.3039289393
 31
0.0
  0
LINE
  5
271
330
1F
100
AcDbEntity
  8
PROFILES_OUTSIDE
100
AcDbLine
 10
1607.6682800697
 20
30.0712622726
 30
0.0
 11
1670.6682800697
 21
30.0712622726
 31
0.0
  0
LINE
  5
272
330
1F
100
AcDbEntity
  8
PROFILES_OUTSIDE
100
AcDbLine
 10
1042.8282800697
 20
118.6323996739
 30
0.0
 11
1042.8282800697
 21
1042.3101248714
 31
0.0
  0
LINE
  5
273
330
1F
100
AcDbEntity
  8
POCKETS
100
AcDbLine
 10
538.9882800697
 20
57.4312622726
 30
0.0
 11
538.9882800697
 21
70.8112622726
 31
0.0
  0
LINE
  5
274
330
1F
100
AcDbEntity
  8
PROFILES_OUTSIDE
100
AcDbLine
 10
1057.8701691357
 20
110.9455110036
 30
0.0
 11
1047.7863910037
 21
112.7235531558
 31
0.0
  0
LINE
  5
275
330
1F
100
AcDbEntity
  8
POCKETS
100
AcDbLine
 10
528.9882800697
 20
57.4312622726
 30
0.0
 11
538.9882800697
 21
57.4312622726
 31
0.0
  0
LINE
  5
276
330
1F
100
AcDbEntity
  8
POCKETS
100
AcDbLine
 10
25.6082800697
 20
57.4312622726
 30
0.0
 11
528.9882800697
 21
57.4312622726
 31
0.0
  0
LINE
  5
277
330
1F
100
AcDbEntity
  8
POCKETS
100
AcDbLine
 10
15.6082800697
 20
57.4312622726
 30
0.0
 11
25.6082800697
 21
57.4312622726
 31
0.0
  0
LINE
  5
278
330
1F
100
AcDbEntity
  8
POCKETS
100
AcDbLine
 10
15.6082800697
 20
70.8112622726
 30
0.0
 11
15.6082800697
 21
57.4312622726
 31
0.0
  0
LINE
  5
279
330
1F
100
AcDbEntity
  8
POCKETS
100
AcDbLine
 10
25.6082800697
 20
70.8112622726
 30
0.0
 11
15.6082800697
 21
70.8112622726
 31
0.0
  0
LINE
  5
27A
330
1F
100
AcDbEntity
  8
POCKETS
100
AcDbLine
 10
475.6082800697
 20
70.8112622726
 30
0.0
 11
25.6082800697
 21
70.8112622726
 31
0.0
  0
LINE
  5
27B
330
1F
100
AcDbEntity
  8
POCKETS
100
AcDbLine
 10
475.6082800697
 20
1090.1312622726
 30
0.0
 11
475.6082800697
 21
70.8112622726
 31
0.0
  0
LINE
  5
27C
330
1F
100
AcDbEntity
  8
POCKETS
100
AcDbLine
 10
25.6082800697
 20
1090.1312622726
 30
0.0
 11
475.6082800697
 21
1090.1312622726
 31
0.0
  0
LINE
  5
27D
330
1F
100
AcDbEntity
  8
POCKETS
100
AcDbLine
 10
15.6082800697
 20
1090.1312622726
 30
0.0
 11
25.6082800697
 21
1090.1312622726
 31
0.0
  0
LINE
  5
27E
330
1F
100
AcDbEntity
  8
POCKETS
100
AcDbLine
 10
15.6082800697
 20
1103.5112622726
 30
0.0
 11
15.6082800697
 21
1090.1312622726
 31
0.0
  0
LINE
  5
27F
330
1F
100
AcDbEntity
  8
POCKETS
100
AcDbLine
 10
25.6082800697
 20
1103.5112622726
 30
0.0
 11
15.6082800697
 21
1103.5112622726
 31
0.0
  0
LINE
  5
280
330
1F
100
AcDbEntity
  8
POCKETS
100
AcDbLine
 10
528.9882800697
 20
1103.5112622726
 30
0.0
 11
25.6082800697
 21
1103.5112622726
 31
0.0
  0
LINE
  5
281
330
1F
100
AcDbEntity
  8
POCKETS
100
AcDbLine
 10
538.9882800697
 20
1103.5112622726
 30
0.0
 11
528.9882800697
 21
1103.5112622726
 31
0.0
  0
LINE
  5
282
330
1F
100
AcDbEntity
  8
POCKETS
100
AcDbLine
 10
538.9882800697
 20
1090.1312622726
 30
0.0
 11
538.9882800697
 21
1103.5112622726
 31
0.0
  0
LINE
  5
283
330
1F
100
AcDbEntity
  8
POCKETS
100
AcDbLine
 10
528.9882800697
 20
1090.1312622726
 30
0.0
 11
538.9882800697
 21
1090.1312622726
 31
0.0
  0
LINE
  5
284
330
1F
100
AcDbEntity
  8
POCKETS
100
AcDbLine
 10
488.6482800697
 20
1090.1312622726
 30
0.0
 11
528.9882800697
 21
1090.1312622726
 31
0.0
  0
LINE
  5
285
330
1F
100
AcDbEntity
  8
PROFILES_OUTSIDE
100
AcDbLine
 10
1607.6682800697
 20
32.0950806329
 30
0.0
 11
1607.6682800697
 21
30.0712622726
 31
0.0
  0
LINE
  5
286
330
1F
100
AcDbEntity
  8
PROFILES_OUTSIDE
100
AcDbLine
 10
1595.5663259768
 20
42.5732622726
 30
0.0
 11
1604.2060016863
 21
42.5732622726
 31
0.0
  0
LINE
  5
287
330
1F
100
AcDbEntity
  8
PROFILES_OUTSIDE
100
AcDbLine
 10
1594.2282800697
 20
36.3232622726
 30
0.0
 11
1594.5683677068
 21
41.6371316019
 31
0.0
  0
LINE
  5
288
330
1F
100
AcDbEntity
  8
PROFILES_OUTSIDE
100
AcDbLine
 10
1583.6682800697
 20
36.3232622726
 30
0.0
 11
1594.2282800697
 21
36.3232622726
 31
0.0
  0
LINE
  5
289
330
1F
100
AcDbEntity
  8
PROFILES_OUTSIDE
100
AcDbLine
 10
1582.6682800697
 20
49.0732622726
 30
0.0
 11
1582.6682800697
 21
37.3232622726
 31
0.0
  0
LINE
  5
28A
330
1F
100
AcDbEntity
  8
PROFILES_OUTSIDE
100
AcDbLine
 10
1651.6182800697
 20
55.0732622726
 30
0.0
 11
1588.6682800697
 21
55.0732622726
 31
0.0
  0
LINE
  5
28B
330
1F
100
AcDbEntity
  8
PROFILES_OUTSIDE
100
AcDbLine
 10
1663.6182800697
 20
188.3039289393
 30
0.0
 11
1663.6182800697
 21
67.0732622726
 31
0.0
  0
LINE
  5
28C
330
1F
100
AcDbEntity
  8
PROFILES_OUTSIDE
100
AcDbLine
 10
1682.6682800697
 20
301.5410277218
 30
0.0
 11
1682.6682800697
 21
221.2994968235
 31
0.0
  0
LINE
  5
28D
330
1F
100
AcDbEntity
  8
PROFILES_OUTSIDE
100
AcDbLine
 10
1663.6182800697
 20
455.7672622726
 30
0.0
 11
1663.6182800697
 21
334.536595606
 31
0.0
  0
LINE
  5
28E
330
1F
100
AcDbEntity
  8
PROFILES_OUTSIDE
100
AcDbLine
 10
1588.6682800697
 20
467.7672622726
 30
0.0
 11
1651.6182800697
 21
467.7672622726
 31
0.0
  0
LINE
  5
28F
330
1F
100
AcDbEntity
  8
PROFILES_OUTSIDE
100
AcDbLine
 10
1582.6682800697
 20
485.5172622726
 30
0.0
 11
1582.6682800697
 21
473.7672622726
 31
0.0
  0
LINE
  5
290
330
1F
100
AcDbEntity
  8
POCKETS
100
AcDbLine
 10
488.6482800697
 20
70.8112622726
 30
0.0
 11
488.6482800697
 21
1090.1312622726
 31
0.0
  0
LINE
  5
291
330
1F
100
AcDbEntity
  8
PROFILES_OUTSIDE
100
AcDbLine
 10
1821.1082800697
 20
530.4972622726
 30
0.0
 11
1831.6682800697
 21
530.4972622726
 31
0.0
  0
LINE
  5
292
330
1F
100
AcDbEntity
  8
PROFILES_OUTSIDE
100
AcDbLine
 10
1820.7681924326
 20
535.8111316019
 30
0.0
 11
1821.1082800697
 21
530.4972622726
 31
0.0
  0
LINE
  5
293
330
1F
100
AcDbEntity
  8
PROFILES_OUTSIDE
100
AcDbLine
 10
1811.1305584531
 20
536.7472622726
 30
0.0
 11
1819.7702341626
 21
536.7472622726
 31
0.0
  0
LINE
  5
294
330
1F
100
AcDbEntity
  8
PROFILES_OUTSIDE
100
AcDbLine
 10
1807.6682800697
 20
524.2452622726
 30
0.0
 11
1807.6682800697
 21
526.2690806329
 31
0.0
  0
LINE
  5
295
330
1F
100
AcDbEntity
  8
PROFILES_OUTSIDE
100
AcDbLine
 10
1744.6682800697
 20
524.2452622726
 30
0.0
 11
1807.6682800697
 21
524.2452622726
 31
0.0
  0
LINE
  5
296
330
1F
100
AcDbEntity
  8
PROFILES_OUTSIDE
100
AcDbLine
 10
1732.6682800697
 20
670.4779289393
 30
0.0
 11
1732.6682800697
 21
536.2452622726
 31
0.0
  0
LINE
  5
297
330
1F
100
AcDbEntity
  8
PROFILES_OUTSIDE
100
AcDbLine
 10
1694.6682800697
 20
682.4779289393
 30
0.0
 11
1720.6682800697
 21
682.4779289393
 31
0.0
  0
LINE
  5
298
330
1F
100
AcDbEntity
  8
PROFILES_OUTSIDE
100
AcDbLine
 10
1682.6682800697
 20
536.2452622726
 30
0.0
 11
1682.6682800697
 21
670.4779289393
 31
0.0
  0
LINE
  5
299
330
1F
100
AcDbEntity
  8
PROFILES_OUTSIDE
100
AcDbLine
 10
1607.6682800697
 20
524.2452622726
 30
0.0
 11
1670.6682800697
 21
524.2452622726
 31
0.0
  0
LINE
  5
29A
330
1F
100
AcDbEntity
  8
PROFILES_OUTSIDE
100
AcDbLine
 10
1607.6682800697
 20
526.2690806329
 30
0.0
 11
1607.6682800697
 21
524.2452622726
 31
0.0
  0
LINE
  5
29B
330
1F
100
AcDbEntity
  8
PROFILES_OUTSIDE
100
AcDbLine
 10
1595.5663259768
 20
536.7472622726
 30
0.0
 11
1604.2060016863
 21
536.7472622726
 31
0.0
  0
LINE
  5
29C
330
1F
100
AcDbEntity
  8
PROFILES_OUTSIDE
100
AcDbLine
 10
1594.2282800697
 20
530.4972622726
 30
0.0
 11
1594.5683677068
 21
535.8111316019
 31
0.0
  0
LINE
  5
29D
330
1F
100
AcDbEntity
  8
PROFILES_OUTSIDE
100
AcDbLine
 10
1583.6682800697
 20
530.4972622726
 30
0.0
 11
1594.2282800697
 21
530.4972622726
 31
0.0
  0
LINE
  5
29E
330
1F
100
AcDbEntity
  8
PROFILES_OUTSIDE
100
AcDbLine
 10
1582.6682800697
 20
543.2472622726
 30
0.0
 11
1582.6682800697
 21
531.4972622726
 31
0.0
  0
LINE
  5
29F
330
1F
100
AcDbEntity
  8
PROFILES_OUTSIDE
100
AcDbLine
 10
1651.6182800697
 20
549.2472622726
 30
0.0
 11
1588.6682800697
 21
549.2472622726
 31
0.0
  0
LINE
  5
2A0
330
1F
100
AcDbEntity
  8
PROFILES_OUTSIDE
100
AcDbLine
 10
1663.6182800697
 20
682.4779289393
 30
0.0
 11
1663.6182800697
 21
561.2472622726
 31
0.0
  0
LINE
  5
2A1
330
1F
100
AcDbEntity
  8
PROFILES_OUTSIDE
100
AcDbLine
 10
1682.6682800697
 20
795.7150277218
 30
0.0
 11
1682.6682800697
 21
715.4734968235
 31
0.0
  0
LINE
  5
2A2
330
1F
100
AcDbEntity
  8
PROFILES_OUTSIDE
100
AcDbLine
 10
1663.6182800697
 20
949.9412622726
 30
0.0
 11
1663.6182800697
 21
828.710595606
 31
0.0
  0
LINE
  5
2A3
330
1F
100
AcDbEntity
  8
PROFILES_OUTSIDE
100
AcDbLine
 10
1588.6682800697
 20
961.9412622726
 30
0.0
 11
1651.6182800697
 21
961.9412622726
 31
0.0
  0
LINE
  5
2A4
330
1F
100
AcDbEntity
  8
PROFILES_OUTSIDE
100
AcDbLine
 10
1582.6682800697
 20
979.6912622726
 30
0.0
 11
1582.6682800697
 21
967.9412622726
 31
0.0
  0
LINE
  5
2A5
330
1F
100
AcDbEntity
  8
PROFILES_OUTSIDE
100
AcDbLine
 10
1594.2282800697
 20
980.6912622726
 30
0.0
 11
1583.6682800697
 21
980.6912622726
 31
0.0
  0
LINE
  5
2A6
330
1F
100
AcDbEntity
  8
PROFILES_OUTSIDE
100
AcDbLine
 10
1594.5683677068
 20
975.3773929433
 30
0.0
 11
1594.2282800697
 21
980.6912622726
 31
0.0
  0
LINE
  5
2A7
330
1F
100
AcDbEntity
  8
PROFILES_OUTSIDE
100
AcDbLine
 10
1604.2060016863
 20
974.4412622726
 30
0.0
 11
1595.5663259768
 21
974.4412622726
 31
0.0
  0
LINE
  5
2A8
330
1F
100
AcDbEntity
  8
PROFILES_OUTSIDE
100
AcDbLine
 10
1607.6682800697
 20
986.9432622726
 30
0.0
 11
1607.6682800697
 21
984.9194439124
 31
0.0
  0
LINE
  5
2A9
330
1F
100
AcDbEntity
  8
PROFILES_OUTSIDE
100
AcDbLine
 10
1670.6682800697
 20
986.9432622726
 30
0.0
 11
1607.6682800697
 21
986.9432622726
 31
0.0
  0
LINE
  5
2AA
330
1F
100
AcDbEntity
  8
PROFILES_OUTSIDE
100
AcDbLine
 10
1682.6682800697
 20
840.710595606
 30
0.0
 11
1682.6682800697
 21
974.9432622726
 31
0.0
  0
LINE
  5
2AB
330
1F
100
AcDbEntity
  8
PROFILES_OUTSIDE
100
AcDbLine
 10
1720.6682800697
 20
828.710595606
 30
0.0
 11
1694.6682800697
 21
828.710595606
 31
0.0
  0
LINE
  5
2AC
330
1F
100
AcDbEntity
  8
PROFILES_OUTSIDE
100
AcDbLine
 10
1732.6682800697
 20
974.9432622726
 30
0.0
 11
1732.6682800697
 21
840.710595606
 31
0.0
  0
LINE
  5
2AD
330
1F
100
AcDbEntity
  8
PROFILES_OUTSIDE
100
AcDbLine
 10
1807.6682800697
 20
986.9432622726
 30
0.0
 11
1744.6682800697
 21
986.9432622726
 31
0.0
  0
LINE
  5
2AE
330
1F
100
AcDbEntity
  8
PROFILES_OUTSIDE
100
AcDbLine
 10
1807.6682800697
 20
984.9194439124
 30
0.0
 11
1807.6682800697
 21
986.9432622726
 31
0.0
  0
LINE
  5
2AF
330
1F
100
AcDbEntity
  8
PROFILES_OUTSIDE
100
AcDbLine
 10
1819.7702341626
 20
974.4412622726
 30
0.0
 11
1811.1305584531
 21
974.4412622726
 31
0.0
  0
LINE
  5
2B0
330
1F
100
AcDbEntity
  8
PROFILES_OUTSIDE
100
AcDbLine
 10
1821.1082800697
 20
980.6912622726
 30
0.0
 11
1820.7681924326
 21
975.3773929433
 31
0.0
  0
LINE
  5
2B1
330
1F
100
AcDbEntity
  8
PROFILES_OUTSIDE
100
AcDbLine
 10
1831.6682800697
 20
980.6912622726
 30
0.0
 11
1821.1082800697
 21
980.6912622726
 31
0.0
  0
LINE
  5
2B2
330
1F
100
AcDbEntity
  8
PROFILES_OUTSIDE
100
AcDbLine
 10
1832.6682800697
 20
967.9412622726
 30
0.0
 11
1832.6682800697
 21
979.6912622726
 31
0.0
  0
LINE
  5
2B3
330
1F
100
AcDbEntity
  8
PROFILES_OUTSIDE
100
AcDbLine
 10
1763.7182800697
 20
961.9412622726
 30
0.0
 11
1826.6682800697
 21
961.9412622726
 31
0.0
  0
LINE
  5
2B4
330
1F
100
AcDbEntity
  8
PROFILES_OUTSIDE
100
AcDbLine
 10
1751.7182800697
 20
828.710595606
 30
0.0
 11
1751.7182800697
 21
949.9412622726
 31
0.0
  0
LINE
  5
2B5
330
1F
100
AcDbEntity
  8
PROFILES_OUTSIDE
100
AcDbLine
 10
1732.6682800697
 20
715.4734968235
 30
0.0
 11
1732.6682800697
 21
795.7150277218
 31
0.0
  0
LINE
  5
2B6
330
1F
100
AcDbEntity
  8
PROFILES_OUTSIDE
100
AcDbLine
 10
1751.7182800697
 20
561.2472622726
 30
0.0
 11
1751.7182800697
 21
682.4779289393
 31
0.0
  0
LINE
  5
2B7
330
1F
100
AcDbEntity
  8
PROFILES_OUTSIDE
100
AcDbLine
 10
1826.6682800697
 20
549.2472622726
 30
0.0
 11
1763.7182800697
 21
549.2472622726
 31
0.0
  0
LINE
  5
2B8
330
1F
100
AcDbEntity
  8
PROFILES_OUTSIDE
100
AcDbLine
 10
1832.6682800697
 20
531.4972622726
 30
0.0
 11
1832.6682800697
 21
543.2472622726
 31
0.0
  0
LINE
  5
2B9
330
1F
100
AcDbEntity
  8
POCKETS
100
AcDbLine
 10
528.9882800697
 20
70.8112622726
 30
0.0
 11
488.6482800697
 21
70.8112622726
 31
0.0
  0
LINE
  5
2BA
330
1F
100
AcDbEntity
  8
POCKETS
100
AcDbLine
 10
1022.8282800697
 20
1090.1312622726
 30
0.0
 11
1063.1682800697
 21
1090.1312622726
 31
0.0
  0
LINE
  5
2BB
330
1F
100
AcDbEntity
  8
POCKETS
100
AcDbLine
 10
1063.1682800697
 20
1090.1312622726
 30
0.0
 11
1073.1682800697
 21
1090.1312622726
 31
0.0
  0
LINE
  5
2BC
330
1F
100
AcDbEntity
  8
POCKETS
100
AcDbLine
 10
1073.1682800697
 20
1090.1312622726
 30
0.0
 11
1073.1682800697
 21
1103.5112622726
 31
0.0
  0
LINE
  5
2BD
330
1F
100
AcDbEntity
  8
POCKETS
100
AcDbLine
 10
1073.1682800697
 20
1103.5112622726
 30
0.0
 11
1063.1682800697
 21
1103.5112622726
 31
0.0
  0
LINE
  5
2BE
330
1F
100
AcDbEntity
  8
POCKETS
100
AcDbLine
 10
1063.1682800697
 20
1103.5112622726
 30
0.0
 11
559.7882800697
 21
1103.5112622726
 31
0.0
  0
LINE
  5
2BF
330
1F
100
AcDbEntity
  8
POCKETS
100
AcDbLine
 10
559.7882800697
 20
1103.5112622726
 30
0.0
 11
549.7882800697
 21
1103.5112622726
 31
0.0
  0
LINE
  5
2C0
330
1F
100
AcDbEntity
  8
POCKETS
100
AcDbLine
 10
549.7882800697
 20
1103.5112622726
 30
0.0
 11
549.7882800697
 21
1090.1312622726
 31
0.0
  0
LINE
  5
2C1
330
1F
100
AcDbEntity
  8
POCKETS
100
AcDbLine
 10
549.7882800697
 20
1090.1312622726
 30
0.0
 11
559.7882800697
 21
1090.1312622726
 31
0.0
  0
LINE
  5
2C2
330
1F
100
AcDbEntity
  8
POCKETS
100
AcDbLine
 10
559.7882800697
 20
1090.1312622726
 30
0.0
 11
1009.7882800697
 21
1090.1312622726
 31
0.0
  0
LINE
  5
2C3
330
1F
100
AcDbEntity
  8
POCKETS
100
AcDbLine
 10
1009.7882800697
 20
1090.1312622726
 30
0.0
 11
1009.7882800697
 21
70.8112622726
 31
0.0
  0
LINE
  5
2C4
330
1F
100
AcDbEntity
  8
POCKETS
100
AcDbLine
 10
1009.7882800697
 20
70.8112622726
 30
0.0
 11
559.7882800697
 21
70.8112622726
 31
0.0
  0
LINE
  5
2C5
330
1F
100
AcDbEntity
  8
POCKETS
100
AcDbLine
 10
559.7882800697
 20
70.8112622726
 30
0.0
 11
549.7882800697
 21
70.8112622726
 31
0.0
  0
LINE
  5
2C6
330
1F
100
AcDbEntity
  8
POCKETS
100
AcDbLine
 10
549.7882800697
 20
70.8112622726
 30
0.0
 11
549.7882800697
 21
57.4312622726
 31
0.0
  0
LINE
  5
2C7
330
1F
100
AcDbEntity
  8
POCKETS
100
AcDbLine
 10
549.7882800697
 20
57.4312622726
 30
0.0
 11
559.7882800697
 21
57.4312622726
 31
0.0
  0
LINE
  5
2C8
330
1F
100
AcDbEntity
  8
POCKETS
100
AcDbLine
 10
559.7882800697
 20
57.4312622726
 30
0.0
 11
1063.1682800697
 21
57.4312622726
 31
0.0
  0
LINE
  5
2C9
330
1F
100
AcDbEntity
  8
POCKETS
100
AcDbLine
 10
1063.1682800697
 20
57.4312622726
 30
0.0
 11
1073.1682800697
 21
57.4312622726
 31
0.0
  0
LINE
  5
2CA
330
1F
100
AcDbEntity
  8
POCKETS
100
AcDbLine
 10
1073.1682800697
 20
57.4312622726
 30
0.0
 11
1073.1682800697
 21
70.8112622726
 31
0.0
  0
LINE
  5
2CB
330
1F
100
AcDbEntity
  8
POCKETS
100
AcDbLine
 10
1073.1682800697
 20
70.8112622726
 30
0.0
 11
1063.1682800697
 21
70.8112622726
 31
0.0
  0
LINE
  5
2CC
330
1F
100
AcDbEntity
  8
POCKETS
100
AcDbLine
 10
1063.1682800697
 20
70.8112622726
 30
0.0
 11
1022.8282800697
 21
70.8112622726
 31
0.0
  0
LINE
  5
2CD
330
1F
100
AcDbEntity
  8
POCKETS
100
AcDbLine
 10
1022.8282800697
 20
70.8112622726
 30
0.0
 11
1022.8282800697
 21
1090.1312622726
 31
0.0
  0
LINE
  5
2CE
330
1F
100
AcDbEntity
  8
PROFILES_OUTSIDE
100
AcDbLine
 10
1062.8282800697
 20
36.0712622726
 30
0.0
 11
1062.8282800697
 21
105.0366644856
 31
0.0
  0
LINE
  5
2CF
330
1F
100
AcDbEntity
  8
PROFILES_OUTSIDE
100
AcDbLine
 10
566.1282800697
 20
30.0712622726
 30
0.0
 11
1056.8282800697
 21
30.0712622726
 31
0.0
  0
ARC
  5
2D0
330
1F
100
AcDbEntity
  8
PROFILES_OUTSIDE
100
AcDbCircle
 10
522.6482800697
 20
105.0366644856
 30
0.0
 40
6.0
100
AcDbArc
 50
0.0
 51
80.0
  0
ARC
  5
2D1
330
1F
100
AcDbEntity
  8
PROFILES_OUTSIDE
100
AcDbCircle
 10
514.6482800697
 20
118.6323996739
 30
0.0
 40
6.0
100
AcDbArc
 50
180.0
 51
260.0
  0
ARC
  5
2D2
330
1F
100
AcDbEntity
  8
PROFILES_OUTSIDE
100
AcDbCircle
 10
514.6482800697
 20
1042.3101248714
 30
0.0
 40
6.0
100
AcDbArc
 50
100.0
 51
180.0
  0
ARC
  5
2D3
330
1F
100
AcDbEntity
  8
PROFILES_OUTSIDE
100
AcDbCircle
 10
522.6482800697
 20
1055.9058600597
 30
0.0
 40
6.0
100
AcDbArc
 50
280.0
 51
0.0
  0
ARC
  5
2D4
330
1F
100
AcDbEntity
  8
PROFILES_INSIDE
100
AcDbCircle
 10
521.9482800697
 20
865.073225193
 30
0.0
 40
6.00000000000009
100
AcDbArc
 50
280.0
 51
0.0
  0
ARC
  5
2D5
330
1F
100
AcDbEntity
  8
PROFILES_OUTSIDE
100
AcDbCircle
 10
1831.6682800697
 20
485.5172622726
 30
0.0
 40
1.0
100
AcDbArc
 50
0.0
 51
90.0
  0
ARC
  5
2D6
330
1F
100
AcDbEntity
  8
PROFILES_INSIDE
100
AcDbCircle
 10
490.4970973308
 20
1117.0412644949
 30
0.0
 40
0.999999999999922
100
AcDbArc
 50
270.0000629761
 51
342.3995463312
  0
ARC
  5
2D7
330
1F
100
AcDbEntity
  8
PROFILES_INSIDE
100
AcDbCircle
 10
496.3782689789
 20
1115.1755957017
 30
0.0
 40
5.170000000000039
100
AcDbArc
 50
335.1122159835
 51
162.3995463312
  0
ARC
  5
2D8
330
1F
100
AcDbEntity
  8
PROFILES_INSIDE
100
AcDbCircle
 10
501.9753255427
 20
1112.578978872
 30
0.0
 40
1.000045473016826
100
AcDbArc
 50
155.1122159835
 51
180.0
  0
ARC
  5
2D9
330
1F
100
AcDbEntity
  8
PROFILES_INSIDE
100
AcDbCircle
 10
501.9752800697
 20
1106.4635456733
 30
0.0
 40
1.000000000000076
100
AcDbArc
 50
180.0
 51
204.887906855
  0
ARC
  5
2DA
330
1F
100
AcDbEntity
  8
PROFILES_INSIDE
100
AcDbCircle
 10
496.3782703229
 20
1103.8669359809
 30
0.0
 40
5.16999999999996
100
AcDbArc
 50
197.6004799029
 51
24.887906855
  0
ARC
  5
2DB
330
1F
100
AcDbEntity
  8
PROFILES_INSIDE
100
AcDbCircle
 10
490.4970995291
 20
1102.0012644949
 30
0.0
 40
1.000000000000149
100
AcDbArc
 50
17.6004799029
 51
90.0000629761
  0
ARC
  5
2DC
330
1F
100
AcDbEntity
  8
PROFILES_INSIDE
100
AcDbCircle
 10
486.4534628086
 20
1102.0012600504
 30
0.0
 40
0.9999999999999525
100
AcDbArc
 50
90.0000629761
 51
162.3995463312
  0
ARC
  5
2DD
330
1F
100
AcDbEntity
  8
PROFILES_INSIDE
100
AcDbCircle
 10
480.5722911605
 20
1103.8669288436
 30
0.0
 40
5.170000000000093
100
AcDbArc
 50
155.1121228022
 51
342.3995463312
  0
ARC
  5
2DE
330
1F
100
AcDbEntity
  8
PROFILES_INSIDE
100
AcDbCircle
 10
474.9752800697
 20
1106.4635356388
 30
0.0
 40
1.0
100
AcDbArc
 50
335.1121228022
 51
0.0
  0
ARC
  5
2DF
330
1F
100
AcDbEntity
  8
PROFILES_INSIDE
100
AcDbCircle
 10
474.9752800697
 20
1112.5789889064
 30
0.0
 40
0.999998230749668
100
AcDbArc
 50
0.0
 51
24.8878223268
  0
ARC
  5
2E0
330
1F
100
AcDbEntity
  8
PROFILES_INSIDE
100
AcDbCircle
 10
480.5722898165
 20
1115.1755885644
 30
0.0
 40
5.169998313096035
100
AcDbArc
 50
17.6004799029
 51
204.8878223268
  0
ARC
  5
2E1
330
1F
100
AcDbEntity
  8
PROFILES_INSIDE
100
AcDbCircle
 10
486.4534606103
 20
1117.0412600504
 30
0.0
 40
1.000001686904092
100
AcDbArc
 50
197.6004799029
 51
270.0000629761
  0
ARC
  5
2E2
330
1F
100
AcDbEntity
  8
PROFILES_INSIDE
100
AcDbCircle
 10
89.2813255427
 20
1112.578978872
 30
0.0
 40
1.0000454730169
100
AcDbArc
 50
155.1122159835
 51
180.0
  0
ARC
  5
2E3
330
1F
100
AcDbEntity
  8
PROFILES_INSIDE
100
AcDbCircle
 10
83.6842689789
 20
1115.1755957017
 30
0.0
 40
5.169999999999995
100
AcDbArc
 50
335.1122159835
 51
162.3995463312
  0
ARC
  5
2E4
330
1F
100
AcDbEntity
  8
PROFILES_INSIDE
100
AcDbCircle
 10
77.8030973308
 20
1117.0412644949
 30
0.0
 40
0.9999999999999921
100
AcDbArc
 50
270.0000629761
 51
342.3995463312
  0
ARC
  5
2E5
330
1F
100
AcDbEntity
  8
PROFILES_INSIDE
100
AcDbCircle
 10
73.7594606103
 20
1117.0412600504
 30
0.0
 40
1.000000920129525
100
AcDbArc
 50
197.6004799029
 51
270.0000629761
  0
ARC
  5
2E6
330
1F
100
AcDbEntity
  8
PROFILES_INSIDE
100
AcDbCircle
 10
67.8782898165
 20
1115.1755885644
 30
0.0
 40
5.169999079870571
100
AcDbArc
 50
17.6004799029
 51
204.8878223268
  0
ARC
  5
2E7
330
1F
100
AcDbEntity
  8
PROFILES_INSIDE
100
AcDbCircle
 10
62.2812800697
 20
1112.5789889064
 30
0.0
 40
0.9999980773948138
100
AcDbArc
 50
0.0
 51
24.8878223268
  0
ARC
  5
2E8
330
1F
100
AcDbEntity
  8
PROFILES_INSIDE
100
AcDbCircle
 10
62.2812800697
 20
1106.4635356388
 30
0.0
 40
1.000000000000114
100
AcDbArc
 50
335.1121228022
 51
0.0
  0
ARC
  5
2E9
330
1F
100
AcDbEntity
  8
PROFILES_INSIDE
100
AcDbCircle
 10
67.8782911605
 20
1103.8669288436
 30
0.0
 40
5.169999999999957
100
AcDbArc
 50
155.1121228022
 51
342.3995463312
  0
ARC
  5
2EA
330
1F
100
AcDbEntity
  8
PROFILES_INSIDE
100
AcDbCircle
 10
73.7594628086
 20
1102.0012600504
 30
0.0
 40
1.000000000000149
100
AcDbArc
 50
90.0000629761
 51
162.3995463312
  0
ARC
  5
2EB
330
1F
100
AcDbEntity
  8
PROFILES_INSIDE
100
AcDbCircle
 10
77.8030995291
 20
1102.0012644949
 30
0.0
 40
1.000000000000149
100
AcDbArc
 50
17.6004799029
 51
90.0000629761
  0
ARC
  5
2EC
330
1F
100
AcDbEntity
  8
PROFILES_INSIDE
100
AcDbCircle
 10
83.6842703229
 20
1103.8669359809
 30
0.0
 40
5.170000000000056
100
AcDbArc
 50
197.6004799029
 51
24.887906855
  0
ARC
  5
2ED
330
1F
100
AcDbEntity
  8
PROFILES_INSIDE
100
AcDbCircle
 10
89.2812800697
 20
1106.4635456733
 30
0.0
 40
1.000000000000114
100
AcDbArc
 50
180.0
 51
204.887906855
  0
ARC
  5
2EE
330
1F
100
AcDbEntity
  8
PROFILES_INSIDE
100
AcDbCircle
 10
496.3782703229
 20
45.7669359809
 30
0.0
 40
5.170000000000108
100
AcDbArc
 50
197.6004799029
 51
24.887906855
  0
ARC
  5
2EF
330
1F
100
AcDbEntity
  8
PROFILES_INSIDE
100
AcDbCircle
 10
501.9752800697
 20
48.3635456732
 30
0.0
 40
1.0
100
AcDbArc
 50
180.0
 51
204.887906855
  0
ARC
  5
2F0
330
1F
100
AcDbEntity
  8
PROFILES_INSIDE
100
AcDbCircle
 10
501.9753255427
 20
54.478978872
 30
0.0
 40
1.000045473016832
100
AcDbArc
 50
155.1122159835
 51
180.0
  0
ARC
  5
2F1
330
1F
100
AcDbEntity
  8
PROFILES_INSIDE
100
AcDbCircle
 10
496.3782689789
 20
57.0755957017
 30
0.0
 40
5.170000000000051
100
AcDbArc
 50
335.1122159835
 51
162.3995463312
  0
ARC
  5
2F2
330
1F
100
AcDbEntity
  8
PROFILES_INSIDE
100
AcDbCircle
 10
490.4970973308
 20
58.9412644949
 30
0.0
 40
1.00000000000005
100
AcDbArc
 50
270.0000629761
 51
342.3995463312
  0
ARC
  5
2F3
330
1F
100
AcDbEntity
  8
PROFILES_INSIDE
100
AcDbCircle
 10
486.4534606103
 20
58.9412600504
 30
0.0
 40
1.000000766774598
100
AcDbArc
 50
197.6004799029
 51
270.0000629761
  0
ARC
  5
2F4
330
1F
100
AcDbEntity
  8
PROFILES_INSIDE
100
AcDbCircle
 10
480.5722898165
 20
57.0755885644
 30
0.0
 40
5.169999233225333
100
AcDbArc
 50
17.6004799029
 51
204.8878223268
  0
ARC
  5
2F5
330
1F
100
AcDbEntity
  8
PROFILES_INSIDE
100
AcDbCircle
 10
474.9752800697
 20
54.4789889064
 30
0.0
 40
0.999997924039917
100
AcDbArc
 50
0.0
 51
24.8878223268
  0
ARC
  5
2F6
330
1F
100
AcDbEntity
  8
PROFILES_INSIDE
100
AcDbCircle
 10
474.9752800697
 20
48.3635356388
 30
0.0
 40
1.0
100
AcDbArc
 50
335.1121228022
 51
0.0
  0
ARC
  5
2F7
330
1F
100
AcDbEntity
  8
PROFILES_INSIDE
100
AcDbCircle
 10
480.5722911605
 20
45.7669288436
 30
0.0
 40
5.170000000000115
100
AcDbArc
 50
155.1121228022
 51
342.3995463312
  0
ARC
  5
2F8
330
1F
100
AcDbEntity
  8
PROFILES_INSIDE
100
AcDbCircle
 10
486.4534628086
 20
43.9012600504
 30
0.0
 40
0.9999999999998377
100
AcDbArc
 50
90.0000629761
 51
162.3995463312
  0
ARC
  5
2F9
330
1F
100
AcDbEntity
  8
PROFILES_INSIDE
100
AcDbCircle
 10
490.4970995291
 20
43.9012644949
 30
0.0
 40
0.9999999999999308
100
AcDbArc
 50
17.6004799029
 51
90.0000629761
  0
ARC
  5
2FA
330
1F
100
AcDbEntity
  8
PROFILES_INSIDE
100
AcDbCircle
 10
62.2812800697
 20
48.3635356388
 30
0.0
 40
1.000000000000125
100
AcDbArc
 50
335.1121228022
 51
0.0
  0
ARC
  5
2FB
330
1F
100
AcDbEntity
  8
PROFILES_INSIDE
100
AcDbCircle
 10
67.8782911605
 20
45.7669288436
 30
0.0
 40
5.170000000000041
100
AcDbArc
 50
155.1121228022
 51
342.3995463312
  0
ARC
  5
2FC
330
1F
100
AcDbEntity
  8
PROFILES_INSIDE
100
AcDbCircle
 10
73.7594628086
 20
43.9012600504
 30
0.0
 40
0.9999999999999483
100
AcDbArc
 50
90.0000629761
 51
162.3995463312
  0
ARC
  5
2FD
330
1F
100
AcDbEntity
  8
PROFILES_INSIDE
100
AcDbCircle
 10
77.8030995291
 20
43.9012644949
 30
0.0
 40
1.00000000000005
100
AcDbArc
 50
17.6004799029
 51
90.0000629761
  0
ARC
  5
2FE
330
1F
100
AcDbEntity
  8
PROFILES_INSIDE
100
AcDbCircle
 10
83.6842703229
 20
45.7669359809
 30
0.0
 40
5.170000000000026
100
AcDbArc
 50
197.6004799029
 51
24.887906855
  0
ARC
  5
2FF
330
1F
100
AcDbEntity
  8
PROFILES_INSIDE
100
AcDbCircle
 10
89.2812800697
 20
48.3635456732
 30
0.0
 40
1.000000000000114
100
AcDbArc
 50
180.0
 51
204.887906855
  0
ARC
  5
300
330
1F
100
AcDbEntity
  8
PROFILES_INSIDE
100
AcDbCircle
 10
89.2813255427
 20
54.478978872
 30
0.0
 40
1.000045473016797
100
AcDbArc
 50
155.1122159835
 51
180.0
  0
ARC
  5
301
330
1F
100
AcDbEntity
  8
PROFILES_INSIDE
100
AcDbCircle
 10
83.6842689789
 20
57.0755957017
 30
0.0
 40
5.170000000000129
100
AcDbArc
 50
335.1122159835
 51
162.3995463312
  0
ARC
  5
302
330
1F
100
AcDbEntity
  8
PROFILES_INSIDE
100
AcDbCircle
 10
77.8030973308
 20
58.9412644949
 30
0.0
 40
1.00000000000005
100
AcDbArc
 50
270.0000629761
 51
342.3995463312
  0
ARC
  5
303
330
1F
100
AcDbEntity
  8
PROFILES_INSIDE
100
AcDbCircle
 10
73.7594606103
 20
58.9412600504
 30
0.0
 40
1.000000153354919
100
AcDbArc
 50
197.6004799029
 51
270.0000629761
  0
ARC
  5
304
330
1F
100
AcDbEntity
  8
PROFILES_INSIDE
100
AcDbCircle
 10
67.8782898165
 20
57.0755885644
 30
0.0
 40
5.169999846645053
100
AcDbArc
 50
17.6004799029
 51
204.8878223268
  0
ARC
  5
305
330
1F
100
AcDbEntity
  8
PROFILES_INSIDE
100
AcDbCircle
 10
62.2812800697
 20
54.4789889064
 30
0.0
 40
0.9999982307498101
100
AcDbArc
 50
0.0
 51
24.8878223268
  0
ARC
  5
306
330
1F
100
AcDbEntity
  8
PROFILES_INSIDE
100
AcDbCircle
 10
1024.6770973308
 20
1117.0412644949
 30
0.0
 40
1.000000000000149
100
AcDbArc
 50
270.0000629761
 51
342.3995463312
  0
ARC
  5
307
330
1F
100
AcDbEntity
  8
PROFILES_INSIDE
100
AcDbCircle
 10
1030.5582689789
 20
1115.1755957017
 30
0.0
 40
5.169999999999901
100
AcDbArc
 50
335.1122159835
 51
162.3995463312
  0
ARC
  5
308
330
1F
100
AcDbEntity
  8
PROFILES_INSIDE
100
AcDbCircle
 10
1036.1553255427
 20
1112.578978872
 30
0.0
 40
1.000045473016747
100
AcDbArc
 50
155.1122159835
 51
180.0
  0
ARC
  5
309
330
1F
100
AcDbEntity
  8
PROFILES_INSIDE
100
AcDbCircle
 10
1036.1552800697
 20
1106.4635456733
 30
0.0
 40
1.0
100
AcDbArc
 50
180.0
 51
204.887906855
  0
ARC
  5
30A
330
1F
100
AcDbEntity
  8
PROFILES_INSIDE
100
AcDbCircle
 10
1030.5582703229
 20
1103.8669359809
 30
0.0
 40
5.170000000000245
100
AcDbArc
 50
197.6004799029
 51
24.887906855
  0
ARC
  5
30B
330
1F
100
AcDbEntity
  8
PROFILES_INSIDE
100
AcDbCircle
 10
1024.6770995291
 20
1102.0012644949
 30
0.0
 40
0.9999999999998359
100
AcDbArc
 50
17.6004799029
 51
90.0000629761
  0
ARC
  5
30C
330
1F
100
AcDbEntity
  8
PROFILES_INSIDE
100
AcDbCircle
 10
1020.6334628086
 20
1102.0012600504
 30
0.0
 40
0.9999999999999525
100
AcDbArc
 50
90.0000629761
 51
162.3995463312
  0
ARC
  5
30D
330
1F
100
AcDbEntity
  8
PROFILES_INSIDE
100
AcDbCircle
 10
1014.7522911605
 20
1103.8669288436
 30
0.0
 40
5.170000000000079
100
AcDbArc
 50
155.1121228022
 51
342.3995463312
  0
ARC
  5
30E
330
1F
100
AcDbEntity
  8
PROFILES_INSIDE
100
AcDbCircle
 10
1009.1552800697
 20
1106.4635356388
 30
0.0
 40
0.9999999999998863
100
AcDbArc
 50
335.1121228022
 51
0.0
  0
ARC
  5
30F
330
1F
100
AcDbEntity
  8
PROFILES_INSIDE
100
AcDbCircle
 10
1009.1552800697
 20
1112.5789889065
 30
0.0
 40
0.9999982307496111
100
AcDbArc
 50
0.0
 51
24.8878223268
  0
ARC
  5
310
330
1F
100
AcDbEntity
  8
PROFILES_INSIDE
100
AcDbCircle
 10
1014.7522898165
 20
1115.1755885644
 30
0.0
 40
5.169998313095842
100
AcDbArc
 50
17.6004799029
 51
204.8878223268
  0
ARC
  5
311
330
1F
100
AcDbEntity
  8
PROFILES_INSIDE
100
AcDbCircle
 10
1020.6334606103
 20
1117.0412600504
 30
0.0
 40
1.000001686904021
100
AcDbArc
 50
197.6004799029
 51
270.0000629761
  0
ARC
  5
312
330
1F
100
AcDbEntity
  8
PROFILES_INSIDE
100
AcDbCircle
 10
623.6059255427
 20
1112.578978872
 30
0.0
 40
1.00004547301685
100
AcDbArc
 50
155.1122159835
 51
180.0
  0
ARC
  5
313
330
1F
100
AcDbEntity
  8
PROFILES_INSIDE
100
AcDbCircle
 10
618.0088689789
 20
1115.1755957017
 30
0.0
 40
5.170000000000005
100
AcDbArc
 50
335.1122159835
 51
162.3995463312
  0
ARC
  5
314
330
1F
100
AcDbEntity
  8
PROFILES_INSIDE
100
AcDbCircle
 10
612.1276973308
 20
1117.0412644949
 30
0.0
 40
1.000000000000149
100
AcDbArc
 50
270.0000629761
 51
342.3995463312
  0
ARC
  5
315
330
1F
100
AcDbEntity
  8
PROFILES_INSIDE
100
AcDbCircle
 10
608.0840606103
 20
1117.0412600504
 30
0.0
 40
1.000000920129363
100
AcDbArc
 50
197.6004799029
 51
270.0000629761
  0
ARC
  5
316
330
1F
100
AcDbEntity
  8
PROFILES_INSIDE
100
AcDbCircle
 10
602.2028898165
 20
1115.1755885644
 30
0.0
 40
5.169999079870609
100
AcDbArc
 50
17.6004799029
 51
204.8878223268
  0
ARC
  5
317
330
1F
100
AcDbEntity
  8
PROFILES_INSIDE
100
AcDbCircle
 10
596.6058800697
 20
1112.5789889064
 30
0.0
 40
0.9999980773947073
100
AcDbArc
 50
0.0
 51
24.8878223268
  0
ARC
  5
318
330
1F
100
AcDbEntity
  8
PROFILES_INSIDE
100
AcDbCircle
 10
596.6058800697
 20
1106.4635356388
 30
0.0
 40
0.9999999999998882
100
AcDbArc
 50
335.1121228022
 51
0.0
  0
ARC
  5
319
330
1F
100
AcDbEntity
  8
PROFILES_INSIDE
100
AcDbCircle
 10
602.2028911605
 20
1103.8669288436
 30
0.0
 40
5.170000000000147
100
AcDbArc
 50
155.1121228022
 51
342.3995463312
  0
ARC
  5
31A
330
1F
100
AcDbEntity
  8
PROFILES_INSIDE
100
AcDbCircle
 10
608.0840628086
 20
1102.0012600504
 30
0.0
 40
0.999999999999922
100
AcDbArc
 50
90.0000629761
 51
162.3995463312
  0
ARC
  5
31B
330
1F
100
AcDbEntity
  8
PROFILES_INSIDE
100
AcDbCircle
 10
612.1276995291
 20
1102.0012644949
 30
0.0
 40
0.9999999999997276
100
AcDbArc
 50
17.6004799029
 51
90.0000629761
  0
ARC
  5
31C
330
1F
100
AcDbEntity
  8
PROFILES_INSIDE
100
AcDbCircle
 10
618.0088703229
 20
1103.8669359809
 30
0.0
 40
5.170000000000137
100
AcDbArc
 50
197.6004799029
 51
24.887906855
  0
ARC
  5
31D
330
1F
100
AcDbEntity
  8
PROFILES_INSIDE
100
AcDbCircle
 10
623.6058800697
 20
1106.4635456733
 30
0.0
 40
1.0
100
AcDbArc
 50
180.0
 51
204.887906855
  0
ARC
  5
31E
330
1F
100
AcDbEntity
  8
PROFILES_INSIDE
100
AcDbCircle
 10
1030.5582703229
 20
45.7669359809
 30
0.0
 40
5.170000000000215
100
AcDbArc
 50
197.6004799029
 51
24.887906855
  0
ARC
  5
31F
330
1F
100
AcDbEntity
  8
PROFILES_INSIDE
100
AcDbCircle
 10
1036.1552800697
 20
48.3635456732
 30
0.0
 40
1.0
100
AcDbArc
 50
180.0
 51
204.887906855
  0
ARC
  5
320
330
1F
100
AcDbEntity
  8
PROFILES_INSIDE
100
AcDbCircle
 10
1036.1553255427
 20
54.478978872
 30
0.0
 40
1.000045473016619
100
AcDbArc
 50
155.1122159835
 51
180.0
  0
ARC
  5
321
330
1F
100
AcDbEntity
  8
PROFILES_INSIDE
100
AcDbCircle
 10
1030.5582689789
 20
57.0755957017
 30
0.0
 40
5.170000000000224
100
AcDbArc
 50
335.1122159835
 51
162.3995463312
  0
ARC
  5
322
330
1F
100
AcDbEntity
  8
PROFILES_INSIDE
100
AcDbCircle
 10
1024.6770973308
 20
58.9412644949
 30
0.0
 40
0.9999999999999362
100
AcDbArc
 50
270.0000629761
 51
342.3995463312
  0
ARC
  5
323
330
1F
100
AcDbEntity
  8
PROFILES_INSIDE
100
AcDbCircle
 10
1020.6334606103
 20
58.9412600504
 30
0.0
 40
1.000000766774598
100
AcDbArc
 50
197.6004799029
 51
270.0000629761
  0
ARC
  5
324
330
1F
100
AcDbEntity
  8
PROFILES_INSIDE
100
AcDbCircle
 10
1014.7522898165
 20
57.0755885644
 30
0.0
 40
5.169999233225312
100
AcDbArc
 50
17.6004799029
 51
204.8878223268
  0
ARC
  5
325
330
1F
100
AcDbEntity
  8
PROFILES_INSIDE
100
AcDbCircle
 10
1009.1552800697
 20
54.4789889064
 30
0.0
 40
0.9999979240398034
100
AcDbArc
 50
0.0
 51
24.8878223268
  0
ARC
  5
326
330
1F
100
AcDbEntity
  8
PROFILES_INSIDE
100
AcDbCircle
 10
1009.1552800697
 20
48.3635356388
 30
0.0
 40
0.9999999999998863
100
AcDbArc
 50
335.1121228022
 51
0.0
  0
ARC
  5
327
330
1F
100
AcDbEntity
  8
PROFILES_INSIDE
100
AcDbCircle
 10
1014.7522911605
 20
45.7669288436
 30
0.0
 40
5.170000000000115
100
AcDbArc
 50
155.1121228022
 51
342.3995463312
  0
ARC
  5
328
330
1F
100
AcDbEntity
  8
PROFILES_INSIDE
100
AcDbCircle
 10
1020.6334628086
 20
43.9012600504
 30
0.0
 40
1.00000000000005
100
AcDbArc
 50
90.0000629761
 51
162.3995463312
  0
ARC
  5
329
330
1F
100
AcDbEntity
  8
PROFILES_INSIDE
100
AcDbCircle
 10
1024.6770995291
 20
43.9012644949
 30
0.0
 40
1.00000000000005
100
AcDbArc
 50
17.6004799029
 51
90.0000629761
  0
ARC
  5
32A
330
1F
100
AcDbEntity
  8
PROFILES_INSIDE
100
AcDbCircle
 10
596.6058800697
 20
48.3635356388
 30
0.0
 40
1.000000000000114
100
AcDbArc
 50
335.1121228022
 51
0.0
  0
ARC
  5
32B
330
1F
100
AcDbEntity
  8
PROFILES_INSIDE
100
AcDbCircle
 10
602.2028911605
 20
45.7669288436
 30
0.0
 40
5.170000000000154
100
AcDbArc
 50
155.1121228022
 51
342.3995463312
  0
ARC
  5
32C
330
1F
100
AcDbEntity
  8
PROFILES_INSIDE
100
AcDbCircle
 10
608.0840628086
 20
43.9012600504
 30
0.0
 40
1.000000000000054
100
AcDbArc
 50
90.0000629761
 51
162.3995463312
  0
ARC
  5
32D
330
1F
100
AcDbEntity
  8
PROFILES_INSIDE
100
AcDbCircle
 10
612.1276995291
 20
43.9012644949
 30
0.0
 40
1.000000000000019
100
AcDbArc
 50
17.6004799029
 51
90.0000629761
  0
ARC
  5
32E
330
1F
100
AcDbEntity
  8
PROFILES_INSIDE
100
AcDbCircle
 10
618.0088703229
 20
45.7669359809
 30
0.0
 40
5.170000000000075
100
AcDbArc
 50
197.6004799029
 51
24.887906855
  0
ARC
  5
32F
330
1F
100
AcDbEntity
  8
PROFILES_INSIDE
100
AcDbCircle
 10
623.6058800697
 20
48.3635456732
 30
0.0
 40
1.000000000000114
100
AcDbArc
 50
180.0
 51
204.887906855
  0
ARC
  5
330
330
1F
100
AcDbEntity
  8
PROFILES_INSIDE
100
AcDbCircle
 10
623.6059255427
 20
54.478978872
 30
0.0
 40
1.000045473016826
100
AcDbArc
 50
155.1122159835
 51
180.0
  0
ARC
  5
331
330
1F
100
AcDbEntity
  8
PROFILES_INSIDE
100
AcDbCircle
 10
618.0088689789
 20
57.0755957017
 30
0.0
 40
5.170000000000006
100
AcDbArc
 50
335.1122159835
 51
162.3995463312
  0
ARC
  5
332
330
1F
100
AcDbEntity
  8
PROFILES_INSIDE
100
AcDbCircle
 10
612.1276973308
 20
58.9412644949
 30
0.0
 40
1.00000000000005
100
AcDbArc
 50
270.0000629761
 51
342.3995463312
  0
ARC
  5
333
330
1F
100
AcDbEntity
  8
PROFILES_INSIDE
100
AcDbCircle
 10
608.0840606103
 20
58.9412600504
 30
0.0
 40
1.000000153354776
100
AcDbArc
 50
197.6004799029
 51
270.0000629761
  0
ARC
  5
334
330
1F
100
AcDbEntity
  8
PROFILES_INSIDE
100
AcDbCircle
 10
602.2028898165
 20
57.0755885644
 30
0.0
 40
5.169999846645101
100
AcDbArc
 50
17.6004799029
 51
204.8878223268
  0
ARC
  5
335
330
1F
100
AcDbEntity
  8
PROFILES_INSIDE
100
AcDbCircle
 10
596.6058800697
 20
54.4789889064
 30
0.0
 40
0.9999982307498385
100
AcDbArc
 50
0.0
 51
24.8878223268
  0
ARC
  5
336
330
1F
100
AcDbEntity
  8
PROFILES_OUTSIDE
100
AcDbCircle
 10
566.1282800697
 20
1124.8712622726
 30
0.0
 40
6.0
100
AcDbArc
 50
90.0
 51
180.0
  0
ARC
  5
337
330
1F
100
AcDbEntity
  8
PROFILES_OUTSIDE
100
AcDbCircle
 10
1056.8282800697
 20
1124.8712622726
 30
0.0
 40
6.0
100
AcDbArc
 50
0.0
 51
90.0
  0
ARC
  5
338
330
1F
100
AcDbEntity
  8
PROFILES_OUTSIDE
100
AcDbCircle
 10
1056.8282800697
 20
1055.9058600597
 30
0.0
 40
6.0
100
AcDbArc
 50
280.0
 51
0.0
  0
ARC
  5
339
330
1F
100
AcDbEntity
  8
PROFILES_OUTSIDE
100
AcDbCircle
 10
1048.8282800697
 20
1042.3101248714
 30
0.0
 40
5.999999999999998
100
AcDbArc
 50
100.0
 51
180.0
  0
ARC
  5
33A
330
1F
100
AcDbEntity
  8
PROFILES_OUTSIDE
100
AcDbCircle
 10
1048.8282800697
 20
118.6323996739
 30
0.0
 40
6.000000000000227
100
AcDbArc
 50
180.0
 51
260.0
  0
ARC
  5
33B
330
1F
100
AcDbEntity
  8
PROFILES_OUTSIDE
100
AcDbCircle
 10
1056.8282800697
 20
105.0366644856
 30
0.0
 40
6.0
100
AcDbArc
 50
0.0
 51
80.0
  0
ARC
  5
33C
330
1F
100
AcDbEntity
  8
PROFILES_OUTSIDE
100
AcDbCircle
 10
1056.8282800697
 20
36.0712622726
 30
0.0
 40
6.000000000000004
100
AcDbArc
 50
270.0
 51
0.0
  0
ARC
  5
33D
330
1F
100
AcDbEntity
  8
PROFILES_OUTSIDE
100
AcDbCircle
 10
566.1282800697
 20
36.0712622726
 30
0.0
 40
6.000000000000007
100
AcDbArc
 50
180.0
 51
270.0
  0
ARC
  5
33E
330
1F
100
AcDbEntity
  8
PROFILES_OUTSIDE
100
AcDbCircle
 10
1763.7182800697
 20
455.7672622726
 30
0.0
 40
12.00000000000006
100
AcDbArc
 50
90.0
 51
180.0
  0
ARC
  5
33F
330
1F
100
AcDbEntity
  8
PROFILES_OUTSIDE
100
AcDbCircle
 10
1763.7182800697
 20
67.0732622726
 30
0.0
 40
12.0
100
AcDbArc
 50
180.0
 51
270.0
  0
ARC
  5
340
330
1F
100
AcDbEntity
  8
PROFILES_OUTSIDE
100
AcDbCircle
 10
1831.6682800697
 20
37.3232622726
 30
0.0
 40
1.0
100
AcDbArc
 50
270.0
 51
0.0
  0
ARC
  5
341
330
1F
100
AcDbEntity
  8
PROFILES_OUTSIDE
100
AcDbCircle
 10
1595.5663259768
 20
481.2672622726
 30
0.0
 40
1.00000000000016
100
AcDbArc
 50
183.6619355755
 51
270.0
  0
ARC
  5
342
330
1F
100
AcDbEntity
  8
PROFILES_OUTSIDE
100
AcDbCircle
 10
1604.2060016863
 20
479.2672622726
 30
0.0
 40
1.0
100
AcDbArc
 50
65.1121079736
 51
90.0
  0
ARC
  5
343
330
1F
100
AcDbEntity
  8
PROFILES_OUTSIDE
100
AcDbCircle
 10
1606.8026099301
 20
484.8642726914
 30
0.0
 40
5.17000000000008
100
AcDbArc
 50
245.1121079736
 51
72.3995332141
  0
ARC
  5
344
330
1F
100
AcDbEntity
  8
PROFILES_OUTSIDE
100
AcDbCircle
 10
1608.6682800697
 20
490.7454439124
 30
0.0
 40
1.0
100
AcDbArc
 50
180.0
 51
252.3995332141
  0
ARC
  5
345
330
1F
100
AcDbEntity
  8
PROFILES_OUTSIDE
100
AcDbCircle
 10
1670.6682800697
 20
480.7692622726
 30
0.0
 40
12.0
100
AcDbArc
 50
0.0
 51
90.0
  0
ARC
  5
346
330
1F
100
AcDbEntity
  8
PROFILES_OUTSIDE
100
AcDbCircle
 10
1694.6682800697
 20
346.536595606
 30
0.0
 40
12.0
100
AcDbArc
 50
180.0
 51
270.0
  0
ARC
  5
347
330
1F
100
AcDbEntity
  8
PROFILES_OUTSIDE
100
AcDbCircle
 10
1720.6682800697
 20
346.536595606
 30
0.0
 40
12.00000000000023
100
AcDbArc
 50
270.0
 51
0.0
  0
ARC
  5
348
330
1F
100
AcDbEntity
  8
PROFILES_OUTSIDE
100
AcDbCircle
 10
1744.6682800697
 20
480.7692622726
 30
0.0
 40
12.00000000000006
100
AcDbArc
 50
90.0
 51
180.0
  0
ARC
  5
349
330
1F
100
AcDbEntity
  8
PROFILES_OUTSIDE
100
AcDbCircle
 10
1806.6682800697
 20
490.7454439124
 30
0.0
 40
0.9999999999999367
100
AcDbArc
 50
287.6004667859
 51
0.0
  0
ARC
  5
34A
330
1F
100
AcDbEntity
  8
PROFILES_OUTSIDE
100
AcDbCircle
 10
1808.5339502093
 20
484.8642726914
 30
0.0
 40
5.170000000000016
100
AcDbArc
 50
107.6004667859
 51
294.8878920264
  0
ARC
  5
34B
330
1F
100
AcDbEntity
  8
PROFILES_OUTSIDE
100
AcDbCircle
 10
1811.1305584531
 20
479.2672622726
 30
0.0
 40
1.0
100
AcDbArc
 50
90.0
 51
114.8878920264
  0
ARC
  5
34C
330
1F
100
AcDbEntity
  8
PROFILES_OUTSIDE
100
AcDbCircle
 10
1819.7702341626
 20
481.2672622726
 30
0.0
 40
1.00000000000016
100
AcDbArc
 50
270.0
 51
356.3380644245
  0
ARC
  5
34D
330
1F
100
AcDbEntity
  8
PROFILES_OUTSIDE
100
AcDbCircle
 10
1826.6682800697
 20
473.7672622726
 30
0.0
 40
6.000000000000057
100
AcDbArc
 50
270.0
 51
0.0
  0
ARC
  5
34E
330
1F
100
AcDbEntity
  8
PROFILES_OUTSIDE
100
AcDbCircle
 10
1583.6682800697
 20
37.3232622726
 30
0.0
 40
0.9999999999998863
100
AcDbArc
 50
180.0
 51
270.0
  0
ARC
  5
34F
330
1F
100
AcDbEntity
  8
PROFILES_OUTSIDE
100
AcDbCircle
 10
1732.6682800697
 20
334.536595606
 30
0.0
 40
19.04999999999995
100
AcDbArc
 50
300.0
 51
0.0
  0
ARC
  5
350
330
1F
100
AcDbEntity
  8
PROFILES_OUTSIDE
100
AcDbCircle
 10
1751.7182800697
 20
301.5410277218
 30
0.0
 40
19.05000000000001
100
AcDbArc
 50
120.0
 51
180.0
  0
ARC
  5
351
330
1F
100
AcDbEntity
  8
PROFILES_OUTSIDE
100
AcDbCircle
 10
1751.7182800697
 20
221.2994968235
 30
0.0
 40
19.04999999999997
100
AcDbArc
 50
180.0
 51
240.0
  0
ARC
  5
352
330
1F
100
AcDbEntity
  8
PROFILES_OUTSIDE
100
AcDbCircle
 10
1732.6682800697
 20
188.3039289393
 30
0.0
 40
19.04999999999995
100
AcDbArc
 50
0.0
 51
60.0
  0
ARC
  5
353
330
1F
100
AcDbEntity
  8
PROFILES_OUTSIDE
100
AcDbCircle
 10
1826.6682800697
 20
49.0732622726
 30
0.0
 40
6.0
100
AcDbArc
 50
0.0
 51
90.0
  0
ARC
  5
354
330
1F
100
AcDbEntity
  8
PROFILES_OUTSIDE
100
AcDbCircle
 10
1651.6182800697
 20
67.0732622726
 30
0.0
 40
12.00000000000001
100
AcDbArc
 50
270.0
 51
0.0
  0
ARC
  5
355
330
1F
100
AcDbEntity
  8
PROFILES_OUTSIDE
100
AcDbCircle
 10
1819.7702341626
 20
41.5732622726
 30
0.0
 40
1.00000000000016
100
AcDbArc
 50
3.6619355755
 51
90.0
  0
ARC
  5
356
330
1F
100
AcDbEntity
  8
PROFILES_OUTSIDE
100
AcDbCircle
 10
1811.1305584531
 20
43.5732622726
 30
0.0
 40
1.000000000000083
100
AcDbArc
 50
245.1121079736
 51
270.0
  0
ARC
  5
357
330
1F
100
AcDbEntity
  8
PROFILES_OUTSIDE
100
AcDbCircle
 10
1808.5339502093
 20
37.9762518538
 30
0.0
 40
5.169999999999941
100
AcDbArc
 50
65.1121079736
 51
252.3995332141
  0
ARC
  5
358
330
1F
100
AcDbEntity
  8
PROFILES_OUTSIDE
100
AcDbCircle
 10
1806.6682800697
 20
32.0950806329
 30
0.0
 40
0.9999999999999638
100
AcDbArc
 50
0.0
 51
72.3995332141
  0
ARC
  5
359
330
1F
100
AcDbEntity
  8
PROFILES_OUTSIDE
100
AcDbCircle
 10
1744.6682800697
 20
42.0712622726
 30
0.0
 40
12.00000000000001
100
AcDbArc
 50
180.0
 51
270.0
  0
ARC
  5
35A
330
1F
100
AcDbEntity
  8
PROFILES_OUTSIDE
100
AcDbCircle
 10
1720.6682800697
 20
176.3039289393
 30
0.0
 40
12.00000000000023
100
AcDbArc
 50
0.0
 51
90.0
  0
ARC
  5
35B
330
1F
100
AcDbEntity
  8
PROFILES_OUTSIDE
100
AcDbCircle
 10
1694.6682800697
 20
176.3039289393
 30
0.0
 40
12.0
100
AcDbArc
 50
90.0
 51
180.0
  0
ARC
  5
35C
330
1F
100
AcDbEntity
  8
PROFILES_OUTSIDE
100
AcDbCircle
 10
1670.6682800697
 20
42.0712622726
 30
0.0
 40
12.00000000000001
100
AcDbArc
 50
270.0
 51
0.0
  0
ARC
  5
35D
330
1F
100
AcDbEntity
  8
PROFILES_OUTSIDE
100
AcDbCircle
 10
1608.6682800697
 20
32.0950806329
 30
0.0
 40
1.0
100
AcDbArc
 50
107.6004667859
 51
180.0
  0
ARC
  5
35E
330
1F
100
AcDbEntity
  8
PROFILES_OUTSIDE
100
AcDbCircle
 10
1606.8026099301
 20
37.9762518538
 30
0.0
 40
5.170000000000152
100
AcDbArc
 50
287.6004667859
 51
114.8878920264
  0
ARC
  5
35F
330
1F
100
AcDbEntity
  8
PROFILES_OUTSIDE
100
AcDbCircle
 10
1604.2060016863
 20
43.5732622726
 30
0.0
 40
0.9999999999999867
100
AcDbArc
 50
270.0
 51
294.8878920264
  0
ARC
  5
360
330
1F
100
AcDbEntity
  8
PROFILES_OUTSIDE
100
AcDbCircle
 10
1595.5663259768
 20
41.5732622726
 30
0.0
 40
1.000000000000153
100
AcDbArc
 50
90.0
 51
176.3380644245
  0
ARC
  5
361
330
1F
100
AcDbEntity
  8
PROFILES_OUTSIDE
100
AcDbCircle
 10
1588.6682800697
 20
49.0732622726
 30
0.0
 40
6.0
100
AcDbArc
 50
90.0
 51
180.0
  0
ARC
  5
362
330
1F
100
AcDbEntity
  8
PROFILES_OUTSIDE
100
AcDbCircle
 10
1651.6182800697
 20
455.7672622726
 30
0.0
 40
12.0
100
AcDbArc
 50
0.0
 51
90.0
  0
ARC
  5
363
330
1F
100
AcDbEntity
  8
PROFILES_OUTSIDE
100
AcDbCircle
 10
1682.6682800697
 20
188.3039289393
 30
0.0
 40
19.04999999999995
100
AcDbArc
 50
120.0
 51
180.0
  0
ARC
  5
364
330
1F
100
AcDbEntity
  8
PROFILES_OUTSIDE
100
AcDbCircle
 10
1663.6182800697
 20
221.2994968235
 30
0.0
 40
19.04999999999997
100
AcDbArc
 50
300.0
 51
0.0
  0
ARC
  5
365
330
1F
100
AcDbEntity
  8
PROFILES_OUTSIDE
100
AcDbCircle
 10
1663.6182800697
 20
301.5410277218
 30
0.0
 40
19.04999999999997
100
AcDbArc
 50
0.0
 51
60.0
  0
ARC
  5
366
330
1F
100
AcDbEntity
  8
PROFILES_OUTSIDE
100
AcDbCircle
 10
1682.6682800697
 20
334.536595606
 30
0.0
 40
19.04999999999995
100
AcDbArc
 50
180.0
 51
240.0
  0
ARC
  5
367
330
1F
100
AcDbEntity
  8
PROFILES_OUTSIDE
100
AcDbCircle
 10
1588.6682800697
 20
473.7672622726
 30
0.0
 40
5.999999999999886
100
AcDbArc
 50
180.0
 51
270.0
  0
ARC
  5
368
330
1F
100
AcDbEntity
  8
PROFILES_OUTSIDE
100
AcDbCircle
 10
1583.6682800697
 20
485.5172622726
 30
0.0
 40
1.000000000000114
100
AcDbArc
 50
90.0
 51
180.0
  0
ARC
  5
369
330
1F
100
AcDbEntity
  8
PROFILES_OUTSIDE
100
AcDbCircle
 10
1583.6682800697
 20
531.4972622726
 30
0.0
 40
1.0
100
AcDbArc
 50
180.0
 51
270.0
  0
ARC
  5
36A
330
1F
100
AcDbEntity
  8
PROFILES_OUTSIDE
100
AcDbCircle
 10
1651.6182800697
 20
561.2472622726
 30
0.0
 40
12.0
100
AcDbArc
 50
270.0
 51
0.0
  0
ARC
  5
36B
330
1F
100
AcDbEntity
  8
PROFILES_OUTSIDE
100
AcDbCircle
 10
1651.6182800697
 20
949.9412622726
 30
0.0
 40
12.0
100
AcDbArc
 50
0.0
 51
90.0
  0
ARC
  5
36C
330
1F
100
AcDbEntity
  8
PROFILES_OUTSIDE
100
AcDbCircle
 10
1583.6682800697
 20
979.6912622726
 30
0.0
 40
0.9999999999998863
100
AcDbArc
 50
90.0
 51
180.0
  0
ARC
  5
36D
330
1F
100
AcDbEntity
  8
PROFILES_OUTSIDE
100
AcDbCircle
 10
1819.7702341626
 20
535.7472622726
 30
0.0
 40
1.000000000000156
100
AcDbArc
 50
3.6619355755
 51
90.0
  0
ARC
  5
36E
330
1F
100
AcDbEntity
  8
PROFILES_OUTSIDE
100
AcDbCircle
 10
1811.1305584531
 20
537.7472622726
 30
0.0
 40
1.0
100
AcDbArc
 50
245.1121079736
 51
270.0
  0
ARC
  5
36F
330
1F
100
AcDbEntity
  8
PROFILES_OUTSIDE
100
AcDbCircle
 10
1808.5339502093
 20
532.1502518538
 30
0.0
 40
5.170000000000138
100
AcDbArc
 50
65.1121079736
 51
252.3995332141
  0
ARC
  5
370
330
1F
100
AcDbEntity
  8
PROFILES_OUTSIDE
100
AcDbCircle
 10
1806.6682800697
 20
526.2690806329
 30
0.0
 40
0.9999999999999909
100
AcDbArc
 50
0.0
 51
72.3995332141
  0
ARC
  5
371
330
1F
100
AcDbEntity
  8
PROFILES_OUTSIDE
100
AcDbCircle
 10
1744.6682800697
 20
536.2452622726
 30
0.0
 40
12.00000000000011
100
AcDbArc
 50
180.0
 51
270.0
  0
ARC
  5
372
330
1F
100
AcDbEntity
  8
PROFILES_OUTSIDE
100
AcDbCircle
 10
1720.6682800697
 20
670.4779289393
 30
0.0
 40
12.00000000000023
100
AcDbArc
 50
0.0
 51
90.0
  0
ARC
  5
373
330
1F
100
AcDbEntity
  8
PROFILES_OUTSIDE
100
AcDbCircle
 10
1694.6682800697
 20
670.4779289393
 30
0.0
 40
12.0
100
AcDbArc
 50
90.0
 51
180.0
  0
ARC
  5
374
330
1F
100
AcDbEntity
  8
PROFILES_OUTSIDE
100
AcDbCircle
 10
1670.6682800697
 20
536.2452622726
 30
0.0
 40
12.00000000000011
100
AcDbArc
 50
270.0
 51
0.0
  0
ARC
  5
375
330
1F
100
AcDbEntity
  8
PROFILES_OUTSIDE
100
AcDbCircle
 10
1608.6682800697
 20
526.2690806329
 30
0.0
 40
1.0
100
AcDbArc
 50
107.6004667859
 51
180.0
  0
ARC
  5
376
330
1F
100
AcDbEntity
  8
PROFILES_OUTSIDE
100
AcDbCircle
 10
1606.8026099301
 20
532.1502518538
 30
0.0
 40
5.17000000000007
100
AcDbArc
 50
287.6004667859
 51
114.8878920264
  0
ARC
  5
377
330
1F
100
AcDbEntity
  8
PROFILES_OUTSIDE
100
AcDbCircle
 10
1604.2060016863
 20
537.7472622726
 30
0.0
 40
1.0
100
AcDbArc
 50
270.0
 51
294.8878920264
  0
ARC
  5
378
330
1F
100
AcDbEntity
  8
PROFILES_OUTSIDE
100
AcDbCircle
 10
1595.5663259768
 20
535.7472622726
 30
0.0
 40
1.000000000000156
100
AcDbArc
 50
90.0
 51
176.3380644245
  0
ARC
  5
379
330
1F
100
AcDbEntity
  8
PROFILES_OUTSIDE
100
AcDbCircle
 10
1588.6682800697
 20
543.2472622726
 30
0.0
 40
6.0
100
AcDbArc
 50
90.0
 51
180.0
  0
ARC
  5
37A
330
1F
100
AcDbEntity
  8
PROFILES_OUTSIDE
100
AcDbCircle
 10
1831.6682800697
 20
979.6912622726
 30
0.0
 40
1.0
100
AcDbArc
 50
0.0
 51
90.0
  0
ARC
  5
37B
330
1F
100
AcDbEntity
  8
PROFILES_OUTSIDE
100
AcDbCircle
 10
1682.6682800697
 20
682.4779289393
 30
0.0
 40
19.04999999999995
100
AcDbArc
 50
120.0
 51
180.0
  0
ARC
  5
37C
330
1F
100
AcDbEntity
  8
PROFILES_OUTSIDE
100
AcDbCircle
 10
1663.6182800697
 20
715.4734968235
 30
0.0
 40
19.05000000000001
100
AcDbArc
 50
300.0
 51
0.0
  0
ARC
  5
37D
330
1F
100
AcDbEntity
  8
PROFILES_OUTSIDE
100
AcDbCircle
 10
1663.6182800697
 20
795.7150277218
 30
0.0
 40
19.05000000000011
100
AcDbArc
 50
0.0
 51
60.0
  0
ARC
  5
37E
330
1F
100
AcDbEntity
  8
PROFILES_OUTSIDE
100
AcDbCircle
 10
1682.6682800697
 20
828.710595606
 30
0.0
 40
19.04999999999995
100
AcDbArc
 50
180.0
 51
240.0
  0
ARC
  5
37F
330
1F
100
AcDbEntity
  8
PROFILES_OUTSIDE
100
AcDbCircle
 10
1588.6682800697
 20
967.9412622726
 30
0.0
 40
6.0
100
AcDbArc
 50
180.0
 51
270.0
  0
ARC
  5
380
330
1F
100
AcDbEntity
  8
PROFILES_OUTSIDE
100
AcDbCircle
 10
1763.7182800697
 20
949.9412622726
 30
0.0
 40
12.0
100
AcDbArc
 50
90.0
 51
180.0
  0
ARC
  5
381
330
1F
100
AcDbEntity
  8
PROFILES_OUTSIDE
100
AcDbCircle
 10
1595.5663259768
 20
975.4412622726
 30
0.0
 40
1.000000000000163
100
AcDbArc
 50
183.6619355755
 51
270.0
  0
ARC
  5
382
330
1F
100
AcDbEntity
  8
PROFILES_OUTSIDE
100
AcDbCircle
 10
1604.2060016863
 20
973.4412622726
 30
0.0
 40
1.0
100
AcDbArc
 50
65.1121079736
 51
90.0
  0
ARC
  5
383
330
1F
100
AcDbEntity
  8
PROFILES_OUTSIDE
100
AcDbCircle
 10
1606.8026099301
 20
979.0382726914
 30
0.0
 40
5.17000000000007
100
AcDbArc
 50
245.1121079736
 51
72.3995332141
  0
ARC
  5
384
330
1F
100
AcDbEntity
  8
PROFILES_OUTSIDE
100
AcDbCircle
 10
1608.6682800697
 20
984.9194439124
 30
0.0
 40
1.0
100
AcDbArc
 50
180.0
 51
252.3995332141
  0
ARC
  5
385
330
1F
100
AcDbEntity
  8
PROFILES_OUTSIDE
100
AcDbCircle
 10
1670.6682800697
 20
974.9432622726
 30
0.0
 40
12.0
100
AcDbArc
 50
0.0
 51
90.0
  0
ARC
  5
386
330
1F
100
AcDbEntity
  8
PROFILES_OUTSIDE
100
AcDbCircle
 10
1694.6682800697
 20
840.710595606
 30
0.0
 40
12.0
100
AcDbArc
 50
180.0
 51
270.0
  0
ARC
  5
387
330
1F
100
AcDbEntity
  8
PROFILES_OUTSIDE
100
AcDbCircle
 10
1720.6682800697
 20
840.710595606
 30
0.0
 40
12.00000000000023
100
AcDbArc
 50
270.0
 51
0.0
  0
ARC
  5
388
330
1F
100
AcDbEntity
  8
PROFILES_OUTSIDE
100
AcDbCircle
 10
1744.6682800697
 20
974.9432622726
 30
0.0
 40
12.0
100
AcDbArc
 50
90.0
 51
180.0
  0
ARC
  5
389
330
1F
100
AcDbEntity
  8
PROFILES_OUTSIDE
100
AcDbCircle
 10
1806.6682800697
 20
984.9194439124
 30
0.0
 40
0.9999999999997742
100
AcDbArc
 50
287.6004667859
 51
0.0
  0
ARC
  5
38A
330
1F
100
AcDbEntity
  8
PROFILES_OUTSIDE
100
AcDbCircle
 10
1808.5339502093
 20
979.0382726914
 30
0.0
 40
5.170000000000178
100
AcDbArc
 50
107.6004667859
 51
294.8878920264
  0
ARC
  5
38B
330
1F
100
AcDbEntity
  8
PROFILES_OUTSIDE
100
AcDbCircle
 10
1811.1305584531
 20
973.4412622726
 30
0.0
 40
1.0
100
AcDbArc
 50
90.0
 51
114.8878920264
  0
ARC
  5
38C
330
1F
100
AcDbEntity
  8
PROFILES_OUTSIDE
100
AcDbCircle
 10
1819.7702341626
 20
975.4412622726
 30
0.0
 40
1.000000000000156
100
AcDbArc
 50
270.0
 51
356.3380644245
  0
ARC
  5
38D
330
1F
100
AcDbEntity
  8
PROFILES_OUTSIDE
100
AcDbCircle
 10
1826.6682800697
 20
967.9412622726
 30
0.0
 40
6.0
100
AcDbArc
 50
270.0
 51
0.0
  0
ARC
  5
38E
330
1F
100
AcDbEntity
  8
PROFILES_OUTSIDE
100
AcDbCircle
 10
1763.7182800697
 20
561.2472622726
 30
0.0
 40
12.0
100
AcDbArc
 50
180.0
 51
270.0
  0
ARC
  5
38F
330
1F
100
AcDbEntity
  8
PROFILES_OUTSIDE
100
AcDbCircle
 10
1732.6682800697
 20
828.710595606
 30
0.0
 40
19.04999999999995
100
AcDbArc
 50
300.0
 51
0.0
  0
ARC
  5
390
330
1F
100
AcDbEntity
  8
PROFILES_OUTSIDE
100
AcDbCircle
 10
1751.7182800697
 20
795.7150277218
 30
0.0
 40
19.05000000000001
100
AcDbArc
 50
120.0
 51
180.0
  0
ARC
  5
391
330
1F
100
AcDbEntity
  8
PROFILES_OUTSIDE
100
AcDbCircle
 10
1751.7182800697
 20
715.4734968235
 30
0.0
 40
19.05000000000001
100
AcDbArc
 50
180.0
 51
240.0
  0
ARC
  5
392
330
1F
100
AcDbEntity
  8
PROFILES_OUTSIDE
100
AcDbCircle
 10
1732.6682800697
 20
682.4779289393
 30
0.0
 40
19.04999999999995
100
AcDbArc
 50
0.0
 51
60.0
  0
ARC
  5
393
330
1F
100
AcDbEntity
  8
PROFILES_OUTSIDE
100
AcDbCircle
 10
1826.6682800697
 20
543.2472622726
 30
0.0
 40
5.999999999999886
100
AcDbArc
 50
0.0
 51
90.0
  0
ARC
  5
394
330
1F
100
AcDbEntity
  8
PROFILES_OUTSIDE
100
AcDbCircle
 10
1831.6682800697
 20
531.4972622726
 30
0.0
 40
1.0
100
AcDbArc
 50
270.0
 51
0.0
  0
ENDSEC
  0
SECTION
  2
OBJECTS
  0
DICTIONARY
  5
C
330
0
100
AcDbDictionary
  3
ACAD_GROUP
350
D
  3
ACAD_MLINESTYLE
350
17
  3
ACAD_SCALELIST
350
47
  0
DICTIONARY
  5
D
102
{ACAD_REACTORS
330
C
102
}
330
C
100
AcDbDictionary
  0
DICTIONARY
  5
17
102
{ACAD_REACTORS
330
C
102
}
330
C
100
AcDbDictionary
  3
STANDARD
350
18
  0
DICTIONARY
  5
47
102
{ACAD_REACTORS
330
C
102
}
330
C
100
AcDbDictionary
  0
MLINESTYLE
  5
18
102
{ACAD_REACTORS
330
17
102
}
330
17
100
AcDbMlineStyle
  2
Standard
 70
     0
  3

 62
   256
 51
90.0
 52
90.0
 71
     2
 49
0.5
 62
   256
  6
BYLAYER
 49
-0.5
 62
   256
  6
BYLAYER
  0
ENDSEC
  0
EOF
